<svg xmlns="http://www.w3.org/2000/svg" xmlns:xlink="http://www.w3.org/1999/xlink" width="1366" zoomAndPan="magnify" viewBox="0 0 1024.5 195.000001" height="260" preserveAspectRatio="xMidYMid meet" version="1.0"><defs><g/><clipPath id="cc1ed21241"><path d="M 229.871094 5.386719 L 794.511719 5.386719 L 794.511719 193.847656 L 229.871094 193.847656 Z M 229.871094 5.386719 " clip-rule="nonzero"/></clipPath><clipPath id="5873371b20"><path d="M 242.554688 5.386719 L 781.445312 5.386719 C 788.453125 5.386719 794.132812 11.066406 794.132812 18.074219 L 794.132812 181.160156 C 794.132812 188.167969 788.453125 193.847656 781.445312 193.847656 L 242.554688 193.847656 C 235.550781 193.847656 229.871094 188.167969 229.871094 181.160156 L 229.871094 18.074219 C 229.871094 11.066406 235.550781 5.386719 242.554688 5.386719 Z M 242.554688 5.386719 " clip-rule="nonzero"/></clipPath><clipPath id="e250f1a3e8"><path d="M 0.871094 0.386719 L 565 0.386719 L 565 188.847656 L 0.871094 188.847656 Z M 0.871094 0.386719 " clip-rule="nonzero"/></clipPath><clipPath id="872d57562d"><path d="M 13.554688 0.386719 L 552.445312 0.386719 C 559.453125 0.386719 565.132812 6.066406 565.132812 13.074219 L 565.132812 176.160156 C 565.132812 183.167969 559.453125 188.847656 552.445312 188.847656 L 13.554688 188.847656 C 6.550781 188.847656 0.871094 183.167969 0.871094 176.160156 L 0.871094 13.074219 C 0.871094 6.066406 6.550781 0.386719 13.554688 0.386719 Z M 13.554688 0.386719 " clip-rule="nonzero"/></clipPath><clipPath id="f24060aa2d"><rect x="0" width="566" y="0" height="189"/></clipPath><clipPath id="190a3038a2"><path d="M 229.875 5.386719 L 793.980469 5.386719 L 793.980469 194 L 229.875 194 Z M 229.875 5.386719 " clip-rule="nonzero"/></clipPath><clipPath id="752c33c73e"><path d="M 242.558594 5.386719 L 781.441406 5.386719 C 788.445312 5.386719 794.125 11.066406 794.125 18.074219 L 794.125 181.160156 C 794.125 188.164062 788.445312 193.84375 781.441406 193.84375 L 242.558594 193.84375 C 235.554688 193.84375 229.875 188.164062 229.875 181.160156 L 229.875 18.074219 C 229.875 11.066406 235.554688 5.386719 242.558594 5.386719 Z M 242.558594 5.386719 " clip-rule="nonzero"/></clipPath><clipPath id="e762b1ca27"><path d="M 259.5 56.640625 L 345.789062 56.640625 L 345.789062 142.59375 L 259.5 142.59375 Z M 259.5 56.640625 " clip-rule="nonzero"/></clipPath><clipPath id="0bd8089f01"><path d="M 262.484375 56.640625 L 342.570312 56.640625 C 344.21875 56.640625 345.554688 57.976562 345.554688 59.625 L 345.554688 139.609375 C 345.554688 141.257812 344.21875 142.59375 342.570312 142.59375 L 262.484375 142.59375 C 260.835938 142.59375 259.5 141.257812 259.5 139.609375 L 259.5 59.625 C 259.5 57.976562 260.835938 56.640625 262.484375 56.640625 Z M 262.484375 56.640625 " clip-rule="nonzero"/></clipPath><clipPath id="cfe3b7c6d4"><path d="M 0.5 0.640625 L 86.722656 0.640625 L 86.722656 86.59375 L 0.5 86.59375 Z M 0.5 0.640625 " clip-rule="nonzero"/></clipPath><clipPath id="75a6ca8e0e"><path d="M 3.484375 0.640625 L 83.570312 0.640625 C 85.21875 0.640625 86.554688 1.976562 86.554688 3.625 L 86.554688 83.609375 C 86.554688 85.257812 85.21875 86.59375 83.570312 86.59375 L 3.484375 86.59375 C 1.835938 86.59375 0.5 85.257812 0.5 83.609375 L 0.5 3.625 C 0.5 1.976562 1.835938 0.640625 3.484375 0.640625 Z M 3.484375 0.640625 " clip-rule="nonzero"/></clipPath><clipPath id="b53f2651c8"><rect x="0" width="87" y="0" height="87"/></clipPath><clipPath id="a7ccea4cf6"><path d="M 259.5 56.640625 L 345.308594 56.640625 L 345.308594 142.449219 L 259.5 142.449219 Z M 259.5 56.640625 " clip-rule="nonzero"/></clipPath><clipPath id="14c38f7476"><path d="M 262.488281 56.640625 L 342.566406 56.640625 C 344.214844 56.640625 345.550781 57.976562 345.550781 59.625 L 345.550781 139.605469 C 345.550781 141.253906 344.214844 142.589844 342.566406 142.589844 L 262.488281 142.589844 C 260.839844 142.589844 259.5 141.253906 259.5 139.605469 L 259.5 59.625 C 259.5 57.976562 260.839844 56.640625 262.488281 56.640625 Z M 262.488281 56.640625 " clip-rule="nonzero"/></clipPath><clipPath id="d1ebef3763"><path d="M 391.835938 56.640625 L 510 56.640625 L 510 142.59375 L 391.835938 142.59375 Z M 391.835938 56.640625 " clip-rule="nonzero"/></clipPath><clipPath id="4356e1a671"><path d="M 410.140625 56.640625 L 491.652344 56.640625 C 496.507812 56.640625 501.164062 58.570312 504.597656 62.003906 C 508.03125 65.433594 509.957031 70.089844 509.957031 74.945312 L 509.957031 124.289062 C 509.957031 129.144531 508.03125 133.800781 504.597656 137.234375 C 501.164062 140.667969 496.507812 142.59375 491.652344 142.59375 L 410.140625 142.59375 C 405.285156 142.59375 400.628906 140.667969 397.195312 137.234375 C 393.765625 133.800781 391.835938 129.144531 391.835938 124.289062 L 391.835938 74.945312 C 391.835938 70.089844 393.765625 65.433594 397.195312 62.003906 C 400.628906 58.570312 405.285156 56.640625 410.140625 56.640625 Z M 410.140625 56.640625 " clip-rule="nonzero"/></clipPath><clipPath id="a6a0590668"><path d="M 0.835938 0.640625 L 119 0.640625 L 119 86.59375 L 0.835938 86.59375 Z M 0.835938 0.640625 " clip-rule="nonzero"/></clipPath><clipPath id="2e8d0d79bf"><path d="M 19.140625 0.640625 L 100.652344 0.640625 C 105.507812 0.640625 110.164062 2.570312 113.597656 6.003906 C 117.03125 9.433594 118.957031 14.089844 118.957031 18.945312 L 118.957031 68.289062 C 118.957031 73.144531 117.03125 77.800781 113.597656 81.234375 C 110.164062 84.667969 105.507812 86.59375 100.652344 86.59375 L 19.140625 86.59375 C 14.285156 86.59375 9.628906 84.667969 6.195312 81.234375 C 2.765625 77.800781 0.835938 73.144531 0.835938 68.289062 L 0.835938 18.945312 C 0.835938 14.089844 2.765625 9.433594 6.195312 6.003906 C 9.628906 2.570312 14.285156 0.640625 19.140625 0.640625 Z M 19.140625 0.640625 " clip-rule="nonzero"/></clipPath><clipPath id="ddad861f40"><rect x="0" width="119" y="0" height="87"/></clipPath><clipPath id="07cdf8e199"><path d="M 391.835938 56.640625 L 509.730469 56.640625 L 509.730469 142.449219 L 391.835938 142.449219 Z M 391.835938 56.640625 " clip-rule="nonzero"/></clipPath><clipPath id="43b34917d4"><path d="M 410.140625 56.640625 L 491.644531 56.640625 C 496.5 56.640625 501.15625 58.570312 504.589844 62 C 508.023438 65.433594 509.953125 70.089844 509.953125 74.945312 L 509.953125 124.285156 C 509.953125 129.140625 508.023438 133.796875 504.589844 137.226562 C 501.15625 140.660156 496.5 142.589844 491.644531 142.589844 L 410.140625 142.589844 C 405.285156 142.589844 400.628906 140.660156 397.195312 137.226562 C 393.765625 133.796875 391.835938 129.140625 391.835938 124.285156 L 391.835938 74.945312 C 391.835938 70.089844 393.765625 65.433594 397.195312 62 C 400.628906 58.570312 405.285156 56.640625 410.140625 56.640625 Z M 410.140625 56.640625 " clip-rule="nonzero"/></clipPath><clipPath id="09819f07c4"><path d="M 109.675781 15.351562 L 196.636719 15.351562 L 196.636719 184 L 109.675781 184 Z M 109.675781 15.351562 " clip-rule="nonzero"/></clipPath><clipPath id="970d5a3eb4"><path d="M 122.359375 15.351562 L 183.949219 15.351562 C 190.957031 15.351562 196.636719 21.03125 196.636719 28.039062 L 196.636719 171.195312 C 196.636719 178.203125 190.957031 183.882812 183.949219 183.882812 L 122.359375 183.882812 C 115.355469 183.882812 109.675781 178.203125 109.675781 171.195312 L 109.675781 28.039062 C 109.675781 21.03125 115.355469 15.351562 122.359375 15.351562 Z M 122.359375 15.351562 " clip-rule="nonzero"/></clipPath><clipPath id="3fb1af27ed"><path d="M 0.675781 0.351562 L 87.636719 0.351562 L 87.636719 169 L 0.675781 169 Z M 0.675781 0.351562 " clip-rule="nonzero"/></clipPath><clipPath id="f01be93302"><path d="M 13.359375 0.351562 L 74.949219 0.351562 C 81.957031 0.351562 87.636719 6.03125 87.636719 13.039062 L 87.636719 156.195312 C 87.636719 163.203125 81.957031 168.882812 74.949219 168.882812 L 13.359375 168.882812 C 6.355469 168.882812 0.675781 163.203125 0.675781 156.195312 L 0.675781 13.039062 C 0.675781 6.03125 6.355469 0.351562 13.359375 0.351562 Z M 13.359375 0.351562 " clip-rule="nonzero"/></clipPath><clipPath id="66cb170518"><rect x="0" width="88" y="0" height="169"/></clipPath><clipPath id="07b084236a"><path d="M 109.675781 15.355469 L 196.976562 15.355469 L 196.976562 183.988281 L 109.675781 183.988281 Z M 109.675781 15.355469 " clip-rule="nonzero"/></clipPath><clipPath id="a378f30ade"><path d="M 122.359375 15.355469 L 183.945312 15.355469 C 190.949219 15.355469 196.628906 21.035156 196.628906 28.039062 L 196.628906 171.1875 C 196.628906 178.191406 190.949219 183.871094 183.945312 183.871094 L 122.359375 183.871094 C 115.355469 183.871094 109.675781 178.191406 109.675781 171.1875 L 109.675781 28.039062 C 109.675781 21.035156 115.355469 15.355469 122.359375 15.355469 Z M 122.359375 15.355469 " clip-rule="nonzero"/></clipPath><clipPath id="38880eb3a4"><path d="M 828.152344 15.351562 L 915.109375 15.351562 L 915.109375 184 L 828.152344 184 Z M 828.152344 15.351562 " clip-rule="nonzero"/></clipPath><clipPath id="c64e39b861"><path d="M 840.835938 15.351562 L 902.425781 15.351562 C 909.429688 15.351562 915.109375 21.03125 915.109375 28.039062 L 915.109375 171.195312 C 915.109375 178.203125 909.429688 183.882812 902.425781 183.882812 L 840.835938 183.882812 C 833.828125 183.882812 828.152344 178.203125 828.152344 171.195312 L 828.152344 28.039062 C 828.152344 21.03125 833.828125 15.351562 840.835938 15.351562 Z M 840.835938 15.351562 " clip-rule="nonzero"/></clipPath><clipPath id="32dc84d69a"><path d="M 0.152344 0.351562 L 87.109375 0.351562 L 87.109375 169 L 0.152344 169 Z M 0.152344 0.351562 " clip-rule="nonzero"/></clipPath><clipPath id="e5718ae2c5"><path d="M 12.835938 0.351562 L 74.425781 0.351562 C 81.429688 0.351562 87.109375 6.03125 87.109375 13.039062 L 87.109375 156.195312 C 87.109375 163.203125 81.429688 168.882812 74.425781 168.882812 L 12.835938 168.882812 C 5.828125 168.882812 0.152344 163.203125 0.152344 156.195312 L 0.152344 13.039062 C 0.152344 6.03125 5.828125 0.351562 12.835938 0.351562 Z M 12.835938 0.351562 " clip-rule="nonzero"/></clipPath><clipPath id="9d6aa93e2b"><rect x="0" width="88" y="0" height="169"/></clipPath><clipPath id="3513d4e1c4"><path d="M 828.152344 15.355469 L 915.453125 15.355469 L 915.453125 183.988281 L 828.152344 183.988281 Z M 828.152344 15.355469 " clip-rule="nonzero"/></clipPath><clipPath id="cb9ad981e1"><path d="M 840.835938 15.355469 L 902.417969 15.355469 C 909.425781 15.355469 915.101562 21.035156 915.101562 28.039062 L 915.101562 171.1875 C 915.101562 178.191406 909.425781 183.871094 902.417969 183.871094 L 840.835938 183.871094 C 833.828125 183.871094 828.152344 178.191406 828.152344 171.1875 L 828.152344 28.039062 C 828.152344 21.035156 833.828125 15.355469 840.835938 15.355469 Z M 840.835938 15.355469 " clip-rule="nonzero"/></clipPath><clipPath id="63465a4dae"><path d="M 561.707031 52.828125 L 773.359375 52.828125 L 773.359375 146.40625 L 561.707031 146.40625 Z M 561.707031 52.828125 " clip-rule="nonzero"/></clipPath><clipPath id="a2979c0dd3"><path d="M 566.589844 52.828125 L 721.191406 52.828125 C 750.675781 52.828125 773.332031 73.777344 773.332031 99.617188 C 773.332031 125.460938 750.675781 146.40625 721.191406 146.40625 L 566.589844 146.40625 C 565.292969 146.40625 564.054688 145.894531 563.136719 144.976562 C 562.222656 144.0625 561.707031 142.820312 561.707031 141.527344 L 561.707031 57.710938 C 561.707031 56.414062 562.222656 55.171875 563.136719 54.257812 C 564.054688 53.34375 565.292969 52.828125 566.589844 52.828125 Z M 566.589844 52.828125 " clip-rule="nonzero"/></clipPath><clipPath id="b3ca87297f"><path d="M 0.707031 0.828125 L 212.359375 0.828125 L 212.359375 94.40625 L 0.707031 94.40625 Z M 0.707031 0.828125 " clip-rule="nonzero"/></clipPath><clipPath id="314936ae86"><path d="M 5.589844 0.828125 L 160.191406 0.828125 C 189.675781 0.828125 212.332031 21.777344 212.332031 47.617188 C 212.332031 73.460938 189.675781 94.40625 160.191406 94.40625 L 5.589844 94.40625 C 4.292969 94.40625 3.054688 93.894531 2.136719 92.976562 C 1.222656 92.0625 0.707031 90.820312 0.707031 89.527344 L 0.707031 5.710938 C 0.707031 4.414062 1.222656 3.171875 2.136719 2.257812 C 3.054688 1.34375 4.292969 0.828125 5.589844 0.828125 Z M 5.589844 0.828125 " clip-rule="nonzero"/></clipPath><clipPath id="f7455a09ff"><rect x="0" width="213" y="0" height="95"/></clipPath><clipPath id="2cf2c13920"><path d="M 561.710938 52.828125 L 773.621094 52.828125 L 773.621094 146.097656 L 561.710938 146.097656 Z M 561.710938 52.828125 " clip-rule="nonzero"/></clipPath><clipPath id="c7aeac51d8"><path d="M 566.59375 52.828125 L 721.1875 52.828125 C 750.667969 52.828125 773.324219 73.773438 773.324219 99.613281 C 773.324219 125.453125 750.667969 146.402344 721.1875 146.402344 L 566.59375 146.402344 C 565.296875 146.402344 564.054688 145.886719 563.140625 144.972656 C 562.226562 144.058594 561.710938 142.816406 561.710938 141.519531 L 561.710938 57.710938 C 561.710938 56.414062 562.226562 55.171875 563.140625 54.257812 C 564.054688 53.34375 565.296875 52.828125 566.59375 52.828125 Z M 566.59375 52.828125 " clip-rule="nonzero"/></clipPath></defs><g clip-path="url(#cc1ed21241)"><g clip-path="url(#5873371b20)"><g transform="matrix(1, 0, 0, 1, 229, 5)"><g clip-path="url(#f24060aa2d)"><g clip-path="url(#e250f1a3e8)"><g clip-path="url(#872d57562d)"><path fill="#f8f3ed" d="M 0.871094 0.386719 L 564.773438 0.386719 L 564.773438 188.847656 L 0.871094 188.847656 Z M 0.871094 0.386719 " fill-opacity="1" fill-rule="nonzero"/></g></g></g></g></g></g><g clip-path="url(#190a3038a2)"><g clip-path="url(#752c33c73e)"><path stroke-linecap="butt" transform="matrix(0.746173, 0, 0, 0.746173, 229.875597, 5.388402)" fill="none" stroke-linejoin="miter" d="M 16.997384 -0.00225618 L 739.192496 -0.00225618 C 748.578928 -0.00225618 756.19068 7.609496 756.19068 17.001163 L 756.19068 235.564205 C 756.19068 244.950637 748.578928 252.56239 739.192496 252.56239 L 16.997384 252.56239 C 7.610952 252.56239 -0.000800452 244.950637 -0.000800452 235.564205 L -0.000800452 17.001163 C -0.000800452 7.609496 7.610952 -0.00225618 16.997384 -0.00225618 Z M 16.997384 -0.00225618 " stroke="#efeae7" stroke-width="4" stroke-opacity="1" stroke-miterlimit="4"/></g></g><g fill="#000000" fill-opacity="1"><g transform="translate(454.866113, 32.89734)"><g><path d="M 6.476562 0.191406 C 8.5625 0.191406 10.394531 -0.90625 11.300781 -2.5625 L 10.3125 -3.121094 C 9.628906 -1.78125 8.148438 -0.890625 6.476562 -0.890625 C 3.660156 -0.890625 1.75 -2.976562 1.75 -5.570312 C 1.75 -8.164062 3.660156 -10.25 6.476562 -10.25 C 8.148438 -10.25 9.628906 -9.359375 10.3125 -8.023438 L 11.300781 -8.59375 C 10.378906 -10.25 8.546875 -11.332031 6.476562 -11.332031 C 3.054688 -11.332031 0.636719 -8.753906 0.636719 -5.570312 C 0.636719 -2.386719 3.054688 0.191406 6.476562 0.191406 Z M 6.476562 0.191406 "/></g></g></g><g fill="#000000" fill-opacity="1"><g transform="translate(466.722444, 32.89734)"><g><path d="M 4.824219 0.191406 C 7.144531 0.191406 9.007812 -1.625 9.007812 -3.980469 C 9.007812 -6.335938 7.144531 -8.148438 4.824219 -8.148438 C 2.5 -8.148438 0.636719 -6.335938 0.636719 -3.980469 C 0.636719 -1.625 2.5 0.191406 4.824219 0.191406 Z M 4.824219 -0.828125 C 3.054688 -0.828125 1.6875 -2.210938 1.6875 -3.980469 C 1.6875 -5.746094 3.054688 -7.128906 4.824219 -7.128906 C 6.589844 -7.128906 7.957031 -5.746094 7.957031 -3.980469 C 7.957031 -2.210938 6.589844 -0.828125 4.824219 -0.828125 Z M 4.824219 -0.828125 "/></g></g></g><g fill="#000000" fill-opacity="1"><g transform="translate(476.366658, 32.89734)"><g><path d="M 4.824219 0.191406 C 6.382812 0.191406 7.734375 -0.621094 8.386719 -1.878906 L 7.511719 -2.386719 C 7.003906 -1.464844 6.03125 -0.828125 4.824219 -0.828125 C 3.054688 -0.828125 1.6875 -2.210938 1.6875 -3.980469 C 1.6875 -5.746094 3.054688 -7.128906 4.824219 -7.128906 C 6.015625 -7.128906 7.019531 -6.507812 7.449219 -5.570312 L 8.308594 -6.0625 C 7.734375 -7.320312 6.398438 -8.148438 4.824219 -8.148438 C 2.417969 -8.148438 0.636719 -6.335938 0.636719 -3.980469 C 0.636719 -1.625 2.417969 0.191406 4.824219 0.191406 Z M 4.824219 0.191406 "/></g></g></g><g fill="#000000" fill-opacity="1"><g transform="translate(485.151491, 32.89734)"><g><path d="M 4.824219 0.191406 C 7.144531 0.191406 9.007812 -1.625 9.007812 -3.980469 C 9.007812 -6.335938 7.144531 -8.148438 4.824219 -8.148438 C 2.5 -8.148438 0.636719 -6.335938 0.636719 -3.980469 C 0.636719 -1.625 2.5 0.191406 4.824219 0.191406 Z M 4.824219 -0.828125 C 3.054688 -0.828125 1.6875 -2.210938 1.6875 -3.980469 C 1.6875 -5.746094 3.054688 -7.128906 4.824219 -7.128906 C 6.589844 -7.128906 7.957031 -5.746094 7.957031 -3.980469 C 7.957031 -2.210938 6.589844 -0.828125 4.824219 -0.828125 Z M 4.824219 -0.828125 "/></g></g></g><g fill="#000000" fill-opacity="1"><g transform="translate(494.795706, 32.89734)"><g><path d="M 1.273438 -11.140625 L 1.273438 0 L 2.386719 0 L 2.386719 -11.140625 Z M 1.273438 -11.140625 "/></g></g></g><g fill="#000000" fill-opacity="1"><g transform="translate(498.45605, 32.89734)"><g><path d="M 4.839844 -8.148438 C 3.707031 -8.148438 2.785156 -7.71875 2.164062 -6.714844 L 2.164062 -7.957031 L 1.113281 -7.957031 L 1.113281 0 L 2.164062 0 L 2.164062 -4.171875 C 2.164062 -6.300781 3.34375 -7.128906 4.742188 -7.128906 C 6.128906 -7.128906 6.90625 -6.300781 6.90625 -4.886719 L 6.90625 0 L 7.957031 0 L 7.957031 -4.886719 C 7.957031 -6.875 6.78125 -8.148438 4.839844 -8.148438 Z M 4.839844 -8.148438 "/></g></g></g><g fill="#000000" fill-opacity="1"><g transform="translate(507.336363, 32.89734)"><g><path d="M 7.957031 -11.140625 L 7.957031 -6.398438 C 7.289062 -7.464844 6.160156 -8.148438 4.742188 -8.148438 C 2.5 -8.148438 0.636719 -6.335938 0.636719 -3.980469 C 0.636719 -1.625 2.5 0.191406 4.742188 0.191406 C 6.160156 0.191406 7.289062 -0.492188 7.957031 -1.558594 L 7.957031 0 L 9.007812 0 L 9.007812 -11.140625 Z M 4.824219 -0.828125 C 3.054688 -0.828125 1.6875 -2.210938 1.6875 -3.980469 C 1.6875 -5.746094 3.054688 -7.128906 4.824219 -7.128906 C 6.589844 -7.128906 7.957031 -5.746094 7.957031 -3.980469 C 7.957031 -2.210938 6.589844 -0.828125 4.824219 -0.828125 Z M 4.824219 -0.828125 "/></g></g></g><g fill="#000000" fill-opacity="1"><g transform="translate(517.458014, 32.89734)"><g><path d="M 4.789062 -8.148438 C 2.324219 -8.148438 0.636719 -6.320312 0.636719 -3.980469 C 0.636719 -1.574219 2.355469 0.191406 4.871094 0.191406 C 6.476562 0.191406 7.703125 -0.558594 8.371094 -1.640625 L 7.449219 -2.179688 C 7.019531 -1.417969 6.144531 -0.828125 4.886719 -0.828125 C 3.199219 -0.828125 1.941406 -1.832031 1.71875 -3.453125 L 8.707031 -3.453125 C 8.722656 -3.613281 8.738281 -3.789062 8.738281 -3.945312 C 8.738281 -6.128906 7.226562 -8.148438 4.789062 -8.148438 Z M 4.789062 -7.128906 C 6.160156 -7.128906 7.433594 -6.222656 7.65625 -4.472656 L 1.71875 -4.472656 C 1.925781 -6.03125 3.121094 -7.128906 4.789062 -7.128906 Z M 4.789062 -7.128906 "/></g></g></g><g fill="#000000" fill-opacity="1"><g transform="translate(526.752107, 32.89734)"><g><path d="M 7.796875 0 L 4.695312 -4.121094 L 7.59375 -7.957031 L 6.335938 -7.957031 L 4.058594 -4.949219 L 1.78125 -7.957031 L 0.523438 -7.957031 L 3.4375 -4.121094 L 0.316406 0 L 1.574219 0 L 4.058594 -3.277344 L 6.542969 0 Z M 7.796875 0 "/></g></g></g><g fill="#000000" fill-opacity="1"><g transform="translate(534.868519, 32.89734)"><g/></g></g><g fill="#000000" fill-opacity="1"><g transform="translate(538.847151, 32.89734)"><g><path d="M 8.691406 0 L 9.867188 0 L 5.585938 -11.140625 L 4.441406 -11.140625 L 0.160156 0 L 1.335938 0 L 2.371094 -2.738281 L 7.65625 -2.738281 Z M 2.769531 -3.789062 L 5.011719 -9.757812 L 7.257812 -3.789062 Z M 2.769531 -3.789062 "/></g></g></g><g fill="#000000" fill-opacity="1"><g transform="translate(548.87331, 32.89734)"><g><path d="M 5.378906 -8.148438 C 3.964844 -8.148438 2.832031 -7.464844 2.164062 -6.398438 L 2.164062 -7.957031 L 1.113281 -7.957031 L 1.113281 3.183594 L 2.164062 3.183594 L 2.164062 -1.558594 C 2.832031 -0.492188 3.964844 0.191406 5.378906 0.191406 C 7.625 0.191406 9.484375 -1.625 9.484375 -3.980469 C 9.484375 -6.335938 7.625 -8.148438 5.378906 -8.148438 Z M 5.300781 -0.828125 C 3.535156 -0.828125 2.164062 -2.210938 2.164062 -3.980469 C 2.164062 -5.746094 3.535156 -7.128906 5.300781 -7.128906 C 7.066406 -7.128906 8.433594 -5.746094 8.433594 -3.980469 C 8.433594 -2.210938 7.066406 -0.828125 5.300781 -0.828125 Z M 5.300781 -0.828125 "/></g></g></g><g fill="#000000" fill-opacity="1"><g transform="translate(558.994961, 32.89734)"><g><path d="M 5.378906 -8.148438 C 3.964844 -8.148438 2.832031 -7.464844 2.164062 -6.398438 L 2.164062 -7.957031 L 1.113281 -7.957031 L 1.113281 3.183594 L 2.164062 3.183594 L 2.164062 -1.558594 C 2.832031 -0.492188 3.964844 0.191406 5.378906 0.191406 C 7.625 0.191406 9.484375 -1.625 9.484375 -3.980469 C 9.484375 -6.335938 7.625 -8.148438 5.378906 -8.148438 Z M 5.300781 -0.828125 C 3.535156 -0.828125 2.164062 -2.210938 2.164062 -3.980469 C 2.164062 -5.746094 3.535156 -7.128906 5.300781 -7.128906 C 7.066406 -7.128906 8.433594 -5.746094 8.433594 -3.980469 C 8.433594 -2.210938 7.066406 -0.828125 5.300781 -0.828125 Z M 5.300781 -0.828125 "/></g></g></g><g clip-path="url(#e762b1ca27)"><g clip-path="url(#0bd8089f01)"><g transform="matrix(1, 0, 0, 1, 259, 56)"><g clip-path="url(#b53f2651c8)"><g clip-path="url(#cfe3b7c6d4)"><g clip-path="url(#75a6ca8e0e)"><path fill="none" d="M 0.5 0.640625 L 86.453125 0.640625 L 86.453125 86.59375 L 0.5 86.59375 Z M 0.5 0.640625 " fill-opacity="1" fill-rule="nonzero"/></g></g></g></g></g></g><g clip-path="url(#a7ccea4cf6)"><g clip-path="url(#14c38f7476)"><path stroke-linecap="butt" transform="matrix(0.746173, 0, 0, 0.746173, 259.501844, 56.639959)" fill="none" stroke-linejoin="miter" d="M 4.002336 0.000893098 L 111.320709 0.000893098 C 113.529897 0.000893098 115.320282 1.791278 115.320282 4.000466 L 115.320282 111.187963 C 115.320282 113.397151 113.529897 115.187535 111.320709 115.187535 L 4.002336 115.187535 C 1.793148 115.187535 -0.0024717 113.397151 -0.0024717 111.187963 L -0.0024717 4.000466 C -0.0024717 1.791278 1.793148 0.000893098 4.002336 0.000893098 Z M 4.002336 0.000893098 " stroke="#000000" stroke-width="4" stroke-opacity="1" stroke-miterlimit="4"/></g></g><g fill="#000000" fill-opacity="1"><g transform="translate(281.348522, 93.948631)"><g><path d="M 2.386719 -1.050781 L 2.386719 -11.140625 L 1.273438 -11.140625 L 1.273438 0 L 7.480469 0 L 7.480469 -1.050781 Z M 2.386719 -1.050781 "/></g></g></g><g fill="#000000" fill-opacity="1"><g transform="translate(289.146647, 93.948631)"><g><path d="M 1.640625 -9.644531 C 2.070312 -9.644531 2.402344 -9.996094 2.402344 -10.410156 C 2.402344 -10.824219 2.070312 -11.171875 1.640625 -11.171875 C 1.210938 -11.171875 0.875 -10.824219 0.875 -10.410156 C 0.875 -9.996094 1.210938 -9.644531 1.640625 -9.644531 Z M 1.113281 0 L 2.164062 0 L 2.164062 -7.957031 L 1.113281 -7.957031 Z M 1.113281 0 "/></g></g></g><g fill="#000000" fill-opacity="1"><g transform="translate(292.425046, 93.948631)"><g><path d="M 1.941406 -5.871094 C 1.941406 -6.730469 2.785156 -7.128906 3.613281 -7.128906 C 4.375 -7.128906 5.1875 -6.828125 5.523438 -6.015625 L 6.398438 -6.527344 C 5.9375 -7.511719 4.917969 -8.148438 3.613281 -8.148438 C 2.019531 -8.148438 0.890625 -7.144531 0.890625 -5.871094 C 0.890625 -2.945312 5.539062 -4.074219 5.539062 -2.101562 C 5.539062 -1.160156 4.648438 -0.828125 3.707031 -0.828125 C 2.640625 -0.828125 1.8125 -1.351562 1.527344 -2.164062 L 0.636719 -1.640625 C 1.035156 -0.621094 2.117188 0.191406 3.707031 0.191406 C 5.410156 0.191406 6.589844 -0.746094 6.589844 -2.101562 C 6.589844 -5.03125 1.941406 -3.898438 1.941406 -5.871094 Z M 1.941406 -5.871094 "/></g></g></g><g fill="#000000" fill-opacity="1"><g transform="translate(299.331933, 93.948631)"><g><path d="M 5.332031 -6.9375 L 5.332031 -7.957031 L 3.039062 -7.957031 L 3.039062 -10.1875 L 1.988281 -9.867188 L 1.988281 -7.957031 L 0.316406 -7.957031 L 0.316406 -6.9375 L 1.988281 -6.9375 L 1.988281 -2.117188 C 1.988281 -0.207031 3.183594 0.316406 5.332031 0 L 5.332031 -0.921875 C 3.789062 -0.859375 3.039062 -0.746094 3.039062 -2.117188 L 3.039062 -6.9375 Z M 5.332031 -6.9375 "/></g></g></g><g fill="#000000" fill-opacity="1"><g transform="translate(305.299886, 93.948631)"><g/></g></g><g fill="#000000" fill-opacity="1"><g transform="translate(309.278517, 93.948631)"><g><path d="M 4.824219 0.191406 C 7.144531 0.191406 9.007812 -1.625 9.007812 -3.980469 C 9.007812 -6.335938 7.144531 -8.148438 4.824219 -8.148438 C 2.5 -8.148438 0.636719 -6.335938 0.636719 -3.980469 C 0.636719 -1.625 2.5 0.191406 4.824219 0.191406 Z M 4.824219 -0.828125 C 3.054688 -0.828125 1.6875 -2.210938 1.6875 -3.980469 C 1.6875 -5.746094 3.054688 -7.128906 4.824219 -7.128906 C 6.589844 -7.128906 7.957031 -5.746094 7.957031 -3.980469 C 7.957031 -2.210938 6.589844 -0.828125 4.824219 -0.828125 Z M 4.824219 -0.828125 "/></g></g></g><g fill="#000000" fill-opacity="1"><g transform="translate(318.60441, 93.948631)"><g><path d="M 5.09375 -10.3125 L 5.09375 -11.332031 C 2.945312 -11.492188 1.75 -10.34375 1.75 -8.277344 L 1.75 -7.957031 L 0.398438 -7.957031 L 0.398438 -6.9375 L 1.75 -6.9375 L 1.75 0 L 2.800781 0 L 2.800781 -6.9375 L 5.09375 -6.9375 L 5.09375 -7.957031 L 2.800781 -7.957031 L 2.800781 -8.277344 C 2.800781 -9.804688 3.550781 -10.441406 5.09375 -10.3125 Z M 5.09375 -10.3125 "/></g></g></g><g fill="#000000" fill-opacity="1"><g transform="translate(284.391511, 115.587661)"><g><path d="M 5.253906 -11.140625 L 1.273438 -11.140625 L 1.273438 0 L 2.386719 0 L 2.386719 -4.136719 L 5.253906 -4.136719 C 7.257812 -4.136719 8.753906 -5.648438 8.753906 -7.640625 C 8.753906 -9.644531 7.257812 -11.140625 5.253906 -11.140625 Z M 5.253906 -5.1875 L 2.386719 -5.1875 L 2.386719 -10.089844 L 5.253906 -10.089844 C 6.636719 -10.089844 7.640625 -9.070312 7.640625 -7.640625 C 7.640625 -6.222656 6.636719 -5.1875 5.253906 -5.1875 Z M 5.253906 -5.1875 "/></g></g></g><g fill="#000000" fill-opacity="1"><g transform="translate(293.781095, 115.587661)"><g><path d="M 5.570312 -11.140625 L 1.273438 -11.140625 L 1.273438 0 L 5.570312 0 C 8.640625 0 10.824219 -2.5 10.824219 -5.570312 C 10.824219 -8.640625 8.640625 -11.140625 5.570312 -11.140625 Z M 5.570312 -1.050781 L 2.386719 -1.050781 L 2.386719 -10.089844 L 5.570312 -10.089844 C 8.054688 -10.089844 9.742188 -8.070312 9.742188 -5.570312 C 9.742188 -3.070312 8.054688 -1.050781 5.570312 -1.050781 Z M 5.570312 -1.050781 "/></g></g></g><g fill="#000000" fill-opacity="1"><g transform="translate(305.239564, 115.587661)"><g><path d="M 7.558594 -10.089844 L 7.558594 -11.140625 L 1.273438 -11.140625 L 1.273438 0 L 2.386719 0 L 2.386719 -4.933594 L 7.320312 -4.933594 L 7.320312 -5.984375 L 2.386719 -5.984375 L 2.386719 -10.089844 Z M 7.558594 -10.089844 "/></g></g></g><g fill="#000000" fill-opacity="1"><g transform="translate(313.435551, 115.587661)"><g><path d="M 1.941406 -5.871094 C 1.941406 -6.730469 2.785156 -7.128906 3.613281 -7.128906 C 4.375 -7.128906 5.1875 -6.828125 5.523438 -6.015625 L 6.398438 -6.527344 C 5.9375 -7.511719 4.917969 -8.148438 3.613281 -8.148438 C 2.019531 -8.148438 0.890625 -7.144531 0.890625 -5.871094 C 0.890625 -2.945312 5.539062 -4.074219 5.539062 -2.101562 C 5.539062 -1.160156 4.648438 -0.828125 3.707031 -0.828125 C 2.640625 -0.828125 1.8125 -1.351562 1.527344 -2.164062 L 0.636719 -1.640625 C 1.035156 -0.621094 2.117188 0.191406 3.707031 0.191406 C 5.410156 0.191406 6.589844 -0.746094 6.589844 -2.101562 C 6.589844 -5.03125 1.941406 -3.898438 1.941406 -5.871094 Z M 1.941406 -5.871094 "/></g></g></g><path stroke-linecap="butt" transform="matrix(0.746173, -0.0000000000601535, 0.0000000000601535, 0.746173, 345.555434, 98.871437)" fill="none" stroke-linejoin="miter" d="M -0.00100083 0.999434 L 56.521758 0.999434 " stroke="#000000" stroke-width="2" stroke-opacity="1" stroke-miterlimit="4"/><path stroke-linecap="round" transform="matrix(0.746173, -0.0000000000601535, 0.0000000000601535, 0.746173, 345.555434, 98.871437)" fill-opacity="1" fill="#000000" fill-rule="nonzero" stroke-linejoin="round" d="M 57.024322 -2.000246 L 61.023895 0.999434 L 57.024322 3.999113 Z M 57.024322 -2.000246 " stroke="#000000" stroke-width="2" stroke-opacity="1" stroke-miterlimit="4"/><path stroke-linecap="butt" transform="matrix(0.746173, 0, 0, 0.746173, 196.635421, 98.871437)" fill="none" stroke-linejoin="miter" d="M 0.00173929 0.999434 L 78.747255 0.999434 " stroke="#89898d" stroke-width="2" stroke-opacity="1" stroke-miterlimit="4"/><path stroke-linecap="round" transform="matrix(0.746173, 0, 0, 0.746173, 196.635421, 98.871437)" fill-opacity="1" fill="#89898d" fill-rule="nonzero" stroke-linejoin="round" d="M 79.249819 -2.000246 L 83.249392 0.999434 L 79.249819 3.999113 Z M 79.249819 -2.000246 " stroke="#89898d" stroke-width="2" stroke-opacity="1" stroke-miterlimit="4"/><g clip-path="url(#d1ebef3763)"><g clip-path="url(#4356e1a671)"><g transform="matrix(1, 0, 0, 1, 391, 56)"><g clip-path="url(#ddad861f40)"><g clip-path="url(#a6a0590668)"><g clip-path="url(#2e8d0d79bf)"><path fill="none" d="M 0.835938 0.640625 L 119.023438 0.640625 L 119.023438 86.59375 L 0.835938 86.59375 Z M 0.835938 0.640625 " fill-opacity="1" fill-rule="nonzero"/></g></g></g></g></g></g><g clip-path="url(#07cdf8e199)"><g clip-path="url(#43b34917d4)"><path stroke-linecap="butt" transform="matrix(0.746173, 0, 0, 0.746173, 391.835327, 56.639959)" fill="none" stroke-linejoin="miter" d="M 24.532228 0.000893098 L 133.761391 0.000893098 C 140.268549 0.000893098 146.50872 2.587004 151.110323 7.183372 C 155.711925 11.784974 158.298036 18.025145 158.298036 24.532303 L 158.298036 90.656126 C 158.298036 97.163284 155.711925 103.403454 151.110323 107.999822 C 146.50872 112.601424 140.268549 115.187535 133.761391 115.187535 L 24.532228 115.187535 C 18.02507 115.187535 11.784899 112.601424 7.183297 107.999822 C 2.586929 103.403454 0.000818159 97.163284 0.000818159 90.656126 L 0.000818159 24.532303 C 0.000818159 18.025145 2.586929 11.784974 7.183297 7.183372 C 11.784899 2.587004 18.02507 0.000893098 24.532228 0.000893098 Z M 24.532228 0.000893098 " stroke="#000000" stroke-width="4" stroke-opacity="1" stroke-miterlimit="4"/></g></g><g fill="#000000" fill-opacity="1"><g transform="translate(411.340445, 82.756029)"><g><path d="M 6.476562 0.191406 C 8.5625 0.191406 10.394531 -0.90625 11.300781 -2.5625 L 10.3125 -3.121094 C 9.628906 -1.78125 8.148438 -0.890625 6.476562 -0.890625 C 3.660156 -0.890625 1.75 -2.976562 1.75 -5.570312 C 1.75 -8.164062 3.660156 -10.25 6.476562 -10.25 C 8.148438 -10.25 9.628906 -9.359375 10.3125 -8.023438 L 11.300781 -8.59375 C 10.378906 -10.25 8.546875 -11.332031 6.476562 -11.332031 C 3.054688 -11.332031 0.636719 -8.753906 0.636719 -5.570312 C 0.636719 -2.386719 3.054688 0.191406 6.476562 0.191406 Z M 6.476562 0.191406 "/></g></g></g><g fill="#000000" fill-opacity="1"><g transform="translate(423.117201, 82.756029)"><g><path d="M 4.824219 0.191406 C 7.144531 0.191406 9.007812 -1.625 9.007812 -3.980469 C 9.007812 -6.335938 7.144531 -8.148438 4.824219 -8.148438 C 2.5 -8.148438 0.636719 -6.335938 0.636719 -3.980469 C 0.636719 -1.625 2.5 0.191406 4.824219 0.191406 Z M 4.824219 -0.828125 C 3.054688 -0.828125 1.6875 -2.210938 1.6875 -3.980469 C 1.6875 -5.746094 3.054688 -7.128906 4.824219 -7.128906 C 6.589844 -7.128906 7.957031 -5.746094 7.957031 -3.980469 C 7.957031 -2.210938 6.589844 -0.828125 4.824219 -0.828125 Z M 4.824219 -0.828125 "/></g></g></g><g fill="#000000" fill-opacity="1"><g transform="translate(432.761416, 82.756029)"><g><path d="M 4.839844 -8.148438 C 3.707031 -8.148438 2.785156 -7.71875 2.164062 -6.714844 L 2.164062 -7.957031 L 1.113281 -7.957031 L 1.113281 0 L 2.164062 0 L 2.164062 -4.171875 C 2.164062 -6.300781 3.34375 -7.128906 4.742188 -7.128906 C 6.128906 -7.128906 6.90625 -6.300781 6.90625 -4.886719 L 6.90625 0 L 7.957031 0 L 7.957031 -4.886719 C 7.957031 -6.875 6.78125 -8.148438 4.839844 -8.148438 Z M 4.839844 -8.148438 "/></g></g></g><g fill="#000000" fill-opacity="1"><g transform="translate(441.562154, 82.756029)"><g><path d="M 6.84375 -7.957031 L 4.058594 -1.097656 L 1.273438 -7.957031 L 0.160156 -7.957031 L 3.421875 0 L 4.695312 0 L 7.957031 -7.957031 Z M 6.84375 -7.957031 "/></g></g></g><g fill="#000000" fill-opacity="1"><g transform="translate(449.360245, 82.756029)"><g><path d="M 4.789062 -8.148438 C 2.324219 -8.148438 0.636719 -6.320312 0.636719 -3.980469 C 0.636719 -1.574219 2.355469 0.191406 4.871094 0.191406 C 6.476562 0.191406 7.703125 -0.558594 8.371094 -1.640625 L 7.449219 -2.179688 C 7.019531 -1.417969 6.144531 -0.828125 4.886719 -0.828125 C 3.199219 -0.828125 1.941406 -1.832031 1.71875 -3.453125 L 8.707031 -3.453125 C 8.722656 -3.613281 8.738281 -3.789062 8.738281 -3.945312 C 8.738281 -6.128906 7.226562 -8.148438 4.789062 -8.148438 Z M 4.789062 -7.128906 C 6.160156 -7.128906 7.433594 -6.222656 7.65625 -4.472656 L 1.71875 -4.472656 C 1.925781 -6.03125 3.121094 -7.128906 4.789062 -7.128906 Z M 4.789062 -7.128906 "/></g></g></g><g fill="#000000" fill-opacity="1"><g transform="translate(458.654338, 82.756029)"><g><path d="M 2.164062 -6.636719 L 2.164062 -7.957031 L 1.113281 -7.957031 L 1.113281 0 L 2.164062 0 L 2.164062 -4.425781 C 2.164062 -6.398438 3.40625 -7.066406 4.679688 -7.066406 L 4.679688 -8.085938 C 3.660156 -8.085938 2.722656 -7.75 2.164062 -6.636719 Z M 2.164062 -6.636719 "/></g></g></g><g fill="#000000" fill-opacity="1"><g transform="translate(463.810661, 82.756029)"><g><path d="M 5.332031 -6.9375 L 5.332031 -7.957031 L 3.039062 -7.957031 L 3.039062 -10.1875 L 1.988281 -9.867188 L 1.988281 -7.957031 L 0.316406 -7.957031 L 0.316406 -6.9375 L 1.988281 -6.9375 L 1.988281 -2.117188 C 1.988281 -0.207031 3.183594 0.316406 5.332031 0 L 5.332031 -0.921875 C 3.789062 -0.859375 3.039062 -0.746094 3.039062 -2.117188 L 3.039062 -6.9375 Z M 5.332031 -6.9375 "/></g></g></g><g fill="#000000" fill-opacity="1"><g transform="translate(469.778614, 82.756029)"><g/></g></g><g fill="#000000" fill-opacity="1"><g transform="translate(473.757245, 82.756029)"><g><path d="M 7.957031 -7.957031 L 7.957031 -6.398438 C 7.289062 -7.464844 6.160156 -8.148438 4.742188 -8.148438 C 2.5 -8.148438 0.636719 -6.335938 0.636719 -3.980469 C 0.636719 -1.625 2.5 0.191406 4.742188 0.191406 C 6.160156 0.191406 7.289062 -0.492188 7.957031 -1.558594 L 7.957031 0 L 9.007812 0 L 9.007812 -7.957031 Z M 4.824219 -0.828125 C 3.054688 -0.828125 1.6875 -2.210938 1.6875 -3.980469 C 1.6875 -5.746094 3.054688 -7.128906 4.824219 -7.128906 C 6.589844 -7.128906 7.957031 -5.746094 7.957031 -3.980469 C 7.957031 -2.210938 6.589844 -0.828125 4.824219 -0.828125 Z M 4.824219 -0.828125 "/></g></g></g><g fill="#000000" fill-opacity="1"><g transform="translate(483.878896, 82.756029)"><g><path d="M 1.113281 0 L 2.164062 0 L 2.164062 -11.617188 L 1.113281 -11.617188 Z M 1.113281 0 "/></g></g></g><g fill="#000000" fill-opacity="1"><g transform="translate(487.157295, 82.756029)"><g><path d="M 1.113281 0 L 2.164062 0 L 2.164062 -11.617188 L 1.113281 -11.617188 Z M 1.113281 0 "/></g></g></g><g fill="#000000" fill-opacity="1"><g transform="translate(427.406492, 104.395059)"><g><path d="M 5.09375 -10.3125 L 5.09375 -11.332031 C 2.945312 -11.492188 1.75 -10.34375 1.75 -8.277344 L 1.75 -7.957031 L 0.398438 -7.957031 L 0.398438 -6.9375 L 1.75 -6.9375 L 1.75 0 L 2.800781 0 L 2.800781 -6.9375 L 5.09375 -6.9375 L 5.09375 -7.957031 L 2.800781 -7.957031 L 2.800781 -8.277344 C 2.800781 -9.804688 3.550781 -10.441406 5.09375 -10.3125 Z M 5.09375 -10.3125 "/></g></g></g><g fill="#000000" fill-opacity="1"><g transform="translate(432.499146, 104.395059)"><g><path d="M 1.640625 -9.644531 C 2.070312 -9.644531 2.402344 -9.996094 2.402344 -10.410156 C 2.402344 -10.824219 2.070312 -11.171875 1.640625 -11.171875 C 1.210938 -11.171875 0.875 -10.824219 0.875 -10.410156 C 0.875 -9.996094 1.210938 -9.644531 1.640625 -9.644531 Z M 1.113281 0 L 2.164062 0 L 2.164062 -7.957031 L 1.113281 -7.957031 Z M 1.113281 0 "/></g></g></g><g fill="#000000" fill-opacity="1"><g transform="translate(435.777545, 104.395059)"><g><path d="M 1.113281 0 L 2.164062 0 L 2.164062 -11.617188 L 1.113281 -11.617188 Z M 1.113281 0 "/></g></g></g><g fill="#000000" fill-opacity="1"><g transform="translate(439.055945, 104.395059)"><g><path d="M 4.789062 -8.148438 C 2.324219 -8.148438 0.636719 -6.320312 0.636719 -3.980469 C 0.636719 -1.574219 2.355469 0.191406 4.871094 0.191406 C 6.476562 0.191406 7.703125 -0.558594 8.371094 -1.640625 L 7.449219 -2.179688 C 7.019531 -1.417969 6.144531 -0.828125 4.886719 -0.828125 C 3.199219 -0.828125 1.941406 -1.832031 1.71875 -3.453125 L 8.707031 -3.453125 C 8.722656 -3.613281 8.738281 -3.789062 8.738281 -3.945312 C 8.738281 -6.128906 7.226562 -8.148438 4.789062 -8.148438 Z M 4.789062 -7.128906 C 6.160156 -7.128906 7.433594 -6.222656 7.65625 -4.472656 L 1.71875 -4.472656 C 1.925781 -6.03125 3.121094 -7.128906 4.789062 -7.128906 Z M 4.789062 -7.128906 "/></g></g></g><g fill="#000000" fill-opacity="1"><g transform="translate(448.031716, 104.395059)"><g><path d="M 1.941406 -5.871094 C 1.941406 -6.730469 2.785156 -7.128906 3.613281 -7.128906 C 4.375 -7.128906 5.1875 -6.828125 5.523438 -6.015625 L 6.398438 -6.527344 C 5.9375 -7.511719 4.917969 -8.148438 3.613281 -8.148438 C 2.019531 -8.148438 0.890625 -7.144531 0.890625 -5.871094 C 0.890625 -2.945312 5.539062 -4.074219 5.539062 -2.101562 C 5.539062 -1.160156 4.648438 -0.828125 3.707031 -0.828125 C 2.640625 -0.828125 1.8125 -1.351562 1.527344 -2.164062 L 0.636719 -1.640625 C 1.035156 -0.621094 2.117188 0.191406 3.707031 0.191406 C 5.410156 0.191406 6.589844 -0.746094 6.589844 -2.101562 C 6.589844 -5.03125 1.941406 -3.898438 1.941406 -5.871094 Z M 1.941406 -5.871094 "/></g></g></g><g fill="#000000" fill-opacity="1"><g transform="translate(455.256924, 104.395059)"><g/></g></g><g fill="#000000" fill-opacity="1"><g transform="translate(459.235555, 104.395059)"><g><path d="M 5.332031 -6.9375 L 5.332031 -7.957031 L 3.039062 -7.957031 L 3.039062 -10.1875 L 1.988281 -9.867188 L 1.988281 -7.957031 L 0.316406 -7.957031 L 0.316406 -6.9375 L 1.988281 -6.9375 L 1.988281 -2.117188 C 1.988281 -0.207031 3.183594 0.316406 5.332031 0 L 5.332031 -0.921875 C 3.789062 -0.859375 3.039062 -0.746094 3.039062 -2.117188 L 3.039062 -6.9375 Z M 5.332031 -6.9375 "/></g></g></g><g fill="#000000" fill-opacity="1"><g transform="translate(464.726037, 104.395059)"><g><path d="M 4.824219 0.191406 C 7.144531 0.191406 9.007812 -1.625 9.007812 -3.980469 C 9.007812 -6.335938 7.144531 -8.148438 4.824219 -8.148438 C 2.5 -8.148438 0.636719 -6.335938 0.636719 -3.980469 C 0.636719 -1.625 2.5 0.191406 4.824219 0.191406 Z M 4.824219 -0.828125 C 3.054688 -0.828125 1.6875 -2.210938 1.6875 -3.980469 C 1.6875 -5.746094 3.054688 -7.128906 4.824219 -7.128906 C 6.589844 -7.128906 7.957031 -5.746094 7.957031 -3.980469 C 7.957031 -2.210938 6.589844 -0.828125 4.824219 -0.828125 Z M 4.824219 -0.828125 "/></g></g></g><g fill="#000000" fill-opacity="1"><g transform="translate(413.135925, 126.034089)"><g><path d="M 11.460938 -11.140625 L 10.074219 -11.140625 L 6.367188 -4.933594 L 2.65625 -11.140625 L 1.273438 -11.140625 L 1.273438 0 L 2.386719 0 L 2.386719 -9.453125 L 6.285156 -2.929688 L 6.445312 -2.929688 L 10.34375 -9.453125 L 10.34375 0 L 11.460938 0 Z M 11.460938 -11.140625 "/></g></g></g><g fill="#000000" fill-opacity="1"><g transform="translate(425.867566, 126.034089)"><g><path d="M 7.957031 -7.957031 L 7.957031 -6.398438 C 7.289062 -7.464844 6.160156 -8.148438 4.742188 -8.148438 C 2.5 -8.148438 0.636719 -6.335938 0.636719 -3.980469 C 0.636719 -1.625 2.5 0.191406 4.742188 0.191406 C 6.160156 0.191406 7.289062 -0.492188 7.957031 -1.558594 L 7.957031 0 L 9.007812 0 L 9.007812 -7.957031 Z M 4.824219 -0.828125 C 3.054688 -0.828125 1.6875 -2.210938 1.6875 -3.980469 C 1.6875 -5.746094 3.054688 -7.128906 4.824219 -7.128906 C 6.589844 -7.128906 7.957031 -5.746094 7.957031 -3.980469 C 7.957031 -2.210938 6.589844 -0.828125 4.824219 -0.828125 Z M 4.824219 -0.828125 "/></g></g></g><g fill="#000000" fill-opacity="1"><g transform="translate(435.989217, 126.034089)"><g><path d="M 2.164062 -6.636719 L 2.164062 -7.957031 L 1.113281 -7.957031 L 1.113281 0 L 2.164062 0 L 2.164062 -4.425781 C 2.164062 -6.398438 3.40625 -7.066406 4.679688 -7.066406 L 4.679688 -8.085938 C 3.660156 -8.085938 2.722656 -7.75 2.164062 -6.636719 Z M 2.164062 -6.636719 "/></g></g></g><g fill="#000000" fill-opacity="1"><g transform="translate(440.986379, 126.034089)"><g><path d="M 7.542969 0 L 3.277344 -4.136719 L 7.386719 -7.957031 L 5.953125 -7.957031 L 2.164062 -4.441406 L 2.164062 -11.140625 L 1.113281 -11.140625 L 1.113281 0 L 2.164062 0 L 2.164062 -3.835938 L 6.144531 0 Z M 7.542969 0 "/></g></g></g><g fill="#000000" fill-opacity="1"><g transform="translate(448.052369, 126.034089)"><g><path d="M 7.957031 -11.140625 L 7.957031 -6.398438 C 7.289062 -7.464844 6.160156 -8.148438 4.742188 -8.148438 C 2.5 -8.148438 0.636719 -6.335938 0.636719 -3.980469 C 0.636719 -1.625 2.5 0.191406 4.742188 0.191406 C 6.160156 0.191406 7.289062 -0.492188 7.957031 -1.558594 L 7.957031 0 L 9.007812 0 L 9.007812 -11.140625 Z M 4.824219 -0.828125 C 3.054688 -0.828125 1.6875 -2.210938 1.6875 -3.980469 C 1.6875 -5.746094 3.054688 -7.128906 4.824219 -7.128906 C 6.589844 -7.128906 7.957031 -5.746094 7.957031 -3.980469 C 7.957031 -2.210938 6.589844 -0.828125 4.824219 -0.828125 Z M 4.824219 -0.828125 "/></g></g></g><g fill="#000000" fill-opacity="1"><g transform="translate(458.17402, 126.034089)"><g><path d="M 4.824219 0.191406 C 7.144531 0.191406 9.007812 -1.625 9.007812 -3.980469 C 9.007812 -6.335938 7.144531 -8.148438 4.824219 -8.148438 C 2.5 -8.148438 0.636719 -6.335938 0.636719 -3.980469 C 0.636719 -1.625 2.5 0.191406 4.824219 0.191406 Z M 4.824219 -0.828125 C 3.054688 -0.828125 1.6875 -2.210938 1.6875 -3.980469 C 1.6875 -5.746094 3.054688 -7.128906 4.824219 -7.128906 C 6.589844 -7.128906 7.957031 -5.746094 7.957031 -3.980469 C 7.957031 -2.210938 6.589844 -0.828125 4.824219 -0.828125 Z M 4.824219 -0.828125 "/></g></g></g><g fill="#000000" fill-opacity="1"><g transform="translate(467.499913, 126.034089)"><g><path d="M 10.695312 -7.957031 L 8.738281 -1.351562 L 6.652344 -7.957031 L 5.601562 -7.957031 L 3.515625 -1.351562 L 1.558594 -7.957031 L 0.476562 -7.957031 L 2.929688 0 L 4.074219 0 L 6.128906 -6.414062 L 8.179688 0 L 9.328125 0 L 11.777344 -7.957031 Z M 10.695312 -7.957031 "/></g></g></g><g fill="#000000" fill-opacity="1"><g transform="translate(479.754118, 126.034089)"><g><path d="M 4.839844 -8.148438 C 3.707031 -8.148438 2.785156 -7.71875 2.164062 -6.714844 L 2.164062 -7.957031 L 1.113281 -7.957031 L 1.113281 0 L 2.164062 0 L 2.164062 -4.171875 C 2.164062 -6.300781 3.34375 -7.128906 4.742188 -7.128906 C 6.128906 -7.128906 6.90625 -6.300781 6.90625 -4.886719 L 6.90625 0 L 7.957031 0 L 7.957031 -4.886719 C 7.957031 -6.875 6.78125 -8.148438 4.839844 -8.148438 Z M 4.839844 -8.148438 "/></g></g></g><g clip-path="url(#09819f07c4)"><g clip-path="url(#970d5a3eb4)"><g transform="matrix(1, 0, 0, 1, 109, 15)"><g clip-path="url(#66cb170518)"><g clip-path="url(#3fb1af27ed)"><g clip-path="url(#f01be93302)"><path fill="#e9f7ff" d="M 0.675781 0.351562 L 87.636719 0.351562 L 87.636719 168.839844 L 0.675781 168.839844 Z M 0.675781 0.351562 " fill-opacity="1" fill-rule="nonzero"/></g></g></g></g></g></g><g clip-path="url(#07b084236a)"><g clip-path="url(#a378f30ade)"><path stroke-linecap="butt" transform="matrix(0.746173, 0, 0, 0.746173, 109.675356, 15.355491)" fill="none" stroke-linejoin="miter" d="M 16.998755 -0.00002919 L 99.534442 -0.00002919 C 108.920874 -0.00002919 116.532626 7.611723 116.532626 16.998155 L 116.532626 208.841538 C 116.532626 218.22797 108.920874 225.839723 99.534442 225.839723 L 16.998755 225.839723 C 7.612323 225.839723 0.000570462 218.22797 0.000570462 208.841538 L 0.000570462 16.998155 C 0.000570462 7.611723 7.612323 -0.00002919 16.998755 -0.00002919 Z M 16.998755 -0.00002919 " stroke="#89898d" stroke-width="4" stroke-opacity="1" stroke-miterlimit="4"/></g></g><g fill="#000000" fill-opacity="1"><g transform="translate(134.578894, 93.701461)"><g><path d="M 5.570312 -11.140625 L 1.273438 -11.140625 L 1.273438 0 L 5.570312 0 C 8.640625 0 10.824219 -2.5 10.824219 -5.570312 C 10.824219 -8.640625 8.640625 -11.140625 5.570312 -11.140625 Z M 5.570312 -1.050781 L 2.386719 -1.050781 L 2.386719 -10.089844 L 5.570312 -10.089844 C 8.054688 -10.089844 9.742188 -8.070312 9.742188 -5.570312 C 9.742188 -3.070312 8.054688 -1.050781 5.570312 -1.050781 Z M 5.570312 -1.050781 "/></g></g></g><g fill="#000000" fill-opacity="1"><g transform="translate(146.037363, 93.701461)"><g><path d="M 2.164062 -6.636719 L 2.164062 -7.957031 L 1.113281 -7.957031 L 1.113281 0 L 2.164062 0 L 2.164062 -4.425781 C 2.164062 -6.398438 3.40625 -7.066406 4.679688 -7.066406 L 4.679688 -8.085938 C 3.660156 -8.085938 2.722656 -7.75 2.164062 -6.636719 Z M 2.164062 -6.636719 "/></g></g></g><g fill="#000000" fill-opacity="1"><g transform="translate(151.034526, 93.701461)"><g><path d="M 1.640625 -9.644531 C 2.070312 -9.644531 2.402344 -9.996094 2.402344 -10.410156 C 2.402344 -10.824219 2.070312 -11.171875 1.640625 -11.171875 C 1.210938 -11.171875 0.875 -10.824219 0.875 -10.410156 C 0.875 -9.996094 1.210938 -9.644531 1.640625 -9.644531 Z M 1.113281 0 L 2.164062 0 L 2.164062 -7.957031 L 1.113281 -7.957031 Z M 1.113281 0 "/></g></g></g><g fill="#000000" fill-opacity="1"><g transform="translate(154.312925, 93.701461)"><g><path d="M 6.84375 -7.957031 L 4.058594 -1.097656 L 1.273438 -7.957031 L 0.160156 -7.957031 L 3.421875 0 L 4.695312 0 L 7.957031 -7.957031 Z M 6.84375 -7.957031 "/></g></g></g><g fill="#000000" fill-opacity="1"><g transform="translate(162.429337, 93.701461)"><g><path d="M 4.789062 -8.148438 C 2.324219 -8.148438 0.636719 -6.320312 0.636719 -3.980469 C 0.636719 -1.574219 2.355469 0.191406 4.871094 0.191406 C 6.476562 0.191406 7.703125 -0.558594 8.371094 -1.640625 L 7.449219 -2.179688 C 7.019531 -1.417969 6.144531 -0.828125 4.886719 -0.828125 C 3.199219 -0.828125 1.941406 -1.832031 1.71875 -3.453125 L 8.707031 -3.453125 C 8.722656 -3.613281 8.738281 -3.789062 8.738281 -3.945312 C 8.738281 -6.128906 7.226562 -8.148438 4.789062 -8.148438 Z M 4.789062 -7.128906 C 6.160156 -7.128906 7.433594 -6.222656 7.65625 -4.472656 L 1.71875 -4.472656 C 1.925781 -6.03125 3.121094 -7.128906 4.789062 -7.128906 Z M 4.789062 -7.128906 "/></g></g></g><g fill="#000000" fill-opacity="1"><g transform="translate(130.381669, 115.340491)"><g><path d="M 7.558594 -10.089844 L 7.558594 -11.140625 L 1.273438 -11.140625 L 1.273438 0 L 2.386719 0 L 2.386719 -4.933594 L 7.320312 -4.933594 L 7.320312 -5.984375 L 2.386719 -5.984375 L 2.386719 -10.089844 Z M 7.558594 -10.089844 "/></g></g></g><g fill="#000000" fill-opacity="1"><g transform="translate(138.577656, 115.340491)"><g><path d="M 4.824219 0.191406 C 7.144531 0.191406 9.007812 -1.625 9.007812 -3.980469 C 9.007812 -6.335938 7.144531 -8.148438 4.824219 -8.148438 C 2.5 -8.148438 0.636719 -6.335938 0.636719 -3.980469 C 0.636719 -1.625 2.5 0.191406 4.824219 0.191406 Z M 4.824219 -0.828125 C 3.054688 -0.828125 1.6875 -2.210938 1.6875 -3.980469 C 1.6875 -5.746094 3.054688 -7.128906 4.824219 -7.128906 C 6.589844 -7.128906 7.957031 -5.746094 7.957031 -3.980469 C 7.957031 -2.210938 6.589844 -0.828125 4.824219 -0.828125 Z M 4.824219 -0.828125 "/></g></g></g><g fill="#000000" fill-opacity="1"><g transform="translate(148.22187, 115.340491)"><g><path d="M 1.113281 0 L 2.164062 0 L 2.164062 -11.617188 L 1.113281 -11.617188 Z M 1.113281 0 "/></g></g></g><g fill="#000000" fill-opacity="1"><g transform="translate(151.500269, 115.340491)"><g><path d="M 7.957031 -11.140625 L 7.957031 -6.398438 C 7.289062 -7.464844 6.160156 -8.148438 4.742188 -8.148438 C 2.5 -8.148438 0.636719 -6.335938 0.636719 -3.980469 C 0.636719 -1.625 2.5 0.191406 4.742188 0.191406 C 6.160156 0.191406 7.289062 -0.492188 7.957031 -1.558594 L 7.957031 0 L 9.007812 0 L 9.007812 -11.140625 Z M 4.824219 -0.828125 C 3.054688 -0.828125 1.6875 -2.210938 1.6875 -3.980469 C 1.6875 -5.746094 3.054688 -7.128906 4.824219 -7.128906 C 6.589844 -7.128906 7.957031 -5.746094 7.957031 -3.980469 C 7.957031 -2.210938 6.589844 -0.828125 4.824219 -0.828125 Z M 4.824219 -0.828125 "/></g></g></g><g fill="#000000" fill-opacity="1"><g transform="translate(161.62192, 115.340491)"><g><path d="M 4.789062 -8.148438 C 2.324219 -8.148438 0.636719 -6.320312 0.636719 -3.980469 C 0.636719 -1.574219 2.355469 0.191406 4.871094 0.191406 C 6.476562 0.191406 7.703125 -0.558594 8.371094 -1.640625 L 7.449219 -2.179688 C 7.019531 -1.417969 6.144531 -0.828125 4.886719 -0.828125 C 3.199219 -0.828125 1.941406 -1.832031 1.71875 -3.453125 L 8.707031 -3.453125 C 8.722656 -3.613281 8.738281 -3.789062 8.738281 -3.945312 C 8.738281 -6.128906 7.226562 -8.148438 4.789062 -8.148438 Z M 4.789062 -7.128906 C 6.160156 -7.128906 7.433594 -6.222656 7.65625 -4.472656 L 1.71875 -4.472656 C 1.925781 -6.03125 3.121094 -7.128906 4.789062 -7.128906 Z M 4.789062 -7.128906 "/></g></g></g><g fill="#000000" fill-opacity="1"><g transform="translate(170.916013, 115.340491)"><g><path d="M 2.164062 -6.636719 L 2.164062 -7.957031 L 1.113281 -7.957031 L 1.113281 0 L 2.164062 0 L 2.164062 -4.425781 C 2.164062 -6.398438 3.40625 -7.066406 4.679688 -7.066406 L 4.679688 -8.085938 C 3.660156 -8.085938 2.722656 -7.75 2.164062 -6.636719 Z M 2.164062 -6.636719 "/></g></g></g><g clip-path="url(#38880eb3a4)"><g clip-path="url(#c64e39b861)"><g transform="matrix(1, 0, 0, 1, 828, 15)"><g clip-path="url(#9d6aa93e2b)"><g clip-path="url(#32dc84d69a)"><g clip-path="url(#e5718ae2c5)"><path fill="#e9f7ff" d="M 0.152344 0.351562 L 87.109375 0.351562 L 87.109375 168.839844 L 0.152344 168.839844 Z M 0.152344 0.351562 " fill-opacity="1" fill-rule="nonzero"/></g></g></g></g></g></g><g clip-path="url(#3513d4e1c4)"><g clip-path="url(#cb9ad981e1)"><path stroke-linecap="butt" transform="matrix(0.746173, 0, 0, 0.746173, 828.15062, 15.355491)" fill="none" stroke-linejoin="miter" d="M 17.000495 -0.00002919 L 99.530946 -0.00002919 C 108.922613 -0.00002919 116.529131 7.611723 116.529131 16.998155 L 116.529131 208.841538 C 116.529131 218.22797 108.922613 225.839723 99.530946 225.839723 L 17.000495 225.839723 C 7.608828 225.839723 0.0023103 218.22797 0.0023103 208.841538 L 0.0023103 16.998155 C 0.0023103 7.611723 7.608828 -0.00002919 17.000495 -0.00002919 Z M 17.000495 -0.00002919 " stroke="#89898d" stroke-width="4" stroke-opacity="1" stroke-miterlimit="4"/></g></g><g fill="#000000" fill-opacity="1"><g transform="translate(847.073112, 93.701461)"><g><path d="M 8.277344 -11.140625 L 0.316406 -11.140625 L 0.316406 -10.089844 L 3.738281 -10.089844 L 3.738281 0 L 4.855469 0 L 4.855469 -10.089844 L 8.277344 -10.089844 Z M 8.277344 -11.140625 "/></g></g></g><g fill="#000000" fill-opacity="1"><g transform="translate(855.666961, 93.701461)"><g><path d="M 7.957031 -7.957031 L 7.957031 -6.398438 C 7.289062 -7.464844 6.160156 -8.148438 4.742188 -8.148438 C 2.5 -8.148438 0.636719 -6.335938 0.636719 -3.980469 C 0.636719 -1.625 2.5 0.191406 4.742188 0.191406 C 6.160156 0.191406 7.289062 -0.492188 7.957031 -1.558594 L 7.957031 0 L 9.007812 0 L 9.007812 -7.957031 Z M 4.824219 -0.828125 C 3.054688 -0.828125 1.6875 -2.210938 1.6875 -3.980469 C 1.6875 -5.746094 3.054688 -7.128906 4.824219 -7.128906 C 6.589844 -7.128906 7.957031 -5.746094 7.957031 -3.980469 C 7.957031 -2.210938 6.589844 -0.828125 4.824219 -0.828125 Z M 4.824219 -0.828125 "/></g></g></g><g fill="#000000" fill-opacity="1"><g transform="translate(865.788612, 93.701461)"><g><path d="M 2.164062 -6.636719 L 2.164062 -7.957031 L 1.113281 -7.957031 L 1.113281 0 L 2.164062 0 L 2.164062 -4.425781 C 2.164062 -6.398438 3.40625 -7.066406 4.679688 -7.066406 L 4.679688 -8.085938 C 3.660156 -8.085938 2.722656 -7.75 2.164062 -6.636719 Z M 2.164062 -6.636719 "/></g></g></g><g fill="#000000" fill-opacity="1"><g transform="translate(870.785774, 93.701461)"><g><path d="M 7.957031 -7.957031 L 7.957031 -6.398438 C 7.289062 -7.464844 6.160156 -8.148438 4.742188 -8.148438 C 2.5 -8.148438 0.636719 -6.335938 0.636719 -3.980469 C 0.636719 -1.625 2.5 0.191406 4.742188 0.191406 C 6.160156 0.191406 7.289062 -0.492188 7.957031 -1.558594 L 7.957031 -0.316406 C 7.957031 1.304688 6.859375 2.355469 5.011719 2.355469 C 3.292969 2.355469 2.5625 1.71875 2.164062 0.90625 L 1.242188 1.433594 C 1.863281 2.675781 3.183594 3.375 5.011719 3.375 C 7.066406 3.375 9.007812 2.101562 9.007812 -0.316406 L 9.007812 -7.957031 Z M 4.824219 -0.828125 C 3.054688 -0.828125 1.6875 -2.210938 1.6875 -3.980469 C 1.6875 -5.746094 3.054688 -7.128906 4.824219 -7.128906 C 6.589844 -7.128906 7.957031 -5.746094 7.957031 -3.980469 C 7.957031 -2.210938 6.589844 -0.828125 4.824219 -0.828125 Z M 4.824219 -0.828125 "/></g></g></g><g fill="#000000" fill-opacity="1"><g transform="translate(880.907425, 93.701461)"><g><path d="M 4.789062 -8.148438 C 2.324219 -8.148438 0.636719 -6.320312 0.636719 -3.980469 C 0.636719 -1.574219 2.355469 0.191406 4.871094 0.191406 C 6.476562 0.191406 7.703125 -0.558594 8.371094 -1.640625 L 7.449219 -2.179688 C 7.019531 -1.417969 6.144531 -0.828125 4.886719 -0.828125 C 3.199219 -0.828125 1.941406 -1.832031 1.71875 -3.453125 L 8.707031 -3.453125 C 8.722656 -3.613281 8.738281 -3.789062 8.738281 -3.945312 C 8.738281 -6.128906 7.226562 -8.148438 4.789062 -8.148438 Z M 4.789062 -7.128906 C 6.160156 -7.128906 7.433594 -6.222656 7.65625 -4.472656 L 1.71875 -4.472656 C 1.925781 -6.03125 3.121094 -7.128906 4.789062 -7.128906 Z M 4.789062 -7.128906 "/></g></g></g><g fill="#000000" fill-opacity="1"><g transform="translate(890.201518, 93.701461)"><g><path d="M 5.332031 -6.9375 L 5.332031 -7.957031 L 3.039062 -7.957031 L 3.039062 -10.1875 L 1.988281 -9.867188 L 1.988281 -7.957031 L 0.316406 -7.957031 L 0.316406 -6.9375 L 1.988281 -6.9375 L 1.988281 -2.117188 C 1.988281 -0.207031 3.183594 0.316406 5.332031 0 L 5.332031 -0.921875 C 3.789062 -0.859375 3.039062 -0.746094 3.039062 -2.117188 L 3.039062 -6.9375 Z M 5.332031 -6.9375 "/></g></g></g><g fill="#000000" fill-opacity="1"><g transform="translate(844.986158, 115.340491)"><g><path d="M 4.773438 0.191406 C 7.003906 0.191406 8.53125 -1.019531 8.53125 -2.929688 C 8.53125 -4.996094 6.714844 -5.570312 4.695312 -6.238281 C 3.183594 -6.730469 2.226562 -7.113281 2.226562 -8.324219 C 2.226562 -9.550781 3.199219 -10.25 4.535156 -10.25 C 6 -10.25 6.859375 -9.40625 7.273438 -8.402344 L 8.210938 -8.929688 C 7.640625 -10.25 6.367188 -11.332031 4.535156 -11.332031 C 2.691406 -11.332031 1.113281 -10.234375 1.113281 -8.277344 C 1.113281 -6.222656 2.863281 -5.746094 4.679688 -5.140625 C 6.320312 -4.601562 7.417969 -4.1875 7.417969 -2.898438 C 7.417969 -1.703125 6.476562 -0.890625 4.789062 -0.890625 C 3.039062 -0.890625 1.988281 -1.75 1.589844 -3.085938 L 0.636719 -2.53125 C 1.210938 -0.84375 2.722656 0.191406 4.773438 0.191406 Z M 4.773438 0.191406 "/></g></g></g><g fill="#000000" fill-opacity="1"><g transform="translate(854.152936, 115.340491)"><g><path d="M 6.84375 -7.957031 L 4.265625 -1.289062 L 1.273438 -7.957031 L 0.160156 -7.957031 L 3.722656 0.046875 L 3.515625 0.542969 C 3.085938 1.574219 2.371094 2.308594 1.335938 2.195312 L 1.335938 3.183594 C 2.769531 3.292969 3.945312 2.261719 4.550781 0.730469 L 7.957031 -7.957031 Z M 6.84375 -7.957031 "/></g></g></g><g fill="#000000" fill-opacity="1"><g transform="translate(862.269348, 115.340491)"><g><path d="M 1.941406 -5.871094 C 1.941406 -6.730469 2.785156 -7.128906 3.613281 -7.128906 C 4.375 -7.128906 5.1875 -6.828125 5.523438 -6.015625 L 6.398438 -6.527344 C 5.9375 -7.511719 4.917969 -8.148438 3.613281 -8.148438 C 2.019531 -8.148438 0.890625 -7.144531 0.890625 -5.871094 C 0.890625 -2.945312 5.539062 -4.074219 5.539062 -2.101562 C 5.539062 -1.160156 4.648438 -0.828125 3.707031 -0.828125 C 2.640625 -0.828125 1.8125 -1.351562 1.527344 -2.164062 L 0.636719 -1.640625 C 1.035156 -0.621094 2.117188 0.191406 3.707031 0.191406 C 5.410156 0.191406 6.589844 -0.746094 6.589844 -2.101562 C 6.589844 -5.03125 1.941406 -3.898438 1.941406 -5.871094 Z M 1.941406 -5.871094 "/></g></g></g><g fill="#000000" fill-opacity="1"><g transform="translate(869.494556, 115.340491)"><g><path d="M 5.332031 -6.9375 L 5.332031 -7.957031 L 3.039062 -7.957031 L 3.039062 -10.1875 L 1.988281 -9.867188 L 1.988281 -7.957031 L 0.316406 -7.957031 L 0.316406 -6.9375 L 1.988281 -6.9375 L 1.988281 -2.117188 C 1.988281 -0.207031 3.183594 0.316406 5.332031 0 L 5.332031 -0.921875 C 3.789062 -0.859375 3.039062 -0.746094 3.039062 -2.117188 L 3.039062 -6.9375 Z M 5.332031 -6.9375 "/></g></g></g><g fill="#000000" fill-opacity="1"><g transform="translate(875.462509, 115.340491)"><g><path d="M 4.789062 -8.148438 C 2.324219 -8.148438 0.636719 -6.320312 0.636719 -3.980469 C 0.636719 -1.574219 2.355469 0.191406 4.871094 0.191406 C 6.476562 0.191406 7.703125 -0.558594 8.371094 -1.640625 L 7.449219 -2.179688 C 7.019531 -1.417969 6.144531 -0.828125 4.886719 -0.828125 C 3.199219 -0.828125 1.941406 -1.832031 1.71875 -3.453125 L 8.707031 -3.453125 C 8.722656 -3.613281 8.738281 -3.789062 8.738281 -3.945312 C 8.738281 -6.128906 7.226562 -8.148438 4.789062 -8.148438 Z M 4.789062 -7.128906 C 6.160156 -7.128906 7.433594 -6.222656 7.65625 -4.472656 L 1.71875 -4.472656 C 1.925781 -6.03125 3.121094 -7.128906 4.789062 -7.128906 Z M 4.789062 -7.128906 "/></g></g></g><g fill="#000000" fill-opacity="1"><g transform="translate(884.756601, 115.340491)"><g><path d="M 9.597656 -8.148438 C 8.578125 -8.148438 7.609375 -7.6875 7.019531 -6.699219 C 6.574219 -7.625 5.714844 -8.148438 4.601562 -8.148438 C 3.644531 -8.148438 2.785156 -7.765625 2.164062 -6.796875 L 2.164062 -7.957031 L 1.113281 -7.957031 L 1.113281 0 L 2.164062 0 L 2.164062 -4.410156 C 2.164062 -6.382812 3.308594 -7.128906 4.457031 -7.128906 C 5.585938 -7.128906 6.320312 -6.382812 6.320312 -4.964844 L 6.320312 0 L 7.367188 0 L 7.367188 -4.410156 C 7.367188 -6.382812 8.355469 -7.128906 9.582031 -7.128906 C 10.710938 -7.128906 11.523438 -6.382812 11.523438 -4.964844 L 11.523438 0 L 12.574219 0 L 12.574219 -4.964844 C 12.574219 -6.957031 11.347656 -8.148438 9.597656 -8.148438 Z M 9.597656 -8.148438 "/></g></g></g><path stroke-linecap="butt" transform="matrix(0.746173, 0.0000000000537959, -0.0000000000537959, 0.746173, 509.958721, 98.871437)" fill="none" stroke-linejoin="miter" d="M -0.00226439 0.999434 L 63.854789 0.999434 " stroke="#000000" stroke-width="2" stroke-opacity="1" stroke-miterlimit="4"/><path stroke-linecap="round" transform="matrix(0.746173, 0.0000000000537959, -0.0000000000537959, 0.746173, 509.958721, 98.871437)" fill-opacity="1" fill="#000000" fill-rule="nonzero" stroke-linejoin="round" d="M 64.352118 -2.000246 L 68.351691 0.999434 L 64.352118 3.999113 Z M 64.352118 -2.000246 " stroke="#000000" stroke-width="2" stroke-opacity="1" stroke-miterlimit="4"/><g clip-path="url(#63465a4dae)"><g clip-path="url(#a2979c0dd3)"><g transform="matrix(1, 0, 0, 1, 561, 52)"><g clip-path="url(#f7455a09ff)"><g clip-path="url(#b3ca87297f)"><g clip-path="url(#314936ae86)"><path fill="none" d="M 0.707031 0.828125 L 212.359375 0.828125 L 212.359375 94.40625 L 0.707031 94.40625 Z M 0.707031 0.828125 " fill-opacity="1" fill-rule="nonzero"/></g></g></g></g></g></g><g clip-path="url(#2cf2c13920)"><g clip-path="url(#c7aeac51d8)"><path stroke-linecap="butt" transform="matrix(0.746173, 0, 0, 0.746173, 561.711329, 52.827619)" fill="none" stroke-linejoin="miter" d="M 6.543279 0.000678402 L 213.725352 0.000678402 C 253.234223 0.000678402 283.597474 28.07098 283.597474 62.700792 C 283.597474 97.330603 253.234223 125.40614 213.725352 125.40614 L 6.543279 125.40614 C 4.805245 125.40614 3.140501 124.715114 1.915501 123.490114 C 0.690501 122.265114 -0.000524661 120.60037 -0.000524661 118.862336 L -0.000524661 6.544482 C -0.000524661 4.806448 0.690501 3.141704 1.915501 1.916704 C 3.140501 0.691704 4.805245 0.000678402 6.543279 0.000678402 Z M 6.543279 0.000678402 " stroke="#000000" stroke-width="4" stroke-opacity="1" stroke-miterlimit="4"/></g></g><g fill="#000000" fill-opacity="1"><g transform="translate(584.48926, 93.867158)"><g><path d="M 2.386719 -1.050781 L 2.386719 -11.140625 L 1.273438 -11.140625 L 1.273438 0 L 7.480469 0 L 7.480469 -1.050781 Z M 2.386719 -1.050781 "/></g></g></g><g fill="#000000" fill-opacity="1"><g transform="translate(592.287385, 93.867158)"><g><path d="M 1.640625 -9.644531 C 2.070312 -9.644531 2.402344 -9.996094 2.402344 -10.410156 C 2.402344 -10.824219 2.070312 -11.171875 1.640625 -11.171875 C 1.210938 -11.171875 0.875 -10.824219 0.875 -10.410156 C 0.875 -9.996094 1.210938 -9.644531 1.640625 -9.644531 Z M 1.113281 0 L 2.164062 0 L 2.164062 -7.957031 L 1.113281 -7.957031 Z M 1.113281 0 "/></g></g></g><g fill="#000000" fill-opacity="1"><g transform="translate(595.565784, 93.867158)"><g><path d="M 1.941406 -5.871094 C 1.941406 -6.730469 2.785156 -7.128906 3.613281 -7.128906 C 4.375 -7.128906 5.1875 -6.828125 5.523438 -6.015625 L 6.398438 -6.527344 C 5.9375 -7.511719 4.917969 -8.148438 3.613281 -8.148438 C 2.019531 -8.148438 0.890625 -7.144531 0.890625 -5.871094 C 0.890625 -2.945312 5.539062 -4.074219 5.539062 -2.101562 C 5.539062 -1.160156 4.648438 -0.828125 3.707031 -0.828125 C 2.640625 -0.828125 1.8125 -1.351562 1.527344 -2.164062 L 0.636719 -1.640625 C 1.035156 -0.621094 2.117188 0.191406 3.707031 0.191406 C 5.410156 0.191406 6.589844 -0.746094 6.589844 -2.101562 C 6.589844 -5.03125 1.941406 -3.898438 1.941406 -5.871094 Z M 1.941406 -5.871094 "/></g></g></g><g fill="#000000" fill-opacity="1"><g transform="translate(602.790992, 93.867158)"><g><path d="M 5.332031 -6.9375 L 5.332031 -7.957031 L 3.039062 -7.957031 L 3.039062 -10.1875 L 1.988281 -9.867188 L 1.988281 -7.957031 L 0.316406 -7.957031 L 0.316406 -6.9375 L 1.988281 -6.9375 L 1.988281 -2.117188 C 1.988281 -0.207031 3.183594 0.316406 5.332031 0 L 5.332031 -0.921875 C 3.789062 -0.859375 3.039062 -0.746094 3.039062 -2.117188 L 3.039062 -6.9375 Z M 5.332031 -6.9375 "/></g></g></g><g fill="#000000" fill-opacity="1"><g transform="translate(608.758945, 93.867158)"><g/></g></g><g fill="#000000" fill-opacity="1"><g transform="translate(612.737576, 93.867158)"><g><path d="M 4.824219 0.191406 C 7.144531 0.191406 9.007812 -1.625 9.007812 -3.980469 C 9.007812 -6.335938 7.144531 -8.148438 4.824219 -8.148438 C 2.5 -8.148438 0.636719 -6.335938 0.636719 -3.980469 C 0.636719 -1.625 2.5 0.191406 4.824219 0.191406 Z M 4.824219 -0.828125 C 3.054688 -0.828125 1.6875 -2.210938 1.6875 -3.980469 C 1.6875 -5.746094 3.054688 -7.128906 4.824219 -7.128906 C 6.589844 -7.128906 7.957031 -5.746094 7.957031 -3.980469 C 7.957031 -2.210938 6.589844 -0.828125 4.824219 -0.828125 Z M 4.824219 -0.828125 "/></g></g></g><g fill="#000000" fill-opacity="1"><g transform="translate(622.381791, 93.867158)"><g><path d="M 5.09375 -10.3125 L 5.09375 -11.332031 C 2.945312 -11.492188 1.75 -10.34375 1.75 -8.277344 L 1.75 -7.957031 L 0.398438 -7.957031 L 0.398438 -6.9375 L 1.75 -6.9375 L 1.75 0 L 2.800781 0 L 2.800781 -6.9375 L 5.09375 -6.9375 L 5.09375 -7.957031 L 2.800781 -7.957031 L 2.800781 -8.277344 C 2.800781 -9.804688 3.550781 -10.441406 5.09375 -10.3125 Z M 5.09375 -10.3125 "/></g></g></g><g fill="#000000" fill-opacity="1"><g transform="translate(627.474445, 93.867158)"><g/></g></g><g fill="#000000" fill-opacity="1"><g transform="translate(631.453076, 93.867158)"><g><path d="M 11.460938 -11.140625 L 10.074219 -11.140625 L 6.367188 -4.933594 L 2.65625 -11.140625 L 1.273438 -11.140625 L 1.273438 0 L 2.386719 0 L 2.386719 -9.453125 L 6.285156 -2.929688 L 6.445312 -2.929688 L 10.34375 -9.453125 L 10.34375 0 L 11.460938 0 Z M 11.460938 -11.140625 "/></g></g></g><g fill="#000000" fill-opacity="1"><g transform="translate(644.184717, 93.867158)"><g><path d="M 7.957031 -7.957031 L 7.957031 -6.398438 C 7.289062 -7.464844 6.160156 -8.148438 4.742188 -8.148438 C 2.5 -8.148438 0.636719 -6.335938 0.636719 -3.980469 C 0.636719 -1.625 2.5 0.191406 4.742188 0.191406 C 6.160156 0.191406 7.289062 -0.492188 7.957031 -1.558594 L 7.957031 0 L 9.007812 0 L 9.007812 -7.957031 Z M 4.824219 -0.828125 C 3.054688 -0.828125 1.6875 -2.210938 1.6875 -3.980469 C 1.6875 -5.746094 3.054688 -7.128906 4.824219 -7.128906 C 6.589844 -7.128906 7.957031 -5.746094 7.957031 -3.980469 C 7.957031 -2.210938 6.589844 -0.828125 4.824219 -0.828125 Z M 4.824219 -0.828125 "/></g></g></g><g fill="#000000" fill-opacity="1"><g transform="translate(654.306368, 93.867158)"><g><path d="M 2.164062 -6.636719 L 2.164062 -7.957031 L 1.113281 -7.957031 L 1.113281 0 L 2.164062 0 L 2.164062 -4.425781 C 2.164062 -6.398438 3.40625 -7.066406 4.679688 -7.066406 L 4.679688 -8.085938 C 3.660156 -8.085938 2.722656 -7.75 2.164062 -6.636719 Z M 2.164062 -6.636719 "/></g></g></g><g fill="#000000" fill-opacity="1"><g transform="translate(659.303531, 93.867158)"><g><path d="M 7.542969 0 L 3.277344 -4.136719 L 7.386719 -7.957031 L 5.953125 -7.957031 L 2.164062 -4.441406 L 2.164062 -11.140625 L 1.113281 -11.140625 L 1.113281 0 L 2.164062 0 L 2.164062 -3.835938 L 6.144531 0 Z M 7.542969 0 "/></g></g></g><g fill="#000000" fill-opacity="1"><g transform="translate(667.165313, 93.867158)"><g><path d="M 7.957031 -11.140625 L 7.957031 -6.398438 C 7.289062 -7.464844 6.160156 -8.148438 4.742188 -8.148438 C 2.5 -8.148438 0.636719 -6.335938 0.636719 -3.980469 C 0.636719 -1.625 2.5 0.191406 4.742188 0.191406 C 6.160156 0.191406 7.289062 -0.492188 7.957031 -1.558594 L 7.957031 0 L 9.007812 0 L 9.007812 -11.140625 Z M 4.824219 -0.828125 C 3.054688 -0.828125 1.6875 -2.210938 1.6875 -3.980469 C 1.6875 -5.746094 3.054688 -7.128906 4.824219 -7.128906 C 6.589844 -7.128906 7.957031 -5.746094 7.957031 -3.980469 C 7.957031 -2.210938 6.589844 -0.828125 4.824219 -0.828125 Z M 4.824219 -0.828125 "/></g></g></g><g fill="#000000" fill-opacity="1"><g transform="translate(677.286964, 93.867158)"><g><path d="M 4.824219 0.191406 C 7.144531 0.191406 9.007812 -1.625 9.007812 -3.980469 C 9.007812 -6.335938 7.144531 -8.148438 4.824219 -8.148438 C 2.5 -8.148438 0.636719 -6.335938 0.636719 -3.980469 C 0.636719 -1.625 2.5 0.191406 4.824219 0.191406 Z M 4.824219 -0.828125 C 3.054688 -0.828125 1.6875 -2.210938 1.6875 -3.980469 C 1.6875 -5.746094 3.054688 -7.128906 4.824219 -7.128906 C 6.589844 -7.128906 7.957031 -5.746094 7.957031 -3.980469 C 7.957031 -2.210938 6.589844 -0.828125 4.824219 -0.828125 Z M 4.824219 -0.828125 "/></g></g></g><g fill="#000000" fill-opacity="1"><g transform="translate(686.931179, 93.867158)"><g><path d="M 10.695312 -7.957031 L 8.738281 -1.351562 L 6.652344 -7.957031 L 5.601562 -7.957031 L 3.515625 -1.351562 L 1.558594 -7.957031 L 0.476562 -7.957031 L 2.929688 0 L 4.074219 0 L 6.128906 -6.414062 L 8.179688 0 L 9.328125 0 L 11.777344 -7.957031 Z M 10.695312 -7.957031 "/></g></g></g><g fill="#000000" fill-opacity="1"><g transform="translate(699.185383, 93.867158)"><g><path d="M 4.839844 -8.148438 C 3.707031 -8.148438 2.785156 -7.71875 2.164062 -6.714844 L 2.164062 -7.957031 L 1.113281 -7.957031 L 1.113281 0 L 2.164062 0 L 2.164062 -4.171875 C 2.164062 -6.300781 3.34375 -7.128906 4.742188 -7.128906 C 6.128906 -7.128906 6.90625 -6.300781 6.90625 -4.886719 L 6.90625 0 L 7.957031 0 L 7.957031 -4.886719 C 7.957031 -6.875 6.78125 -8.148438 4.839844 -8.148438 Z M 4.839844 -8.148438 "/></g></g></g><g fill="#000000" fill-opacity="1"><g transform="translate(578.076832, 115.506188)"><g><path d="M 2.707031 1.589844 L 3.757812 1.589844 C 2.640625 -0.636719 2.003906 -3.023438 2.003906 -5.570312 C 2.003906 -8.117188 2.640625 -10.503906 3.757812 -12.734375 L 2.707031 -12.734375 C 1.589844 -10.503906 0.953125 -8.117188 0.953125 -5.570312 C 0.953125 -3.023438 1.589844 -0.636719 2.707031 1.589844 Z M 2.707031 1.589844 "/></g></g></g><g fill="#000000" fill-opacity="1"><g transform="translate(582.310104, 115.506188)"><g><path d="M 5.09375 -10.3125 L 5.09375 -11.332031 C 2.945312 -11.492188 1.75 -10.34375 1.75 -8.277344 L 1.75 -7.957031 L 0.398438 -7.957031 L 0.398438 -6.9375 L 1.75 -6.9375 L 1.75 0 L 2.800781 0 L 2.800781 -6.9375 L 5.09375 -6.9375 L 5.09375 -7.957031 L 2.800781 -7.957031 L 2.800781 -8.277344 C 2.800781 -9.804688 3.550781 -10.441406 5.09375 -10.3125 Z M 5.09375 -10.3125 "/></g></g></g><g fill="#000000" fill-opacity="1"><g transform="translate(587.402759, 115.506188)"><g><path d="M 1.640625 -9.644531 C 2.070312 -9.644531 2.402344 -9.996094 2.402344 -10.410156 C 2.402344 -10.824219 2.070312 -11.171875 1.640625 -11.171875 C 1.210938 -11.171875 0.875 -10.824219 0.875 -10.410156 C 0.875 -9.996094 1.210938 -9.644531 1.640625 -9.644531 Z M 1.113281 0 L 2.164062 0 L 2.164062 -7.957031 L 1.113281 -7.957031 Z M 1.113281 0 "/></g></g></g><g fill="#000000" fill-opacity="1"><g transform="translate(590.681158, 115.506188)"><g><path d="M 1.113281 0 L 2.164062 0 L 2.164062 -11.617188 L 1.113281 -11.617188 Z M 1.113281 0 "/></g></g></g><g fill="#000000" fill-opacity="1"><g transform="translate(593.959557, 115.506188)"><g><path d="M 4.789062 -8.148438 C 2.324219 -8.148438 0.636719 -6.320312 0.636719 -3.980469 C 0.636719 -1.574219 2.355469 0.191406 4.871094 0.191406 C 6.476562 0.191406 7.703125 -0.558594 8.371094 -1.640625 L 7.449219 -2.179688 C 7.019531 -1.417969 6.144531 -0.828125 4.886719 -0.828125 C 3.199219 -0.828125 1.941406 -1.832031 1.71875 -3.453125 L 8.707031 -3.453125 C 8.722656 -3.613281 8.738281 -3.789062 8.738281 -3.945312 C 8.738281 -6.128906 7.226562 -8.148438 4.789062 -8.148438 Z M 4.789062 -7.128906 C 6.160156 -7.128906 7.433594 -6.222656 7.65625 -4.472656 L 1.71875 -4.472656 C 1.925781 -6.03125 3.121094 -7.128906 4.789062 -7.128906 Z M 4.789062 -7.128906 "/></g></g></g><g fill="#000000" fill-opacity="1"><g transform="translate(603.25365, 115.506188)"><g><path d="M 4.839844 -8.148438 C 3.707031 -8.148438 2.785156 -7.71875 2.164062 -6.714844 L 2.164062 -7.957031 L 1.113281 -7.957031 L 1.113281 0 L 2.164062 0 L 2.164062 -4.171875 C 2.164062 -6.300781 3.34375 -7.128906 4.742188 -7.128906 C 6.128906 -7.128906 6.90625 -6.300781 6.90625 -4.886719 L 6.90625 0 L 7.957031 0 L 7.957031 -4.886719 C 7.957031 -6.875 6.78125 -8.148438 4.839844 -8.148438 Z M 4.839844 -8.148438 "/></g></g></g><g fill="#000000" fill-opacity="1"><g transform="translate(612.133963, 115.506188)"><g><path d="M 7.957031 -7.957031 L 7.957031 -6.398438 C 7.289062 -7.464844 6.160156 -8.148438 4.742188 -8.148438 C 2.5 -8.148438 0.636719 -6.335938 0.636719 -3.980469 C 0.636719 -1.625 2.5 0.191406 4.742188 0.191406 C 6.160156 0.191406 7.289062 -0.492188 7.957031 -1.558594 L 7.957031 0 L 9.007812 0 L 9.007812 -7.957031 Z M 4.824219 -0.828125 C 3.054688 -0.828125 1.6875 -2.210938 1.6875 -3.980469 C 1.6875 -5.746094 3.054688 -7.128906 4.824219 -7.128906 C 6.589844 -7.128906 7.957031 -5.746094 7.957031 -3.980469 C 7.957031 -2.210938 6.589844 -0.828125 4.824219 -0.828125 Z M 4.824219 -0.828125 "/></g></g></g><g fill="#000000" fill-opacity="1"><g transform="translate(622.255614, 115.506188)"><g><path d="M 9.597656 -8.148438 C 8.578125 -8.148438 7.609375 -7.6875 7.019531 -6.699219 C 6.574219 -7.625 5.714844 -8.148438 4.601562 -8.148438 C 3.644531 -8.148438 2.785156 -7.765625 2.164062 -6.796875 L 2.164062 -7.957031 L 1.113281 -7.957031 L 1.113281 0 L 2.164062 0 L 2.164062 -4.410156 C 2.164062 -6.382812 3.308594 -7.128906 4.457031 -7.128906 C 5.585938 -7.128906 6.320312 -6.382812 6.320312 -4.964844 L 6.320312 0 L 7.367188 0 L 7.367188 -4.410156 C 7.367188 -6.382812 8.355469 -7.128906 9.582031 -7.128906 C 10.710938 -7.128906 11.523438 -6.382812 11.523438 -4.964844 L 11.523438 0 L 12.574219 0 L 12.574219 -4.964844 C 12.574219 -6.957031 11.347656 -8.148438 9.597656 -8.148438 Z M 9.597656 -8.148438 "/></g></g></g><g fill="#000000" fill-opacity="1"><g transform="translate(635.751145, 115.506188)"><g><path d="M 4.789062 -8.148438 C 2.324219 -8.148438 0.636719 -6.320312 0.636719 -3.980469 C 0.636719 -1.574219 2.355469 0.191406 4.871094 0.191406 C 6.476562 0.191406 7.703125 -0.558594 8.371094 -1.640625 L 7.449219 -2.179688 C 7.019531 -1.417969 6.144531 -0.828125 4.886719 -0.828125 C 3.199219 -0.828125 1.941406 -1.832031 1.71875 -3.453125 L 8.707031 -3.453125 C 8.722656 -3.613281 8.738281 -3.789062 8.738281 -3.945312 C 8.738281 -6.128906 7.226562 -8.148438 4.789062 -8.148438 Z M 4.789062 -7.128906 C 6.160156 -7.128906 7.433594 -6.222656 7.65625 -4.472656 L 1.71875 -4.472656 C 1.925781 -6.03125 3.121094 -7.128906 4.789062 -7.128906 Z M 4.789062 -7.128906 "/></g></g></g><g fill="#000000" fill-opacity="1"><g transform="translate(645.045238, 115.506188)"><g><path d="M 2.863281 -1.351562 L 1.589844 -1.351562 L 0.953125 2.226562 L 1.910156 2.226562 Z M 2.863281 -1.351562 "/></g></g></g><g fill="#000000" fill-opacity="1"><g transform="translate(648.864731, 115.506188)"><g/></g></g><g fill="#000000" fill-opacity="1"><g transform="translate(652.843363, 115.506188)"><g><path d="M 4.824219 0.191406 C 6.382812 0.191406 7.734375 -0.621094 8.386719 -1.878906 L 7.511719 -2.386719 C 7.003906 -1.464844 6.03125 -0.828125 4.824219 -0.828125 C 3.054688 -0.828125 1.6875 -2.210938 1.6875 -3.980469 C 1.6875 -5.746094 3.054688 -7.128906 4.824219 -7.128906 C 6.015625 -7.128906 7.019531 -6.507812 7.449219 -5.570312 L 8.308594 -6.0625 C 7.734375 -7.320312 6.398438 -8.148438 4.824219 -8.148438 C 2.417969 -8.148438 0.636719 -6.335938 0.636719 -3.980469 C 0.636719 -1.625 2.417969 0.191406 4.824219 0.191406 Z M 4.824219 0.191406 "/></g></g></g><g fill="#000000" fill-opacity="1"><g transform="translate(661.628196, 115.506188)"><g><path d="M 4.824219 0.191406 C 7.144531 0.191406 9.007812 -1.625 9.007812 -3.980469 C 9.007812 -6.335938 7.144531 -8.148438 4.824219 -8.148438 C 2.5 -8.148438 0.636719 -6.335938 0.636719 -3.980469 C 0.636719 -1.625 2.5 0.191406 4.824219 0.191406 Z M 4.824219 -0.828125 C 3.054688 -0.828125 1.6875 -2.210938 1.6875 -3.980469 C 1.6875 -5.746094 3.054688 -7.128906 4.824219 -7.128906 C 6.589844 -7.128906 7.957031 -5.746094 7.957031 -3.980469 C 7.957031 -2.210938 6.589844 -0.828125 4.824219 -0.828125 Z M 4.824219 -0.828125 "/></g></g></g><g fill="#000000" fill-opacity="1"><g transform="translate(671.27241, 115.506188)"><g><path d="M 4.839844 -8.148438 C 3.707031 -8.148438 2.785156 -7.71875 2.164062 -6.714844 L 2.164062 -7.957031 L 1.113281 -7.957031 L 1.113281 0 L 2.164062 0 L 2.164062 -4.171875 C 2.164062 -6.300781 3.34375 -7.128906 4.742188 -7.128906 C 6.128906 -7.128906 6.90625 -6.300781 6.90625 -4.886719 L 6.90625 0 L 7.957031 0 L 7.957031 -4.886719 C 7.957031 -6.875 6.78125 -8.148438 4.839844 -8.148438 Z M 4.839844 -8.148438 "/></g></g></g><g fill="#000000" fill-opacity="1"><g transform="translate(680.152723, 115.506188)"><g><path d="M 5.332031 -6.9375 L 5.332031 -7.957031 L 3.039062 -7.957031 L 3.039062 -10.1875 L 1.988281 -9.867188 L 1.988281 -7.957031 L 0.316406 -7.957031 L 0.316406 -6.9375 L 1.988281 -6.9375 L 1.988281 -2.117188 C 1.988281 -0.207031 3.183594 0.316406 5.332031 0 L 5.332031 -0.921875 C 3.789062 -0.859375 3.039062 -0.746094 3.039062 -2.117188 L 3.039062 -6.9375 Z M 5.332031 -6.9375 "/></g></g></g><g fill="#000000" fill-opacity="1"><g transform="translate(686.120676, 115.506188)"><g><path d="M 4.789062 -8.148438 C 2.324219 -8.148438 0.636719 -6.320312 0.636719 -3.980469 C 0.636719 -1.574219 2.355469 0.191406 4.871094 0.191406 C 6.476562 0.191406 7.703125 -0.558594 8.371094 -1.640625 L 7.449219 -2.179688 C 7.019531 -1.417969 6.144531 -0.828125 4.886719 -0.828125 C 3.199219 -0.828125 1.941406 -1.832031 1.71875 -3.453125 L 8.707031 -3.453125 C 8.722656 -3.613281 8.738281 -3.789062 8.738281 -3.945312 C 8.738281 -6.128906 7.226562 -8.148438 4.789062 -8.148438 Z M 4.789062 -7.128906 C 6.160156 -7.128906 7.433594 -6.222656 7.65625 -4.472656 L 1.71875 -4.472656 C 1.925781 -6.03125 3.121094 -7.128906 4.789062 -7.128906 Z M 4.789062 -7.128906 "/></g></g></g><g fill="#000000" fill-opacity="1"><g transform="translate(695.414769, 115.506188)"><g><path d="M 4.839844 -8.148438 C 3.707031 -8.148438 2.785156 -7.71875 2.164062 -6.714844 L 2.164062 -7.957031 L 1.113281 -7.957031 L 1.113281 0 L 2.164062 0 L 2.164062 -4.171875 C 2.164062 -6.300781 3.34375 -7.128906 4.742188 -7.128906 C 6.128906 -7.128906 6.90625 -6.300781 6.90625 -4.886719 L 6.90625 0 L 7.957031 0 L 7.957031 -4.886719 C 7.957031 -6.875 6.78125 -8.148438 4.839844 -8.148438 Z M 4.839844 -8.148438 "/></g></g></g><g fill="#000000" fill-opacity="1"><g transform="translate(704.295082, 115.506188)"><g><path d="M 5.332031 -6.9375 L 5.332031 -7.957031 L 3.039062 -7.957031 L 3.039062 -10.1875 L 1.988281 -9.867188 L 1.988281 -7.957031 L 0.316406 -7.957031 L 0.316406 -6.9375 L 1.988281 -6.9375 L 1.988281 -2.117188 C 1.988281 -0.207031 3.183594 0.316406 5.332031 0 L 5.332031 -0.921875 C 3.789062 -0.859375 3.039062 -0.746094 3.039062 -2.117188 L 3.039062 -6.9375 Z M 5.332031 -6.9375 "/></g></g></g><g fill="#000000" fill-opacity="1"><g transform="translate(710.263035, 115.506188)"><g><path d="M 1.527344 1.589844 C 2.640625 -0.636719 3.277344 -3.023438 3.277344 -5.570312 C 3.277344 -8.117188 2.640625 -10.503906 1.527344 -12.734375 L 0.476562 -12.734375 C 1.589844 -10.503906 2.226562 -8.117188 2.226562 -5.570312 C 2.226562 -3.023438 1.589844 -0.636719 0.476562 1.589844 Z M 1.527344 1.589844 "/></g></g></g><path fill="#89898d" d="M 773.332031 98.871094 L 774.824219 98.871094 L 774.824219 100.363281 L 773.332031 100.363281 M 776.320312 98.871094 L 777.8125 98.871094 L 777.8125 100.363281 L 776.320312 100.363281 M 779.304688 98.871094 L 780.796875 98.871094 L 780.796875 100.363281 L 779.304688 100.363281 M 782.289062 98.871094 L 783.78125 98.871094 L 783.78125 100.363281 L 782.289062 100.363281 M 785.273438 98.871094 L 786.765625 98.871094 L 786.765625 100.363281 L 785.273438 100.363281 M 788.257812 98.871094 L 789.75 98.871094 L 789.75 100.363281 L 788.257812 100.363281 M 791.242188 98.871094 L 792.734375 98.871094 L 792.734375 100.363281 L 791.242188 100.363281 M 794.226562 98.871094 L 795.71875 98.871094 L 795.71875 100.363281 L 794.226562 100.363281 M 797.210938 98.871094 L 798.703125 98.871094 L 798.703125 100.363281 L 797.210938 100.363281 M 800.195312 98.871094 L 801.6875 98.871094 L 801.6875 100.363281 L 800.195312 100.363281 M 803.179688 98.871094 L 804.671875 98.871094 L 804.671875 100.363281 L 803.179688 100.363281 M 806.164062 98.871094 L 807.65625 98.871094 L 807.65625 100.363281 L 806.164062 100.363281 M 809.148438 98.871094 L 810.640625 98.871094 L 810.640625 100.363281 L 809.148438 100.363281 M 812.136719 98.871094 L 813.628906 98.871094 L 813.628906 100.363281 L 812.136719 100.363281 M 815.121094 98.871094 L 816.613281 98.871094 L 816.613281 100.363281 L 815.121094 100.363281 M 818.105469 98.871094 L 819.597656 98.871094 L 819.597656 100.363281 L 818.105469 100.363281 M 821.089844 98.871094 L 822.582031 98.871094 L 822.582031 100.363281 L 821.089844 100.363281 " fill-opacity="1" fill-rule="nonzero"/><path stroke-linecap="round" transform="matrix(0.746173, -0.0000000000170454, 0.0000000000170454, 0.746173, 773.333758, 98.871437)" fill-opacity="1" fill="#89898d" fill-rule="nonzero" stroke-linejoin="round" d="M 68.461577 -2.000246 L 72.466385 0.999434 L 68.461577 3.999113 Z M 68.461577 -2.000246 " stroke="#89898d" stroke-width="2" stroke-opacity="1" stroke-miterlimit="4"/></svg>