<svg xmlns="http://www.w3.org/2000/svg" xmlns:xlink="http://www.w3.org/1999/xlink" width="783" zoomAndPan="magnify" viewBox="0 0 587.25 153.000002" height="204" preserveAspectRatio="xMidYMid meet" version="1.0"><defs><g/><clipPath id="f386690b8f"><path d="M 98.191406 0 L 488.308594 0 L 488.308594 151.546875 L 98.191406 151.546875 Z M 98.191406 0 " clip-rule="nonzero"/></clipPath><clipPath id="6282ee45e3"><path d="M 110.855469 0 L 475.539062 0 C 482.535156 0 488.203125 5.671875 488.203125 12.667969 L 488.203125 138.882812 C 488.203125 145.878906 482.535156 151.546875 475.539062 151.546875 L 110.855469 151.546875 C 103.859375 151.546875 98.191406 145.878906 98.191406 138.882812 L 98.191406 12.667969 C 98.191406 5.671875 103.859375 0 110.855469 0 Z M 110.855469 0 " clip-rule="nonzero"/></clipPath><clipPath id="34e059fd23"><path d="M 0.191406 0 L 390.308594 0 L 390.308594 151.546875 L 0.191406 151.546875 Z M 0.191406 0 " clip-rule="nonzero"/></clipPath><clipPath id="3394e3a86a"><path d="M 12.855469 0 L 377.539062 0 C 384.535156 0 390.203125 5.671875 390.203125 12.667969 L 390.203125 138.882812 C 390.203125 145.878906 384.535156 151.546875 377.539062 151.546875 L 12.855469 151.546875 C 5.859375 151.546875 0.191406 145.878906 0.191406 138.882812 L 0.191406 12.667969 C 0.191406 5.671875 5.859375 0 12.855469 0 Z M 12.855469 0 " clip-rule="nonzero"/></clipPath><clipPath id="e55f33f03c"><rect x="0" width="391" y="0" height="152"/></clipPath><clipPath id="31e4449fdd"><path d="M 98.195312 0 L 487.890625 0 L 487.890625 151.261719 L 98.195312 151.261719 Z M 98.195312 0 " clip-rule="nonzero"/></clipPath><clipPath id="dbd89c225a"><path d="M 110.863281 0 L 475.523438 0 C 482.519531 0 488.191406 5.671875 488.191406 12.667969 L 488.191406 138.875 C 488.191406 145.871094 482.519531 151.539062 475.523438 151.539062 L 110.863281 151.539062 C 103.867188 151.539062 98.195312 145.871094 98.195312 138.875 L 98.195312 12.667969 C 98.195312 5.671875 103.867188 0 110.863281 0 Z M 110.863281 0 " clip-rule="nonzero"/></clipPath><clipPath id="47eec1332c"><path d="M 122.015625 41.214844 L 191.40625 41.214844 L 191.40625 110.335938 L 122.015625 110.335938 Z M 122.015625 41.214844 " clip-rule="nonzero"/></clipPath><clipPath id="7429ac86e6"><path d="M 124.996094 41.214844 L 188.234375 41.214844 C 189.882812 41.214844 191.214844 42.546875 191.214844 44.195312 L 191.214844 107.355469 C 191.214844 109 189.882812 110.335938 188.234375 110.335938 L 124.996094 110.335938 C 123.347656 110.335938 122.015625 109 122.015625 107.355469 L 122.015625 44.195312 C 122.015625 42.546875 123.347656 41.214844 124.996094 41.214844 Z M 124.996094 41.214844 " clip-rule="nonzero"/></clipPath><clipPath id="ab3288e19d"><path d="M 0.015625 0.214844 L 69.332031 0.214844 L 69.332031 69.335938 L 0.015625 69.335938 Z M 0.015625 0.214844 " clip-rule="nonzero"/></clipPath><clipPath id="773c2d9b87"><path d="M 2.996094 0.214844 L 66.234375 0.214844 C 67.882812 0.214844 69.214844 1.546875 69.214844 3.195312 L 69.214844 66.355469 C 69.214844 68 67.882812 69.335938 66.234375 69.335938 L 2.996094 69.335938 C 1.347656 69.335938 0.015625 68 0.015625 66.355469 L 0.015625 3.195312 C 0.015625 1.546875 1.347656 0.214844 2.996094 0.214844 Z M 2.996094 0.214844 " clip-rule="nonzero"/></clipPath><clipPath id="59135aa14e"><rect x="0" width="70" y="0" height="70"/></clipPath><clipPath id="d4d7d89962"><path d="M 122.015625 41.214844 L 191.3125 41.214844 L 191.3125 110.511719 L 122.015625 110.511719 Z M 122.015625 41.214844 " clip-rule="nonzero"/></clipPath><clipPath id="2b1fb5737d"><path d="M 124.996094 41.214844 L 188.226562 41.214844 C 189.871094 41.214844 191.207031 42.546875 191.207031 44.195312 L 191.207031 107.34375 C 191.207031 108.992188 189.871094 110.324219 188.226562 110.324219 L 124.996094 110.324219 C 123.347656 110.324219 122.015625 108.992188 122.015625 107.34375 L 122.015625 44.195312 C 122.015625 42.546875 123.347656 41.214844 124.996094 41.214844 Z M 124.996094 41.214844 " clip-rule="nonzero"/></clipPath><clipPath id="ea163c05d7"><path d="M 228.433594 41.214844 L 323.472656 41.214844 L 323.472656 110.335938 L 228.433594 110.335938 Z M 228.433594 41.214844 " clip-rule="nonzero"/></clipPath><clipPath id="9ab0908819"><path d="M 246.714844 41.214844 L 305.140625 41.214844 C 315.234375 41.214844 323.421875 49.398438 323.421875 59.496094 L 323.421875 92.054688 C 323.421875 102.148438 315.234375 110.335938 305.140625 110.335938 L 246.714844 110.335938 C 236.617188 110.335938 228.433594 102.148438 228.433594 92.054688 L 228.433594 59.496094 C 228.433594 49.398438 236.617188 41.214844 246.714844 41.214844 Z M 246.714844 41.214844 " clip-rule="nonzero"/></clipPath><clipPath id="ff761354c4"><path d="M 0.433594 0.214844 L 95.429688 0.214844 L 95.429688 69.335938 L 0.433594 69.335938 Z M 0.433594 0.214844 " clip-rule="nonzero"/></clipPath><clipPath id="ee485e5410"><path d="M 18.714844 0.214844 L 77.140625 0.214844 C 87.234375 0.214844 95.421875 8.398438 95.421875 18.496094 L 95.421875 51.054688 C 95.421875 61.148438 87.234375 69.335938 77.140625 69.335938 L 18.714844 69.335938 C 8.617188 69.335938 0.433594 61.148438 0.433594 51.054688 L 0.433594 18.496094 C 0.433594 8.398438 8.617188 0.214844 18.714844 0.214844 Z M 18.714844 0.214844 " clip-rule="nonzero"/></clipPath><clipPath id="7a585a4e77"><rect x="0" width="96" y="0" height="70"/></clipPath><clipPath id="2e81b8c278"><path d="M 228.433594 41.214844 L 323.0625 41.214844 L 323.0625 110.511719 L 228.433594 110.511719 Z M 228.433594 41.214844 " clip-rule="nonzero"/></clipPath><clipPath id="cae14919ac"><path d="M 246.714844 41.214844 L 305.132812 41.214844 C 315.226562 41.214844 323.410156 49.398438 323.410156 59.492188 L 323.410156 92.046875 C 323.410156 102.140625 315.226562 110.324219 305.132812 110.324219 L 246.714844 110.324219 C 236.617188 110.324219 228.433594 102.140625 228.433594 92.046875 L 228.433594 59.492188 C 228.433594 49.398438 236.617188 41.214844 246.714844 41.214844 Z M 246.714844 41.214844 " clip-rule="nonzero"/></clipPath><clipPath id="96651d6811"><path d="M 1.535156 8.011719 L 71.460938 8.011719 L 71.460938 143.773438 L 1.535156 143.773438 Z M 1.535156 8.011719 " clip-rule="nonzero"/></clipPath><clipPath id="59df6e67de"><path d="M 14.203125 8.011719 L 58.796875 8.011719 C 62.15625 8.011719 65.378906 9.347656 67.753906 11.722656 C 70.128906 14.097656 71.460938 17.320312 71.460938 20.679688 L 71.460938 130.867188 C 71.460938 134.226562 70.128906 137.449219 67.753906 139.824219 C 65.378906 142.199219 62.15625 143.535156 58.796875 143.535156 L 14.203125 143.535156 C 10.839844 143.535156 7.621094 142.199219 5.246094 139.824219 C 2.867188 137.449219 1.535156 134.226562 1.535156 130.867188 L 1.535156 20.679688 C 1.535156 17.320312 2.867188 14.097656 5.246094 11.722656 C 7.621094 9.347656 10.839844 8.011719 14.203125 8.011719 Z M 14.203125 8.011719 " clip-rule="nonzero"/></clipPath><clipPath id="1859f74dad"><path d="M 0.535156 0.0117188 L 70.460938 0.0117188 L 70.460938 135.542969 L 0.535156 135.542969 Z M 0.535156 0.0117188 " clip-rule="nonzero"/></clipPath><clipPath id="fb35859a78"><path d="M 13.203125 0.0117188 L 57.796875 0.0117188 C 61.15625 0.0117188 64.378906 1.347656 66.753906 3.722656 C 69.128906 6.097656 70.460938 9.320312 70.460938 12.679688 L 70.460938 122.867188 C 70.460938 126.226562 69.128906 129.449219 66.753906 131.824219 C 64.378906 134.199219 61.15625 135.535156 57.796875 135.535156 L 13.203125 135.535156 C 9.839844 135.535156 6.621094 134.199219 4.246094 131.824219 C 1.867188 129.449219 0.535156 126.226562 0.535156 122.867188 L 0.535156 12.679688 C 0.535156 9.320312 1.867188 6.097656 4.246094 3.722656 C 6.621094 1.347656 9.839844 0.0117188 13.203125 0.0117188 Z M 13.203125 0.0117188 " clip-rule="nonzero"/></clipPath><clipPath id="6adb4e1d7b"><rect x="0" width="71" y="0" height="136"/></clipPath><clipPath id="f362f59a3a"><path d="M 1.535156 8.015625 L 71.578125 8.015625 L 71.578125 143.625 L 1.535156 143.625 Z M 1.535156 8.015625 " clip-rule="nonzero"/></clipPath><clipPath id="6218ac00f4"><path d="M 14.199219 8.015625 L 58.792969 8.015625 C 62.152344 8.015625 65.375 9.351562 67.75 11.726562 C 70.125 14.101562 71.460938 17.324219 71.460938 20.683594 L 71.460938 130.863281 C 71.460938 134.222656 70.125 137.445312 67.75 139.820312 C 65.375 142.195312 62.152344 143.53125 58.792969 143.53125 L 14.199219 143.53125 C 10.839844 143.53125 7.621094 142.195312 5.242188 139.820312 C 2.867188 137.445312 1.535156 134.222656 1.535156 130.863281 L 1.535156 20.683594 C 1.535156 17.324219 2.867188 14.101562 5.242188 11.726562 C 7.621094 9.351562 10.839844 8.015625 14.199219 8.015625 Z M 14.199219 8.015625 " clip-rule="nonzero"/></clipPath><clipPath id="1e06142feb"><path d="M 514.929688 8.011719 L 584.859375 8.011719 L 584.859375 143.773438 L 514.929688 143.773438 Z M 514.929688 8.011719 " clip-rule="nonzero"/></clipPath><clipPath id="5c4fedbd56"><path d="M 527.597656 8.011719 L 572.191406 8.011719 C 575.550781 8.011719 578.773438 9.347656 581.148438 11.722656 C 583.523438 14.097656 584.859375 17.320312 584.859375 20.679688 L 584.859375 130.867188 C 584.859375 134.226562 583.523438 137.449219 581.148438 139.824219 C 578.773438 142.199219 575.550781 143.535156 572.191406 143.535156 L 527.597656 143.535156 C 524.238281 143.535156 521.015625 142.199219 518.640625 139.824219 C 516.265625 137.449219 514.929688 134.226562 514.929688 130.867188 L 514.929688 20.679688 C 514.929688 17.320312 516.265625 14.097656 518.640625 11.722656 C 521.015625 9.347656 524.238281 8.011719 527.597656 8.011719 Z M 527.597656 8.011719 " clip-rule="nonzero"/></clipPath><clipPath id="8e64d2beff"><path d="M 0.929688 0.0117188 L 70.859375 0.0117188 L 70.859375 135.542969 L 0.929688 135.542969 Z M 0.929688 0.0117188 " clip-rule="nonzero"/></clipPath><clipPath id="553b9034a5"><path d="M 13.597656 0.0117188 L 58.191406 0.0117188 C 61.550781 0.0117188 64.773438 1.347656 67.148438 3.722656 C 69.523438 6.097656 70.859375 9.320312 70.859375 12.679688 L 70.859375 122.867188 C 70.859375 126.226562 69.523438 129.449219 67.148438 131.824219 C 64.773438 134.199219 61.550781 135.535156 58.191406 135.535156 L 13.597656 135.535156 C 10.238281 135.535156 7.015625 134.199219 4.640625 131.824219 C 2.265625 129.449219 0.929688 126.226562 0.929688 122.867188 L 0.929688 12.679688 C 0.929688 9.320312 2.265625 6.097656 4.640625 3.722656 C 7.015625 1.347656 10.238281 0.0117188 13.597656 0.0117188 Z M 13.597656 0.0117188 " clip-rule="nonzero"/></clipPath><clipPath id="a83412a3ff"><rect x="0" width="71" y="0" height="136"/></clipPath><clipPath id="24b1ccafa6"><path d="M 514.929688 8.015625 L 584.972656 8.015625 L 584.972656 143.625 L 514.929688 143.625 Z M 514.929688 8.015625 " clip-rule="nonzero"/></clipPath><clipPath id="2fa25aea03"><path d="M 527.597656 8.015625 L 572.191406 8.015625 C 575.550781 8.015625 578.773438 9.351562 581.148438 11.726562 C 583.523438 14.101562 584.855469 17.324219 584.855469 20.683594 L 584.855469 130.863281 C 584.855469 134.222656 583.523438 137.445312 581.148438 139.820312 C 578.773438 142.195312 575.550781 143.53125 572.191406 143.53125 L 527.597656 143.53125 C 524.238281 143.53125 521.015625 142.195312 518.640625 139.820312 C 516.265625 137.445312 514.929688 134.222656 514.929688 130.863281 L 514.929688 20.683594 C 514.929688 17.324219 516.265625 14.101562 518.640625 11.726562 C 521.015625 9.351562 524.238281 8.015625 527.597656 8.015625 Z M 527.597656 8.015625 " clip-rule="nonzero"/></clipPath><clipPath id="382d963da1"><path d="M 360.636719 38.148438 L 474 38.148438 L 474 113.398438 L 360.636719 113.398438 Z M 360.636719 38.148438 " clip-rule="nonzero"/></clipPath><clipPath id="6c722f274f"><path d="M 365.511719 38.148438 L 433.332031 38.148438 C 455.722656 38.148438 473.941406 54.992188 473.941406 75.773438 C 473.941406 96.554688 455.722656 113.398438 433.332031 113.398438 L 365.511719 113.398438 C 364.21875 113.398438 362.980469 112.886719 362.066406 111.972656 C 361.148438 111.058594 360.636719 109.816406 360.636719 108.523438 L 360.636719 43.023438 C 360.636719 40.332031 362.820312 38.148438 365.511719 38.148438 Z M 365.511719 38.148438 " clip-rule="nonzero"/></clipPath><clipPath id="fedd9584e8"><path d="M 0.636719 0.148438 L 114 0.148438 L 114 75.398438 L 0.636719 75.398438 Z M 0.636719 0.148438 " clip-rule="nonzero"/></clipPath><clipPath id="023ff5ebc8"><path d="M 5.511719 0.148438 L 73.332031 0.148438 C 95.722656 0.148438 113.941406 16.992188 113.941406 37.773438 C 113.941406 58.554688 95.722656 75.398438 73.332031 75.398438 L 5.511719 75.398438 C 4.21875 75.398438 2.980469 74.886719 2.066406 73.972656 C 1.148438 73.058594 0.636719 71.816406 0.636719 70.523438 L 0.636719 5.023438 C 0.636719 2.332031 2.820312 0.148438 5.511719 0.148438 Z M 5.511719 0.148438 " clip-rule="nonzero"/></clipPath><clipPath id="61e5859f4b"><rect x="0" width="114" y="0" height="76"/></clipPath><clipPath id="0fafd29cbd"><path d="M 360.636719 38.148438 L 473.894531 38.148438 L 473.894531 113.40625 L 360.636719 113.40625 Z M 360.636719 38.148438 " clip-rule="nonzero"/></clipPath><clipPath id="fca95e6f53"><path d="M 365.511719 38.148438 L 433.324219 38.148438 C 455.710938 38.148438 473.929688 54.992188 473.929688 75.769531 C 473.929688 96.550781 455.710938 113.394531 433.324219 113.394531 L 365.511719 113.394531 C 364.21875 113.394531 362.980469 112.878906 362.066406 111.964844 C 361.148438 111.050781 360.636719 109.8125 360.636719 108.519531 L 360.636719 43.023438 C 360.636719 40.332031 362.820312 38.148438 365.511719 38.148438 Z M 365.511719 38.148438 " clip-rule="nonzero"/></clipPath></defs><g clip-path="url(#f386690b8f)"><g clip-path="url(#6282ee45e3)"><g transform="matrix(1, 0, 0, 1, 98, 0.000000000000009523)"><g clip-path="url(#e55f33f03c)"><g clip-path="url(#34e059fd23)"><g clip-path="url(#3394e3a86a)"><path fill="#f8f3ed" d="M 0.191406 0 L 390.308594 0 L 390.308594 151.546875 L 0.191406 151.546875 Z M 0.191406 0 " fill-opacity="1" fill-rule="nonzero"/></g></g></g></g></g></g><g clip-path="url(#31e4449fdd)"><g clip-path="url(#dbd89c225a)"><path stroke-linecap="butt" transform="matrix(0.74513, 0, 0, 0.74513, 98.194768, 0.00000695455)" fill="none" stroke-linejoin="miter" d="M 17.001753 -0.00000933333 L 506.393174 -0.00000933333 C 515.782268 -0.00000933333 523.394196 7.611919 523.394196 17.001012 L 523.394196 186.376902 C 523.394196 195.765996 515.782268 203.372682 506.393174 203.372682 L 17.001753 203.372682 C 7.612659 203.372682 0.000730808 195.765996 0.000730808 186.376902 L 0.000730808 17.001012 C 0.000730808 7.611919 7.612659 -0.00000933333 17.001753 -0.00000933333 Z M 17.001753 -0.00000933333 " stroke="#efeae7" stroke-width="4" stroke-opacity="1" stroke-miterlimit="4"/></g></g><g fill="#000000" fill-opacity="1"><g transform="translate(250.393976, 24.142214)"><g><path d="M 4.851562 0.144531 C 6.414062 0.144531 7.785156 -0.679688 8.464844 -1.917969 L 7.726562 -2.335938 C 7.210938 -1.335938 6.105469 -0.667969 4.851562 -0.667969 C 2.742188 -0.667969 1.3125 -2.230469 1.3125 -4.171875 C 1.3125 -6.117188 2.742188 -7.679688 4.851562 -7.679688 C 6.105469 -7.679688 7.210938 -7.011719 7.726562 -6.007812 L 8.464844 -6.4375 C 7.773438 -7.679688 6.402344 -8.488281 4.851562 -8.488281 C 2.289062 -8.488281 0.476562 -6.558594 0.476562 -4.171875 C 0.476562 -1.789062 2.289062 0.144531 4.851562 0.144531 Z M 4.851562 0.144531 "/></g></g></g><g fill="#000000" fill-opacity="1"><g transform="translate(259.275945, 24.142214)"><g><path d="M 3.613281 0.144531 C 5.351562 0.144531 6.746094 -1.214844 6.746094 -2.980469 C 6.746094 -4.746094 5.351562 -6.105469 3.613281 -6.105469 C 1.871094 -6.105469 0.476562 -4.746094 0.476562 -2.980469 C 0.476562 -1.214844 1.871094 0.144531 3.613281 0.144531 Z M 3.613281 -0.621094 C 2.289062 -0.621094 1.265625 -1.65625 1.265625 -2.980469 C 1.265625 -4.304688 2.289062 -5.339844 3.613281 -5.339844 C 4.9375 -5.339844 5.960938 -4.304688 5.960938 -2.980469 C 5.960938 -1.65625 4.9375 -0.621094 3.613281 -0.621094 Z M 3.613281 -0.621094 "/></g></g></g><g fill="#000000" fill-opacity="1"><g transform="translate(266.500735, 24.142214)"><g><path d="M 3.613281 0.144531 C 4.78125 0.144531 5.792969 -0.464844 6.28125 -1.40625 L 5.628906 -1.789062 C 5.246094 -1.097656 4.519531 -0.621094 3.613281 -0.621094 C 2.289062 -0.621094 1.265625 -1.65625 1.265625 -2.980469 C 1.265625 -4.304688 2.289062 -5.339844 3.613281 -5.339844 C 4.507812 -5.339844 5.257812 -4.875 5.578125 -4.171875 L 6.222656 -4.542969 C 5.792969 -5.484375 4.792969 -6.105469 3.613281 -6.105469 C 1.8125 -6.105469 0.476562 -4.746094 0.476562 -2.980469 C 0.476562 -1.214844 1.8125 0.144531 3.613281 0.144531 Z M 3.613281 0.144531 "/></g></g></g><g fill="#000000" fill-opacity="1"><g transform="translate(273.081734, 24.142214)"><g><path d="M 3.613281 0.144531 C 5.351562 0.144531 6.746094 -1.214844 6.746094 -2.980469 C 6.746094 -4.746094 5.351562 -6.105469 3.613281 -6.105469 C 1.871094 -6.105469 0.476562 -4.746094 0.476562 -2.980469 C 0.476562 -1.214844 1.871094 0.144531 3.613281 0.144531 Z M 3.613281 -0.621094 C 2.289062 -0.621094 1.265625 -1.65625 1.265625 -2.980469 C 1.265625 -4.304688 2.289062 -5.339844 3.613281 -5.339844 C 4.9375 -5.339844 5.960938 -4.304688 5.960938 -2.980469 C 5.960938 -1.65625 4.9375 -0.621094 3.613281 -0.621094 Z M 3.613281 -0.621094 "/></g></g></g><g fill="#000000" fill-opacity="1"><g transform="translate(280.306523, 24.142214)"><g><path d="M 0.953125 -8.34375 L 0.953125 0 L 1.789062 0 L 1.789062 -8.34375 Z M 0.953125 -8.34375 "/></g></g></g><g fill="#000000" fill-opacity="1"><g transform="translate(283.048607, 24.142214)"><g><path d="M 3.625 -6.105469 C 2.777344 -6.105469 2.085938 -5.78125 1.621094 -5.03125 L 1.621094 -5.960938 L 0.835938 -5.960938 L 0.835938 0 L 1.621094 0 L 1.621094 -3.125 C 1.621094 -4.722656 2.503906 -5.339844 3.554688 -5.339844 C 4.589844 -5.339844 5.175781 -4.722656 5.175781 -3.660156 L 5.175781 0 L 5.960938 0 L 5.960938 -3.660156 C 5.960938 -5.148438 5.078125 -6.105469 3.625 -6.105469 Z M 3.625 -6.105469 "/></g></g></g><g fill="#000000" fill-opacity="1"><g transform="translate(289.701145, 24.142214)"><g><path d="M 5.960938 -8.34375 L 5.960938 -4.792969 C 5.460938 -5.589844 4.613281 -6.105469 3.554688 -6.105469 C 1.871094 -6.105469 0.476562 -4.746094 0.476562 -2.980469 C 0.476562 -1.214844 1.871094 0.144531 3.554688 0.144531 C 4.613281 0.144531 5.460938 -0.371094 5.960938 -1.167969 L 5.960938 0 L 6.746094 0 L 6.746094 -8.34375 Z M 3.613281 -0.621094 C 2.289062 -0.621094 1.265625 -1.65625 1.265625 -2.980469 C 1.265625 -4.304688 2.289062 -5.339844 3.613281 -5.339844 C 4.9375 -5.339844 5.960938 -4.304688 5.960938 -2.980469 C 5.960938 -1.65625 4.9375 -0.621094 3.613281 -0.621094 Z M 3.613281 -0.621094 "/></g></g></g><g fill="#000000" fill-opacity="1"><g transform="translate(297.283605, 24.142214)"><g><path d="M 3.589844 -6.105469 C 1.742188 -6.105469 0.476562 -4.734375 0.476562 -2.980469 C 0.476562 -1.179688 1.765625 0.144531 3.648438 0.144531 C 4.851562 0.144531 5.769531 -0.417969 6.269531 -1.226562 L 5.578125 -1.632812 C 5.257812 -1.0625 4.601562 -0.621094 3.660156 -0.621094 C 2.394531 -0.621094 1.453125 -1.371094 1.289062 -2.585938 L 6.519531 -2.585938 C 6.535156 -2.707031 6.546875 -2.835938 6.546875 -2.957031 C 6.546875 -4.589844 5.414062 -6.105469 3.589844 -6.105469 Z M 3.589844 -5.339844 C 4.613281 -5.339844 5.566406 -4.660156 5.734375 -3.351562 L 1.289062 -3.351562 C 1.441406 -4.519531 2.335938 -5.339844 3.589844 -5.339844 Z M 3.589844 -5.339844 "/></g></g></g><g fill="#000000" fill-opacity="1"><g transform="translate(304.246117, 24.142214)"><g><path d="M 5.84375 0 L 3.515625 -3.085938 L 5.6875 -5.960938 L 4.746094 -5.960938 L 3.039062 -3.707031 L 1.335938 -5.960938 L 0.394531 -5.960938 L 2.574219 -3.085938 L 0.238281 0 L 1.179688 0 L 3.039062 -2.457031 L 4.898438 0 Z M 5.84375 0 "/></g></g></g><g fill="#000000" fill-opacity="1"><g transform="translate(310.32639, 24.142214)"><g/></g></g><g fill="#000000" fill-opacity="1"><g transform="translate(313.306921, 24.142214)"><g><path d="M 6.507812 0 L 7.390625 0 L 4.183594 -8.34375 L 3.328125 -8.34375 L 0.121094 0 L 1 0 L 1.777344 -2.050781 L 5.734375 -2.050781 Z M 2.074219 -2.835938 L 3.753906 -7.308594 L 5.4375 -2.835938 Z M 2.074219 -2.835938 "/></g></g></g><g fill="#000000" fill-opacity="1"><g transform="translate(320.817843, 24.142214)"><g><path d="M 4.03125 -6.105469 C 2.96875 -6.105469 2.121094 -5.589844 1.621094 -4.792969 L 1.621094 -5.960938 L 0.835938 -5.960938 L 0.835938 2.382812 L 1.621094 2.382812 L 1.621094 -1.167969 C 2.121094 -0.371094 2.96875 0.144531 4.03125 0.144531 C 5.710938 0.144531 7.105469 -1.214844 7.105469 -2.980469 C 7.105469 -4.746094 5.710938 -6.105469 4.03125 -6.105469 Z M 3.96875 -0.621094 C 2.648438 -0.621094 1.621094 -1.65625 1.621094 -2.980469 C 1.621094 -4.304688 2.648438 -5.339844 3.96875 -5.339844 C 5.292969 -5.339844 6.320312 -4.304688 6.320312 -2.980469 C 6.320312 -1.65625 5.292969 -0.621094 3.96875 -0.621094 Z M 3.96875 -0.621094 "/></g></g></g><g fill="#000000" fill-opacity="1"><g transform="translate(328.400303, 24.142214)"><g><path d="M 4.03125 -6.105469 C 2.96875 -6.105469 2.121094 -5.589844 1.621094 -4.792969 L 1.621094 -5.960938 L 0.835938 -5.960938 L 0.835938 2.382812 L 1.621094 2.382812 L 1.621094 -1.167969 C 2.121094 -0.371094 2.96875 0.144531 4.03125 0.144531 C 5.710938 0.144531 7.105469 -1.214844 7.105469 -2.980469 C 7.105469 -4.746094 5.710938 -6.105469 4.03125 -6.105469 Z M 3.96875 -0.621094 C 2.648438 -0.621094 1.621094 -1.65625 1.621094 -2.980469 C 1.621094 -4.304688 2.648438 -5.339844 3.96875 -5.339844 C 5.292969 -5.339844 6.320312 -4.304688 6.320312 -2.980469 C 6.320312 -1.65625 5.292969 -0.621094 3.96875 -0.621094 Z M 3.96875 -0.621094 "/></g></g></g><g clip-path="url(#47eec1332c)"><g clip-path="url(#7429ac86e6)"><g transform="matrix(1, 0, 0, 1, 122, 41)"><g clip-path="url(#59135aa14e)"><g clip-path="url(#ab3288e19d)"><g clip-path="url(#773c2d9b87)"><path fill="#ffffff" d="M 0.015625 0.214844 L 69.136719 0.214844 L 69.136719 69.335938 L 0.015625 69.335938 Z M 0.015625 0.214844 " fill-opacity="1" fill-rule="nonzero"/></g></g></g></g></g></g><g clip-path="url(#d4d7d89962)"><g clip-path="url(#2b1fb5737d)"><path stroke-linecap="butt" transform="matrix(0.74513, 0, 0, 0.74513, 122.015296, 41.213838)" fill="none" stroke-linejoin="miter" d="M 4.000374 0.0013504 L 88.858696 0.0013504 C 91.065736 0.0013504 92.858628 1.789 92.858628 4.001282 L 92.858628 88.749515 C 92.858628 90.961797 91.065736 92.749447 88.858696 92.749447 L 4.000374 92.749447 C 1.788091 92.749447 0.000441612 90.961797 0.000441612 88.749515 L 0.000441612 4.001282 C 0.000441612 1.789 1.788091 0.0013504 4.000374 0.0013504 Z M 4.000374 0.0013504 " stroke="#000000" stroke-width="4" stroke-opacity="1" stroke-miterlimit="4"/></g></g><g fill="#000000" fill-opacity="1"><g transform="translate(140.747985, 71.019031)"><g><path d="M 1.789062 -0.785156 L 1.789062 -8.34375 L 0.953125 -8.34375 L 0.953125 0 L 5.601562 0 L 5.601562 -0.785156 Z M 1.789062 -0.785156 "/></g></g></g><g fill="#000000" fill-opacity="1"><g transform="translate(146.589812, 71.019031)"><g><path d="M 1.226562 -7.226562 C 1.550781 -7.226562 1.800781 -7.488281 1.800781 -7.796875 C 1.800781 -8.105469 1.550781 -8.371094 1.226562 -8.371094 C 0.90625 -8.371094 0.65625 -8.105469 0.65625 -7.796875 C 0.65625 -7.488281 0.90625 -7.226562 1.226562 -7.226562 Z M 0.835938 0 L 1.621094 0 L 1.621094 -5.960938 L 0.835938 -5.960938 Z M 0.835938 0 "/></g></g></g><g fill="#000000" fill-opacity="1"><g transform="translate(149.045764, 71.019031)"><g><path d="M 1.453125 -4.398438 C 1.453125 -5.042969 2.085938 -5.339844 2.707031 -5.339844 C 3.277344 -5.339844 3.886719 -5.113281 4.136719 -4.507812 L 4.792969 -4.886719 C 4.445312 -5.628906 3.683594 -6.105469 2.707031 -6.105469 C 1.515625 -6.105469 0.667969 -5.351562 0.667969 -4.398438 C 0.667969 -2.207031 4.148438 -3.050781 4.148438 -1.574219 C 4.148438 -0.871094 3.480469 -0.621094 2.777344 -0.621094 C 1.980469 -0.621094 1.359375 -1.011719 1.144531 -1.621094 L 0.476562 -1.226562 C 0.773438 -0.464844 1.585938 0.144531 2.777344 0.144531 C 4.054688 0.144531 4.9375 -0.558594 4.9375 -1.574219 C 4.9375 -3.765625 1.453125 -2.921875 1.453125 -4.398438 Z M 1.453125 -4.398438 "/></g></g></g><g fill="#000000" fill-opacity="1"><g transform="translate(154.219945, 71.019031)"><g><path d="M 3.992188 -5.199219 L 3.992188 -5.960938 L 2.277344 -5.960938 L 2.277344 -7.628906 L 1.492188 -7.390625 L 1.492188 -5.960938 L 0.238281 -5.960938 L 0.238281 -5.199219 L 1.492188 -5.199219 L 1.492188 -1.585938 C 1.492188 -0.15625 2.382812 0.238281 3.992188 0 L 3.992188 -0.691406 C 2.835938 -0.644531 2.277344 -0.558594 2.277344 -1.585938 L 2.277344 -5.199219 Z M 3.992188 -5.199219 "/></g></g></g><g fill="#000000" fill-opacity="1"><g transform="translate(158.690736, 71.019031)"><g/></g></g><g fill="#000000" fill-opacity="1"><g transform="translate(161.671267, 71.019031)"><g><path d="M 3.613281 0.144531 C 5.351562 0.144531 6.746094 -1.214844 6.746094 -2.980469 C 6.746094 -4.746094 5.351562 -6.105469 3.613281 -6.105469 C 1.871094 -6.105469 0.476562 -4.746094 0.476562 -2.980469 C 0.476562 -1.214844 1.871094 0.144531 3.613281 0.144531 Z M 3.613281 -0.621094 C 2.289062 -0.621094 1.265625 -1.65625 1.265625 -2.980469 C 1.265625 -4.304688 2.289062 -5.339844 3.613281 -5.339844 C 4.9375 -5.339844 5.960938 -4.304688 5.960938 -2.980469 C 5.960938 -1.65625 4.9375 -0.621094 3.613281 -0.621094 Z M 3.613281 -0.621094 "/></g></g></g><g fill="#000000" fill-opacity="1"><g transform="translate(168.657609, 71.019031)"><g><path d="M 3.816406 -7.726562 L 3.816406 -8.488281 C 2.207031 -8.609375 1.3125 -7.75 1.3125 -6.199219 L 1.3125 -5.960938 L 0.296875 -5.960938 L 0.296875 -5.199219 L 1.3125 -5.199219 L 1.3125 0 L 2.097656 0 L 2.097656 -5.199219 L 3.816406 -5.199219 L 3.816406 -5.960938 L 2.097656 -5.960938 L 2.097656 -6.199219 C 2.097656 -7.34375 2.660156 -7.820312 3.816406 -7.726562 Z M 3.816406 -7.726562 "/></g></g></g><g fill="#000000" fill-opacity="1"><g transform="translate(143.018303, 87.411888)"><g><path d="M 3.933594 -8.34375 L 0.953125 -8.34375 L 0.953125 0 L 1.789062 0 L 1.789062 -3.101562 L 3.933594 -3.101562 C 5.4375 -3.101562 6.558594 -4.230469 6.558594 -5.722656 C 6.558594 -7.226562 5.4375 -8.34375 3.933594 -8.34375 Z M 3.933594 -3.886719 L 1.789062 -3.886719 L 1.789062 -7.558594 L 3.933594 -7.558594 C 4.972656 -7.558594 5.722656 -6.796875 5.722656 -5.722656 C 5.722656 -4.660156 4.972656 -3.886719 3.933594 -3.886719 Z M 3.933594 -3.886719 "/></g></g></g><g fill="#000000" fill-opacity="1"><g transform="translate(150.052342, 87.411888)"><g><path d="M 4.171875 -8.34375 L 0.953125 -8.34375 L 0.953125 0 L 4.171875 0 C 6.472656 0 8.105469 -1.871094 8.105469 -4.171875 C 8.105469 -6.472656 6.472656 -8.34375 4.171875 -8.34375 Z M 4.171875 -0.785156 L 1.789062 -0.785156 L 1.789062 -7.558594 L 4.171875 -7.558594 C 6.03125 -7.558594 7.296875 -6.042969 7.296875 -4.171875 C 7.296875 -2.300781 6.03125 -0.785156 4.171875 -0.785156 Z M 4.171875 -0.785156 "/></g></g></g><g fill="#000000" fill-opacity="1"><g transform="translate(158.636252, 87.411888)"><g><path d="M 5.664062 -7.558594 L 5.664062 -8.34375 L 0.953125 -8.34375 L 0.953125 0 L 1.789062 0 L 1.789062 -3.695312 L 5.484375 -3.695312 L 5.484375 -4.484375 L 1.789062 -4.484375 L 1.789062 -7.558594 Z M 5.664062 -7.558594 "/></g></g></g><g fill="#000000" fill-opacity="1"><g transform="translate(164.776137, 87.411888)"><g><path d="M 1.453125 -4.398438 C 1.453125 -5.042969 2.085938 -5.339844 2.707031 -5.339844 C 3.277344 -5.339844 3.886719 -5.113281 4.136719 -4.507812 L 4.792969 -4.886719 C 4.445312 -5.628906 3.683594 -6.105469 2.707031 -6.105469 C 1.515625 -6.105469 0.667969 -5.351562 0.667969 -4.398438 C 0.667969 -2.207031 4.148438 -3.050781 4.148438 -1.574219 C 4.148438 -0.871094 3.480469 -0.621094 2.777344 -0.621094 C 1.980469 -0.621094 1.359375 -1.011719 1.144531 -1.621094 L 0.476562 -1.226562 C 0.773438 -0.464844 1.585938 0.144531 2.777344 0.144531 C 4.054688 0.144531 4.9375 -0.558594 4.9375 -1.574219 C 4.9375 -3.765625 1.453125 -2.921875 1.453125 -4.398438 Z M 1.453125 -4.398438 "/></g></g></g><path stroke-linecap="butt" transform="matrix(0.74513, 0, 0, 0.74513, 191.216554, 75.029103)" fill="none" stroke-linejoin="miter" d="M -0.00229543 0.998932 L 44.442559 0.998932 " stroke="#000000" stroke-width="2" stroke-opacity="1" stroke-miterlimit="4"/><path stroke-linecap="round" transform="matrix(0.74513, 0, 0, 0.74513, 191.216554, 75.029103)" fill-opacity="1" fill="#000000" fill-rule="nonzero" stroke-linejoin="round" d="M 44.945827 -1.999706 L 48.945759 0.998932 L 44.945827 3.997571 Z M 44.945827 -1.999706 " stroke="#000000" stroke-width="2" stroke-opacity="1" stroke-miterlimit="4"/><path stroke-linecap="butt" transform="matrix(0.74513, 0, 0, 0.74513, 71.462842, 75.029103)" fill="none" stroke-linejoin="miter" d="M -0.00255645 0.998932 L 62.345008 0.998932 " stroke="#89898d" stroke-width="2" stroke-opacity="1" stroke-miterlimit="4"/><path stroke-linecap="round" transform="matrix(0.74513, 0, 0, 0.74513, 71.462842, 75.029103)" fill-opacity="1" fill="#89898d" fill-rule="nonzero" stroke-linejoin="round" d="M 62.843034 -1.999706 L 66.842966 0.998932 L 62.843034 3.997571 Z M 62.843034 -1.999706 " stroke="#89898d" stroke-width="2" stroke-opacity="1" stroke-miterlimit="4"/><g clip-path="url(#ea163c05d7)"><g clip-path="url(#9ab0908819)"><g transform="matrix(1, 0, 0, 1, 228, 41)"><g clip-path="url(#7a585a4e77)"><g clip-path="url(#ff761354c4)"><g clip-path="url(#ee485e5410)"><path fill="#ffffff" d="M 0.433594 0.214844 L 95.472656 0.214844 L 95.472656 69.335938 L 0.433594 69.335938 Z M 0.433594 0.214844 " fill-opacity="1" fill-rule="nonzero"/></g></g></g></g></g></g><g clip-path="url(#2e81b8c278)"><g clip-path="url(#cae14919ac)"><path stroke-linecap="butt" transform="matrix(0.74513, 0, 0, 0.74513, 228.434917, 41.213838)" fill="none" stroke-linejoin="miter" d="M 24.532538 0.0013504 L 102.932254 0.0013504 C 116.478551 0.0013504 127.461326 10.984126 127.461326 24.530422 L 127.461326 68.220375 C 127.461326 81.766671 116.478551 92.749447 102.932254 92.749447 L 24.532538 92.749447 C 10.980999 92.749447 -0.0017764 81.766671 -0.0017764 68.220375 L -0.0017764 24.530422 C -0.0017764 10.984126 10.980999 0.0013504 24.532538 0.0013504 Z M 24.532538 0.0013504 " stroke="#000000" stroke-width="4" stroke-opacity="1" stroke-miterlimit="4"/></g></g><g fill="#000000" fill-opacity="1"><g transform="translate(234.369905, 71.019031)"><g><path d="M 4.851562 0.144531 C 6.414062 0.144531 7.785156 -0.679688 8.464844 -1.917969 L 7.726562 -2.335938 C 7.210938 -1.335938 6.105469 -0.667969 4.851562 -0.667969 C 2.742188 -0.667969 1.3125 -2.230469 1.3125 -4.171875 C 1.3125 -6.117188 2.742188 -7.679688 4.851562 -7.679688 C 6.105469 -7.679688 7.210938 -7.011719 7.726562 -6.007812 L 8.464844 -6.4375 C 7.773438 -7.679688 6.402344 -8.488281 4.851562 -8.488281 C 2.289062 -8.488281 0.476562 -6.558594 0.476562 -4.171875 C 0.476562 -1.789062 2.289062 0.144531 4.851562 0.144531 Z M 4.851562 0.144531 "/></g></g></g><g fill="#000000" fill-opacity="1"><g transform="translate(243.192262, 71.019031)"><g><path d="M 3.613281 0.144531 C 5.351562 0.144531 6.746094 -1.214844 6.746094 -2.980469 C 6.746094 -4.746094 5.351562 -6.105469 3.613281 -6.105469 C 1.871094 -6.105469 0.476562 -4.746094 0.476562 -2.980469 C 0.476562 -1.214844 1.871094 0.144531 3.613281 0.144531 Z M 3.613281 -0.621094 C 2.289062 -0.621094 1.265625 -1.65625 1.265625 -2.980469 C 1.265625 -4.304688 2.289062 -5.339844 3.613281 -5.339844 C 4.9375 -5.339844 5.960938 -4.304688 5.960938 -2.980469 C 5.960938 -1.65625 4.9375 -0.621094 3.613281 -0.621094 Z M 3.613281 -0.621094 "/></g></g></g><g fill="#000000" fill-opacity="1"><g transform="translate(250.417052, 71.019031)"><g><path d="M 3.625 -6.105469 C 2.777344 -6.105469 2.085938 -5.78125 1.621094 -5.03125 L 1.621094 -5.960938 L 0.835938 -5.960938 L 0.835938 0 L 1.621094 0 L 1.621094 -3.125 C 1.621094 -4.722656 2.503906 -5.339844 3.554688 -5.339844 C 4.589844 -5.339844 5.175781 -4.722656 5.175781 -3.660156 L 5.175781 0 L 5.960938 0 L 5.960938 -3.660156 C 5.960938 -5.148438 5.078125 -6.105469 3.625 -6.105469 Z M 3.625 -6.105469 "/></g></g></g><g fill="#000000" fill-opacity="1"><g transform="translate(257.009978, 71.019031)"><g><path d="M 5.125 -5.960938 L 3.039062 -0.824219 L 0.953125 -5.960938 L 0.121094 -5.960938 L 2.5625 0 L 3.515625 0 L 5.960938 -5.960938 Z M 5.125 -5.960938 "/></g></g></g><g fill="#000000" fill-opacity="1"><g transform="translate(262.851804, 71.019031)"><g><path d="M 3.589844 -6.105469 C 1.742188 -6.105469 0.476562 -4.734375 0.476562 -2.980469 C 0.476562 -1.179688 1.765625 0.144531 3.648438 0.144531 C 4.851562 0.144531 5.769531 -0.417969 6.269531 -1.226562 L 5.578125 -1.632812 C 5.257812 -1.0625 4.601562 -0.621094 3.660156 -0.621094 C 2.394531 -0.621094 1.453125 -1.371094 1.289062 -2.585938 L 6.519531 -2.585938 C 6.535156 -2.707031 6.546875 -2.835938 6.546875 -2.957031 C 6.546875 -4.589844 5.414062 -6.105469 3.589844 -6.105469 Z M 3.589844 -5.339844 C 4.613281 -5.339844 5.566406 -4.660156 5.734375 -3.351562 L 1.289062 -3.351562 C 1.441406 -4.519531 2.335938 -5.339844 3.589844 -5.339844 Z M 3.589844 -5.339844 "/></g></g></g><g fill="#000000" fill-opacity="1"><g transform="translate(269.814316, 71.019031)"><g><path d="M 1.621094 -4.972656 L 1.621094 -5.960938 L 0.835938 -5.960938 L 0.835938 0 L 1.621094 0 L 1.621094 -3.3125 C 1.621094 -4.792969 2.550781 -5.292969 3.503906 -5.292969 L 3.503906 -6.054688 C 2.742188 -6.054688 2.039062 -5.804688 1.621094 -4.972656 Z M 1.621094 -4.972656 "/></g></g></g><g fill="#000000" fill-opacity="1"><g transform="translate(273.677085, 71.019031)"><g><path d="M 3.992188 -5.199219 L 3.992188 -5.960938 L 2.277344 -5.960938 L 2.277344 -7.628906 L 1.492188 -7.390625 L 1.492188 -5.960938 L 0.238281 -5.960938 L 0.238281 -5.199219 L 1.492188 -5.199219 L 1.492188 -1.585938 C 1.492188 -0.15625 2.382812 0.238281 3.992188 0 L 3.992188 -0.691406 C 2.835938 -0.644531 2.277344 -0.558594 2.277344 -1.585938 L 2.277344 -5.199219 Z M 3.992188 -5.199219 "/></g></g></g><g fill="#000000" fill-opacity="1"><g transform="translate(278.147875, 71.019031)"><g/></g></g><g fill="#000000" fill-opacity="1"><g transform="translate(281.128406, 71.019031)"><g><path d="M 5.960938 -5.960938 L 5.960938 -4.792969 C 5.460938 -5.589844 4.613281 -6.105469 3.554688 -6.105469 C 1.871094 -6.105469 0.476562 -4.746094 0.476562 -2.980469 C 0.476562 -1.214844 1.871094 0.144531 3.554688 0.144531 C 4.613281 0.144531 5.460938 -0.371094 5.960938 -1.167969 L 5.960938 0 L 6.746094 0 L 6.746094 -5.960938 Z M 3.613281 -0.621094 C 2.289062 -0.621094 1.265625 -1.65625 1.265625 -2.980469 C 1.265625 -4.304688 2.289062 -5.339844 3.613281 -5.339844 C 4.9375 -5.339844 5.960938 -4.304688 5.960938 -2.980469 C 5.960938 -1.65625 4.9375 -0.621094 3.613281 -0.621094 Z M 3.613281 -0.621094 "/></g></g></g><g fill="#000000" fill-opacity="1"><g transform="translate(288.710867, 71.019031)"><g><path d="M 0.835938 0 L 1.621094 0 L 1.621094 -8.703125 L 0.835938 -8.703125 Z M 0.835938 0 "/></g></g></g><g fill="#000000" fill-opacity="1"><g transform="translate(291.166818, 71.019031)"><g><path d="M 0.835938 0 L 1.621094 0 L 1.621094 -8.703125 L 0.835938 -8.703125 Z M 0.835938 0 "/></g></g></g><g fill="#000000" fill-opacity="1"><g transform="translate(293.62277, 71.019031)"><g/></g></g><g fill="#000000" fill-opacity="1"><g transform="translate(296.603301, 71.019031)"><g><path d="M 3.816406 -7.726562 L 3.816406 -8.488281 C 2.207031 -8.609375 1.3125 -7.75 1.3125 -6.199219 L 1.3125 -5.960938 L 0.296875 -5.960938 L 0.296875 -5.199219 L 1.3125 -5.199219 L 1.3125 0 L 2.097656 0 L 2.097656 -5.199219 L 3.816406 -5.199219 L 3.816406 -5.960938 L 2.097656 -5.960938 L 2.097656 -6.199219 C 2.097656 -7.34375 2.660156 -7.820312 3.816406 -7.726562 Z M 3.816406 -7.726562 "/></g></g></g><g fill="#000000" fill-opacity="1"><g transform="translate(300.418374, 71.019031)"><g><path d="M 1.226562 -7.226562 C 1.550781 -7.226562 1.800781 -7.488281 1.800781 -7.796875 C 1.800781 -8.105469 1.550781 -8.371094 1.226562 -8.371094 C 0.90625 -8.371094 0.65625 -8.105469 0.65625 -7.796875 C 0.65625 -7.488281 0.90625 -7.226562 1.226562 -7.226562 Z M 0.835938 0 L 1.621094 0 L 1.621094 -5.960938 L 0.835938 -5.960938 Z M 0.835938 0 "/></g></g></g><g fill="#000000" fill-opacity="1"><g transform="translate(302.874325, 71.019031)"><g><path d="M 0.835938 0 L 1.621094 0 L 1.621094 -8.703125 L 0.835938 -8.703125 Z M 0.835938 0 "/></g></g></g><g fill="#000000" fill-opacity="1"><g transform="translate(305.330277, 71.019031)"><g><path d="M 3.589844 -6.105469 C 1.742188 -6.105469 0.476562 -4.734375 0.476562 -2.980469 C 0.476562 -1.179688 1.765625 0.144531 3.648438 0.144531 C 4.851562 0.144531 5.769531 -0.417969 6.269531 -1.226562 L 5.578125 -1.632812 C 5.257812 -1.0625 4.601562 -0.621094 3.660156 -0.621094 C 2.394531 -0.621094 1.453125 -1.371094 1.289062 -2.585938 L 6.519531 -2.585938 C 6.535156 -2.707031 6.546875 -2.835938 6.546875 -2.957031 C 6.546875 -4.589844 5.414062 -6.105469 3.589844 -6.105469 Z M 3.589844 -5.339844 C 4.613281 -5.339844 5.566406 -4.660156 5.734375 -3.351562 L 1.289062 -3.351562 C 1.441406 -4.519531 2.335938 -5.339844 3.589844 -5.339844 Z M 3.589844 -5.339844 "/></g></g></g><g fill="#000000" fill-opacity="1"><g transform="translate(312.054342, 71.019031)"><g><path d="M 1.453125 -4.398438 C 1.453125 -5.042969 2.085938 -5.339844 2.707031 -5.339844 C 3.277344 -5.339844 3.886719 -5.113281 4.136719 -4.507812 L 4.792969 -4.886719 C 4.445312 -5.628906 3.683594 -6.105469 2.707031 -6.105469 C 1.515625 -6.105469 0.667969 -5.351562 0.667969 -4.398438 C 0.667969 -2.207031 4.148438 -3.050781 4.148438 -1.574219 C 4.148438 -0.871094 3.480469 -0.621094 2.777344 -0.621094 C 1.980469 -0.621094 1.359375 -1.011719 1.144531 -1.621094 L 0.476562 -1.226562 C 0.773438 -0.464844 1.585938 0.144531 2.777344 0.144531 C 4.054688 0.144531 4.9375 -0.558594 4.9375 -1.574219 C 4.9375 -3.765625 1.453125 -2.921875 1.453125 -4.398438 Z M 1.453125 -4.398438 "/></g></g></g><g fill="#000000" fill-opacity="1"><g transform="translate(240.482298, 87.411888)"><g><path d="M 3.992188 -5.199219 L 3.992188 -5.960938 L 2.277344 -5.960938 L 2.277344 -7.628906 L 1.492188 -7.390625 L 1.492188 -5.960938 L 0.238281 -5.960938 L 0.238281 -5.199219 L 1.492188 -5.199219 L 1.492188 -1.585938 C 1.492188 -0.15625 2.382812 0.238281 3.992188 0 L 3.992188 -0.691406 C 2.835938 -0.644531 2.277344 -0.558594 2.277344 -1.585938 L 2.277344 -5.199219 Z M 3.992188 -5.199219 "/></g></g></g><g fill="#000000" fill-opacity="1"><g transform="translate(244.59543, 87.411888)"><g><path d="M 3.613281 0.144531 C 5.351562 0.144531 6.746094 -1.214844 6.746094 -2.980469 C 6.746094 -4.746094 5.351562 -6.105469 3.613281 -6.105469 C 1.871094 -6.105469 0.476562 -4.746094 0.476562 -2.980469 C 0.476562 -1.214844 1.871094 0.144531 3.613281 0.144531 Z M 3.613281 -0.621094 C 2.289062 -0.621094 1.265625 -1.65625 1.265625 -2.980469 C 1.265625 -4.304688 2.289062 -5.339844 3.613281 -5.339844 C 4.9375 -5.339844 5.960938 -4.304688 5.960938 -2.980469 C 5.960938 -1.65625 4.9375 -0.621094 3.613281 -0.621094 Z M 3.613281 -0.621094 "/></g></g></g><g fill="#000000" fill-opacity="1"><g transform="translate(251.820219, 87.411888)"><g/></g></g><g fill="#000000" fill-opacity="1"><g transform="translate(254.80075, 87.411888)"><g><path d="M 8.582031 -8.34375 L 7.546875 -8.34375 L 4.769531 -3.695312 L 1.992188 -8.34375 L 0.953125 -8.34375 L 0.953125 0 L 1.789062 0 L 1.789062 -7.082031 L 4.710938 -2.195312 L 4.828125 -2.195312 L 7.75 -7.082031 L 7.75 0 L 8.582031 0 Z M 8.582031 -8.34375 "/></g></g></g><g fill="#000000" fill-opacity="1"><g transform="translate(264.338437, 87.411888)"><g><path d="M 5.960938 -5.960938 L 5.960938 -4.792969 C 5.460938 -5.589844 4.613281 -6.105469 3.554688 -6.105469 C 1.871094 -6.105469 0.476562 -4.746094 0.476562 -2.980469 C 0.476562 -1.214844 1.871094 0.144531 3.554688 0.144531 C 4.613281 0.144531 5.460938 -0.371094 5.960938 -1.167969 L 5.960938 0 L 6.746094 0 L 6.746094 -5.960938 Z M 3.613281 -0.621094 C 2.289062 -0.621094 1.265625 -1.65625 1.265625 -2.980469 C 1.265625 -4.304688 2.289062 -5.339844 3.613281 -5.339844 C 4.9375 -5.339844 5.960938 -4.304688 5.960938 -2.980469 C 5.960938 -1.65625 4.9375 -0.621094 3.613281 -0.621094 Z M 3.613281 -0.621094 "/></g></g></g><g fill="#000000" fill-opacity="1"><g transform="translate(271.920897, 87.411888)"><g><path d="M 1.621094 -4.972656 L 1.621094 -5.960938 L 0.835938 -5.960938 L 0.835938 0 L 1.621094 0 L 1.621094 -3.3125 C 1.621094 -4.792969 2.550781 -5.292969 3.503906 -5.292969 L 3.503906 -6.054688 C 2.742188 -6.054688 2.039062 -5.804688 1.621094 -4.972656 Z M 1.621094 -4.972656 "/></g></g></g><g fill="#000000" fill-opacity="1"><g transform="translate(275.664443, 87.411888)"><g><path d="M 5.652344 0 L 2.457031 -3.101562 L 5.53125 -5.960938 L 4.457031 -5.960938 L 1.621094 -3.328125 L 1.621094 -8.34375 L 0.835938 -8.34375 L 0.835938 0 L 1.621094 0 L 1.621094 -2.875 L 4.601562 0 Z M 5.652344 0 "/></g></g></g><g fill="#000000" fill-opacity="1"><g transform="translate(280.957859, 87.411888)"><g><path d="M 5.960938 -8.34375 L 5.960938 -4.792969 C 5.460938 -5.589844 4.613281 -6.105469 3.554688 -6.105469 C 1.871094 -6.105469 0.476562 -4.746094 0.476562 -2.980469 C 0.476562 -1.214844 1.871094 0.144531 3.554688 0.144531 C 4.613281 0.144531 5.460938 -0.371094 5.960938 -1.167969 L 5.960938 0 L 6.746094 0 L 6.746094 -8.34375 Z M 3.613281 -0.621094 C 2.289062 -0.621094 1.265625 -1.65625 1.265625 -2.980469 C 1.265625 -4.304688 2.289062 -5.339844 3.613281 -5.339844 C 4.9375 -5.339844 5.960938 -4.304688 5.960938 -2.980469 C 5.960938 -1.65625 4.9375 -0.621094 3.613281 -0.621094 Z M 3.613281 -0.621094 "/></g></g></g><g fill="#000000" fill-opacity="1"><g transform="translate(288.54032, 87.411888)"><g><path d="M 3.613281 0.144531 C 5.351562 0.144531 6.746094 -1.214844 6.746094 -2.980469 C 6.746094 -4.746094 5.351562 -6.105469 3.613281 -6.105469 C 1.871094 -6.105469 0.476562 -4.746094 0.476562 -2.980469 C 0.476562 -1.214844 1.871094 0.144531 3.613281 0.144531 Z M 3.613281 -0.621094 C 2.289062 -0.621094 1.265625 -1.65625 1.265625 -2.980469 C 1.265625 -4.304688 2.289062 -5.339844 3.613281 -5.339844 C 4.9375 -5.339844 5.960938 -4.304688 5.960938 -2.980469 C 5.960938 -1.65625 4.9375 -0.621094 3.613281 -0.621094 Z M 3.613281 -0.621094 "/></g></g></g><g fill="#000000" fill-opacity="1"><g transform="translate(295.526662, 87.411888)"><g><path d="M 8.011719 -5.960938 L 6.546875 -1.011719 L 4.984375 -5.960938 L 4.195312 -5.960938 L 2.636719 -1.011719 L 1.167969 -5.960938 L 0.359375 -5.960938 L 2.195312 0 L 3.050781 0 L 4.589844 -4.804688 L 6.128906 0 L 6.988281 0 L 8.824219 -5.960938 Z M 8.011719 -5.960938 "/></g></g></g><g fill="#000000" fill-opacity="1"><g transform="translate(304.706679, 87.411888)"><g><path d="M 3.625 -6.105469 C 2.777344 -6.105469 2.085938 -5.78125 1.621094 -5.03125 L 1.621094 -5.960938 L 0.835938 -5.960938 L 0.835938 0 L 1.621094 0 L 1.621094 -3.125 C 1.621094 -4.722656 2.503906 -5.339844 3.554688 -5.339844 C 4.589844 -5.339844 5.175781 -4.722656 5.175781 -3.660156 L 5.175781 0 L 5.960938 0 L 5.960938 -3.660156 C 5.960938 -5.148438 5.078125 -6.105469 3.625 -6.105469 Z M 3.625 -6.105469 "/></g></g></g><g clip-path="url(#96651d6811)"><g clip-path="url(#59df6e67de)"><g transform="matrix(1, 0, 0, 1, 1, 8)"><g clip-path="url(#6adb4e1d7b)"><g clip-path="url(#1859f74dad)"><g clip-path="url(#fb35859a78)"><path fill="#e9f7ff" d="M 0.535156 0.0117188 L 70.460938 0.0117188 L 70.460938 135.5 L 0.535156 135.5 Z M 0.535156 0.0117188 " fill-opacity="1" fill-rule="nonzero"/></g></g></g></g></g></g><g clip-path="url(#f362f59a3a)"><g clip-path="url(#6218ac00f4)"><path stroke-linecap="butt" transform="matrix(0.74513, 0, 0, 0.74513, 1.534087, 8.015329)" fill="none" stroke-linejoin="miter" d="M 16.997214 0.000397035 L 76.844166 0.000397035 C 81.352608 0.000397035 85.677567 1.793289 88.864931 4.980653 C 92.052295 8.168017 93.845188 12.492976 93.845188 17.001419 L 93.845188 164.867845 C 93.845188 169.376287 92.052295 173.701246 88.864931 176.88861 C 85.677567 180.075974 81.352608 181.868866 76.844166 181.868866 L 16.997214 181.868866 C 12.488772 181.868866 8.169055 180.075974 4.976449 176.88861 C 1.789085 173.701246 0.00143486 169.376287 0.00143486 164.867845 L 0.00143486 17.001419 C 0.00143486 12.492976 1.789085 8.168017 4.976449 4.980653 C 8.169055 1.793289 12.488772 0.000397035 16.997214 0.000397035 Z M 16.997214 0.000397035 " stroke="#89898d" stroke-width="4" stroke-opacity="1" stroke-miterlimit="4"/></g></g><g fill="#000000" fill-opacity="1"><g transform="translate(22.572363, 71.349255)"><g><path d="M 4.171875 -8.34375 L 0.953125 -8.34375 L 0.953125 0 L 4.171875 0 C 6.472656 0 8.105469 -1.871094 8.105469 -4.171875 C 8.105469 -6.472656 6.472656 -8.34375 4.171875 -8.34375 Z M 4.171875 -0.785156 L 1.789062 -0.785156 L 1.789062 -7.558594 L 4.171875 -7.558594 C 6.03125 -7.558594 7.296875 -6.042969 7.296875 -4.171875 C 7.296875 -2.300781 6.03125 -0.785156 4.171875 -0.785156 Z M 4.171875 -0.785156 "/></g></g></g><g fill="#000000" fill-opacity="1"><g transform="translate(31.156273, 71.349255)"><g><path d="M 1.621094 -4.972656 L 1.621094 -5.960938 L 0.835938 -5.960938 L 0.835938 0 L 1.621094 0 L 1.621094 -3.3125 C 1.621094 -4.792969 2.550781 -5.292969 3.503906 -5.292969 L 3.503906 -6.054688 C 2.742188 -6.054688 2.039062 -5.804688 1.621094 -4.972656 Z M 1.621094 -4.972656 "/></g></g></g><g fill="#000000" fill-opacity="1"><g transform="translate(34.899818, 71.349255)"><g><path d="M 1.226562 -7.226562 C 1.550781 -7.226562 1.800781 -7.488281 1.800781 -7.796875 C 1.800781 -8.105469 1.550781 -8.371094 1.226562 -8.371094 C 0.90625 -8.371094 0.65625 -8.105469 0.65625 -7.796875 C 0.65625 -7.488281 0.90625 -7.226562 1.226562 -7.226562 Z M 0.835938 0 L 1.621094 0 L 1.621094 -5.960938 L 0.835938 -5.960938 Z M 0.835938 0 "/></g></g></g><g fill="#000000" fill-opacity="1"><g transform="translate(37.35577, 71.349255)"><g><path d="M 5.125 -5.960938 L 3.039062 -0.824219 L 0.953125 -5.960938 L 0.121094 -5.960938 L 2.5625 0 L 3.515625 0 L 5.960938 -5.960938 Z M 5.125 -5.960938 "/></g></g></g><g fill="#000000" fill-opacity="1"><g transform="translate(43.436044, 71.349255)"><g><path d="M 3.589844 -6.105469 C 1.742188 -6.105469 0.476562 -4.734375 0.476562 -2.980469 C 0.476562 -1.179688 1.765625 0.144531 3.648438 0.144531 C 4.851562 0.144531 5.769531 -0.417969 6.269531 -1.226562 L 5.578125 -1.632812 C 5.257812 -1.0625 4.601562 -0.621094 3.660156 -0.621094 C 2.394531 -0.621094 1.453125 -1.371094 1.289062 -2.585938 L 6.519531 -2.585938 C 6.535156 -2.707031 6.546875 -2.835938 6.546875 -2.957031 C 6.546875 -4.589844 5.414062 -6.105469 3.589844 -6.105469 Z M 3.589844 -5.339844 C 4.613281 -5.339844 5.566406 -4.660156 5.734375 -3.351562 L 1.289062 -3.351562 C 1.441406 -4.519531 2.335938 -5.339844 3.589844 -5.339844 Z M 3.589844 -5.339844 "/></g></g></g><g fill="#000000" fill-opacity="1"><g transform="translate(19.440489, 87.742112)"><g><path d="M 5.664062 -7.558594 L 5.664062 -8.34375 L 0.953125 -8.34375 L 0.953125 0 L 1.789062 0 L 1.789062 -3.695312 L 5.484375 -3.695312 L 5.484375 -4.484375 L 1.789062 -4.484375 L 1.789062 -7.558594 Z M 5.664062 -7.558594 "/></g></g></g><g fill="#000000" fill-opacity="1"><g transform="translate(25.580374, 87.742112)"><g><path d="M 3.613281 0.144531 C 5.351562 0.144531 6.746094 -1.214844 6.746094 -2.980469 C 6.746094 -4.746094 5.351562 -6.105469 3.613281 -6.105469 C 1.871094 -6.105469 0.476562 -4.746094 0.476562 -2.980469 C 0.476562 -1.214844 1.871094 0.144531 3.613281 0.144531 Z M 3.613281 -0.621094 C 2.289062 -0.621094 1.265625 -1.65625 1.265625 -2.980469 C 1.265625 -4.304688 2.289062 -5.339844 3.613281 -5.339844 C 4.9375 -5.339844 5.960938 -4.304688 5.960938 -2.980469 C 5.960938 -1.65625 4.9375 -0.621094 3.613281 -0.621094 Z M 3.613281 -0.621094 "/></g></g></g><g fill="#000000" fill-opacity="1"><g transform="translate(32.805164, 87.742112)"><g><path d="M 0.835938 0 L 1.621094 0 L 1.621094 -8.703125 L 0.835938 -8.703125 Z M 0.835938 0 "/></g></g></g><g fill="#000000" fill-opacity="1"><g transform="translate(35.261116, 87.742112)"><g><path d="M 5.960938 -8.34375 L 5.960938 -4.792969 C 5.460938 -5.589844 4.613281 -6.105469 3.554688 -6.105469 C 1.871094 -6.105469 0.476562 -4.746094 0.476562 -2.980469 C 0.476562 -1.214844 1.871094 0.144531 3.554688 0.144531 C 4.613281 0.144531 5.460938 -0.371094 5.960938 -1.167969 L 5.960938 0 L 6.746094 0 L 6.746094 -8.34375 Z M 3.613281 -0.621094 C 2.289062 -0.621094 1.265625 -1.65625 1.265625 -2.980469 C 1.265625 -4.304688 2.289062 -5.339844 3.613281 -5.339844 C 4.9375 -5.339844 5.960938 -4.304688 5.960938 -2.980469 C 5.960938 -1.65625 4.9375 -0.621094 3.613281 -0.621094 Z M 3.613281 -0.621094 "/></g></g></g><g fill="#000000" fill-opacity="1"><g transform="translate(42.843576, 87.742112)"><g><path d="M 3.589844 -6.105469 C 1.742188 -6.105469 0.476562 -4.734375 0.476562 -2.980469 C 0.476562 -1.179688 1.765625 0.144531 3.648438 0.144531 C 4.851562 0.144531 5.769531 -0.417969 6.269531 -1.226562 L 5.578125 -1.632812 C 5.257812 -1.0625 4.601562 -0.621094 3.660156 -0.621094 C 2.394531 -0.621094 1.453125 -1.371094 1.289062 -2.585938 L 6.519531 -2.585938 C 6.535156 -2.707031 6.546875 -2.835938 6.546875 -2.957031 C 6.546875 -4.589844 5.414062 -6.105469 3.589844 -6.105469 Z M 3.589844 -5.339844 C 4.613281 -5.339844 5.566406 -4.660156 5.734375 -3.351562 L 1.289062 -3.351562 C 1.441406 -4.519531 2.335938 -5.339844 3.589844 -5.339844 Z M 3.589844 -5.339844 "/></g></g></g><g fill="#000000" fill-opacity="1"><g transform="translate(49.806088, 87.742112)"><g><path d="M 1.621094 -4.972656 L 1.621094 -5.960938 L 0.835938 -5.960938 L 0.835938 0 L 1.621094 0 L 1.621094 -3.3125 C 1.621094 -4.792969 2.550781 -5.292969 3.503906 -5.292969 L 3.503906 -6.054688 C 2.742188 -6.054688 2.039062 -5.804688 1.621094 -4.972656 Z M 1.621094 -4.972656 "/></g></g></g><g clip-path="url(#1e06142feb)"><g clip-path="url(#5c4fedbd56)"><g transform="matrix(1, 0, 0, 1, 514, 8)"><g clip-path="url(#a83412a3ff)"><g clip-path="url(#8e64d2beff)"><g clip-path="url(#553b9034a5)"><path fill="#e9f7ff" d="M 0.929688 0.0117188 L 70.859375 0.0117188 L 70.859375 135.5 L 0.929688 135.5 Z M 0.929688 0.0117188 " fill-opacity="1" fill-rule="nonzero"/></g></g></g></g></g></g><g clip-path="url(#24b1ccafa6)"><g clip-path="url(#2fa25aea03)"><path stroke-linecap="butt" transform="matrix(0.74513, 0, 0, 0.74513, 514.931176, 8.015329)" fill="none" stroke-linejoin="miter" d="M 16.999024 0.000397035 L 76.845976 0.000397035 C 81.354418 0.000397035 85.679378 1.793289 88.866742 4.980653 C 92.054105 8.168017 93.841755 12.492976 93.841755 17.001419 L 93.841755 164.867845 C 93.841755 169.376287 92.054105 173.701246 88.866742 176.88861 C 85.679378 180.075974 81.354418 181.868866 76.845976 181.868866 L 16.999024 181.868866 C 12.490582 181.868866 8.165623 180.075974 4.978259 176.88861 C 1.790895 173.701246 -0.00199735 169.376287 -0.00199735 164.867845 L -0.00199735 17.001419 C -0.00199735 12.492976 1.790895 8.168017 4.978259 4.980653 C 8.165623 1.793289 12.490582 0.000397035 16.999024 0.000397035 Z M 16.999024 0.000397035 " stroke="#89898d" stroke-width="4" stroke-opacity="1" stroke-miterlimit="4"/></g></g><g fill="#000000" fill-opacity="1"><g transform="translate(531.498672, 71.349255)"><g><path d="M 6.199219 -8.34375 L 0.238281 -8.34375 L 0.238281 -7.558594 L 2.800781 -7.558594 L 2.800781 0 L 3.636719 0 L 3.636719 -7.558594 L 6.199219 -7.558594 Z M 6.199219 -8.34375 "/></g></g></g><g fill="#000000" fill-opacity="1"><g transform="translate(537.936605, 71.349255)"><g><path d="M 5.960938 -5.960938 L 5.960938 -4.792969 C 5.460938 -5.589844 4.613281 -6.105469 3.554688 -6.105469 C 1.871094 -6.105469 0.476562 -4.746094 0.476562 -2.980469 C 0.476562 -1.214844 1.871094 0.144531 3.554688 0.144531 C 4.613281 0.144531 5.460938 -0.371094 5.960938 -1.167969 L 5.960938 0 L 6.746094 0 L 6.746094 -5.960938 Z M 3.613281 -0.621094 C 2.289062 -0.621094 1.265625 -1.65625 1.265625 -2.980469 C 1.265625 -4.304688 2.289062 -5.339844 3.613281 -5.339844 C 4.9375 -5.339844 5.960938 -4.304688 5.960938 -2.980469 C 5.960938 -1.65625 4.9375 -0.621094 3.613281 -0.621094 Z M 3.613281 -0.621094 "/></g></g></g><g fill="#000000" fill-opacity="1"><g transform="translate(545.519065, 71.349255)"><g><path d="M 1.621094 -4.972656 L 1.621094 -5.960938 L 0.835938 -5.960938 L 0.835938 0 L 1.621094 0 L 1.621094 -3.3125 C 1.621094 -4.792969 2.550781 -5.292969 3.503906 -5.292969 L 3.503906 -6.054688 C 2.742188 -6.054688 2.039062 -5.804688 1.621094 -4.972656 Z M 1.621094 -4.972656 "/></g></g></g><g fill="#000000" fill-opacity="1"><g transform="translate(549.262611, 71.349255)"><g><path d="M 5.960938 -5.960938 L 5.960938 -4.792969 C 5.460938 -5.589844 4.613281 -6.105469 3.554688 -6.105469 C 1.871094 -6.105469 0.476562 -4.746094 0.476562 -2.980469 C 0.476562 -1.214844 1.871094 0.144531 3.554688 0.144531 C 4.613281 0.144531 5.460938 -0.371094 5.960938 -1.167969 L 5.960938 -0.238281 C 5.960938 0.976562 5.136719 1.765625 3.753906 1.765625 C 2.46875 1.765625 1.917969 1.289062 1.621094 0.679688 L 0.929688 1.074219 C 1.394531 2.003906 2.382812 2.527344 3.753906 2.527344 C 5.292969 2.527344 6.746094 1.574219 6.746094 -0.238281 L 6.746094 -5.960938 Z M 3.613281 -0.621094 C 2.289062 -0.621094 1.265625 -1.65625 1.265625 -2.980469 C 1.265625 -4.304688 2.289062 -5.339844 3.613281 -5.339844 C 4.9375 -5.339844 5.960938 -4.304688 5.960938 -2.980469 C 5.960938 -1.65625 4.9375 -0.621094 3.613281 -0.621094 Z M 3.613281 -0.621094 "/></g></g></g><g fill="#000000" fill-opacity="1"><g transform="translate(556.845071, 71.349255)"><g><path d="M 3.589844 -6.105469 C 1.742188 -6.105469 0.476562 -4.734375 0.476562 -2.980469 C 0.476562 -1.179688 1.765625 0.144531 3.648438 0.144531 C 4.851562 0.144531 5.769531 -0.417969 6.269531 -1.226562 L 5.578125 -1.632812 C 5.257812 -1.0625 4.601562 -0.621094 3.660156 -0.621094 C 2.394531 -0.621094 1.453125 -1.371094 1.289062 -2.585938 L 6.519531 -2.585938 C 6.535156 -2.707031 6.546875 -2.835938 6.546875 -2.957031 C 6.546875 -4.589844 5.414062 -6.105469 3.589844 -6.105469 Z M 3.589844 -5.339844 C 4.613281 -5.339844 5.566406 -4.660156 5.734375 -3.351562 L 1.289062 -3.351562 C 1.441406 -4.519531 2.335938 -5.339844 3.589844 -5.339844 Z M 3.589844 -5.339844 "/></g></g></g><g fill="#000000" fill-opacity="1"><g transform="translate(563.807583, 71.349255)"><g><path d="M 3.992188 -5.199219 L 3.992188 -5.960938 L 2.277344 -5.960938 L 2.277344 -7.628906 L 1.492188 -7.390625 L 1.492188 -5.960938 L 0.238281 -5.960938 L 0.238281 -5.199219 L 1.492188 -5.199219 L 1.492188 -1.585938 C 1.492188 -0.15625 2.382812 0.238281 3.992188 0 L 3.992188 -0.691406 C 2.835938 -0.644531 2.277344 -0.558594 2.277344 -1.585938 L 2.277344 -5.199219 Z M 3.992188 -5.199219 "/></g></g></g><g fill="#000000" fill-opacity="1"><g transform="translate(529.938557, 87.742112)"><g><path d="M 3.578125 0.144531 C 5.246094 0.144531 6.390625 -0.761719 6.390625 -2.195312 C 6.390625 -3.742188 5.03125 -4.171875 3.515625 -4.671875 C 2.382812 -5.042969 1.667969 -5.328125 1.667969 -6.234375 C 1.667969 -7.152344 2.394531 -7.679688 3.398438 -7.679688 C 4.496094 -7.679688 5.136719 -7.046875 5.449219 -6.292969 L 6.152344 -6.6875 C 5.722656 -7.679688 4.769531 -8.488281 3.398438 -8.488281 C 2.015625 -8.488281 0.835938 -7.664062 0.835938 -6.199219 C 0.835938 -4.660156 2.144531 -4.304688 3.503906 -3.851562 C 4.734375 -3.445312 5.554688 -3.136719 5.554688 -2.167969 C 5.554688 -1.277344 4.851562 -0.667969 3.589844 -0.667969 C 2.277344 -0.667969 1.492188 -1.3125 1.191406 -2.3125 L 0.476562 -1.894531 C 0.90625 -0.632812 2.039062 0.144531 3.578125 0.144531 Z M 3.578125 0.144531 "/></g></g></g><g fill="#000000" fill-opacity="1"><g transform="translate(536.805687, 87.742112)"><g><path d="M 5.125 -5.960938 L 3.195312 -0.964844 L 0.953125 -5.960938 L 0.121094 -5.960938 L 2.789062 0.0351562 L 2.636719 0.40625 C 2.3125 1.179688 1.777344 1.730469 1 1.644531 L 1 2.382812 C 2.074219 2.46875 2.957031 1.691406 3.410156 0.546875 L 5.960938 -5.960938 Z M 5.125 -5.960938 "/></g></g></g><g fill="#000000" fill-opacity="1"><g transform="translate(542.885961, 87.742112)"><g><path d="M 1.453125 -4.398438 C 1.453125 -5.042969 2.085938 -5.339844 2.707031 -5.339844 C 3.277344 -5.339844 3.886719 -5.113281 4.136719 -4.507812 L 4.792969 -4.886719 C 4.445312 -5.628906 3.683594 -6.105469 2.707031 -6.105469 C 1.515625 -6.105469 0.667969 -5.351562 0.667969 -4.398438 C 0.667969 -2.207031 4.148438 -3.050781 4.148438 -1.574219 C 4.148438 -0.871094 3.480469 -0.621094 2.777344 -0.621094 C 1.980469 -0.621094 1.359375 -1.011719 1.144531 -1.621094 L 0.476562 -1.226562 C 0.773438 -0.464844 1.585938 0.144531 2.777344 0.144531 C 4.054688 0.144531 4.9375 -0.558594 4.9375 -1.574219 C 4.9375 -3.765625 1.453125 -2.921875 1.453125 -4.398438 Z M 1.453125 -4.398438 "/></g></g></g><g fill="#000000" fill-opacity="1"><g transform="translate(548.29859, 87.742112)"><g><path d="M 3.992188 -5.199219 L 3.992188 -5.960938 L 2.277344 -5.960938 L 2.277344 -7.628906 L 1.492188 -7.390625 L 1.492188 -5.960938 L 0.238281 -5.960938 L 0.238281 -5.199219 L 1.492188 -5.199219 L 1.492188 -1.585938 C 1.492188 -0.15625 2.382812 0.238281 3.992188 0 L 3.992188 -0.691406 C 2.835938 -0.644531 2.277344 -0.558594 2.277344 -1.585938 L 2.277344 -5.199219 Z M 3.992188 -5.199219 "/></g></g></g><g fill="#000000" fill-opacity="1"><g transform="translate(552.76938, 87.742112)"><g><path d="M 3.589844 -6.105469 C 1.742188 -6.105469 0.476562 -4.734375 0.476562 -2.980469 C 0.476562 -1.179688 1.765625 0.144531 3.648438 0.144531 C 4.851562 0.144531 5.769531 -0.417969 6.269531 -1.226562 L 5.578125 -1.632812 C 5.257812 -1.0625 4.601562 -0.621094 3.660156 -0.621094 C 2.394531 -0.621094 1.453125 -1.371094 1.289062 -2.585938 L 6.519531 -2.585938 C 6.535156 -2.707031 6.546875 -2.835938 6.546875 -2.957031 C 6.546875 -4.589844 5.414062 -6.105469 3.589844 -6.105469 Z M 3.589844 -5.339844 C 4.613281 -5.339844 5.566406 -4.660156 5.734375 -3.351562 L 1.289062 -3.351562 C 1.441406 -4.519531 2.335938 -5.339844 3.589844 -5.339844 Z M 3.589844 -5.339844 "/></g></g></g><g fill="#000000" fill-opacity="1"><g transform="translate(559.731892, 87.742112)"><g><path d="M 7.1875 -6.105469 C 6.425781 -6.105469 5.699219 -5.757812 5.257812 -5.019531 C 4.921875 -5.710938 4.28125 -6.105469 3.445312 -6.105469 C 2.730469 -6.105469 2.085938 -5.816406 1.621094 -5.089844 L 1.621094 -5.960938 L 0.835938 -5.960938 L 0.835938 0 L 1.621094 0 L 1.621094 -3.300781 C 1.621094 -4.78125 2.480469 -5.339844 3.339844 -5.339844 C 4.183594 -5.339844 4.734375 -4.78125 4.734375 -3.71875 L 4.734375 0 L 5.519531 0 L 5.519531 -3.300781 C 5.519531 -4.78125 6.257812 -5.339844 7.175781 -5.339844 C 8.023438 -5.339844 8.632812 -4.78125 8.632812 -3.71875 L 8.632812 0 L 9.417969 0 L 9.417969 -3.71875 C 9.417969 -5.210938 8.5 -6.105469 7.1875 -6.105469 Z M 7.1875 -6.105469 "/></g></g></g><path stroke-linecap="butt" transform="matrix(0.74513, 0.0000000000745947, -0.0000000000745947, 0.74513, 323.421131, 75.029103)" fill="none" stroke-linejoin="miter" d="M 0.0009991 0.998932 L 44.445853 0.998932 " stroke="#000000" stroke-width="2" stroke-opacity="1" stroke-miterlimit="4"/><path stroke-linecap="round" transform="matrix(0.74513, 0.0000000000745947, -0.0000000000745947, 0.74513, 323.421131, 75.029103)" fill-opacity="1" fill="#000000" fill-rule="nonzero" stroke-linejoin="round" d="M 44.943879 -1.999706 L 48.943811 0.998932 L 44.943879 3.997571 Z M 44.943879 -1.999706 " stroke="#000000" stroke-width="2" stroke-opacity="1" stroke-miterlimit="4"/><g clip-path="url(#382d963da1)"><g clip-path="url(#6c722f274f)"><g transform="matrix(1, 0, 0, 1, 360, 38)"><g clip-path="url(#61e5859f4b)"><g clip-path="url(#fedd9584e8)"><g clip-path="url(#023ff5ebc8)"><path fill="#ffffff" d="M 0.636719 0.148438 L 113.808594 0.148438 L 113.808594 75.398438 L 0.636719 75.398438 Z M 0.636719 0.148438 " fill-opacity="1" fill-rule="nonzero"/></g></g></g></g></g></g><g clip-path="url(#0fafd29cbd)"><g clip-path="url(#fca95e6f53)"><path stroke-linecap="butt" transform="matrix(0.74513, 0, 0, 0.74513, 360.636728, 38.148607)" fill="none" stroke-linejoin="miter" d="M 6.542472 -0.000227159 L 97.550099 -0.000227159 C 127.59415 -0.000227159 152.044586 22.604893 152.044586 50.489085 C 152.044586 78.37852 127.59415 100.98364 97.550099 100.98364 L 6.542472 100.98364 C 4.807246 100.98364 3.145413 100.291647 1.918697 99.064931 C 0.686739 97.838215 -0.0000122419 96.176382 -0.0000122419 94.441156 L -0.0000122419 6.542257 C -0.0000122419 2.93026 2.930475 -0.000227159 6.542472 -0.000227159 Z M 6.542472 -0.000227159 " stroke="#000000" stroke-width="4" stroke-opacity="1" stroke-miterlimit="4"/></g></g><g fill="#000000" fill-opacity="1"><g transform="translate(384.108318, 54.541009)"><g><path d="M 1.789062 -0.785156 L 1.789062 -8.34375 L 0.953125 -8.34375 L 0.953125 0 L 5.601562 0 L 5.601562 -0.785156 Z M 1.789062 -0.785156 "/></g></g></g><g fill="#000000" fill-opacity="1"><g transform="translate(389.950145, 54.541009)"><g><path d="M 1.226562 -7.226562 C 1.550781 -7.226562 1.800781 -7.488281 1.800781 -7.796875 C 1.800781 -8.105469 1.550781 -8.371094 1.226562 -8.371094 C 0.90625 -8.371094 0.65625 -8.105469 0.65625 -7.796875 C 0.65625 -7.488281 0.90625 -7.226562 1.226562 -7.226562 Z M 0.835938 0 L 1.621094 0 L 1.621094 -5.960938 L 0.835938 -5.960938 Z M 0.835938 0 "/></g></g></g><g fill="#000000" fill-opacity="1"><g transform="translate(392.406097, 54.541009)"><g><path d="M 1.453125 -4.398438 C 1.453125 -5.042969 2.085938 -5.339844 2.707031 -5.339844 C 3.277344 -5.339844 3.886719 -5.113281 4.136719 -4.507812 L 4.792969 -4.886719 C 4.445312 -5.628906 3.683594 -6.105469 2.707031 -6.105469 C 1.515625 -6.105469 0.667969 -5.351562 0.667969 -4.398438 C 0.667969 -2.207031 4.148438 -3.050781 4.148438 -1.574219 C 4.148438 -0.871094 3.480469 -0.621094 2.777344 -0.621094 C 1.980469 -0.621094 1.359375 -1.011719 1.144531 -1.621094 L 0.476562 -1.226562 C 0.773438 -0.464844 1.585938 0.144531 2.777344 0.144531 C 4.054688 0.144531 4.9375 -0.558594 4.9375 -1.574219 C 4.9375 -3.765625 1.453125 -2.921875 1.453125 -4.398438 Z M 1.453125 -4.398438 "/></g></g></g><g fill="#000000" fill-opacity="1"><g transform="translate(397.818726, 54.541009)"><g><path d="M 3.992188 -5.199219 L 3.992188 -5.960938 L 2.277344 -5.960938 L 2.277344 -7.628906 L 1.492188 -7.390625 L 1.492188 -5.960938 L 0.238281 -5.960938 L 0.238281 -5.199219 L 1.492188 -5.199219 L 1.492188 -1.585938 C 1.492188 -0.15625 2.382812 0.238281 3.992188 0 L 3.992188 -0.691406 C 2.835938 -0.644531 2.277344 -0.558594 2.277344 -1.585938 L 2.277344 -5.199219 Z M 3.992188 -5.199219 "/></g></g></g><g fill="#000000" fill-opacity="1"><g transform="translate(402.289516, 54.541009)"><g/></g></g><g fill="#000000" fill-opacity="1"><g transform="translate(405.270047, 54.541009)"><g><path d="M 3.613281 0.144531 C 5.351562 0.144531 6.746094 -1.214844 6.746094 -2.980469 C 6.746094 -4.746094 5.351562 -6.105469 3.613281 -6.105469 C 1.871094 -6.105469 0.476562 -4.746094 0.476562 -2.980469 C 0.476562 -1.214844 1.871094 0.144531 3.613281 0.144531 Z M 3.613281 -0.621094 C 2.289062 -0.621094 1.265625 -1.65625 1.265625 -2.980469 C 1.265625 -4.304688 2.289062 -5.339844 3.613281 -5.339844 C 4.9375 -5.339844 5.960938 -4.304688 5.960938 -2.980469 C 5.960938 -1.65625 4.9375 -0.621094 3.613281 -0.621094 Z M 3.613281 -0.621094 "/></g></g></g><g fill="#000000" fill-opacity="1"><g transform="translate(412.494837, 54.541009)"><g><path d="M 3.816406 -7.726562 L 3.816406 -8.488281 C 2.207031 -8.609375 1.3125 -7.75 1.3125 -6.199219 L 1.3125 -5.960938 L 0.296875 -5.960938 L 0.296875 -5.199219 L 1.3125 -5.199219 L 1.3125 0 L 2.097656 0 L 2.097656 -5.199219 L 3.816406 -5.199219 L 3.816406 -5.960938 L 2.097656 -5.960938 L 2.097656 -6.199219 C 2.097656 -7.34375 2.660156 -7.820312 3.816406 -7.726562 Z M 3.816406 -7.726562 "/></g></g></g><g fill="#000000" fill-opacity="1"><g transform="translate(371.510967, 70.933865)"><g><path d="M 8.582031 -8.34375 L 7.546875 -8.34375 L 4.769531 -3.695312 L 1.992188 -8.34375 L 0.953125 -8.34375 L 0.953125 0 L 1.789062 0 L 1.789062 -7.082031 L 4.710938 -2.195312 L 4.828125 -2.195312 L 7.75 -7.082031 L 7.75 0 L 8.582031 0 Z M 8.582031 -8.34375 "/></g></g></g><g fill="#000000" fill-opacity="1"><g transform="translate(381.048654, 70.933865)"><g><path d="M 5.960938 -5.960938 L 5.960938 -4.792969 C 5.460938 -5.589844 4.613281 -6.105469 3.554688 -6.105469 C 1.871094 -6.105469 0.476562 -4.746094 0.476562 -2.980469 C 0.476562 -1.214844 1.871094 0.144531 3.554688 0.144531 C 4.613281 0.144531 5.460938 -0.371094 5.960938 -1.167969 L 5.960938 0 L 6.746094 0 L 6.746094 -5.960938 Z M 3.613281 -0.621094 C 2.289062 -0.621094 1.265625 -1.65625 1.265625 -2.980469 C 1.265625 -4.304688 2.289062 -5.339844 3.613281 -5.339844 C 4.9375 -5.339844 5.960938 -4.304688 5.960938 -2.980469 C 5.960938 -1.65625 4.9375 -0.621094 3.613281 -0.621094 Z M 3.613281 -0.621094 "/></g></g></g><g fill="#000000" fill-opacity="1"><g transform="translate(388.631114, 70.933865)"><g><path d="M 1.621094 -4.972656 L 1.621094 -5.960938 L 0.835938 -5.960938 L 0.835938 0 L 1.621094 0 L 1.621094 -3.3125 C 1.621094 -4.792969 2.550781 -5.292969 3.503906 -5.292969 L 3.503906 -6.054688 C 2.742188 -6.054688 2.039062 -5.804688 1.621094 -4.972656 Z M 1.621094 -4.972656 "/></g></g></g><g fill="#000000" fill-opacity="1"><g transform="translate(392.374659, 70.933865)"><g><path d="M 5.652344 0 L 2.457031 -3.101562 L 5.53125 -5.960938 L 4.457031 -5.960938 L 1.621094 -3.328125 L 1.621094 -8.34375 L 0.835938 -8.34375 L 0.835938 0 L 1.621094 0 L 1.621094 -2.875 L 4.601562 0 Z M 5.652344 0 "/></g></g></g><g fill="#000000" fill-opacity="1"><g transform="translate(398.264182, 70.933865)"><g><path d="M 5.960938 -8.34375 L 5.960938 -4.792969 C 5.460938 -5.589844 4.613281 -6.105469 3.554688 -6.105469 C 1.871094 -6.105469 0.476562 -4.746094 0.476562 -2.980469 C 0.476562 -1.214844 1.871094 0.144531 3.554688 0.144531 C 4.613281 0.144531 5.460938 -0.371094 5.960938 -1.167969 L 5.960938 0 L 6.746094 0 L 6.746094 -8.34375 Z M 3.613281 -0.621094 C 2.289062 -0.621094 1.265625 -1.65625 1.265625 -2.980469 C 1.265625 -4.304688 2.289062 -5.339844 3.613281 -5.339844 C 4.9375 -5.339844 5.960938 -4.304688 5.960938 -2.980469 C 5.960938 -1.65625 4.9375 -0.621094 3.613281 -0.621094 Z M 3.613281 -0.621094 "/></g></g></g><g fill="#000000" fill-opacity="1"><g transform="translate(405.846642, 70.933865)"><g><path d="M 3.613281 0.144531 C 5.351562 0.144531 6.746094 -1.214844 6.746094 -2.980469 C 6.746094 -4.746094 5.351562 -6.105469 3.613281 -6.105469 C 1.871094 -6.105469 0.476562 -4.746094 0.476562 -2.980469 C 0.476562 -1.214844 1.871094 0.144531 3.613281 0.144531 Z M 3.613281 -0.621094 C 2.289062 -0.621094 1.265625 -1.65625 1.265625 -2.980469 C 1.265625 -4.304688 2.289062 -5.339844 3.613281 -5.339844 C 4.9375 -5.339844 5.960938 -4.304688 5.960938 -2.980469 C 5.960938 -1.65625 4.9375 -0.621094 3.613281 -0.621094 Z M 3.613281 -0.621094 "/></g></g></g><g fill="#000000" fill-opacity="1"><g transform="translate(413.071432, 70.933865)"><g><path d="M 8.011719 -5.960938 L 6.546875 -1.011719 L 4.984375 -5.960938 L 4.195312 -5.960938 L 2.636719 -1.011719 L 1.167969 -5.960938 L 0.359375 -5.960938 L 2.195312 0 L 3.050781 0 L 4.589844 -4.804688 L 6.128906 0 L 6.988281 0 L 8.824219 -5.960938 Z M 8.011719 -5.960938 "/></g></g></g><g fill="#000000" fill-opacity="1"><g transform="translate(422.251449, 70.933865)"><g><path d="M 3.625 -6.105469 C 2.777344 -6.105469 2.085938 -5.78125 1.621094 -5.03125 L 1.621094 -5.960938 L 0.835938 -5.960938 L 0.835938 0 L 1.621094 0 L 1.621094 -3.125 C 1.621094 -4.722656 2.503906 -5.339844 3.554688 -5.339844 C 4.589844 -5.339844 5.175781 -4.722656 5.175781 -3.660156 L 5.175781 0 L 5.960938 0 L 5.960938 -3.660156 C 5.960938 -5.148438 5.078125 -6.105469 3.625 -6.105469 Z M 3.625 -6.105469 "/></g></g></g><g fill="#000000" fill-opacity="1"><g transform="translate(373.699786, 87.326722)"><g><path d="M 2.027344 1.191406 L 2.8125 1.191406 C 1.980469 -0.476562 1.503906 -2.265625 1.503906 -4.171875 C 1.503906 -6.082031 1.980469 -7.867188 2.8125 -9.539062 L 2.027344 -9.539062 C 1.191406 -7.867188 0.714844 -6.082031 0.714844 -4.171875 C 0.714844 -2.265625 1.191406 -0.476562 2.027344 1.191406 Z M 2.027344 1.191406 "/></g></g></g><g fill="#000000" fill-opacity="1"><g transform="translate(376.871067, 87.326722)"><g><path d="M 3.816406 -7.726562 L 3.816406 -8.488281 C 2.207031 -8.609375 1.3125 -7.75 1.3125 -6.199219 L 1.3125 -5.960938 L 0.296875 -5.960938 L 0.296875 -5.199219 L 1.3125 -5.199219 L 1.3125 0 L 2.097656 0 L 2.097656 -5.199219 L 3.816406 -5.199219 L 3.816406 -5.960938 L 2.097656 -5.960938 L 2.097656 -6.199219 C 2.097656 -7.34375 2.660156 -7.820312 3.816406 -7.726562 Z M 3.816406 -7.726562 "/></g></g></g><g fill="#000000" fill-opacity="1"><g transform="translate(380.68614, 87.326722)"><g><path d="M 1.226562 -7.226562 C 1.550781 -7.226562 1.800781 -7.488281 1.800781 -7.796875 C 1.800781 -8.105469 1.550781 -8.371094 1.226562 -8.371094 C 0.90625 -8.371094 0.65625 -8.105469 0.65625 -7.796875 C 0.65625 -7.488281 0.90625 -7.226562 1.226562 -7.226562 Z M 0.835938 0 L 1.621094 0 L 1.621094 -5.960938 L 0.835938 -5.960938 Z M 0.835938 0 "/></g></g></g><g fill="#000000" fill-opacity="1"><g transform="translate(383.142092, 87.326722)"><g><path d="M 0.835938 0 L 1.621094 0 L 1.621094 -8.703125 L 0.835938 -8.703125 Z M 0.835938 0 "/></g></g></g><g fill="#000000" fill-opacity="1"><g transform="translate(385.598043, 87.326722)"><g><path d="M 3.589844 -6.105469 C 1.742188 -6.105469 0.476562 -4.734375 0.476562 -2.980469 C 0.476562 -1.179688 1.765625 0.144531 3.648438 0.144531 C 4.851562 0.144531 5.769531 -0.417969 6.269531 -1.226562 L 5.578125 -1.632812 C 5.257812 -1.0625 4.601562 -0.621094 3.660156 -0.621094 C 2.394531 -0.621094 1.453125 -1.371094 1.289062 -2.585938 L 6.519531 -2.585938 C 6.535156 -2.707031 6.546875 -2.835938 6.546875 -2.957031 C 6.546875 -4.589844 5.414062 -6.105469 3.589844 -6.105469 Z M 3.589844 -5.339844 C 4.613281 -5.339844 5.566406 -4.660156 5.734375 -3.351562 L 1.289062 -3.351562 C 1.441406 -4.519531 2.335938 -5.339844 3.589844 -5.339844 Z M 3.589844 -5.339844 "/></g></g></g><g fill="#000000" fill-opacity="1"><g transform="translate(392.560555, 87.326722)"><g><path d="M 3.625 -6.105469 C 2.777344 -6.105469 2.085938 -5.78125 1.621094 -5.03125 L 1.621094 -5.960938 L 0.835938 -5.960938 L 0.835938 0 L 1.621094 0 L 1.621094 -3.125 C 1.621094 -4.722656 2.503906 -5.339844 3.554688 -5.339844 C 4.589844 -5.339844 5.175781 -4.722656 5.175781 -3.660156 L 5.175781 0 L 5.960938 0 L 5.960938 -3.660156 C 5.960938 -5.148438 5.078125 -6.105469 3.625 -6.105469 Z M 3.625 -6.105469 "/></g></g></g><g fill="#000000" fill-opacity="1"><g transform="translate(399.213093, 87.326722)"><g><path d="M 5.960938 -5.960938 L 5.960938 -4.792969 C 5.460938 -5.589844 4.613281 -6.105469 3.554688 -6.105469 C 1.871094 -6.105469 0.476562 -4.746094 0.476562 -2.980469 C 0.476562 -1.214844 1.871094 0.144531 3.554688 0.144531 C 4.613281 0.144531 5.460938 -0.371094 5.960938 -1.167969 L 5.960938 0 L 6.746094 0 L 6.746094 -5.960938 Z M 3.613281 -0.621094 C 2.289062 -0.621094 1.265625 -1.65625 1.265625 -2.980469 C 1.265625 -4.304688 2.289062 -5.339844 3.613281 -5.339844 C 4.9375 -5.339844 5.960938 -4.304688 5.960938 -2.980469 C 5.960938 -1.65625 4.9375 -0.621094 3.613281 -0.621094 Z M 3.613281 -0.621094 "/></g></g></g><g fill="#000000" fill-opacity="1"><g transform="translate(406.795553, 87.326722)"><g><path d="M 7.1875 -6.105469 C 6.425781 -6.105469 5.699219 -5.757812 5.257812 -5.019531 C 4.921875 -5.710938 4.28125 -6.105469 3.445312 -6.105469 C 2.730469 -6.105469 2.085938 -5.816406 1.621094 -5.089844 L 1.621094 -5.960938 L 0.835938 -5.960938 L 0.835938 0 L 1.621094 0 L 1.621094 -3.300781 C 1.621094 -4.78125 2.480469 -5.339844 3.339844 -5.339844 C 4.183594 -5.339844 4.734375 -4.78125 4.734375 -3.71875 L 4.734375 0 L 5.519531 0 L 5.519531 -3.300781 C 5.519531 -4.78125 6.257812 -5.339844 7.175781 -5.339844 C 8.023438 -5.339844 8.632812 -4.78125 8.632812 -3.71875 L 8.632812 0 L 9.417969 0 L 9.417969 -3.71875 C 9.417969 -5.210938 8.5 -6.105469 7.1875 -6.105469 Z M 7.1875 -6.105469 "/></g></g></g><g fill="#000000" fill-opacity="1"><g transform="translate(416.905492, 87.326722)"><g><path d="M 3.589844 -6.105469 C 1.742188 -6.105469 0.476562 -4.734375 0.476562 -2.980469 C 0.476562 -1.179688 1.765625 0.144531 3.648438 0.144531 C 4.851562 0.144531 5.769531 -0.417969 6.269531 -1.226562 L 5.578125 -1.632812 C 5.257812 -1.0625 4.601562 -0.621094 3.660156 -0.621094 C 2.394531 -0.621094 1.453125 -1.371094 1.289062 -2.585938 L 6.519531 -2.585938 C 6.535156 -2.707031 6.546875 -2.835938 6.546875 -2.957031 C 6.546875 -4.589844 5.414062 -6.105469 3.589844 -6.105469 Z M 3.589844 -5.339844 C 4.613281 -5.339844 5.566406 -4.660156 5.734375 -3.351562 L 1.289062 -3.351562 C 1.441406 -4.519531 2.335938 -5.339844 3.589844 -5.339844 Z M 3.589844 -5.339844 "/></g></g></g><g fill="#000000" fill-opacity="1"><g transform="translate(423.868004, 87.326722)"><g><path d="M 2.144531 -1.011719 L 1.191406 -1.011719 L 0.714844 1.667969 L 1.429688 1.667969 Z M 2.144531 -1.011719 "/></g></g></g><g fill="#000000" fill-opacity="1"><g transform="translate(377.122726, 103.719579)"><g><path d="M 3.613281 0.144531 C 4.78125 0.144531 5.792969 -0.464844 6.28125 -1.40625 L 5.628906 -1.789062 C 5.246094 -1.097656 4.519531 -0.621094 3.613281 -0.621094 C 2.289062 -0.621094 1.265625 -1.65625 1.265625 -2.980469 C 1.265625 -4.304688 2.289062 -5.339844 3.613281 -5.339844 C 4.507812 -5.339844 5.257812 -4.875 5.578125 -4.171875 L 6.222656 -4.542969 C 5.792969 -5.484375 4.792969 -6.105469 3.613281 -6.105469 C 1.8125 -6.105469 0.476562 -4.746094 0.476562 -2.980469 C 0.476562 -1.214844 1.8125 0.144531 3.613281 0.144531 Z M 3.613281 0.144531 "/></g></g></g><g fill="#000000" fill-opacity="1"><g transform="translate(383.703725, 103.719579)"><g><path d="M 3.613281 0.144531 C 5.351562 0.144531 6.746094 -1.214844 6.746094 -2.980469 C 6.746094 -4.746094 5.351562 -6.105469 3.613281 -6.105469 C 1.871094 -6.105469 0.476562 -4.746094 0.476562 -2.980469 C 0.476562 -1.214844 1.871094 0.144531 3.613281 0.144531 Z M 3.613281 -0.621094 C 2.289062 -0.621094 1.265625 -1.65625 1.265625 -2.980469 C 1.265625 -4.304688 2.289062 -5.339844 3.613281 -5.339844 C 4.9375 -5.339844 5.960938 -4.304688 5.960938 -2.980469 C 5.960938 -1.65625 4.9375 -0.621094 3.613281 -0.621094 Z M 3.613281 -0.621094 "/></g></g></g><g fill="#000000" fill-opacity="1"><g transform="translate(390.928514, 103.719579)"><g><path d="M 3.625 -6.105469 C 2.777344 -6.105469 2.085938 -5.78125 1.621094 -5.03125 L 1.621094 -5.960938 L 0.835938 -5.960938 L 0.835938 0 L 1.621094 0 L 1.621094 -3.125 C 1.621094 -4.722656 2.503906 -5.339844 3.554688 -5.339844 C 4.589844 -5.339844 5.175781 -4.722656 5.175781 -3.660156 L 5.175781 0 L 5.960938 0 L 5.960938 -3.660156 C 5.960938 -5.148438 5.078125 -6.105469 3.625 -6.105469 Z M 3.625 -6.105469 "/></g></g></g><g fill="#000000" fill-opacity="1"><g transform="translate(397.581052, 103.719579)"><g><path d="M 3.992188 -5.199219 L 3.992188 -5.960938 L 2.277344 -5.960938 L 2.277344 -7.628906 L 1.492188 -7.390625 L 1.492188 -5.960938 L 0.238281 -5.960938 L 0.238281 -5.199219 L 1.492188 -5.199219 L 1.492188 -1.585938 C 1.492188 -0.15625 2.382812 0.238281 3.992188 0 L 3.992188 -0.691406 C 2.835938 -0.644531 2.277344 -0.558594 2.277344 -1.585938 L 2.277344 -5.199219 Z M 3.992188 -5.199219 "/></g></g></g><g fill="#000000" fill-opacity="1"><g transform="translate(402.051842, 103.719579)"><g><path d="M 3.589844 -6.105469 C 1.742188 -6.105469 0.476562 -4.734375 0.476562 -2.980469 C 0.476562 -1.179688 1.765625 0.144531 3.648438 0.144531 C 4.851562 0.144531 5.769531 -0.417969 6.269531 -1.226562 L 5.578125 -1.632812 C 5.257812 -1.0625 4.601562 -0.621094 3.660156 -0.621094 C 2.394531 -0.621094 1.453125 -1.371094 1.289062 -2.585938 L 6.519531 -2.585938 C 6.535156 -2.707031 6.546875 -2.835938 6.546875 -2.957031 C 6.546875 -4.589844 5.414062 -6.105469 3.589844 -6.105469 Z M 3.589844 -5.339844 C 4.613281 -5.339844 5.566406 -4.660156 5.734375 -3.351562 L 1.289062 -3.351562 C 1.441406 -4.519531 2.335938 -5.339844 3.589844 -5.339844 Z M 3.589844 -5.339844 "/></g></g></g><g fill="#000000" fill-opacity="1"><g transform="translate(409.014354, 103.719579)"><g><path d="M 3.625 -6.105469 C 2.777344 -6.105469 2.085938 -5.78125 1.621094 -5.03125 L 1.621094 -5.960938 L 0.835938 -5.960938 L 0.835938 0 L 1.621094 0 L 1.621094 -3.125 C 1.621094 -4.722656 2.503906 -5.339844 3.554688 -5.339844 C 4.589844 -5.339844 5.175781 -4.722656 5.175781 -3.660156 L 5.175781 0 L 5.960938 0 L 5.960938 -3.660156 C 5.960938 -5.148438 5.078125 -6.105469 3.625 -6.105469 Z M 3.625 -6.105469 "/></g></g></g><g fill="#000000" fill-opacity="1"><g transform="translate(415.666891, 103.719579)"><g><path d="M 3.992188 -5.199219 L 3.992188 -5.960938 L 2.277344 -5.960938 L 2.277344 -7.628906 L 1.492188 -7.390625 L 1.492188 -5.960938 L 0.238281 -5.960938 L 0.238281 -5.199219 L 1.492188 -5.199219 L 1.492188 -1.585938 C 1.492188 -0.15625 2.382812 0.238281 3.992188 0 L 3.992188 -0.691406 C 2.835938 -0.644531 2.277344 -0.558594 2.277344 -1.585938 L 2.277344 -5.199219 Z M 3.992188 -5.199219 "/></g></g></g><g fill="#000000" fill-opacity="1"><g transform="translate(420.137682, 103.719579)"><g><path d="M 1.144531 1.191406 C 1.980469 -0.476562 2.457031 -2.265625 2.457031 -4.171875 C 2.457031 -6.082031 1.980469 -7.867188 1.144531 -9.539062 L 0.359375 -9.539062 C 1.191406 -7.867188 1.667969 -6.082031 1.667969 -4.171875 C 1.667969 -2.265625 1.191406 -0.476562 0.359375 1.191406 Z M 1.144531 1.191406 "/></g></g></g><path fill="#89898d" d="M 473.941406 75.027344 L 475.429688 75.027344 L 475.429688 76.519531 L 473.941406 76.519531 M 476.921875 75.027344 L 478.410156 75.027344 L 478.410156 76.519531 L 476.921875 76.519531 M 479.902344 75.027344 L 481.394531 75.027344 L 481.394531 76.519531 L 479.902344 76.519531 M 482.882812 75.027344 L 484.375 75.027344 L 484.375 76.519531 L 482.882812 76.519531 M 485.863281 75.027344 L 487.355469 75.027344 L 487.355469 76.519531 L 485.863281 76.519531 M 488.84375 75.027344 L 490.335938 75.027344 L 490.335938 76.519531 L 488.84375 76.519531 M 491.824219 75.027344 L 493.316406 75.027344 L 493.316406 76.519531 L 491.824219 76.519531 M 494.804688 75.027344 L 496.296875 75.027344 L 496.296875 76.519531 L 494.804688 76.519531 M 497.785156 75.027344 L 499.277344 75.027344 L 499.277344 76.519531 L 497.785156 76.519531 M 500.765625 75.027344 L 502.257812 75.027344 L 502.257812 76.519531 L 500.765625 76.519531 M 503.746094 75.027344 L 505.238281 75.027344 L 505.238281 76.519531 L 503.746094 76.519531 M 506.726562 75.027344 L 508.21875 75.027344 L 508.21875 76.519531 L 506.726562 76.519531 M 509.707031 75.027344 L 510.832031 75.027344 L 510.832031 76.519531 L 509.707031 76.519531 " fill-opacity="1" fill-rule="nonzero"/><path stroke-linecap="round" transform="matrix(0.74513, -0.0000000000483783, 0.0000000000483783, 0.74513, 473.941309, 75.029103)" fill-opacity="1" fill="#89898d" fill-rule="nonzero" stroke-linejoin="round" d="M 50.012387 -1.999706 L 54.012319 0.998932 L 50.012387 3.997571 Z M 50.012387 -1.999706 " stroke="#89898d" stroke-width="2" stroke-opacity="1" stroke-miterlimit="4"/></svg>