<svg xmlns="http://www.w3.org/2000/svg" xmlns:xlink="http://www.w3.org/1999/xlink" width="807" zoomAndPan="magnify" viewBox="0 0 605.25 231" height="308" preserveAspectRatio="xMidYMid meet" version="1.0"><defs><g/><clipPath id="6ce03ee1ad"><path d="M 94.886719 0.144531 L 516.445312 0.144531 L 516.445312 230.246094 L 94.886719 230.246094 Z M 94.886719 0.144531 " clip-rule="nonzero"/></clipPath><clipPath id="26aeb13fd7"><path d="M 107.621094 0.144531 L 503.378906 0.144531 C 510.410156 0.144531 516.113281 5.84375 516.113281 12.878906 L 516.113281 217.511719 C 516.113281 224.546875 510.410156 230.246094 503.378906 230.246094 L 107.621094 230.246094 C 100.589844 230.246094 94.886719 224.546875 94.886719 217.511719 L 94.886719 12.878906 C 94.886719 5.84375 100.589844 0.144531 107.621094 0.144531 Z M 107.621094 0.144531 " clip-rule="nonzero"/></clipPath><clipPath id="28320a184f"><path d="M 0.886719 0.144531 L 422.320312 0.144531 L 422.320312 230.246094 L 0.886719 230.246094 Z M 0.886719 0.144531 " clip-rule="nonzero"/></clipPath><clipPath id="7be749c801"><path d="M 13.621094 0.144531 L 409.378906 0.144531 C 416.410156 0.144531 422.113281 5.84375 422.113281 12.878906 L 422.113281 217.511719 C 422.113281 224.546875 416.410156 230.246094 409.378906 230.246094 L 13.621094 230.246094 C 6.589844 230.246094 0.886719 224.546875 0.886719 217.511719 L 0.886719 12.878906 C 0.886719 5.84375 6.589844 0.144531 13.621094 0.144531 Z M 13.621094 0.144531 " clip-rule="nonzero"/></clipPath><clipPath id="1a58a4eddf"><rect x="0" width="423" y="0" height="231"/></clipPath><clipPath id="3c9c1e56ff"><path d="M 94.898438 0.144531 L 515.867188 0.144531 L 515.867188 230.109375 L 94.898438 230.109375 Z M 94.898438 0.144531 " clip-rule="nonzero"/></clipPath><clipPath id="4d76caf2e5"><path d="M 107.628906 0.144531 L 503.367188 0.144531 C 510.402344 0.144531 516.101562 5.84375 516.101562 12.875 L 516.101562 217.503906 C 516.101562 224.535156 510.402344 230.238281 503.367188 230.238281 L 107.628906 230.238281 C 100.597656 230.238281 94.898438 224.535156 94.898438 217.503906 L 94.898438 12.875 C 94.898438 5.84375 100.597656 0.144531 107.628906 0.144531 Z M 107.628906 0.144531 " clip-rule="nonzero"/></clipPath><clipPath id="b0270426d1"><path d="M 129.042969 88.367188 L 198.800781 88.367188 L 198.800781 157.855469 L 129.042969 157.855469 Z M 129.042969 88.367188 " clip-rule="nonzero"/></clipPath><clipPath id="20d97869be"><path d="M 132.039062 88.367188 L 195.613281 88.367188 C 197.269531 88.367188 198.609375 89.707031 198.609375 91.363281 L 198.609375 154.855469 C 198.609375 156.511719 197.269531 157.855469 195.613281 157.855469 L 132.039062 157.855469 C 130.382812 157.855469 129.042969 156.511719 129.042969 154.855469 L 129.042969 91.363281 C 129.042969 89.707031 130.382812 88.367188 132.039062 88.367188 Z M 132.039062 88.367188 " clip-rule="nonzero"/></clipPath><clipPath id="d9826e206c"><path d="M 0.0429688 0.367188 L 69.714844 0.367188 L 69.714844 69.855469 L 0.0429688 69.855469 Z M 0.0429688 0.367188 " clip-rule="nonzero"/></clipPath><clipPath id="180c995804"><path d="M 3.039062 0.367188 L 66.613281 0.367188 C 68.269531 0.367188 69.609375 1.707031 69.609375 3.363281 L 69.609375 66.855469 C 69.609375 68.511719 68.269531 69.855469 66.613281 69.855469 L 3.039062 69.855469 C 1.382812 69.855469 0.0429688 68.511719 0.0429688 66.855469 L 0.0429688 3.363281 C 0.0429688 1.707031 1.382812 0.367188 3.039062 0.367188 Z M 3.039062 0.367188 " clip-rule="nonzero"/></clipPath><clipPath id="4c65460bd5"><rect x="0" width="70" y="0" height="70"/></clipPath><clipPath id="ca3c84da6f"><path d="M 129.042969 88.367188 L 198.707031 88.367188 L 198.707031 158 L 129.042969 158 Z M 129.042969 88.367188 " clip-rule="nonzero"/></clipPath><clipPath id="50e883089a"><path d="M 132.039062 88.367188 L 195.605469 88.367188 C 197.257812 88.367188 198.601562 89.707031 198.601562 91.363281 L 198.601562 154.847656 C 198.601562 156.503906 197.257812 157.84375 195.605469 157.84375 L 132.039062 157.84375 C 130.382812 157.84375 129.042969 156.503906 129.042969 154.847656 L 129.042969 91.363281 C 129.042969 89.707031 130.382812 88.367188 132.039062 88.367188 Z M 132.039062 88.367188 " clip-rule="nonzero"/></clipPath><clipPath id="2d0ebf3ffa"><path d="M 239.347656 88.367188 L 334.894531 88.367188 L 334.894531 157.855469 L 239.347656 157.855469 Z M 239.347656 88.367188 " clip-rule="nonzero"/></clipPath><clipPath id="93816d8240"><path d="M 257.726562 88.367188 L 316.460938 88.367188 C 326.613281 88.367188 334.839844 96.59375 334.839844 106.746094 L 334.839844 139.476562 C 334.839844 149.625 326.613281 157.855469 316.460938 157.855469 L 257.726562 157.855469 C 247.578125 157.855469 239.347656 149.625 239.347656 139.476562 L 239.347656 106.746094 C 239.347656 96.59375 247.578125 88.367188 257.726562 88.367188 Z M 257.726562 88.367188 " clip-rule="nonzero"/></clipPath><clipPath id="a48d20ee69"><path d="M 0.347656 0.367188 L 95.863281 0.367188 L 95.863281 69.855469 L 0.347656 69.855469 Z M 0.347656 0.367188 " clip-rule="nonzero"/></clipPath><clipPath id="f866901973"><path d="M 18.726562 0.367188 L 77.460938 0.367188 C 87.613281 0.367188 95.839844 8.59375 95.839844 18.746094 L 95.839844 51.476562 C 95.839844 61.625 87.613281 69.855469 77.460938 69.855469 L 18.726562 69.855469 C 8.578125 69.855469 0.347656 61.625 0.347656 51.476562 L 0.347656 18.746094 C 0.347656 8.59375 8.578125 0.367188 18.726562 0.367188 Z M 18.726562 0.367188 " clip-rule="nonzero"/></clipPath><clipPath id="a95628f957"><rect x="0" width="96" y="0" height="70"/></clipPath><clipPath id="7ace2544fd"><path d="M 239.351562 88.367188 L 334.480469 88.367188 L 334.480469 158 L 239.351562 158 Z M 239.351562 88.367188 " clip-rule="nonzero"/></clipPath><clipPath id="b9248ec062"><path d="M 257.726562 88.367188 L 316.453125 88.367188 C 326.601562 88.367188 334.828125 96.59375 334.828125 106.742188 L 334.828125 139.46875 C 334.828125 149.617188 326.601562 157.84375 316.453125 157.84375 L 257.726562 157.84375 C 247.578125 157.84375 239.351562 149.617188 239.351562 139.46875 L 239.351562 106.742188 C 239.351562 96.59375 247.578125 88.367188 257.726562 88.367188 Z M 257.726562 88.367188 " clip-rule="nonzero"/></clipPath><clipPath id="a9c74b9f0c"><path d="M 0 54.992188 L 70.296875 54.992188 L 70.296875 191.46875 L 0 191.46875 Z M 0 54.992188 " clip-rule="nonzero"/></clipPath><clipPath id="8e397b193e"><path d="M 12.734375 54.992188 L 57.566406 54.992188 C 60.941406 54.992188 64.179688 56.332031 66.570312 58.71875 C 68.957031 61.109375 70.296875 64.347656 70.296875 67.726562 L 70.296875 178.496094 C 70.296875 181.871094 68.957031 185.113281 66.570312 187.5 C 64.179688 189.886719 60.941406 191.230469 57.566406 191.230469 L 12.734375 191.230469 C 9.355469 191.230469 6.117188 189.886719 3.730469 187.5 C 1.339844 185.113281 0 181.871094 0 178.496094 L 0 67.726562 C 0 64.347656 1.339844 61.109375 3.730469 58.71875 C 6.117188 56.332031 9.355469 54.992188 12.734375 54.992188 Z M 12.734375 54.992188 " clip-rule="nonzero"/></clipPath><clipPath id="6def020242"><path d="M 0 0.992188 L 70.296875 0.992188 L 70.296875 137.425781 L 0 137.425781 Z M 0 0.992188 " clip-rule="nonzero"/></clipPath><clipPath id="777a6f8f54"><path d="M 12.734375 0.992188 L 57.566406 0.992188 C 60.941406 0.992188 64.179688 2.332031 66.570312 4.71875 C 68.957031 7.109375 70.296875 10.347656 70.296875 13.726562 L 70.296875 124.496094 C 70.296875 127.871094 68.957031 131.113281 66.570312 133.5 C 64.179688 135.886719 60.941406 137.230469 57.566406 137.230469 L 12.734375 137.230469 C 9.355469 137.230469 6.117188 135.886719 3.730469 133.5 C 1.339844 131.113281 0 127.871094 0 124.496094 L 0 13.726562 C 0 10.347656 1.339844 7.109375 3.730469 4.71875 C 6.117188 2.332031 9.355469 0.992188 12.734375 0.992188 Z M 12.734375 0.992188 " clip-rule="nonzero"/></clipPath><clipPath id="d174695afb"><rect x="0" width="71" y="0" height="138"/></clipPath><clipPath id="60cc9265fa"><path d="M 0 54.992188 L 70.414062 54.992188 L 70.414062 191.320312 L 0 191.320312 Z M 0 54.992188 " clip-rule="nonzero"/></clipPath><clipPath id="3d6bbed325"><path d="M 12.734375 54.992188 L 57.5625 54.992188 C 60.9375 54.992188 64.179688 56.335938 66.566406 58.722656 C 68.953125 61.109375 70.296875 64.347656 70.296875 67.726562 L 70.296875 178.492188 C 70.296875 181.871094 68.953125 185.109375 66.566406 187.496094 C 64.179688 189.882812 60.9375 191.226562 57.5625 191.226562 L 12.734375 191.226562 C 9.355469 191.226562 6.117188 189.882812 3.730469 187.496094 C 1.339844 185.109375 0 181.871094 0 178.492188 L 0 67.726562 C 0 64.347656 1.339844 61.109375 3.730469 58.722656 C 6.117188 56.335938 9.355469 54.992188 12.734375 54.992188 Z M 12.734375 54.992188 " clip-rule="nonzero"/></clipPath><clipPath id="ba9763badf"><path d="M 533.609375 54.992188 L 603.90625 54.992188 L 603.90625 191.46875 L 533.609375 191.46875 Z M 533.609375 54.992188 " clip-rule="nonzero"/></clipPath><clipPath id="6becf8f49c"><path d="M 546.34375 54.992188 L 591.171875 54.992188 C 594.550781 54.992188 597.789062 56.332031 600.179688 58.71875 C 602.566406 61.109375 603.90625 64.347656 603.90625 67.726562 L 603.90625 178.496094 C 603.90625 181.871094 602.566406 185.113281 600.179688 187.5 C 597.789062 189.886719 594.550781 191.230469 591.171875 191.230469 L 546.34375 191.230469 C 542.964844 191.230469 539.726562 189.886719 537.339844 187.5 C 534.949219 185.113281 533.609375 181.871094 533.609375 178.496094 L 533.609375 67.726562 C 533.609375 64.347656 534.949219 61.109375 537.339844 58.71875 C 539.726562 56.332031 542.964844 54.992188 546.34375 54.992188 Z M 546.34375 54.992188 " clip-rule="nonzero"/></clipPath><clipPath id="592c2cba52"><path d="M 0.609375 0.992188 L 70.90625 0.992188 L 70.90625 137.425781 L 0.609375 137.425781 Z M 0.609375 0.992188 " clip-rule="nonzero"/></clipPath><clipPath id="7db9a15848"><path d="M 13.34375 0.992188 L 58.171875 0.992188 C 61.550781 0.992188 64.789062 2.332031 67.179688 4.71875 C 69.566406 7.109375 70.90625 10.347656 70.90625 13.726562 L 70.90625 124.496094 C 70.90625 127.871094 69.566406 131.113281 67.179688 133.5 C 64.789062 135.886719 61.550781 137.230469 58.171875 137.230469 L 13.34375 137.230469 C 9.964844 137.230469 6.726562 135.886719 4.339844 133.5 C 1.949219 131.113281 0.609375 127.871094 0.609375 124.496094 L 0.609375 13.726562 C 0.609375 10.347656 1.949219 7.109375 4.339844 4.71875 C 6.726562 2.332031 9.964844 0.992188 13.34375 0.992188 Z M 13.34375 0.992188 " clip-rule="nonzero"/></clipPath><clipPath id="1774f44f63"><rect x="0" width="71" y="0" height="138"/></clipPath><clipPath id="8bbc2ce29e"><path d="M 533.609375 54.992188 L 604 54.992188 L 604 191.320312 L 533.609375 191.320312 Z M 533.609375 54.992188 " clip-rule="nonzero"/></clipPath><clipPath id="8f69f17966"><path d="M 546.34375 54.992188 L 591.171875 54.992188 C 594.546875 54.992188 597.785156 56.335938 600.175781 58.722656 C 602.5625 61.109375 603.90625 64.347656 603.90625 67.726562 L 603.90625 178.492188 C 603.90625 181.871094 602.5625 185.109375 600.175781 187.496094 C 597.785156 189.882812 594.546875 191.226562 591.171875 191.226562 L 546.34375 191.226562 C 542.964844 191.226562 539.726562 189.882812 537.339844 187.496094 C 534.949219 185.109375 533.609375 181.871094 533.609375 178.492188 L 533.609375 67.726562 C 533.609375 64.347656 534.949219 61.109375 537.339844 58.722656 C 539.726562 56.335938 542.964844 54.992188 546.34375 54.992188 Z M 546.34375 54.992188 " clip-rule="nonzero"/></clipPath><clipPath id="a47809abc8"><path d="M 375.582031 85.285156 L 504 85.285156 L 504 160.933594 L 375.582031 160.933594 Z M 375.582031 85.285156 " clip-rule="nonzero"/></clipPath><clipPath id="bc0a85f37c"><path d="M 380.480469 85.285156 L 462.796875 85.285156 C 485.644531 85.285156 503.960938 102.21875 503.960938 123.109375 C 503.960938 144 485.644531 160.933594 462.796875 160.933594 L 380.480469 160.933594 C 377.773438 160.933594 375.582031 158.742188 375.582031 156.035156 L 375.582031 90.1875 C 375.582031 87.480469 377.773438 85.285156 380.480469 85.285156 Z M 380.480469 85.285156 " clip-rule="nonzero"/></clipPath><clipPath id="0383a7d994"><path d="M 0.582031 0.285156 L 129 0.285156 L 129 75.933594 L 0.582031 75.933594 Z M 0.582031 0.285156 " clip-rule="nonzero"/></clipPath><clipPath id="7c31a41ac4"><path d="M 5.480469 0.285156 L 87.796875 0.285156 C 110.644531 0.285156 128.960938 17.21875 128.960938 38.109375 C 128.960938 59 110.644531 75.933594 87.796875 75.933594 L 5.480469 75.933594 C 2.773438 75.933594 0.582031 73.742188 0.582031 71.035156 L 0.582031 5.1875 C 0.582031 2.480469 2.773438 0.285156 5.480469 0.285156 Z M 5.480469 0.285156 " clip-rule="nonzero"/></clipPath><clipPath id="7bf424a5b8"><rect x="0" width="129" y="0" height="76"/></clipPath><clipPath id="7d5ecc333c"><path d="M 375.582031 85.285156 L 503.671875 85.285156 L 503.671875 160.941406 L 375.582031 160.941406 Z M 375.582031 85.285156 " clip-rule="nonzero"/></clipPath><clipPath id="65a4a9ce44"><path d="M 380.484375 85.285156 L 462.792969 85.285156 C 485.636719 85.285156 503.953125 102.21875 503.953125 123.109375 C 503.953125 143.996094 485.636719 160.929688 462.792969 160.929688 L 380.484375 160.929688 C 377.777344 160.929688 375.582031 158.734375 375.582031 156.027344 L 375.582031 90.1875 C 375.582031 87.480469 377.777344 85.285156 380.484375 85.285156 Z M 380.484375 85.285156 " clip-rule="nonzero"/></clipPath></defs><g clip-path="url(#6ce03ee1ad)"><g clip-path="url(#26aeb13fd7)"><g transform="matrix(1, 0, 0, 1, 94, -0.00000000000001113)"><g clip-path="url(#1a58a4eddf)"><g clip-path="url(#28320a184f)"><g clip-path="url(#7be749c801)"><path fill="#f8f3ed" d="M 0.886719 0.144531 L 422.445312 0.144531 L 422.445312 230.246094 L 0.886719 230.246094 Z M 0.886719 0.144531 " fill-opacity="1" fill-rule="nonzero"/></g></g></g></g></g></g><g clip-path="url(#3c9c1e56ff)"><g clip-path="url(#4d76caf2e5)"><path stroke-linecap="butt" transform="matrix(0.749072, 0, 0, 0.749072, 94.896609, 0.142956)" fill="none" stroke-linejoin="miter" d="M 16.997433 0.00210356 L 545.30234 0.00210356 C 554.694172 0.00210356 562.302547 7.610479 562.302547 16.997096 L 562.302547 290.173739 C 562.302547 299.560356 554.694172 307.173946 545.30234 307.173946 L 16.997433 307.173946 C 7.610816 307.173946 0.00244101 299.560356 0.00244101 290.173739 L 0.00244101 16.997096 C 0.00244101 7.610479 7.610816 0.00210356 16.997433 0.00210356 Z M 16.997433 0.00210356 " stroke="#efeae7" stroke-width="4" stroke-opacity="1" stroke-miterlimit="4"/></g></g><g fill="#000000" fill-opacity="1"><g transform="translate(262.468817, 24.41288)"><g><path d="M 4.878906 0.144531 C 6.449219 0.144531 7.828125 -0.683594 8.507812 -1.929688 L 7.765625 -2.347656 C 7.25 -1.34375 6.136719 -0.671875 4.878906 -0.671875 C 2.757812 -0.671875 1.320312 -2.242188 1.320312 -4.195312 C 1.320312 -6.148438 2.757812 -7.71875 4.878906 -7.71875 C 6.136719 -7.71875 7.25 -7.046875 7.765625 -6.039062 L 8.507812 -6.472656 C 7.8125 -7.71875 6.4375 -8.535156 4.878906 -8.535156 C 2.300781 -8.535156 0.480469 -6.59375 0.480469 -4.195312 C 0.480469 -1.796875 2.300781 0.144531 4.878906 0.144531 Z M 4.878906 0.144531 "/></g></g></g><g fill="#000000" fill-opacity="1"><g transform="translate(271.397774, 24.41288)"><g><path d="M 3.632812 0.144531 C 5.382812 0.144531 6.785156 -1.222656 6.785156 -2.996094 C 6.785156 -4.769531 5.382812 -6.136719 3.632812 -6.136719 C 1.882812 -6.136719 0.480469 -4.769531 0.480469 -2.996094 C 0.480469 -1.222656 1.882812 0.144531 3.632812 0.144531 Z M 3.632812 -0.625 C 2.300781 -0.625 1.269531 -1.664062 1.269531 -2.996094 C 1.269531 -4.328125 2.300781 -5.371094 3.632812 -5.371094 C 4.960938 -5.371094 5.992188 -4.328125 5.992188 -2.996094 C 5.992188 -1.664062 4.960938 -0.625 3.632812 -0.625 Z M 3.632812 -0.625 "/></g></g></g><g fill="#000000" fill-opacity="1"><g transform="translate(278.660784, 24.41288)"><g><path d="M 3.632812 0.144531 C 4.804688 0.144531 5.824219 -0.46875 6.316406 -1.414062 L 5.65625 -1.796875 C 5.273438 -1.101562 4.542969 -0.625 3.632812 -0.625 C 2.300781 -0.625 1.269531 -1.664062 1.269531 -2.996094 C 1.269531 -4.328125 2.300781 -5.371094 3.632812 -5.371094 C 4.53125 -5.371094 5.285156 -4.902344 5.609375 -4.195312 L 6.257812 -4.566406 C 5.824219 -5.511719 4.816406 -6.136719 3.632812 -6.136719 C 1.820312 -6.136719 0.480469 -4.769531 0.480469 -2.996094 C 0.480469 -1.222656 1.820312 0.144531 3.632812 0.144531 Z M 3.632812 0.144531 "/></g></g></g><g fill="#000000" fill-opacity="1"><g transform="translate(285.276598, 24.41288)"><g><path d="M 3.632812 0.144531 C 5.382812 0.144531 6.785156 -1.222656 6.785156 -2.996094 C 6.785156 -4.769531 5.382812 -6.136719 3.632812 -6.136719 C 1.882812 -6.136719 0.480469 -4.769531 0.480469 -2.996094 C 0.480469 -1.222656 1.882812 0.144531 3.632812 0.144531 Z M 3.632812 -0.625 C 2.300781 -0.625 1.269531 -1.664062 1.269531 -2.996094 C 1.269531 -4.328125 2.300781 -5.371094 3.632812 -5.371094 C 4.960938 -5.371094 5.992188 -4.328125 5.992188 -2.996094 C 5.992188 -1.664062 4.960938 -0.625 3.632812 -0.625 Z M 3.632812 -0.625 "/></g></g></g><g fill="#000000" fill-opacity="1"><g transform="translate(292.539608, 24.41288)"><g><path d="M 0.957031 -8.390625 L 0.957031 0 L 1.796875 0 L 1.796875 -8.390625 Z M 0.957031 -8.390625 "/></g></g></g><g fill="#000000" fill-opacity="1"><g transform="translate(295.296198, 24.41288)"><g><path d="M 3.644531 -6.136719 C 2.792969 -6.136719 2.097656 -5.8125 1.628906 -5.058594 L 1.628906 -5.992188 L 0.839844 -5.992188 L 0.839844 0 L 1.628906 0 L 1.628906 -3.140625 C 1.628906 -4.746094 2.515625 -5.371094 3.570312 -5.371094 C 4.613281 -5.371094 5.203125 -4.746094 5.203125 -3.679688 L 5.203125 0 L 5.992188 0 L 5.992188 -3.679688 C 5.992188 -5.175781 5.105469 -6.136719 3.644531 -6.136719 Z M 3.644531 -6.136719 "/></g></g></g><g fill="#000000" fill-opacity="1"><g transform="translate(301.983929, 24.41288)"><g><path d="M 5.992188 -8.390625 L 5.992188 -4.816406 C 5.488281 -5.621094 4.636719 -6.136719 3.570312 -6.136719 C 1.882812 -6.136719 0.480469 -4.769531 0.480469 -2.996094 C 0.480469 -1.222656 1.882812 0.144531 3.570312 0.144531 C 4.636719 0.144531 5.488281 -0.371094 5.992188 -1.175781 L 5.992188 0 L 6.785156 0 L 6.785156 -8.390625 Z M 3.632812 -0.625 C 2.300781 -0.625 1.269531 -1.664062 1.269531 -2.996094 C 1.269531 -4.328125 2.300781 -5.371094 3.632812 -5.371094 C 4.960938 -5.371094 5.992188 -4.328125 5.992188 -2.996094 C 5.992188 -1.664062 4.960938 -0.625 3.632812 -0.625 Z M 3.632812 -0.625 "/></g></g></g><g fill="#000000" fill-opacity="1"><g transform="translate(309.606502, 24.41288)"><g><path d="M 3.609375 -6.136719 C 1.75 -6.136719 0.480469 -4.757812 0.480469 -2.996094 C 0.480469 -1.1875 1.773438 0.144531 3.667969 0.144531 C 4.878906 0.144531 5.800781 -0.417969 6.304688 -1.234375 L 5.609375 -1.640625 C 5.285156 -1.066406 4.625 -0.625 3.679688 -0.625 C 2.410156 -0.625 1.460938 -1.378906 1.292969 -2.601562 L 6.554688 -2.601562 C 6.566406 -2.71875 6.578125 -2.851562 6.578125 -2.972656 C 6.578125 -4.613281 5.441406 -6.136719 3.609375 -6.136719 Z M 3.609375 -5.371094 C 4.636719 -5.371094 5.597656 -4.6875 5.765625 -3.367188 L 1.292969 -3.367188 C 1.449219 -4.542969 2.347656 -5.371094 3.609375 -5.371094 Z M 3.609375 -5.371094 "/></g></g></g><g fill="#000000" fill-opacity="1"><g transform="translate(316.605847, 24.41288)"><g><path d="M 5.871094 0 L 3.535156 -3.105469 L 5.71875 -5.992188 L 4.769531 -5.992188 L 3.054688 -3.726562 L 1.34375 -5.992188 L 0.394531 -5.992188 L 2.589844 -3.105469 L 0.238281 0 L 1.1875 0 L 3.054688 -2.46875 L 4.925781 0 Z M 5.871094 0 "/></g></g></g><g fill="#000000" fill-opacity="1"><g transform="translate(322.718287, 24.41288)"><g/></g></g><g fill="#000000" fill-opacity="1"><g transform="translate(325.714585, 24.41288)"><g><path d="M 6.542969 0 L 7.429688 0 L 4.207031 -8.390625 L 3.34375 -8.390625 L 0.121094 0 L 1.007812 0 L 1.785156 -2.0625 L 5.765625 -2.0625 Z M 2.085938 -2.851562 L 3.773438 -7.347656 L 5.464844 -2.851562 Z M 2.085938 -2.851562 "/></g></g></g><g fill="#000000" fill-opacity="1"><g transform="translate(333.265241, 24.41288)"><g><path d="M 4.050781 -6.136719 C 2.984375 -6.136719 2.132812 -5.621094 1.628906 -4.816406 L 1.628906 -5.992188 L 0.839844 -5.992188 L 0.839844 2.398438 L 1.628906 2.398438 L 1.628906 -1.175781 C 2.132812 -0.371094 2.984375 0.144531 4.050781 0.144531 C 5.742188 0.144531 7.144531 -1.222656 7.144531 -2.996094 C 7.144531 -4.769531 5.742188 -6.136719 4.050781 -6.136719 Z M 3.992188 -0.625 C 2.660156 -0.625 1.628906 -1.664062 1.628906 -2.996094 C 1.628906 -4.328125 2.660156 -5.371094 3.992188 -5.371094 C 5.320312 -5.371094 6.351562 -4.328125 6.351562 -2.996094 C 6.351562 -1.664062 5.320312 -0.625 3.992188 -0.625 Z M 3.992188 -0.625 "/></g></g></g><g fill="#000000" fill-opacity="1"><g transform="translate(340.887815, 24.41288)"><g><path d="M 4.050781 -6.136719 C 2.984375 -6.136719 2.132812 -5.621094 1.628906 -4.816406 L 1.628906 -5.992188 L 0.839844 -5.992188 L 0.839844 2.398438 L 1.628906 2.398438 L 1.628906 -1.175781 C 2.132812 -0.371094 2.984375 0.144531 4.050781 0.144531 C 5.742188 0.144531 7.144531 -1.222656 7.144531 -2.996094 C 7.144531 -4.769531 5.742188 -6.136719 4.050781 -6.136719 Z M 3.992188 -0.625 C 2.660156 -0.625 1.628906 -1.664062 1.628906 -2.996094 C 1.628906 -4.328125 2.660156 -5.371094 3.992188 -5.371094 C 5.320312 -5.371094 6.351562 -4.328125 6.351562 -2.996094 C 6.351562 -1.664062 5.320312 -0.625 3.992188 -0.625 Z M 3.992188 -0.625 "/></g></g></g><g clip-path="url(#b0270426d1)"><g clip-path="url(#20d97869be)"><g transform="matrix(1, 0, 0, 1, 129, 88)"><g clip-path="url(#4c65460bd5)"><g clip-path="url(#d9826e206c)"><g clip-path="url(#180c995804)"><path fill="#ffffff" d="M 0.0429688 0.367188 L 69.527344 0.367188 L 69.527344 69.855469 L 0.0429688 69.855469 Z M 0.0429688 0.367188 " fill-opacity="1" fill-rule="nonzero"/></g></g></g></g></g></g><g clip-path="url(#ca3c84da6f)"><g clip-path="url(#50e883089a)"><path stroke-linecap="butt" transform="matrix(0.749072, 0, 0, 0.749072, 129.042006, 88.367111)" fill="none" stroke-linejoin="miter" d="M 4.001028 0.000101541 L 88.861265 0.000101541 C 91.06712 0.000101541 92.861007 1.788774 92.861007 3.999844 L 92.861007 88.75057 C 92.861007 90.96164 91.06712 92.750312 88.861265 92.750312 L 4.001028 92.750312 C 1.789958 92.750312 0.00128571 90.96164 0.00128571 88.75057 L 0.00128571 3.999844 C 0.00128571 1.788774 1.789958 0.000101541 4.001028 0.000101541 Z M 4.001028 0.000101541 " stroke="#000000" stroke-width="4" stroke-opacity="1" stroke-miterlimit="4"/></g></g><g fill="#000000" fill-opacity="1"><g transform="translate(134.413902, 126.569771)"><g><path d="M 0.839844 0 L 1.628906 0 L 1.628906 -8.75 L 0.839844 -8.75 Z M 0.839844 0 "/></g></g></g><g fill="#000000" fill-opacity="1"><g transform="translate(136.882847, 126.569771)"><g><path d="M 1.234375 -7.261719 C 1.558594 -7.261719 1.808594 -7.527344 1.808594 -7.839844 C 1.808594 -8.148438 1.558594 -8.414062 1.234375 -8.414062 C 0.910156 -8.414062 0.660156 -8.148438 0.660156 -7.839844 C 0.660156 -7.527344 0.910156 -7.261719 1.234375 -7.261719 Z M 0.839844 0 L 1.628906 0 L 1.628906 -5.992188 L 0.839844 -5.992188 Z M 0.839844 0 "/></g></g></g><g fill="#000000" fill-opacity="1"><g transform="translate(139.351791, 126.569771)"><g><path d="M 1.460938 -4.421875 C 1.460938 -5.070312 2.097656 -5.371094 2.71875 -5.371094 C 3.296875 -5.371094 3.90625 -5.140625 4.160156 -4.53125 L 4.816406 -4.914062 C 4.46875 -5.65625 3.703125 -6.136719 2.71875 -6.136719 C 1.523438 -6.136719 0.671875 -5.382812 0.671875 -4.421875 C 0.671875 -2.21875 4.171875 -3.066406 4.171875 -1.582031 C 4.171875 -0.875 3.5 -0.625 2.792969 -0.625 C 1.988281 -0.625 1.367188 -1.019531 1.152344 -1.628906 L 0.480469 -1.234375 C 0.777344 -0.46875 1.59375 0.144531 2.792969 0.144531 C 4.074219 0.144531 4.960938 -0.5625 4.960938 -1.582031 C 4.960938 -3.789062 1.460938 -2.9375 1.460938 -4.421875 Z M 1.460938 -4.421875 "/></g></g></g><g fill="#000000" fill-opacity="1"><g transform="translate(144.553345, 126.569771)"><g><path d="M 4.015625 -5.226562 L 4.015625 -5.992188 L 2.289062 -5.992188 L 2.289062 -7.671875 L 1.5 -7.429688 L 1.5 -5.992188 L 0.238281 -5.992188 L 0.238281 -5.226562 L 1.5 -5.226562 L 1.5 -1.59375 C 1.5 -0.15625 2.398438 0.238281 4.015625 0 L 4.015625 -0.695312 C 2.851562 -0.648438 2.289062 -0.5625 2.289062 -1.59375 L 2.289062 -5.226562 Z M 4.015625 -5.226562 "/></g></g></g><g fill="#000000" fill-opacity="1"><g transform="translate(149.047787, 126.569771)"><g/></g></g><g fill="#000000" fill-opacity="1"><g transform="translate(152.044086, 126.569771)"><g><path d="M 3.632812 0.144531 C 5.382812 0.144531 6.785156 -1.222656 6.785156 -2.996094 C 6.785156 -4.769531 5.382812 -6.136719 3.632812 -6.136719 C 1.882812 -6.136719 0.480469 -4.769531 0.480469 -2.996094 C 0.480469 -1.222656 1.882812 0.144531 3.632812 0.144531 Z M 3.632812 -0.625 C 2.300781 -0.625 1.269531 -1.664062 1.269531 -2.996094 C 1.269531 -4.328125 2.300781 -5.371094 3.632812 -5.371094 C 4.960938 -5.371094 5.992188 -4.328125 5.992188 -2.996094 C 5.992188 -1.664062 4.960938 -0.625 3.632812 -0.625 Z M 3.632812 -0.625 "/></g></g></g><g fill="#000000" fill-opacity="1"><g transform="translate(159.067388, 126.569771)"><g><path d="M 3.835938 -7.765625 L 3.835938 -8.535156 C 2.21875 -8.652344 1.320312 -7.789062 1.320312 -6.230469 L 1.320312 -5.992188 L 0.300781 -5.992188 L 0.300781 -5.226562 L 1.320312 -5.226562 L 1.320312 0 L 2.109375 0 L 2.109375 -5.226562 L 3.835938 -5.226562 L 3.835938 -5.992188 L 2.109375 -5.992188 L 2.109375 -6.230469 C 2.109375 -7.382812 2.671875 -7.863281 3.835938 -7.765625 Z M 3.835938 -7.765625 "/></g></g></g><g fill="#000000" fill-opacity="1"><g transform="translate(162.902643, 126.569771)"><g/></g></g><g fill="#000000" fill-opacity="1"><g transform="translate(165.898942, 126.569771)"><g><path d="M 3.957031 -8.390625 L 0.957031 -8.390625 L 0.957031 0 L 1.796875 0 L 1.796875 -3.117188 L 3.957031 -3.117188 C 5.464844 -3.117188 6.59375 -4.253906 6.59375 -5.753906 C 6.59375 -7.261719 5.464844 -8.390625 3.957031 -8.390625 Z M 3.957031 -3.90625 L 1.796875 -3.90625 L 1.796875 -7.597656 L 3.957031 -7.597656 C 4.996094 -7.597656 5.753906 -6.832031 5.753906 -5.753906 C 5.753906 -4.6875 4.996094 -3.90625 3.957031 -3.90625 Z M 3.957031 -3.90625 "/></g></g></g><g fill="#000000" fill-opacity="1"><g transform="translate(172.970192, 126.569771)"><g><path d="M 4.195312 -8.390625 L 0.957031 -8.390625 L 0.957031 0 L 4.195312 0 C 6.507812 0 8.148438 -1.882812 8.148438 -4.195312 C 8.148438 -6.507812 6.507812 -8.390625 4.195312 -8.390625 Z M 4.195312 -0.792969 L 1.796875 -0.792969 L 1.796875 -7.597656 L 4.195312 -7.597656 C 6.066406 -7.597656 7.335938 -6.078125 7.335938 -4.195312 C 7.335938 -2.3125 6.066406 -0.792969 4.195312 -0.792969 Z M 4.195312 -0.792969 "/></g></g></g><g fill="#000000" fill-opacity="1"><g transform="translate(181.599513, 126.569771)"><g><path d="M 5.691406 -7.597656 L 5.691406 -8.390625 L 0.957031 -8.390625 L 0.957031 0 L 1.796875 0 L 1.796875 -3.714844 L 5.511719 -3.714844 L 5.511719 -4.507812 L 1.796875 -4.507812 L 1.796875 -7.597656 Z M 5.691406 -7.597656 "/></g></g></g><g fill="#000000" fill-opacity="1"><g transform="translate(187.77188, 126.569771)"><g><path d="M 1.460938 -4.421875 C 1.460938 -5.070312 2.097656 -5.371094 2.71875 -5.371094 C 3.296875 -5.371094 3.90625 -5.140625 4.160156 -4.53125 L 4.816406 -4.914062 C 4.46875 -5.65625 3.703125 -6.136719 2.71875 -6.136719 C 1.523438 -6.136719 0.671875 -5.382812 0.671875 -4.421875 C 0.671875 -2.21875 4.171875 -3.066406 4.171875 -1.582031 C 4.171875 -0.875 3.5 -0.625 2.792969 -0.625 C 1.988281 -0.625 1.367188 -1.019531 1.152344 -1.628906 L 0.480469 -1.234375 C 0.777344 -0.46875 1.59375 0.144531 2.792969 0.144531 C 4.074219 0.144531 4.960938 -0.5625 4.960938 -1.582031 C 4.960938 -3.789062 1.460938 -2.9375 1.460938 -4.421875 Z M 1.460938 -4.421875 "/></g></g></g><path stroke-linecap="butt" transform="matrix(0.749072, 0.0000000000240002, -0.0000000000240002, 0.749072, 198.609351, 122.361253)" fill="none" stroke-linejoin="miter" d="M 0.0000314094 0.998732 L 48.888664 0.998732 " stroke="#000000" stroke-width="2" stroke-opacity="1" stroke-miterlimit="4"/><path stroke-linecap="round" transform="matrix(0.749072, 0.0000000000240002, -0.0000000000240002, 0.749072, 198.609351, 122.361253)" fill-opacity="1" fill="#000000" fill-rule="nonzero" stroke-linejoin="round" d="M 49.389284 -1.999771 L 53.389026 0.998732 L 49.389284 4.00245 Z M 49.389284 -1.999771 " stroke="#000000" stroke-width="2" stroke-opacity="1" stroke-miterlimit="4"/><path stroke-linecap="butt" transform="matrix(0.749072, 0, 0, 0.749072, 70.298694, 122.361253)" fill="none" stroke-linejoin="miter" d="M -0.00242824 0.998732 L 72.92116 0.998732 " stroke="#89898d" stroke-width="2" stroke-opacity="1" stroke-miterlimit="4"/><path stroke-linecap="round" transform="matrix(0.749072, 0, 0, 0.749072, 70.298694, 122.361253)" fill-opacity="1" fill="#89898d" fill-rule="nonzero" stroke-linejoin="round" d="M 73.42178 -1.999771 L 77.421522 0.998732 L 73.42178 4.00245 Z M 73.42178 -1.999771 " stroke="#89898d" stroke-width="2" stroke-opacity="1" stroke-miterlimit="4"/><g clip-path="url(#2d0ebf3ffa)"><g clip-path="url(#93816d8240)"><g transform="matrix(1, 0, 0, 1, 239, 88)"><g clip-path="url(#a95628f957)"><g clip-path="url(#a48d20ee69)"><g clip-path="url(#f866901973)"><path fill="#ffffff" d="M 0.347656 0.367188 L 95.894531 0.367188 L 95.894531 69.855469 L 0.347656 69.855469 Z M 0.347656 0.367188 " fill-opacity="1" fill-rule="nonzero"/></g></g></g></g></g></g><g clip-path="url(#7ace2544fd)"><g clip-path="url(#b9248ec062)"><path stroke-linecap="butt" transform="matrix(0.749072, 0, 0, 0.749072, 239.352126, 88.367111)" fill="none" stroke-linejoin="miter" d="M 24.529608 0.000101541 L 102.928723 0.000101541 C 116.476741 0.000101541 127.459083 10.982444 127.459083 24.530462 L 127.459083 68.219952 C 127.459083 81.767969 116.476741 92.750312 102.928723 92.750312 L 24.529608 92.750312 C 10.98159 92.750312 -0.000752615 81.767969 -0.000752615 68.219952 L -0.000752615 24.530462 C -0.000752615 10.982444 10.98159 0.000101541 24.529608 0.000101541 Z M 24.529608 0.000101541 " stroke="#000000" stroke-width="4" stroke-opacity="1" stroke-miterlimit="4"/></g></g><g fill="#000000" fill-opacity="1"><g transform="translate(245.072722, 118.329981)"><g><path d="M 4.878906 0.144531 C 6.449219 0.144531 7.828125 -0.683594 8.507812 -1.929688 L 7.765625 -2.347656 C 7.25 -1.34375 6.136719 -0.671875 4.878906 -0.671875 C 2.757812 -0.671875 1.320312 -2.242188 1.320312 -4.195312 C 1.320312 -6.148438 2.757812 -7.71875 4.878906 -7.71875 C 6.136719 -7.71875 7.25 -7.046875 7.765625 -6.039062 L 8.507812 -6.472656 C 7.8125 -7.71875 6.4375 -8.535156 4.878906 -8.535156 C 2.300781 -8.535156 0.480469 -6.59375 0.480469 -4.195312 C 0.480469 -1.796875 2.300781 0.144531 4.878906 0.144531 Z M 4.878906 0.144531 "/></g></g></g><g fill="#000000" fill-opacity="1"><g transform="translate(254.001679, 118.329981)"><g><path d="M 3.632812 0.144531 C 5.382812 0.144531 6.785156 -1.222656 6.785156 -2.996094 C 6.785156 -4.769531 5.382812 -6.136719 3.632812 -6.136719 C 1.882812 -6.136719 0.480469 -4.769531 0.480469 -2.996094 C 0.480469 -1.222656 1.882812 0.144531 3.632812 0.144531 Z M 3.632812 -0.625 C 2.300781 -0.625 1.269531 -1.664062 1.269531 -2.996094 C 1.269531 -4.328125 2.300781 -5.371094 3.632812 -5.371094 C 4.960938 -5.371094 5.992188 -4.328125 5.992188 -2.996094 C 5.992188 -1.664062 4.960938 -0.625 3.632812 -0.625 Z M 3.632812 -0.625 "/></g></g></g><g fill="#000000" fill-opacity="1"><g transform="translate(261.264689, 118.329981)"><g><path d="M 3.644531 -6.136719 C 2.792969 -6.136719 2.097656 -5.8125 1.628906 -5.058594 L 1.628906 -5.992188 L 0.839844 -5.992188 L 0.839844 0 L 1.628906 0 L 1.628906 -3.140625 C 1.628906 -4.746094 2.515625 -5.371094 3.570312 -5.371094 C 4.613281 -5.371094 5.203125 -4.746094 5.203125 -3.679688 L 5.203125 0 L 5.992188 0 L 5.992188 -3.679688 C 5.992188 -5.175781 5.105469 -6.136719 3.644531 -6.136719 Z M 3.644531 -6.136719 "/></g></g></g><g fill="#000000" fill-opacity="1"><g transform="translate(267.95242, 118.329981)"><g><path d="M 5.152344 -5.992188 L 3.054688 -0.828125 L 0.957031 -5.992188 L 0.121094 -5.992188 L 2.578125 0 L 3.535156 0 L 5.992188 -5.992188 Z M 5.152344 -5.992188 "/></g></g></g><g fill="#000000" fill-opacity="1"><g transform="translate(274.06486, 118.329981)"><g><path d="M 3.609375 -6.136719 C 1.75 -6.136719 0.480469 -4.757812 0.480469 -2.996094 C 0.480469 -1.1875 1.773438 0.144531 3.667969 0.144531 C 4.878906 0.144531 5.800781 -0.417969 6.304688 -1.234375 L 5.609375 -1.640625 C 5.285156 -1.066406 4.625 -0.625 3.679688 -0.625 C 2.410156 -0.625 1.460938 -1.378906 1.292969 -2.601562 L 6.554688 -2.601562 C 6.566406 -2.71875 6.578125 -2.851562 6.578125 -2.972656 C 6.578125 -4.613281 5.441406 -6.136719 3.609375 -6.136719 Z M 3.609375 -5.371094 C 4.636719 -5.371094 5.597656 -4.6875 5.765625 -3.367188 L 1.292969 -3.367188 C 1.449219 -4.542969 2.347656 -5.371094 3.609375 -5.371094 Z M 3.609375 -5.371094 "/></g></g></g><g fill="#000000" fill-opacity="1"><g transform="translate(281.064205, 118.329981)"><g><path d="M 1.628906 -4.996094 L 1.628906 -5.992188 L 0.839844 -5.992188 L 0.839844 0 L 1.628906 0 L 1.628906 -3.332031 C 1.628906 -4.816406 2.566406 -5.320312 3.523438 -5.320312 L 3.523438 -6.089844 C 2.757812 -6.089844 2.050781 -5.835938 1.628906 -4.996094 Z M 1.628906 -4.996094 "/></g></g></g><g fill="#000000" fill-opacity="1"><g transform="translate(284.827554, 118.329981)"><g><path d="M 4.015625 -5.226562 L 4.015625 -5.992188 L 2.289062 -5.992188 L 2.289062 -7.671875 L 1.5 -7.429688 L 1.5 -5.992188 L 0.238281 -5.992188 L 0.238281 -5.226562 L 1.5 -5.226562 L 1.5 -1.59375 C 1.5 -0.15625 2.398438 0.238281 4.015625 0 L 4.015625 -0.695312 C 2.851562 -0.648438 2.289062 -0.5625 2.289062 -1.59375 L 2.289062 -5.226562 Z M 4.015625 -5.226562 "/></g></g></g><g fill="#000000" fill-opacity="1"><g transform="translate(289.321996, 118.329981)"><g/></g></g><g fill="#000000" fill-opacity="1"><g transform="translate(292.318295, 118.329981)"><g><path d="M 5.992188 -5.992188 L 5.992188 -4.816406 C 5.488281 -5.621094 4.636719 -6.136719 3.570312 -6.136719 C 1.882812 -6.136719 0.480469 -4.769531 0.480469 -2.996094 C 0.480469 -1.222656 1.882812 0.144531 3.570312 0.144531 C 4.636719 0.144531 5.488281 -0.371094 5.992188 -1.175781 L 5.992188 0 L 6.785156 0 L 6.785156 -5.992188 Z M 3.632812 -0.625 C 2.300781 -0.625 1.269531 -1.664062 1.269531 -2.996094 C 1.269531 -4.328125 2.300781 -5.371094 3.632812 -5.371094 C 4.960938 -5.371094 5.992188 -4.328125 5.992188 -2.996094 C 5.992188 -1.664062 4.960938 -0.625 3.632812 -0.625 Z M 3.632812 -0.625 "/></g></g></g><g fill="#000000" fill-opacity="1"><g transform="translate(299.940868, 118.329981)"><g><path d="M 0.839844 0 L 1.628906 0 L 1.628906 -8.75 L 0.839844 -8.75 Z M 0.839844 0 "/></g></g></g><g fill="#000000" fill-opacity="1"><g transform="translate(302.409812, 118.329981)"><g><path d="M 0.839844 0 L 1.628906 0 L 1.628906 -8.75 L 0.839844 -8.75 Z M 0.839844 0 "/></g></g></g><g fill="#000000" fill-opacity="1"><g transform="translate(304.878756, 118.329981)"><g/></g></g><g fill="#000000" fill-opacity="1"><g transform="translate(307.875055, 118.329981)"><g><path d="M 3.835938 -7.765625 L 3.835938 -8.535156 C 2.21875 -8.652344 1.320312 -7.789062 1.320312 -6.230469 L 1.320312 -5.992188 L 0.300781 -5.992188 L 0.300781 -5.226562 L 1.320312 -5.226562 L 1.320312 0 L 2.109375 0 L 2.109375 -5.226562 L 3.835938 -5.226562 L 3.835938 -5.992188 L 2.109375 -5.992188 L 2.109375 -6.230469 C 2.109375 -7.382812 2.671875 -7.863281 3.835938 -7.765625 Z M 3.835938 -7.765625 "/></g></g></g><g fill="#000000" fill-opacity="1"><g transform="translate(311.71031, 118.329981)"><g><path d="M 1.234375 -7.261719 C 1.558594 -7.261719 1.808594 -7.527344 1.808594 -7.839844 C 1.808594 -8.148438 1.558594 -8.414062 1.234375 -8.414062 C 0.910156 -8.414062 0.660156 -8.148438 0.660156 -7.839844 C 0.660156 -7.527344 0.910156 -7.261719 1.234375 -7.261719 Z M 0.839844 0 L 1.628906 0 L 1.628906 -5.992188 L 0.839844 -5.992188 Z M 0.839844 0 "/></g></g></g><g fill="#000000" fill-opacity="1"><g transform="translate(314.179255, 118.329981)"><g><path d="M 0.839844 0 L 1.628906 0 L 1.628906 -8.75 L 0.839844 -8.75 Z M 0.839844 0 "/></g></g></g><g fill="#000000" fill-opacity="1"><g transform="translate(316.648199, 118.329981)"><g><path d="M 3.609375 -6.136719 C 1.75 -6.136719 0.480469 -4.757812 0.480469 -2.996094 C 0.480469 -1.1875 1.773438 0.144531 3.667969 0.144531 C 4.878906 0.144531 5.800781 -0.417969 6.304688 -1.234375 L 5.609375 -1.640625 C 5.285156 -1.066406 4.625 -0.625 3.679688 -0.625 C 2.410156 -0.625 1.460938 -1.378906 1.292969 -2.601562 L 6.554688 -2.601562 C 6.566406 -2.71875 6.578125 -2.851562 6.578125 -2.972656 C 6.578125 -4.613281 5.441406 -6.136719 3.609375 -6.136719 Z M 3.609375 -5.371094 C 4.636719 -5.371094 5.597656 -4.6875 5.765625 -3.367188 L 1.292969 -3.367188 C 1.449219 -4.542969 2.347656 -5.371094 3.609375 -5.371094 Z M 3.609375 -5.371094 "/></g></g></g><g fill="#000000" fill-opacity="1"><g transform="translate(323.647544, 118.329981)"><g><path d="M 1.460938 -4.421875 C 1.460938 -5.070312 2.097656 -5.371094 2.71875 -5.371094 C 3.296875 -5.371094 3.90625 -5.140625 4.160156 -4.53125 L 4.816406 -4.914062 C 4.46875 -5.65625 3.703125 -6.136719 2.71875 -6.136719 C 1.523438 -6.136719 0.671875 -5.382812 0.671875 -4.421875 C 0.671875 -2.21875 4.171875 -3.066406 4.171875 -1.582031 C 4.171875 -0.875 3.5 -0.625 2.792969 -0.625 C 1.988281 -0.625 1.367188 -1.019531 1.152344 -1.628906 L 0.480469 -1.234375 C 0.777344 -0.46875 1.59375 0.144531 2.792969 0.144531 C 4.074219 0.144531 4.960938 -0.5625 4.960938 -1.582031 C 4.960938 -3.789062 1.460938 -2.9375 1.460938 -4.421875 Z M 1.460938 -4.421875 "/></g></g></g><g fill="#000000" fill-opacity="1"><g transform="translate(250.85462, 134.80956)"><g><path d="M 4.015625 -5.226562 L 4.015625 -5.992188 L 2.289062 -5.992188 L 2.289062 -7.671875 L 1.5 -7.429688 L 1.5 -5.992188 L 0.238281 -5.992188 L 0.238281 -5.226562 L 1.5 -5.226562 L 1.5 -1.59375 C 1.5 -0.15625 2.398438 0.238281 4.015625 0 L 4.015625 -0.695312 C 2.851562 -0.648438 2.289062 -0.5625 2.289062 -1.59375 L 2.289062 -5.226562 Z M 4.015625 -5.226562 "/></g></g></g><g fill="#000000" fill-opacity="1"><g transform="translate(255.349062, 134.80956)"><g><path d="M 3.632812 0.144531 C 5.382812 0.144531 6.785156 -1.222656 6.785156 -2.996094 C 6.785156 -4.769531 5.382812 -6.136719 3.632812 -6.136719 C 1.882812 -6.136719 0.480469 -4.769531 0.480469 -2.996094 C 0.480469 -1.222656 1.882812 0.144531 3.632812 0.144531 Z M 3.632812 -0.625 C 2.300781 -0.625 1.269531 -1.664062 1.269531 -2.996094 C 1.269531 -4.328125 2.300781 -5.371094 3.632812 -5.371094 C 4.960938 -5.371094 5.992188 -4.328125 5.992188 -2.996094 C 5.992188 -1.664062 4.960938 -0.625 3.632812 -0.625 Z M 3.632812 -0.625 "/></g></g></g><g fill="#000000" fill-opacity="1"><g transform="translate(262.612072, 134.80956)"><g/></g></g><g fill="#000000" fill-opacity="1"><g transform="translate(265.608371, 134.80956)"><g><path d="M 8.628906 -8.390625 L 7.585938 -8.390625 L 4.792969 -3.714844 L 2 -8.390625 L 0.957031 -8.390625 L 0.957031 0 L 1.796875 0 L 1.796875 -7.121094 L 4.734375 -2.207031 L 4.855469 -2.207031 L 7.789062 -7.121094 L 7.789062 0 L 8.628906 0 Z M 8.628906 -8.390625 "/></g></g></g><g fill="#000000" fill-opacity="1"><g transform="translate(275.196514, 134.80956)"><g><path d="M 5.992188 -5.992188 L 5.992188 -4.816406 C 5.488281 -5.621094 4.636719 -6.136719 3.570312 -6.136719 C 1.882812 -6.136719 0.480469 -4.769531 0.480469 -2.996094 C 0.480469 -1.222656 1.882812 0.144531 3.570312 0.144531 C 4.636719 0.144531 5.488281 -0.371094 5.992188 -1.175781 L 5.992188 0 L 6.785156 0 L 6.785156 -5.992188 Z M 3.632812 -0.625 C 2.300781 -0.625 1.269531 -1.664062 1.269531 -2.996094 C 1.269531 -4.328125 2.300781 -5.371094 3.632812 -5.371094 C 4.960938 -5.371094 5.992188 -4.328125 5.992188 -2.996094 C 5.992188 -1.664062 4.960938 -0.625 3.632812 -0.625 Z M 3.632812 -0.625 "/></g></g></g><g fill="#000000" fill-opacity="1"><g transform="translate(282.819087, 134.80956)"><g><path d="M 1.628906 -4.996094 L 1.628906 -5.992188 L 0.839844 -5.992188 L 0.839844 0 L 1.628906 0 L 1.628906 -3.332031 C 1.628906 -4.816406 2.566406 -5.320312 3.523438 -5.320312 L 3.523438 -6.089844 C 2.757812 -6.089844 2.050781 -5.835938 1.628906 -4.996094 Z M 1.628906 -4.996094 "/></g></g></g><g fill="#000000" fill-opacity="1"><g transform="translate(286.582437, 134.80956)"><g><path d="M 5.679688 0 L 2.46875 -3.117188 L 5.5625 -5.992188 L 4.484375 -5.992188 L 1.628906 -3.34375 L 1.628906 -8.390625 L 0.839844 -8.390625 L 0.839844 0 L 1.628906 0 L 1.628906 -2.886719 L 4.625 0 Z M 5.679688 0 "/></g></g></g><g fill="#000000" fill-opacity="1"><g transform="translate(292.503116, 134.80956)"><g><path d="M 5.992188 -8.390625 L 5.992188 -4.816406 C 5.488281 -5.621094 4.636719 -6.136719 3.570312 -6.136719 C 1.882812 -6.136719 0.480469 -4.769531 0.480469 -2.996094 C 0.480469 -1.222656 1.882812 0.144531 3.570312 0.144531 C 4.636719 0.144531 5.488281 -0.371094 5.992188 -1.175781 L 5.992188 0 L 6.785156 0 L 6.785156 -8.390625 Z M 3.632812 -0.625 C 2.300781 -0.625 1.269531 -1.664062 1.269531 -2.996094 C 1.269531 -4.328125 2.300781 -5.371094 3.632812 -5.371094 C 4.960938 -5.371094 5.992188 -4.328125 5.992188 -2.996094 C 5.992188 -1.664062 4.960938 -0.625 3.632812 -0.625 Z M 3.632812 -0.625 "/></g></g></g><g fill="#000000" fill-opacity="1"><g transform="translate(300.12569, 134.80956)"><g><path d="M 3.632812 0.144531 C 5.382812 0.144531 6.785156 -1.222656 6.785156 -2.996094 C 6.785156 -4.769531 5.382812 -6.136719 3.632812 -6.136719 C 1.882812 -6.136719 0.480469 -4.769531 0.480469 -2.996094 C 0.480469 -1.222656 1.882812 0.144531 3.632812 0.144531 Z M 3.632812 -0.625 C 2.300781 -0.625 1.269531 -1.664062 1.269531 -2.996094 C 1.269531 -4.328125 2.300781 -5.371094 3.632812 -5.371094 C 4.960938 -5.371094 5.992188 -4.328125 5.992188 -2.996094 C 5.992188 -1.664062 4.960938 -0.625 3.632812 -0.625 Z M 3.632812 -0.625 "/></g></g></g><g fill="#000000" fill-opacity="1"><g transform="translate(307.3887, 134.80956)"><g><path d="M 8.054688 -5.992188 L 6.578125 -1.019531 L 5.011719 -5.992188 L 4.21875 -5.992188 L 2.648438 -1.019531 L 1.175781 -5.992188 L 0.359375 -5.992188 L 2.207031 0 L 3.066406 0 L 4.613281 -4.828125 L 6.160156 0 L 7.023438 0 L 8.867188 -5.992188 Z M 8.054688 -5.992188 "/></g></g></g><g fill="#000000" fill-opacity="1"><g transform="translate(316.617281, 134.80956)"><g><path d="M 3.644531 -6.136719 C 2.792969 -6.136719 2.097656 -5.8125 1.628906 -5.058594 L 1.628906 -5.992188 L 0.839844 -5.992188 L 0.839844 0 L 1.628906 0 L 1.628906 -3.140625 C 1.628906 -4.746094 2.515625 -5.371094 3.570312 -5.371094 C 4.613281 -5.371094 5.203125 -4.746094 5.203125 -3.679688 L 5.203125 0 L 5.992188 0 L 5.992188 -3.679688 C 5.992188 -5.175781 5.105469 -6.136719 3.644531 -6.136719 Z M 3.644531 -6.136719 "/></g></g></g><g clip-path="url(#a9c74b9f0c)"><g clip-path="url(#8e397b193e)"><g transform="matrix(1, 0, 0, 1, 0, 54)"><g clip-path="url(#d174695afb)"><g clip-path="url(#6def020242)"><g clip-path="url(#777a6f8f54)"><path fill="#e9f7ff" d="M 0 0.992188 L 70.296875 0.992188 L 70.296875 137.195312 L 0 137.195312 Z M 0 0.992188 " fill-opacity="1" fill-rule="nonzero"/></g></g></g></g></g></g><g clip-path="url(#60cc9265fa)"><g clip-path="url(#3d6bbed325)"><path stroke-linecap="butt" transform="matrix(0.749072, 0, 0, 0.749072, 0.000000000000037257, 54.992971)" fill="none" stroke-linejoin="miter" d="M 17.000207 -0.00104602 L 76.845109 -0.00104602 C 81.350685 -0.00104602 85.678959 1.792841 88.865194 4.979076 C 92.051429 8.165311 93.845316 12.48837 93.845316 16.999161 L 93.845316 164.869675 C 93.845316 169.380467 92.051429 173.703525 88.865194 176.889761 C 85.678959 180.075996 81.350685 181.869883 76.845109 181.869883 L 17.000207 181.869883 C 12.489416 181.869883 8.166357 180.075996 4.980122 176.889761 C 1.788672 173.703525 -0.000000000000049738 169.380467 -0.000000000000049738 164.869675 L -0.000000000000049738 16.999161 C -0.000000000000049738 12.48837 1.788672 8.165311 4.980122 4.979076 C 8.166357 1.792841 12.489416 -0.00104602 17.000207 -0.00104602 Z M 17.000207 -0.00104602 " stroke="#89898d" stroke-width="4" stroke-opacity="1" stroke-miterlimit="4"/></g></g><g fill="#000000" fill-opacity="1"><g transform="translate(21.149573, 118.661949)"><g><path d="M 4.195312 -8.390625 L 0.957031 -8.390625 L 0.957031 0 L 4.195312 0 C 6.507812 0 8.148438 -1.882812 8.148438 -4.195312 C 8.148438 -6.507812 6.507812 -8.390625 4.195312 -8.390625 Z M 4.195312 -0.792969 L 1.796875 -0.792969 L 1.796875 -7.597656 L 4.195312 -7.597656 C 6.066406 -7.597656 7.335938 -6.078125 7.335938 -4.195312 C 7.335938 -2.3125 6.066406 -0.792969 4.195312 -0.792969 Z M 4.195312 -0.792969 "/></g></g></g><g fill="#000000" fill-opacity="1"><g transform="translate(29.778894, 118.661949)"><g><path d="M 1.628906 -4.996094 L 1.628906 -5.992188 L 0.839844 -5.992188 L 0.839844 0 L 1.628906 0 L 1.628906 -3.332031 C 1.628906 -4.816406 2.566406 -5.320312 3.523438 -5.320312 L 3.523438 -6.089844 C 2.757812 -6.089844 2.050781 -5.835938 1.628906 -4.996094 Z M 1.628906 -4.996094 "/></g></g></g><g fill="#000000" fill-opacity="1"><g transform="translate(33.542243, 118.661949)"><g><path d="M 1.234375 -7.261719 C 1.558594 -7.261719 1.808594 -7.527344 1.808594 -7.839844 C 1.808594 -8.148438 1.558594 -8.414062 1.234375 -8.414062 C 0.910156 -8.414062 0.660156 -8.148438 0.660156 -7.839844 C 0.660156 -7.527344 0.910156 -7.261719 1.234375 -7.261719 Z M 0.839844 0 L 1.628906 0 L 1.628906 -5.992188 L 0.839844 -5.992188 Z M 0.839844 0 "/></g></g></g><g fill="#000000" fill-opacity="1"><g transform="translate(36.011188, 118.661949)"><g><path d="M 5.152344 -5.992188 L 3.054688 -0.828125 L 0.957031 -5.992188 L 0.121094 -5.992188 L 2.578125 0 L 3.535156 0 L 5.992188 -5.992188 Z M 5.152344 -5.992188 "/></g></g></g><g fill="#000000" fill-opacity="1"><g transform="translate(42.123627, 118.661949)"><g><path d="M 3.609375 -6.136719 C 1.75 -6.136719 0.480469 -4.757812 0.480469 -2.996094 C 0.480469 -1.1875 1.773438 0.144531 3.667969 0.144531 C 4.878906 0.144531 5.800781 -0.417969 6.304688 -1.234375 L 5.609375 -1.640625 C 5.285156 -1.066406 4.625 -0.625 3.679688 -0.625 C 2.410156 -0.625 1.460938 -1.378906 1.292969 -2.601562 L 6.554688 -2.601562 C 6.566406 -2.71875 6.578125 -2.851562 6.578125 -2.972656 C 6.578125 -4.613281 5.441406 -6.136719 3.609375 -6.136719 Z M 3.609375 -5.371094 C 4.636719 -5.371094 5.597656 -4.6875 5.765625 -3.367188 L 1.292969 -3.367188 C 1.449219 -4.542969 2.347656 -5.371094 3.609375 -5.371094 Z M 3.609375 -5.371094 "/></g></g></g><g fill="#000000" fill-opacity="1"><g transform="translate(18.001131, 135.141527)"><g><path d="M 5.691406 -7.597656 L 5.691406 -8.390625 L 0.957031 -8.390625 L 0.957031 0 L 1.796875 0 L 1.796875 -3.714844 L 5.511719 -3.714844 L 5.511719 -4.507812 L 1.796875 -4.507812 L 1.796875 -7.597656 Z M 5.691406 -7.597656 "/></g></g></g><g fill="#000000" fill-opacity="1"><g transform="translate(24.173497, 135.141527)"><g><path d="M 3.632812 0.144531 C 5.382812 0.144531 6.785156 -1.222656 6.785156 -2.996094 C 6.785156 -4.769531 5.382812 -6.136719 3.632812 -6.136719 C 1.882812 -6.136719 0.480469 -4.769531 0.480469 -2.996094 C 0.480469 -1.222656 1.882812 0.144531 3.632812 0.144531 Z M 3.632812 -0.625 C 2.300781 -0.625 1.269531 -1.664062 1.269531 -2.996094 C 1.269531 -4.328125 2.300781 -5.371094 3.632812 -5.371094 C 4.960938 -5.371094 5.992188 -4.328125 5.992188 -2.996094 C 5.992188 -1.664062 4.960938 -0.625 3.632812 -0.625 Z M 3.632812 -0.625 "/></g></g></g><g fill="#000000" fill-opacity="1"><g transform="translate(31.436508, 135.141527)"><g><path d="M 0.839844 0 L 1.628906 0 L 1.628906 -8.75 L 0.839844 -8.75 Z M 0.839844 0 "/></g></g></g><g fill="#000000" fill-opacity="1"><g transform="translate(33.905452, 135.141527)"><g><path d="M 5.992188 -8.390625 L 5.992188 -4.816406 C 5.488281 -5.621094 4.636719 -6.136719 3.570312 -6.136719 C 1.882812 -6.136719 0.480469 -4.769531 0.480469 -2.996094 C 0.480469 -1.222656 1.882812 0.144531 3.570312 0.144531 C 4.636719 0.144531 5.488281 -0.371094 5.992188 -1.175781 L 5.992188 0 L 6.785156 0 L 6.785156 -8.390625 Z M 3.632812 -0.625 C 2.300781 -0.625 1.269531 -1.664062 1.269531 -2.996094 C 1.269531 -4.328125 2.300781 -5.371094 3.632812 -5.371094 C 4.960938 -5.371094 5.992188 -4.328125 5.992188 -2.996094 C 5.992188 -1.664062 4.960938 -0.625 3.632812 -0.625 Z M 3.632812 -0.625 "/></g></g></g><g fill="#000000" fill-opacity="1"><g transform="translate(41.528025, 135.141527)"><g><path d="M 3.609375 -6.136719 C 1.75 -6.136719 0.480469 -4.757812 0.480469 -2.996094 C 0.480469 -1.1875 1.773438 0.144531 3.667969 0.144531 C 4.878906 0.144531 5.800781 -0.417969 6.304688 -1.234375 L 5.609375 -1.640625 C 5.285156 -1.066406 4.625 -0.625 3.679688 -0.625 C 2.410156 -0.625 1.460938 -1.378906 1.292969 -2.601562 L 6.554688 -2.601562 C 6.566406 -2.71875 6.578125 -2.851562 6.578125 -2.972656 C 6.578125 -4.613281 5.441406 -6.136719 3.609375 -6.136719 Z M 3.609375 -5.371094 C 4.636719 -5.371094 5.597656 -4.6875 5.765625 -3.367188 L 1.292969 -3.367188 C 1.449219 -4.542969 2.347656 -5.371094 3.609375 -5.371094 Z M 3.609375 -5.371094 "/></g></g></g><g fill="#000000" fill-opacity="1"><g transform="translate(48.52737, 135.141527)"><g><path d="M 1.628906 -4.996094 L 1.628906 -5.992188 L 0.839844 -5.992188 L 0.839844 0 L 1.628906 0 L 1.628906 -3.332031 C 1.628906 -4.816406 2.566406 -5.320312 3.523438 -5.320312 L 3.523438 -6.089844 C 2.757812 -6.089844 2.050781 -5.835938 1.628906 -4.996094 Z M 1.628906 -4.996094 "/></g></g></g><g clip-path="url(#ba9763badf)"><g clip-path="url(#6becf8f49c)"><g transform="matrix(1, 0, 0, 1, 533, 54)"><g clip-path="url(#1774f44f63)"><g clip-path="url(#592c2cba52)"><g clip-path="url(#7db9a15848)"><path fill="#e9f7ff" d="M 0.609375 0.992188 L 70.90625 0.992188 L 70.90625 137.195312 L 0.609375 137.195312 Z M 0.609375 0.992188 " fill-opacity="1" fill-rule="nonzero"/></g></g></g></g></g></g><g clip-path="url(#8bbc2ce29e)"><g clip-path="url(#8f69f17966)"><path stroke-linecap="butt" transform="matrix(0.749072, 0, 0, 0.749072, 533.608992, 54.992971)" fill="none" stroke-linejoin="miter" d="M 17.000718 -0.00104602 L 76.84562 -0.00104602 C 81.351196 -0.00104602 85.674255 1.792841 88.865705 4.979076 C 92.05194 8.165311 93.845827 12.48837 93.845827 16.999161 L 93.845827 164.869675 C 93.845827 169.380467 92.05194 173.703525 88.865705 176.889761 C 85.674255 180.075996 81.351196 181.869883 76.84562 181.869883 L 17.000718 181.869883 C 12.489927 181.869883 8.166868 180.075996 4.980633 176.889761 C 1.789183 173.703525 0.000511003 169.380467 0.000511003 164.869675 L 0.000511003 16.999161 C 0.000511003 12.48837 1.789183 8.165311 4.980633 4.979076 C 8.166868 1.792841 12.489927 -0.00104602 17.000718 -0.00104602 Z M 17.000718 -0.00104602 " stroke="#89898d" stroke-width="4" stroke-opacity="1" stroke-miterlimit="4"/></g></g><g fill="#000000" fill-opacity="1"><g transform="translate(554.758565, 118.661949)"><g><path d="M 4.195312 -8.390625 L 0.957031 -8.390625 L 0.957031 0 L 4.195312 0 C 6.507812 0 8.148438 -1.882812 8.148438 -4.195312 C 8.148438 -6.507812 6.507812 -8.390625 4.195312 -8.390625 Z M 4.195312 -0.792969 L 1.796875 -0.792969 L 1.796875 -7.597656 L 4.195312 -7.597656 C 6.066406 -7.597656 7.335938 -6.078125 7.335938 -4.195312 C 7.335938 -2.3125 6.066406 -0.792969 4.195312 -0.792969 Z M 4.195312 -0.792969 "/></g></g></g><g fill="#000000" fill-opacity="1"><g transform="translate(563.387886, 118.661949)"><g><path d="M 1.628906 -4.996094 L 1.628906 -5.992188 L 0.839844 -5.992188 L 0.839844 0 L 1.628906 0 L 1.628906 -3.332031 C 1.628906 -4.816406 2.566406 -5.320312 3.523438 -5.320312 L 3.523438 -6.089844 C 2.757812 -6.089844 2.050781 -5.835938 1.628906 -4.996094 Z M 1.628906 -4.996094 "/></g></g></g><g fill="#000000" fill-opacity="1"><g transform="translate(567.151236, 118.661949)"><g><path d="M 1.234375 -7.261719 C 1.558594 -7.261719 1.808594 -7.527344 1.808594 -7.839844 C 1.808594 -8.148438 1.558594 -8.414062 1.234375 -8.414062 C 0.910156 -8.414062 0.660156 -8.148438 0.660156 -7.839844 C 0.660156 -7.527344 0.910156 -7.261719 1.234375 -7.261719 Z M 0.839844 0 L 1.628906 0 L 1.628906 -5.992188 L 0.839844 -5.992188 Z M 0.839844 0 "/></g></g></g><g fill="#000000" fill-opacity="1"><g transform="translate(569.62018, 118.661949)"><g><path d="M 5.152344 -5.992188 L 3.054688 -0.828125 L 0.957031 -5.992188 L 0.121094 -5.992188 L 2.578125 0 L 3.535156 0 L 5.992188 -5.992188 Z M 5.152344 -5.992188 "/></g></g></g><g fill="#000000" fill-opacity="1"><g transform="translate(575.73262, 118.661949)"><g><path d="M 3.609375 -6.136719 C 1.75 -6.136719 0.480469 -4.757812 0.480469 -2.996094 C 0.480469 -1.1875 1.773438 0.144531 3.667969 0.144531 C 4.878906 0.144531 5.800781 -0.417969 6.304688 -1.234375 L 5.609375 -1.640625 C 5.285156 -1.066406 4.625 -0.625 3.679688 -0.625 C 2.410156 -0.625 1.460938 -1.378906 1.292969 -2.601562 L 6.554688 -2.601562 C 6.566406 -2.71875 6.578125 -2.851562 6.578125 -2.972656 C 6.578125 -4.613281 5.441406 -6.136719 3.609375 -6.136719 Z M 3.609375 -5.371094 C 4.636719 -5.371094 5.597656 -4.6875 5.765625 -3.367188 L 1.292969 -3.367188 C 1.449219 -4.542969 2.347656 -5.371094 3.609375 -5.371094 Z M 3.609375 -5.371094 "/></g></g></g><g fill="#000000" fill-opacity="1"><g transform="translate(551.610123, 135.141527)"><g><path d="M 5.691406 -7.597656 L 5.691406 -8.390625 L 0.957031 -8.390625 L 0.957031 0 L 1.796875 0 L 1.796875 -3.714844 L 5.511719 -3.714844 L 5.511719 -4.507812 L 1.796875 -4.507812 L 1.796875 -7.597656 Z M 5.691406 -7.597656 "/></g></g></g><g fill="#000000" fill-opacity="1"><g transform="translate(557.78249, 135.141527)"><g><path d="M 3.632812 0.144531 C 5.382812 0.144531 6.785156 -1.222656 6.785156 -2.996094 C 6.785156 -4.769531 5.382812 -6.136719 3.632812 -6.136719 C 1.882812 -6.136719 0.480469 -4.769531 0.480469 -2.996094 C 0.480469 -1.222656 1.882812 0.144531 3.632812 0.144531 Z M 3.632812 -0.625 C 2.300781 -0.625 1.269531 -1.664062 1.269531 -2.996094 C 1.269531 -4.328125 2.300781 -5.371094 3.632812 -5.371094 C 4.960938 -5.371094 5.992188 -4.328125 5.992188 -2.996094 C 5.992188 -1.664062 4.960938 -0.625 3.632812 -0.625 Z M 3.632812 -0.625 "/></g></g></g><g fill="#000000" fill-opacity="1"><g transform="translate(565.0455, 135.141527)"><g><path d="M 0.839844 0 L 1.628906 0 L 1.628906 -8.75 L 0.839844 -8.75 Z M 0.839844 0 "/></g></g></g><g fill="#000000" fill-opacity="1"><g transform="translate(567.514444, 135.141527)"><g><path d="M 5.992188 -8.390625 L 5.992188 -4.816406 C 5.488281 -5.621094 4.636719 -6.136719 3.570312 -6.136719 C 1.882812 -6.136719 0.480469 -4.769531 0.480469 -2.996094 C 0.480469 -1.222656 1.882812 0.144531 3.570312 0.144531 C 4.636719 0.144531 5.488281 -0.371094 5.992188 -1.175781 L 5.992188 0 L 6.785156 0 L 6.785156 -8.390625 Z M 3.632812 -0.625 C 2.300781 -0.625 1.269531 -1.664062 1.269531 -2.996094 C 1.269531 -4.328125 2.300781 -5.371094 3.632812 -5.371094 C 4.960938 -5.371094 5.992188 -4.328125 5.992188 -2.996094 C 5.992188 -1.664062 4.960938 -0.625 3.632812 -0.625 Z M 3.632812 -0.625 "/></g></g></g><g fill="#000000" fill-opacity="1"><g transform="translate(575.137018, 135.141527)"><g><path d="M 3.609375 -6.136719 C 1.75 -6.136719 0.480469 -4.757812 0.480469 -2.996094 C 0.480469 -1.1875 1.773438 0.144531 3.667969 0.144531 C 4.878906 0.144531 5.800781 -0.417969 6.304688 -1.234375 L 5.609375 -1.640625 C 5.285156 -1.066406 4.625 -0.625 3.679688 -0.625 C 2.410156 -0.625 1.460938 -1.378906 1.292969 -2.601562 L 6.554688 -2.601562 C 6.566406 -2.71875 6.578125 -2.851562 6.578125 -2.972656 C 6.578125 -4.613281 5.441406 -6.136719 3.609375 -6.136719 Z M 3.609375 -5.371094 C 4.636719 -5.371094 5.597656 -4.6875 5.765625 -3.367188 L 1.292969 -3.367188 C 1.449219 -4.542969 2.347656 -5.371094 3.609375 -5.371094 Z M 3.609375 -5.371094 "/></g></g></g><g fill="#000000" fill-opacity="1"><g transform="translate(582.136363, 135.141527)"><g><path d="M 1.628906 -4.996094 L 1.628906 -5.992188 L 0.839844 -5.992188 L 0.839844 0 L 1.628906 0 L 1.628906 -3.332031 C 1.628906 -4.816406 2.566406 -5.320312 3.523438 -5.320312 L 3.523438 -6.089844 C 2.757812 -6.089844 2.050781 -5.835938 1.628906 -4.996094 Z M 1.628906 -4.996094 "/></g></g></g><path stroke-linecap="butt" transform="matrix(0.749072, 0, 0, 0.749072, 334.840809, 122.361253)" fill="none" stroke-linejoin="miter" d="M -0.00128829 0.998732 L 48.887344 0.998732 " stroke="#000000" stroke-width="2" stroke-opacity="1" stroke-miterlimit="4"/><path stroke-linecap="round" transform="matrix(0.749072, 0, 0, 0.749072, 334.840809, 122.361253)" fill-opacity="1" fill="#000000" fill-rule="nonzero" stroke-linejoin="round" d="M 49.387964 -1.999771 L 53.387706 0.998732 L 49.387964 4.00245 Z M 49.387964 -1.999771 " stroke="#000000" stroke-width="2" stroke-opacity="1" stroke-miterlimit="4"/><g clip-path="url(#a47809abc8)"><g clip-path="url(#bc0a85f37c)"><g transform="matrix(1, 0, 0, 1, 375, 85)"><g clip-path="url(#7bf424a5b8)"><g clip-path="url(#0383a7d994)"><g clip-path="url(#7c31a41ac4)"><path fill="#ffffff" d="M 0.582031 0.285156 L 128.832031 0.285156 L 128.832031 75.933594 L 0.582031 75.933594 Z M 0.582031 0.285156 " fill-opacity="1" fill-rule="nonzero"/></g></g></g></g></g></g><g clip-path="url(#7d5ecc333c)"><g clip-path="url(#65a4a9ce44)"><path stroke-linecap="butt" transform="matrix(0.749072, 0, 0, 0.749072, 375.582177, 85.2852)" fill="none" stroke-linejoin="miter" d="M 6.544364 -0.0000585926 L 116.425144 -0.0000585926 C 146.92122 -0.0000585926 171.373357 22.606044 171.373357 50.494725 C 171.373357 78.378192 146.92122 100.984295 116.425144 100.984295 L 6.544364 100.984295 C 2.930516 100.984295 -0.000193918 98.053584 -0.000193918 94.439737 L -0.000193918 6.544499 C -0.000193918 2.930652 2.930516 -0.0000585926 6.544364 -0.0000585926 Z M 6.544364 -0.0000585926 " stroke="#000000" stroke-width="4" stroke-opacity="1" stroke-miterlimit="4"/></g></g><g fill="#000000" fill-opacity="1"><g transform="translate(406.421489, 101.764779)"><g><path d="M 1.796875 -0.792969 L 1.796875 -8.390625 L 0.957031 -8.390625 L 0.957031 0 L 5.632812 0 L 5.632812 -0.792969 Z M 1.796875 -0.792969 "/></g></g></g><g fill="#000000" fill-opacity="1"><g transform="translate(412.29422, 101.764779)"><g><path d="M 1.234375 -7.261719 C 1.558594 -7.261719 1.808594 -7.527344 1.808594 -7.839844 C 1.808594 -8.148438 1.558594 -8.414062 1.234375 -8.414062 C 0.910156 -8.414062 0.660156 -8.148438 0.660156 -7.839844 C 0.660156 -7.527344 0.910156 -7.261719 1.234375 -7.261719 Z M 0.839844 0 L 1.628906 0 L 1.628906 -5.992188 L 0.839844 -5.992188 Z M 0.839844 0 "/></g></g></g><g fill="#000000" fill-opacity="1"><g transform="translate(414.763165, 101.764779)"><g><path d="M 1.460938 -4.421875 C 1.460938 -5.070312 2.097656 -5.371094 2.71875 -5.371094 C 3.296875 -5.371094 3.90625 -5.140625 4.160156 -4.53125 L 4.816406 -4.914062 C 4.46875 -5.65625 3.703125 -6.136719 2.71875 -6.136719 C 1.523438 -6.136719 0.671875 -5.382812 0.671875 -4.421875 C 0.671875 -2.21875 4.171875 -3.066406 4.171875 -1.582031 C 4.171875 -0.875 3.5 -0.625 2.792969 -0.625 C 1.988281 -0.625 1.367188 -1.019531 1.152344 -1.628906 L 0.480469 -1.234375 C 0.777344 -0.46875 1.59375 0.144531 2.792969 0.144531 C 4.074219 0.144531 4.960938 -0.5625 4.960938 -1.582031 C 4.960938 -3.789062 1.460938 -2.9375 1.460938 -4.421875 Z M 1.460938 -4.421875 "/></g></g></g><g fill="#000000" fill-opacity="1"><g transform="translate(420.204428, 101.764779)"><g><path d="M 4.015625 -5.226562 L 4.015625 -5.992188 L 2.289062 -5.992188 L 2.289062 -7.671875 L 1.5 -7.429688 L 1.5 -5.992188 L 0.238281 -5.992188 L 0.238281 -5.226562 L 1.5 -5.226562 L 1.5 -1.59375 C 1.5 -0.15625 2.398438 0.238281 4.015625 0 L 4.015625 -0.695312 C 2.851562 -0.648438 2.289062 -0.5625 2.289062 -1.59375 L 2.289062 -5.226562 Z M 4.015625 -5.226562 "/></g></g></g><g fill="#000000" fill-opacity="1"><g transform="translate(424.69887, 101.764779)"><g/></g></g><g fill="#000000" fill-opacity="1"><g transform="translate(427.695168, 101.764779)"><g><path d="M 3.632812 0.144531 C 5.382812 0.144531 6.785156 -1.222656 6.785156 -2.996094 C 6.785156 -4.769531 5.382812 -6.136719 3.632812 -6.136719 C 1.882812 -6.136719 0.480469 -4.769531 0.480469 -2.996094 C 0.480469 -1.222656 1.882812 0.144531 3.632812 0.144531 Z M 3.632812 -0.625 C 2.300781 -0.625 1.269531 -1.664062 1.269531 -2.996094 C 1.269531 -4.328125 2.300781 -5.371094 3.632812 -5.371094 C 4.960938 -5.371094 5.992188 -4.328125 5.992188 -2.996094 C 5.992188 -1.664062 4.960938 -0.625 3.632812 -0.625 Z M 3.632812 -0.625 "/></g></g></g><g fill="#000000" fill-opacity="1"><g transform="translate(434.958179, 101.764779)"><g><path d="M 3.835938 -7.765625 L 3.835938 -8.535156 C 2.21875 -8.652344 1.320312 -7.789062 1.320312 -6.230469 L 1.320312 -5.992188 L 0.300781 -5.992188 L 0.300781 -5.226562 L 1.320312 -5.226562 L 1.320312 0 L 2.109375 0 L 2.109375 -5.226562 L 3.835938 -5.226562 L 3.835938 -5.992188 L 2.109375 -5.992188 L 2.109375 -6.230469 C 2.109375 -7.382812 2.671875 -7.863281 3.835938 -7.765625 Z M 3.835938 -7.765625 "/></g></g></g><g fill="#000000" fill-opacity="1"><g transform="translate(393.757495, 118.244357)"><g><path d="M 8.628906 -8.390625 L 7.585938 -8.390625 L 4.792969 -3.714844 L 2 -8.390625 L 0.957031 -8.390625 L 0.957031 0 L 1.796875 0 L 1.796875 -7.121094 L 4.734375 -2.207031 L 4.855469 -2.207031 L 7.789062 -7.121094 L 7.789062 0 L 8.628906 0 Z M 8.628906 -8.390625 "/></g></g></g><g fill="#000000" fill-opacity="1"><g transform="translate(403.345638, 118.244357)"><g><path d="M 5.992188 -5.992188 L 5.992188 -4.816406 C 5.488281 -5.621094 4.636719 -6.136719 3.570312 -6.136719 C 1.882812 -6.136719 0.480469 -4.769531 0.480469 -2.996094 C 0.480469 -1.222656 1.882812 0.144531 3.570312 0.144531 C 4.636719 0.144531 5.488281 -0.371094 5.992188 -1.175781 L 5.992188 0 L 6.785156 0 L 6.785156 -5.992188 Z M 3.632812 -0.625 C 2.300781 -0.625 1.269531 -1.664062 1.269531 -2.996094 C 1.269531 -4.328125 2.300781 -5.371094 3.632812 -5.371094 C 4.960938 -5.371094 5.992188 -4.328125 5.992188 -2.996094 C 5.992188 -1.664062 4.960938 -0.625 3.632812 -0.625 Z M 3.632812 -0.625 "/></g></g></g><g fill="#000000" fill-opacity="1"><g transform="translate(410.968212, 118.244357)"><g><path d="M 1.628906 -4.996094 L 1.628906 -5.992188 L 0.839844 -5.992188 L 0.839844 0 L 1.628906 0 L 1.628906 -3.332031 C 1.628906 -4.816406 2.566406 -5.320312 3.523438 -5.320312 L 3.523438 -6.089844 C 2.757812 -6.089844 2.050781 -5.835938 1.628906 -4.996094 Z M 1.628906 -4.996094 "/></g></g></g><g fill="#000000" fill-opacity="1"><g transform="translate(414.731561, 118.244357)"><g><path d="M 5.679688 0 L 2.46875 -3.117188 L 5.5625 -5.992188 L 4.484375 -5.992188 L 1.628906 -3.34375 L 1.628906 -8.390625 L 0.839844 -8.390625 L 0.839844 0 L 1.628906 0 L 1.628906 -2.886719 L 4.625 0 Z M 5.679688 0 "/></g></g></g><g fill="#000000" fill-opacity="1"><g transform="translate(420.652241, 118.244357)"><g><path d="M 5.992188 -8.390625 L 5.992188 -4.816406 C 5.488281 -5.621094 4.636719 -6.136719 3.570312 -6.136719 C 1.882812 -6.136719 0.480469 -4.769531 0.480469 -2.996094 C 0.480469 -1.222656 1.882812 0.144531 3.570312 0.144531 C 4.636719 0.144531 5.488281 -0.371094 5.992188 -1.175781 L 5.992188 0 L 6.785156 0 L 6.785156 -8.390625 Z M 3.632812 -0.625 C 2.300781 -0.625 1.269531 -1.664062 1.269531 -2.996094 C 1.269531 -4.328125 2.300781 -5.371094 3.632812 -5.371094 C 4.960938 -5.371094 5.992188 -4.328125 5.992188 -2.996094 C 5.992188 -1.664062 4.960938 -0.625 3.632812 -0.625 Z M 3.632812 -0.625 "/></g></g></g><g fill="#000000" fill-opacity="1"><g transform="translate(428.274814, 118.244357)"><g><path d="M 3.632812 0.144531 C 5.382812 0.144531 6.785156 -1.222656 6.785156 -2.996094 C 6.785156 -4.769531 5.382812 -6.136719 3.632812 -6.136719 C 1.882812 -6.136719 0.480469 -4.769531 0.480469 -2.996094 C 0.480469 -1.222656 1.882812 0.144531 3.632812 0.144531 Z M 3.632812 -0.625 C 2.300781 -0.625 1.269531 -1.664062 1.269531 -2.996094 C 1.269531 -4.328125 2.300781 -5.371094 3.632812 -5.371094 C 4.960938 -5.371094 5.992188 -4.328125 5.992188 -2.996094 C 5.992188 -1.664062 4.960938 -0.625 3.632812 -0.625 Z M 3.632812 -0.625 "/></g></g></g><g fill="#000000" fill-opacity="1"><g transform="translate(435.537824, 118.244357)"><g><path d="M 8.054688 -5.992188 L 6.578125 -1.019531 L 5.011719 -5.992188 L 4.21875 -5.992188 L 2.648438 -1.019531 L 1.175781 -5.992188 L 0.359375 -5.992188 L 2.207031 0 L 3.066406 0 L 4.613281 -4.828125 L 6.160156 0 L 7.023438 0 L 8.867188 -5.992188 Z M 8.054688 -5.992188 "/></g></g></g><g fill="#000000" fill-opacity="1"><g transform="translate(444.766405, 118.244357)"><g><path d="M 3.644531 -6.136719 C 2.792969 -6.136719 2.097656 -5.8125 1.628906 -5.058594 L 1.628906 -5.992188 L 0.839844 -5.992188 L 0.839844 0 L 1.628906 0 L 1.628906 -3.140625 C 1.628906 -4.746094 2.515625 -5.371094 3.570312 -5.371094 C 4.613281 -5.371094 5.203125 -4.746094 5.203125 -3.679688 L 5.203125 0 L 5.992188 0 L 5.992188 -3.679688 C 5.992188 -5.175781 5.105469 -6.136719 3.644531 -6.136719 Z M 3.644531 -6.136719 "/></g></g></g><g fill="#000000" fill-opacity="1"><g transform="translate(395.946189, 134.723936)"><g><path d="M 2.039062 1.199219 L 2.828125 1.199219 C 1.988281 -0.480469 1.511719 -2.277344 1.511719 -4.195312 C 1.511719 -6.113281 1.988281 -7.910156 2.828125 -9.589844 L 2.039062 -9.589844 C 1.199219 -7.910156 0.71875 -6.113281 0.71875 -4.195312 C 0.71875 -2.277344 1.199219 -0.480469 2.039062 1.199219 Z M 2.039062 1.199219 "/></g></g></g><g fill="#000000" fill-opacity="1"><g transform="translate(399.134247, 134.723936)"><g><path d="M 3.835938 -7.765625 L 3.835938 -8.535156 C 2.21875 -8.652344 1.320312 -7.789062 1.320312 -6.230469 L 1.320312 -5.992188 L 0.300781 -5.992188 L 0.300781 -5.226562 L 1.320312 -5.226562 L 1.320312 0 L 2.109375 0 L 2.109375 -5.226562 L 3.835938 -5.226562 L 3.835938 -5.992188 L 2.109375 -5.992188 L 2.109375 -6.230469 C 2.109375 -7.382812 2.671875 -7.863281 3.835938 -7.765625 Z M 3.835938 -7.765625 "/></g></g></g><g fill="#000000" fill-opacity="1"><g transform="translate(402.969502, 134.723936)"><g><path d="M 1.234375 -7.261719 C 1.558594 -7.261719 1.808594 -7.527344 1.808594 -7.839844 C 1.808594 -8.148438 1.558594 -8.414062 1.234375 -8.414062 C 0.910156 -8.414062 0.660156 -8.148438 0.660156 -7.839844 C 0.660156 -7.527344 0.910156 -7.261719 1.234375 -7.261719 Z M 0.839844 0 L 1.628906 0 L 1.628906 -5.992188 L 0.839844 -5.992188 Z M 0.839844 0 "/></g></g></g><g fill="#000000" fill-opacity="1"><g transform="translate(405.438447, 134.723936)"><g><path d="M 0.839844 0 L 1.628906 0 L 1.628906 -8.75 L 0.839844 -8.75 Z M 0.839844 0 "/></g></g></g><g fill="#000000" fill-opacity="1"><g transform="translate(407.907391, 134.723936)"><g><path d="M 3.609375 -6.136719 C 1.75 -6.136719 0.480469 -4.757812 0.480469 -2.996094 C 0.480469 -1.1875 1.773438 0.144531 3.667969 0.144531 C 4.878906 0.144531 5.800781 -0.417969 6.304688 -1.234375 L 5.609375 -1.640625 C 5.285156 -1.066406 4.625 -0.625 3.679688 -0.625 C 2.410156 -0.625 1.460938 -1.378906 1.292969 -2.601562 L 6.554688 -2.601562 C 6.566406 -2.71875 6.578125 -2.851562 6.578125 -2.972656 C 6.578125 -4.613281 5.441406 -6.136719 3.609375 -6.136719 Z M 3.609375 -5.371094 C 4.636719 -5.371094 5.597656 -4.6875 5.765625 -3.367188 L 1.292969 -3.367188 C 1.449219 -4.542969 2.347656 -5.371094 3.609375 -5.371094 Z M 3.609375 -5.371094 "/></g></g></g><g fill="#000000" fill-opacity="1"><g transform="translate(414.906736, 134.723936)"><g><path d="M 3.644531 -6.136719 C 2.792969 -6.136719 2.097656 -5.8125 1.628906 -5.058594 L 1.628906 -5.992188 L 0.839844 -5.992188 L 0.839844 0 L 1.628906 0 L 1.628906 -3.140625 C 1.628906 -4.746094 2.515625 -5.371094 3.570312 -5.371094 C 4.613281 -5.371094 5.203125 -4.746094 5.203125 -3.679688 L 5.203125 0 L 5.992188 0 L 5.992188 -3.679688 C 5.992188 -5.175781 5.105469 -6.136719 3.644531 -6.136719 Z M 3.644531 -6.136719 "/></g></g></g><g fill="#000000" fill-opacity="1"><g transform="translate(421.594467, 134.723936)"><g><path d="M 5.992188 -5.992188 L 5.992188 -4.816406 C 5.488281 -5.621094 4.636719 -6.136719 3.570312 -6.136719 C 1.882812 -6.136719 0.480469 -4.769531 0.480469 -2.996094 C 0.480469 -1.222656 1.882812 0.144531 3.570312 0.144531 C 4.636719 0.144531 5.488281 -0.371094 5.992188 -1.175781 L 5.992188 0 L 6.785156 0 L 6.785156 -5.992188 Z M 3.632812 -0.625 C 2.300781 -0.625 1.269531 -1.664062 1.269531 -2.996094 C 1.269531 -4.328125 2.300781 -5.371094 3.632812 -5.371094 C 4.960938 -5.371094 5.992188 -4.328125 5.992188 -2.996094 C 5.992188 -1.664062 4.960938 -0.625 3.632812 -0.625 Z M 3.632812 -0.625 "/></g></g></g><g fill="#000000" fill-opacity="1"><g transform="translate(429.21704, 134.723936)"><g><path d="M 7.226562 -6.136719 C 6.460938 -6.136719 5.730469 -5.789062 5.285156 -5.046875 C 4.949219 -5.742188 4.300781 -6.136719 3.464844 -6.136719 C 2.746094 -6.136719 2.097656 -5.847656 1.628906 -5.117188 L 1.628906 -5.992188 L 0.839844 -5.992188 L 0.839844 0 L 1.628906 0 L 1.628906 -3.320312 C 1.628906 -4.804688 2.492188 -5.371094 3.355469 -5.371094 C 4.207031 -5.371094 4.757812 -4.804688 4.757812 -3.738281 L 4.757812 0 L 5.550781 0 L 5.550781 -3.320312 C 5.550781 -4.804688 6.292969 -5.371094 7.214844 -5.371094 C 8.066406 -5.371094 8.675781 -4.804688 8.675781 -3.738281 L 8.675781 0 L 9.46875 0 L 9.46875 -3.738281 C 9.46875 -5.238281 8.546875 -6.136719 7.226562 -6.136719 Z M 7.226562 -6.136719 "/></g></g></g><g fill="#000000" fill-opacity="1"><g transform="translate(439.380463, 134.723936)"><g><path d="M 3.609375 -6.136719 C 1.75 -6.136719 0.480469 -4.757812 0.480469 -2.996094 C 0.480469 -1.1875 1.773438 0.144531 3.667969 0.144531 C 4.878906 0.144531 5.800781 -0.417969 6.304688 -1.234375 L 5.609375 -1.640625 C 5.285156 -1.066406 4.625 -0.625 3.679688 -0.625 C 2.410156 -0.625 1.460938 -1.378906 1.292969 -2.601562 L 6.554688 -2.601562 C 6.566406 -2.71875 6.578125 -2.851562 6.578125 -2.972656 C 6.578125 -4.613281 5.441406 -6.136719 3.609375 -6.136719 Z M 3.609375 -5.371094 C 4.636719 -5.371094 5.597656 -4.6875 5.765625 -3.367188 L 1.292969 -3.367188 C 1.449219 -4.542969 2.347656 -5.371094 3.609375 -5.371094 Z M 3.609375 -5.371094 "/></g></g></g><g fill="#000000" fill-opacity="1"><g transform="translate(446.379808, 134.723936)"><g><path d="M 2.15625 -1.019531 L 1.199219 -1.019531 L 0.71875 1.679688 L 1.4375 1.679688 Z M 2.15625 -1.019531 "/></g></g></g><g fill="#000000" fill-opacity="1"><g transform="translate(399.387237, 151.203514)"><g><path d="M 3.632812 0.144531 C 4.804688 0.144531 5.824219 -0.46875 6.316406 -1.414062 L 5.65625 -1.796875 C 5.273438 -1.101562 4.542969 -0.625 3.632812 -0.625 C 2.300781 -0.625 1.269531 -1.664062 1.269531 -2.996094 C 1.269531 -4.328125 2.300781 -5.371094 3.632812 -5.371094 C 4.53125 -5.371094 5.285156 -4.902344 5.609375 -4.195312 L 6.257812 -4.566406 C 5.824219 -5.511719 4.816406 -6.136719 3.632812 -6.136719 C 1.820312 -6.136719 0.480469 -4.769531 0.480469 -2.996094 C 0.480469 -1.222656 1.820312 0.144531 3.632812 0.144531 Z M 3.632812 0.144531 "/></g></g></g><g fill="#000000" fill-opacity="1"><g transform="translate(406.003051, 151.203514)"><g><path d="M 3.632812 0.144531 C 5.382812 0.144531 6.785156 -1.222656 6.785156 -2.996094 C 6.785156 -4.769531 5.382812 -6.136719 3.632812 -6.136719 C 1.882812 -6.136719 0.480469 -4.769531 0.480469 -2.996094 C 0.480469 -1.222656 1.882812 0.144531 3.632812 0.144531 Z M 3.632812 -0.625 C 2.300781 -0.625 1.269531 -1.664062 1.269531 -2.996094 C 1.269531 -4.328125 2.300781 -5.371094 3.632812 -5.371094 C 4.960938 -5.371094 5.992188 -4.328125 5.992188 -2.996094 C 5.992188 -1.664062 4.960938 -0.625 3.632812 -0.625 Z M 3.632812 -0.625 "/></g></g></g><g fill="#000000" fill-opacity="1"><g transform="translate(413.266061, 151.203514)"><g><path d="M 3.644531 -6.136719 C 2.792969 -6.136719 2.097656 -5.8125 1.628906 -5.058594 L 1.628906 -5.992188 L 0.839844 -5.992188 L 0.839844 0 L 1.628906 0 L 1.628906 -3.140625 C 1.628906 -4.746094 2.515625 -5.371094 3.570312 -5.371094 C 4.613281 -5.371094 5.203125 -4.746094 5.203125 -3.679688 L 5.203125 0 L 5.992188 0 L 5.992188 -3.679688 C 5.992188 -5.175781 5.105469 -6.136719 3.644531 -6.136719 Z M 3.644531 -6.136719 "/></g></g></g><g fill="#000000" fill-opacity="1"><g transform="translate(419.953792, 151.203514)"><g><path d="M 4.015625 -5.226562 L 4.015625 -5.992188 L 2.289062 -5.992188 L 2.289062 -7.671875 L 1.5 -7.429688 L 1.5 -5.992188 L 0.238281 -5.992188 L 0.238281 -5.226562 L 1.5 -5.226562 L 1.5 -1.59375 C 1.5 -0.15625 2.398438 0.238281 4.015625 0 L 4.015625 -0.695312 C 2.851562 -0.648438 2.289062 -0.5625 2.289062 -1.59375 L 2.289062 -5.226562 Z M 4.015625 -5.226562 "/></g></g></g><g fill="#000000" fill-opacity="1"><g transform="translate(424.448234, 151.203514)"><g><path d="M 3.609375 -6.136719 C 1.75 -6.136719 0.480469 -4.757812 0.480469 -2.996094 C 0.480469 -1.1875 1.773438 0.144531 3.667969 0.144531 C 4.878906 0.144531 5.800781 -0.417969 6.304688 -1.234375 L 5.609375 -1.640625 C 5.285156 -1.066406 4.625 -0.625 3.679688 -0.625 C 2.410156 -0.625 1.460938 -1.378906 1.292969 -2.601562 L 6.554688 -2.601562 C 6.566406 -2.71875 6.578125 -2.851562 6.578125 -2.972656 C 6.578125 -4.613281 5.441406 -6.136719 3.609375 -6.136719 Z M 3.609375 -5.371094 C 4.636719 -5.371094 5.597656 -4.6875 5.765625 -3.367188 L 1.292969 -3.367188 C 1.449219 -4.542969 2.347656 -5.371094 3.609375 -5.371094 Z M 3.609375 -5.371094 "/></g></g></g><g fill="#000000" fill-opacity="1"><g transform="translate(431.447579, 151.203514)"><g><path d="M 3.644531 -6.136719 C 2.792969 -6.136719 2.097656 -5.8125 1.628906 -5.058594 L 1.628906 -5.992188 L 0.839844 -5.992188 L 0.839844 0 L 1.628906 0 L 1.628906 -3.140625 C 1.628906 -4.746094 2.515625 -5.371094 3.570312 -5.371094 C 4.613281 -5.371094 5.203125 -4.746094 5.203125 -3.679688 L 5.203125 0 L 5.992188 0 L 5.992188 -3.679688 C 5.992188 -5.175781 5.105469 -6.136719 3.644531 -6.136719 Z M 3.644531 -6.136719 "/></g></g></g><g fill="#000000" fill-opacity="1"><g transform="translate(438.13531, 151.203514)"><g><path d="M 4.015625 -5.226562 L 4.015625 -5.992188 L 2.289062 -5.992188 L 2.289062 -7.671875 L 1.5 -7.429688 L 1.5 -5.992188 L 0.238281 -5.992188 L 0.238281 -5.226562 L 1.5 -5.226562 L 1.5 -1.59375 C 1.5 -0.15625 2.398438 0.238281 4.015625 0 L 4.015625 -0.695312 C 2.851562 -0.648438 2.289062 -0.5625 2.289062 -1.59375 L 2.289062 -5.226562 Z M 4.015625 -5.226562 "/></g></g></g><g fill="#000000" fill-opacity="1"><g transform="translate(442.629752, 151.203514)"><g><path d="M 1.152344 1.199219 C 1.988281 -0.480469 2.46875 -2.277344 2.46875 -4.195312 C 2.46875 -6.113281 1.988281 -7.910156 1.152344 -9.589844 L 0.359375 -9.589844 C 1.199219 -7.910156 1.679688 -6.113281 1.679688 -4.195312 C 1.679688 -2.277344 1.199219 -0.480469 0.359375 1.199219 Z M 1.152344 1.199219 "/></g></g></g><path fill="#89898d" d="M 503.960938 122.359375 L 505.457031 122.359375 L 505.457031 123.859375 L 503.960938 123.859375 M 506.957031 122.359375 L 508.453125 122.359375 L 508.453125 123.859375 L 506.957031 123.859375 M 509.953125 122.359375 L 511.449219 122.359375 L 511.449219 123.859375 L 509.953125 123.859375 M 512.949219 122.359375 L 514.445312 122.359375 L 514.445312 123.859375 L 512.949219 123.859375 M 515.945312 122.359375 L 517.441406 122.359375 L 517.441406 123.859375 L 515.945312 123.859375 M 518.941406 122.359375 L 520.441406 122.359375 L 520.441406 123.859375 L 518.941406 123.859375 M 521.9375 122.359375 L 523.4375 122.359375 L 523.4375 123.859375 L 521.9375 123.859375 M 524.933594 122.359375 L 526.433594 122.359375 L 526.433594 123.859375 L 524.933594 123.859375 M 527.929688 122.359375 L 529.429688 122.359375 L 529.429688 123.859375 L 527.929688 123.859375 " fill-opacity="1" fill-rule="nonzero"/><path stroke-linecap="round" transform="matrix(0.749072, 0.0000000000437055, -0.0000000000437055, 0.749072, 503.959917, 122.361253)" fill-opacity="1" fill="#89898d" fill-rule="nonzero" stroke-linejoin="round" d="M 34.580618 -1.999771 L 38.58036 0.998732 L 34.580618 4.00245 Z M 34.580618 -1.999771 " stroke="#89898d" stroke-width="2" stroke-opacity="1" stroke-miterlimit="4"/></svg>