<svg xmlns="http://www.w3.org/2000/svg" xmlns:xlink="http://www.w3.org/1999/xlink" width="783" zoomAndPan="magnify" viewBox="0 0 587.25 213" height="284" preserveAspectRatio="xMidYMid meet" version="1.0"><defs><g/><clipPath id="257782afb8"><path d="M 101.007812 0.136719 L 493.625 0.136719 L 493.625 212.183594 L 101.007812 212.183594 Z M 101.007812 0.136719 " clip-rule="nonzero"/></clipPath><clipPath id="99262e64a8"><path d="M 113.742188 0.136719 L 480.335938 0.136719 C 487.367188 0.136719 493.070312 5.835938 493.070312 12.871094 L 493.070312 199.449219 C 493.070312 206.480469 487.367188 212.183594 480.335938 212.183594 L 113.742188 212.183594 C 106.707031 212.183594 101.007812 206.480469 101.007812 199.449219 L 101.007812 12.871094 C 101.007812 5.835938 106.707031 0.136719 113.742188 0.136719 Z M 113.742188 0.136719 " clip-rule="nonzero"/></clipPath><clipPath id="07f81d7f89"><path d="M 0.0078125 0.136719 L 392 0.136719 L 392 212.183594 L 0.0078125 212.183594 Z M 0.0078125 0.136719 " clip-rule="nonzero"/></clipPath><clipPath id="76ad8c3272"><path d="M 12.742188 0.136719 L 379.335938 0.136719 C 386.367188 0.136719 392.070312 5.835938 392.070312 12.871094 L 392.070312 199.449219 C 392.070312 206.480469 386.367188 212.183594 379.335938 212.183594 L 12.742188 212.183594 C 5.707031 212.183594 0.0078125 206.480469 0.0078125 199.449219 L 0.0078125 12.871094 C 0.0078125 5.835938 5.707031 0.136719 12.742188 0.136719 Z M 12.742188 0.136719 " clip-rule="nonzero"/></clipPath><clipPath id="165082fa39"><rect x="0" width="393" y="0" height="213"/></clipPath><clipPath id="ac23c83dad"><path d="M 101.011719 0.136719 L 492.757812 0.136719 L 492.757812 212.113281 L 101.011719 212.113281 Z M 101.011719 0.136719 " clip-rule="nonzero"/></clipPath><clipPath id="58b0fd50ba"><path d="M 113.742188 0.136719 L 480.324219 0.136719 C 487.355469 0.136719 493.058594 5.835938 493.058594 12.867188 L 493.058594 199.441406 C 493.058594 206.472656 487.355469 212.171875 480.324219 212.171875 L 113.742188 212.171875 C 106.710938 212.171875 101.011719 206.472656 101.011719 199.441406 L 101.011719 12.867188 C 101.011719 5.835938 106.710938 0.136719 113.742188 0.136719 Z M 113.742188 0.136719 " clip-rule="nonzero"/></clipPath><clipPath id="ed41c45f5b"><path d="M 129.035156 76.207031 L 198.792969 76.207031 L 198.792969 145.691406 L 129.035156 145.691406 Z M 129.035156 76.207031 " clip-rule="nonzero"/></clipPath><clipPath id="f3e8d7efc5"><path d="M 132.03125 76.207031 L 195.605469 76.207031 C 197.261719 76.207031 198.601562 77.546875 198.601562 79.203125 L 198.601562 142.695312 C 198.601562 144.347656 197.261719 145.691406 195.605469 145.691406 L 132.03125 145.691406 C 130.378906 145.691406 129.035156 144.347656 129.035156 142.695312 L 129.035156 79.203125 C 129.035156 77.546875 130.378906 76.207031 132.03125 76.207031 Z M 132.03125 76.207031 " clip-rule="nonzero"/></clipPath><clipPath id="a9cb6356b8"><path d="M 0.0351562 0.207031 L 69.707031 0.207031 L 69.707031 69.691406 L 0.0351562 69.691406 Z M 0.0351562 0.207031 " clip-rule="nonzero"/></clipPath><clipPath id="e747761fa0"><path d="M 3.03125 0.207031 L 66.605469 0.207031 C 68.261719 0.207031 69.601562 1.546875 69.601562 3.203125 L 69.601562 66.695312 C 69.601562 68.347656 68.261719 69.691406 66.605469 69.691406 L 3.03125 69.691406 C 1.378906 69.691406 0.0351562 68.347656 0.0351562 66.695312 L 0.0351562 3.203125 C 0.0351562 1.546875 1.378906 0.207031 3.03125 0.207031 Z M 3.03125 0.207031 " clip-rule="nonzero"/></clipPath><clipPath id="97416a6954"><rect x="0" width="70" y="0" height="70"/></clipPath><clipPath id="63798364d4"><path d="M 129.039062 76.207031 L 198.699219 76.207031 L 198.699219 145.867188 L 129.039062 145.867188 Z M 129.039062 76.207031 " clip-rule="nonzero"/></clipPath><clipPath id="191d9efa2a"><path d="M 132.03125 76.207031 L 195.597656 76.207031 C 197.25 76.207031 198.59375 77.546875 198.59375 79.203125 L 198.59375 142.683594 C 198.59375 144.339844 197.25 145.679688 195.597656 145.679688 L 132.03125 145.679688 C 130.378906 145.679688 129.039062 144.339844 129.039062 142.683594 L 129.039062 79.203125 C 129.039062 77.546875 130.378906 76.207031 132.03125 76.207031 Z M 132.03125 76.207031 " clip-rule="nonzero"/></clipPath><clipPath id="f4078139b8"><path d="M 239.339844 76.207031 L 334.878906 76.207031 L 334.878906 145.691406 L 239.339844 145.691406 Z M 239.339844 76.207031 " clip-rule="nonzero"/></clipPath><clipPath id="fc893eeadf"><path d="M 257.71875 76.207031 L 316.449219 76.207031 C 326.601562 76.207031 334.828125 84.433594 334.828125 94.585938 L 334.828125 127.3125 C 334.828125 137.460938 326.601562 145.691406 316.449219 145.691406 L 257.71875 145.691406 C 247.566406 145.691406 239.339844 137.460938 239.339844 127.3125 L 239.339844 94.585938 C 239.339844 84.433594 247.566406 76.207031 257.71875 76.207031 Z M 257.71875 76.207031 " clip-rule="nonzero"/></clipPath><clipPath id="9bb3fc2f4b"><path d="M 0.339844 0.207031 L 95.851562 0.207031 L 95.851562 69.691406 L 0.339844 69.691406 Z M 0.339844 0.207031 " clip-rule="nonzero"/></clipPath><clipPath id="f65555dcaa"><path d="M 18.71875 0.207031 L 77.449219 0.207031 C 87.601562 0.207031 95.828125 8.433594 95.828125 18.585938 L 95.828125 51.3125 C 95.828125 61.460938 87.601562 69.691406 77.449219 69.691406 L 18.71875 69.691406 C 8.566406 69.691406 0.339844 61.460938 0.339844 51.3125 L 0.339844 18.585938 C 0.339844 8.433594 8.566406 0.207031 18.71875 0.207031 Z M 18.71875 0.207031 " clip-rule="nonzero"/></clipPath><clipPath id="28eb18226c"><rect x="0" width="96" y="0" height="70"/></clipPath><clipPath id="e9cdcb01bc"><path d="M 239.34375 76.207031 L 334.46875 76.207031 L 334.46875 145.867188 L 239.34375 145.867188 Z M 239.34375 76.207031 " clip-rule="nonzero"/></clipPath><clipPath id="24b35d5fef"><path d="M 257.71875 76.207031 L 316.441406 76.207031 C 326.589844 76.207031 334.816406 84.433594 334.816406 94.582031 L 334.816406 127.304688 C 334.816406 137.453125 326.589844 145.679688 316.441406 145.679688 L 257.71875 145.679688 C 247.570312 145.679688 239.34375 137.453125 239.34375 127.304688 L 239.34375 94.582031 C 239.34375 84.433594 247.570312 76.207031 257.71875 76.207031 Z M 257.71875 76.207031 " clip-rule="nonzero"/></clipPath><clipPath id="bdf35eeb21"><path d="M 0 42.832031 L 70.296875 42.832031 L 70.296875 179.304688 L 0 179.304688 Z M 0 42.832031 " clip-rule="nonzero"/></clipPath><clipPath id="43272431a9"><path d="M 12.734375 42.832031 L 57.5625 42.832031 C 60.941406 42.832031 64.179688 44.171875 66.566406 46.5625 C 68.953125 48.949219 70.296875 52.1875 70.296875 55.566406 L 70.296875 166.332031 C 70.296875 169.707031 68.953125 172.949219 66.566406 175.335938 C 64.179688 177.722656 60.941406 179.066406 57.5625 179.066406 L 12.734375 179.066406 C 9.355469 179.066406 6.117188 177.722656 3.730469 175.335938 C 1.339844 172.949219 0 169.707031 0 166.332031 L 0 55.566406 C 0 52.1875 1.339844 48.949219 3.730469 46.5625 C 6.117188 44.171875 9.355469 42.832031 12.734375 42.832031 Z M 12.734375 42.832031 " clip-rule="nonzero"/></clipPath><clipPath id="e095a7fb17"><path d="M 0 0.832031 L 70.296875 0.832031 L 70.296875 137.1875 L 0 137.1875 Z M 0 0.832031 " clip-rule="nonzero"/></clipPath><clipPath id="477933bb34"><path d="M 12.734375 0.832031 L 57.5625 0.832031 C 60.941406 0.832031 64.179688 2.171875 66.566406 4.5625 C 68.953125 6.949219 70.296875 10.1875 70.296875 13.566406 L 70.296875 124.332031 C 70.296875 127.707031 68.953125 130.949219 66.566406 133.335938 C 64.179688 135.722656 60.941406 137.066406 57.5625 137.066406 L 12.734375 137.066406 C 9.355469 137.066406 6.117188 135.722656 3.730469 133.335938 C 1.339844 130.949219 0 127.707031 0 124.332031 L 0 13.566406 C 0 10.1875 1.339844 6.949219 3.730469 4.5625 C 6.117188 2.171875 9.355469 0.832031 12.734375 0.832031 Z M 12.734375 0.832031 " clip-rule="nonzero"/></clipPath><clipPath id="fd7ed1705d"><rect x="0" width="71" y="0" height="138"/></clipPath><clipPath id="76a5b1afd4"><path d="M 0 42.832031 L 70.410156 42.832031 L 70.410156 179.15625 L 0 179.15625 Z M 0 42.832031 " clip-rule="nonzero"/></clipPath><clipPath id="12b3e8ba69"><path d="M 12.734375 42.832031 L 57.558594 42.832031 C 60.9375 42.832031 64.175781 44.175781 66.5625 46.5625 C 68.953125 48.949219 70.292969 52.191406 70.292969 55.566406 L 70.292969 166.328125 C 70.292969 169.707031 68.953125 172.945312 66.5625 175.332031 C 64.175781 177.71875 60.9375 179.0625 57.558594 179.0625 L 12.734375 179.0625 C 9.355469 179.0625 6.117188 177.71875 3.730469 175.332031 C 1.339844 172.945312 0 169.707031 0 166.328125 L 0 55.566406 C 0 52.191406 1.339844 48.949219 3.730469 46.5625 C 6.117188 44.175781 9.355469 42.832031 12.734375 42.832031 Z M 12.734375 42.832031 " clip-rule="nonzero"/></clipPath><clipPath id="1a273bacab"><path d="M 516.09375 42.832031 L 586.390625 42.832031 L 586.390625 179.304688 L 516.09375 179.304688 Z M 516.09375 42.832031 " clip-rule="nonzero"/></clipPath><clipPath id="35ea09fe7d"><path d="M 528.828125 42.832031 L 573.65625 42.832031 C 577.03125 42.832031 580.273438 44.171875 582.660156 46.5625 C 585.046875 48.949219 586.390625 52.1875 586.390625 55.566406 L 586.390625 166.332031 C 586.390625 169.707031 585.046875 172.949219 582.660156 175.335938 C 580.273438 177.722656 577.03125 179.066406 573.65625 179.066406 L 528.828125 179.066406 C 525.449219 179.066406 522.210938 177.722656 519.824219 175.335938 C 517.433594 172.949219 516.09375 169.707031 516.09375 166.332031 L 516.09375 55.566406 C 516.09375 52.1875 517.433594 48.949219 519.824219 46.5625 C 522.210938 44.171875 525.449219 42.832031 528.828125 42.832031 Z M 528.828125 42.832031 " clip-rule="nonzero"/></clipPath><clipPath id="ae0cee8cef"><path d="M 0.09375 0.832031 L 70.390625 0.832031 L 70.390625 137.1875 L 0.09375 137.1875 Z M 0.09375 0.832031 " clip-rule="nonzero"/></clipPath><clipPath id="311848f0b8"><path d="M 12.828125 0.832031 L 57.65625 0.832031 C 61.03125 0.832031 64.273438 2.171875 66.660156 4.5625 C 69.046875 6.949219 70.390625 10.1875 70.390625 13.566406 L 70.390625 124.332031 C 70.390625 127.707031 69.046875 130.949219 66.660156 133.335938 C 64.273438 135.722656 61.03125 137.066406 57.65625 137.066406 L 12.828125 137.066406 C 9.449219 137.066406 6.210938 135.722656 3.824219 133.335938 C 1.433594 130.949219 0.09375 127.707031 0.09375 124.332031 L 0.09375 13.566406 C 0.09375 10.1875 1.433594 6.949219 3.824219 4.5625 C 6.210938 2.171875 9.449219 0.832031 12.828125 0.832031 Z M 12.828125 0.832031 " clip-rule="nonzero"/></clipPath><clipPath id="c98870589b"><rect x="0" width="71" y="0" height="138"/></clipPath><clipPath id="2ca62a849c"><path d="M 516.09375 42.832031 L 586.5 42.832031 L 586.5 179.15625 L 516.09375 179.15625 Z M 516.09375 42.832031 " clip-rule="nonzero"/></clipPath><clipPath id="56af5d1dab"><path d="M 528.828125 42.832031 L 573.652344 42.832031 C 577.03125 42.832031 580.269531 44.175781 582.65625 46.5625 C 585.046875 48.949219 586.386719 52.191406 586.386719 55.566406 L 586.386719 166.328125 C 586.386719 169.707031 585.046875 172.945312 582.65625 175.332031 C 580.269531 177.71875 577.03125 179.0625 573.652344 179.0625 L 528.828125 179.0625 C 525.449219 179.0625 522.210938 177.71875 519.824219 175.332031 C 517.433594 172.945312 516.09375 169.707031 516.09375 166.328125 L 516.09375 55.566406 C 516.09375 52.191406 517.433594 48.949219 519.824219 46.5625 C 522.210938 44.175781 525.449219 42.832031 528.828125 42.832031 Z M 528.828125 42.832031 " clip-rule="nonzero"/></clipPath><clipPath id="efbb82dbd5"><path d="M 375.566406 76.910156 L 473.421875 76.910156 L 473.421875 144.984375 L 375.566406 144.984375 Z M 375.566406 76.910156 " clip-rule="nonzero"/></clipPath><clipPath id="bc9b11cb45"><path d="M 380.46875 76.910156 L 432.753906 76.910156 C 454.882812 76.910156 473.199219 92.152344 473.199219 110.949219 C 473.199219 129.746094 454.882812 144.984375 432.753906 144.984375 L 380.46875 144.984375 C 377.761719 144.984375 375.566406 142.789062 375.566406 140.085938 L 375.566406 81.8125 C 375.566406 79.105469 377.761719 76.910156 380.46875 76.910156 Z M 380.46875 76.910156 " clip-rule="nonzero"/></clipPath><clipPath id="29134af8bd"><path d="M 0.566406 0.910156 L 98.394531 0.910156 L 98.394531 68.984375 L 0.566406 68.984375 Z M 0.566406 0.910156 " clip-rule="nonzero"/></clipPath><clipPath id="d031e04761"><path d="M 5.46875 0.910156 L 57.753906 0.910156 C 79.882812 0.910156 98.199219 16.152344 98.199219 34.949219 C 98.199219 53.746094 79.882812 68.984375 57.753906 68.984375 L 5.46875 68.984375 C 2.761719 68.984375 0.566406 66.789062 0.566406 64.085938 L 0.566406 5.8125 C 0.566406 3.105469 2.761719 0.910156 5.46875 0.910156 Z M 5.46875 0.910156 " clip-rule="nonzero"/></clipPath><clipPath id="1fa88a4dea"><rect x="0" width="99" y="0" height="69"/></clipPath><clipPath id="9a3885170b"><path d="M 375.566406 76.914062 L 472.941406 76.914062 L 472.941406 145 L 375.566406 145 Z M 375.566406 76.914062 " clip-rule="nonzero"/></clipPath><clipPath id="5f98329da5"><path d="M 380.464844 76.914062 L 432.746094 76.914062 C 454.875 76.914062 473.1875 92.152344 473.1875 110.945312 C 473.1875 129.742188 454.875 144.980469 432.746094 144.980469 L 380.464844 144.980469 C 377.761719 144.980469 375.566406 142.785156 375.566406 140.078125 L 375.566406 81.8125 C 375.566406 79.109375 377.761719 76.914062 380.464844 76.914062 Z M 380.464844 76.914062 " clip-rule="nonzero"/></clipPath></defs><g clip-path="url(#257782afb8)"><g clip-path="url(#99262e64a8)"><g transform="matrix(1, 0, 0, 1, 101, -0.000000000000002581)"><g clip-path="url(#165082fa39)"><g clip-path="url(#07f81d7f89)"><g clip-path="url(#76ad8c3272)"><path fill="#f8f3ed" d="M 0.0078125 0.136719 L 391.796875 0.136719 L 391.796875 212.183594 L 0.0078125 212.183594 Z M 0.0078125 0.136719 " fill-opacity="1" fill-rule="nonzero"/></g></g></g></g></g></g><g clip-path="url(#ac23c83dad)"><g clip-path="url(#58b0fd50ba)"><path stroke-linecap="butt" transform="matrix(0.749043, 0, 0, 0.749043, 101.010411, 0.135852)" fill="none" stroke-linejoin="miter" d="M 16.997381 0.00115738 L 506.397647 0.00115738 C 515.78462 0.00115738 523.398498 7.60982 523.398498 16.996793 L 523.398498 266.080121 C 523.398498 275.467094 515.78462 283.075757 506.397647 283.075757 L 16.997381 283.075757 C 7.610408 283.075757 0.00174532 275.467094 0.00174532 266.080121 L 0.00174532 16.996793 C 0.00174532 7.60982 7.610408 0.00115738 16.997381 0.00115738 Z M 16.997381 0.00115738 " stroke="#efeae7" stroke-width="4" stroke-opacity="1" stroke-miterlimit="4"/></g></g><g fill="#000000" fill-opacity="1"><g transform="translate(254.010613, 24.404856)"><g><path d="M 4.878906 0.144531 C 6.449219 0.144531 7.824219 -0.683594 8.507812 -1.929688 L 7.765625 -2.347656 C 7.25 -1.34375 6.136719 -0.671875 4.878906 -0.671875 C 2.757812 -0.671875 1.316406 -2.242188 1.316406 -4.195312 C 1.316406 -6.148438 2.757812 -7.71875 4.878906 -7.71875 C 6.136719 -7.71875 7.25 -7.046875 7.765625 -6.039062 L 8.507812 -6.472656 C 7.8125 -7.71875 6.4375 -8.53125 4.878906 -8.53125 C 2.300781 -8.53125 0.480469 -6.589844 0.480469 -4.195312 C 0.480469 -1.796875 2.300781 0.144531 4.878906 0.144531 Z M 4.878906 0.144531 "/></g></g></g><g fill="#000000" fill-opacity="1"><g transform="translate(262.939231, 24.404856)"><g><path d="M 3.632812 0.144531 C 5.382812 0.144531 6.785156 -1.222656 6.785156 -2.996094 C 6.785156 -4.769531 5.382812 -6.136719 3.632812 -6.136719 C 1.882812 -6.136719 0.480469 -4.769531 0.480469 -2.996094 C 0.480469 -1.222656 1.882812 0.144531 3.632812 0.144531 Z M 3.632812 -0.625 C 2.300781 -0.625 1.269531 -1.664062 1.269531 -2.996094 C 1.269531 -4.328125 2.300781 -5.371094 3.632812 -5.371094 C 4.960938 -5.371094 5.992188 -4.328125 5.992188 -2.996094 C 5.992188 -1.664062 4.960938 -0.625 3.632812 -0.625 Z M 3.632812 -0.625 "/></g></g></g><g fill="#000000" fill-opacity="1"><g transform="translate(270.201966, 24.404856)"><g><path d="M 3.632812 0.144531 C 4.804688 0.144531 5.824219 -0.46875 6.316406 -1.414062 L 5.65625 -1.796875 C 5.273438 -1.101562 4.542969 -0.625 3.632812 -0.625 C 2.300781 -0.625 1.269531 -1.664062 1.269531 -2.996094 C 1.269531 -4.328125 2.300781 -5.371094 3.632812 -5.371094 C 4.53125 -5.371094 5.285156 -4.902344 5.609375 -4.195312 L 6.257812 -4.566406 C 5.824219 -5.511719 4.816406 -6.136719 3.632812 -6.136719 C 1.820312 -6.136719 0.480469 -4.769531 0.480469 -2.996094 C 0.480469 -1.222656 1.820312 0.144531 3.632812 0.144531 Z M 3.632812 0.144531 "/></g></g></g><g fill="#000000" fill-opacity="1"><g transform="translate(276.817529, 24.404856)"><g><path d="M 3.632812 0.144531 C 5.382812 0.144531 6.785156 -1.222656 6.785156 -2.996094 C 6.785156 -4.769531 5.382812 -6.136719 3.632812 -6.136719 C 1.882812 -6.136719 0.480469 -4.769531 0.480469 -2.996094 C 0.480469 -1.222656 1.882812 0.144531 3.632812 0.144531 Z M 3.632812 -0.625 C 2.300781 -0.625 1.269531 -1.664062 1.269531 -2.996094 C 1.269531 -4.328125 2.300781 -5.371094 3.632812 -5.371094 C 4.960938 -5.371094 5.992188 -4.328125 5.992188 -2.996094 C 5.992188 -1.664062 4.960938 -0.625 3.632812 -0.625 Z M 3.632812 -0.625 "/></g></g></g><g fill="#000000" fill-opacity="1"><g transform="translate(284.080264, 24.404856)"><g><path d="M 0.957031 -8.390625 L 0.957031 0 L 1.796875 0 L 1.796875 -8.390625 Z M 0.957031 -8.390625 "/></g></g></g><g fill="#000000" fill-opacity="1"><g transform="translate(286.836749, 24.404856)"><g><path d="M 3.644531 -6.136719 C 2.792969 -6.136719 2.097656 -5.8125 1.628906 -5.058594 L 1.628906 -5.992188 L 0.839844 -5.992188 L 0.839844 0 L 1.628906 0 L 1.628906 -3.140625 C 1.628906 -4.746094 2.515625 -5.371094 3.570312 -5.371094 C 4.613281 -5.371094 5.203125 -4.746094 5.203125 -3.679688 L 5.203125 0 L 5.992188 0 L 5.992188 -3.679688 C 5.992188 -5.175781 5.105469 -6.136719 3.644531 -6.136719 Z M 3.644531 -6.136719 "/></g></g></g><g fill="#000000" fill-opacity="1"><g transform="translate(293.524226, 24.404856)"><g><path d="M 5.992188 -8.390625 L 5.992188 -4.816406 C 5.488281 -5.621094 4.636719 -6.136719 3.570312 -6.136719 C 1.882812 -6.136719 0.480469 -4.769531 0.480469 -2.996094 C 0.480469 -1.222656 1.882812 0.144531 3.570312 0.144531 C 4.636719 0.144531 5.488281 -0.371094 5.992188 -1.175781 L 5.992188 0 L 6.785156 0 L 6.785156 -8.390625 Z M 3.632812 -0.625 C 2.300781 -0.625 1.269531 -1.664062 1.269531 -2.996094 C 1.269531 -4.328125 2.300781 -5.371094 3.632812 -5.371094 C 4.960938 -5.371094 5.992188 -4.328125 5.992188 -2.996094 C 5.992188 -1.664062 4.960938 -0.625 3.632812 -0.625 Z M 3.632812 -0.625 "/></g></g></g><g fill="#000000" fill-opacity="1"><g transform="translate(301.14651, 24.404856)"><g><path d="M 3.605469 -6.136719 C 1.75 -6.136719 0.480469 -4.757812 0.480469 -2.996094 C 0.480469 -1.1875 1.773438 0.144531 3.667969 0.144531 C 4.878906 0.144531 5.800781 -0.417969 6.304688 -1.234375 L 5.609375 -1.640625 C 5.285156 -1.066406 4.625 -0.625 3.679688 -0.625 C 2.410156 -0.625 1.460938 -1.378906 1.292969 -2.601562 L 6.554688 -2.601562 C 6.566406 -2.71875 6.578125 -2.851562 6.578125 -2.972656 C 6.578125 -4.613281 5.441406 -6.136719 3.605469 -6.136719 Z M 3.605469 -5.371094 C 4.636719 -5.371094 5.597656 -4.6875 5.765625 -3.367188 L 1.292969 -3.367188 C 1.449219 -4.542969 2.347656 -5.371094 3.605469 -5.371094 Z M 3.605469 -5.371094 "/></g></g></g><g fill="#000000" fill-opacity="1"><g transform="translate(308.14559, 24.404856)"><g><path d="M 5.871094 0 L 3.535156 -3.105469 L 5.714844 -5.992188 L 4.769531 -5.992188 L 3.054688 -3.726562 L 1.34375 -5.992188 L 0.394531 -5.992188 L 2.589844 -3.105469 L 0.238281 0 L 1.1875 0 L 3.054688 -2.46875 L 4.925781 0 Z M 5.871094 0 "/></g></g></g><g fill="#000000" fill-opacity="1"><g transform="translate(314.257797, 24.404856)"><g/></g></g><g fill="#000000" fill-opacity="1"><g transform="translate(317.253982, 24.404856)"><g><path d="M 6.542969 0 L 7.429688 0 L 4.207031 -8.390625 L 3.34375 -8.390625 L 0.121094 0 L 1.007812 0 L 1.785156 -2.0625 L 5.765625 -2.0625 Z M 2.085938 -2.851562 L 3.773438 -7.347656 L 5.464844 -2.851562 Z M 2.085938 -2.851562 "/></g></g></g><g fill="#000000" fill-opacity="1"><g transform="translate(324.804352, 24.404856)"><g><path d="M 4.050781 -6.136719 C 2.984375 -6.136719 2.132812 -5.621094 1.628906 -4.816406 L 1.628906 -5.992188 L 0.839844 -5.992188 L 0.839844 2.398438 L 1.628906 2.398438 L 1.628906 -1.175781 C 2.132812 -0.371094 2.984375 0.144531 4.050781 0.144531 C 5.742188 0.144531 7.144531 -1.222656 7.144531 -2.996094 C 7.144531 -4.769531 5.742188 -6.136719 4.050781 -6.136719 Z M 3.992188 -0.625 C 2.660156 -0.625 1.628906 -1.664062 1.628906 -2.996094 C 1.628906 -4.328125 2.660156 -5.371094 3.992188 -5.371094 C 5.320312 -5.371094 6.351562 -4.328125 6.351562 -2.996094 C 6.351562 -1.664062 5.320312 -0.625 3.992188 -0.625 Z M 3.992188 -0.625 "/></g></g></g><g fill="#000000" fill-opacity="1"><g transform="translate(332.426636, 24.404856)"><g><path d="M 4.050781 -6.136719 C 2.984375 -6.136719 2.132812 -5.621094 1.628906 -4.816406 L 1.628906 -5.992188 L 0.839844 -5.992188 L 0.839844 2.398438 L 1.628906 2.398438 L 1.628906 -1.175781 C 2.132812 -0.371094 2.984375 0.144531 4.050781 0.144531 C 5.742188 0.144531 7.144531 -1.222656 7.144531 -2.996094 C 7.144531 -4.769531 5.742188 -6.136719 4.050781 -6.136719 Z M 3.992188 -0.625 C 2.660156 -0.625 1.628906 -1.664062 1.628906 -2.996094 C 1.628906 -4.328125 2.660156 -5.371094 3.992188 -5.371094 C 5.320312 -5.371094 6.351562 -4.328125 6.351562 -2.996094 C 6.351562 -1.664062 5.320312 -0.625 3.992188 -0.625 Z M 3.992188 -0.625 "/></g></g></g><g clip-path="url(#ed41c45f5b)"><g clip-path="url(#f3e8d7efc5)"><g transform="matrix(1, 0, 0, 1, 129, 76)"><g clip-path="url(#97416a6954)"><g clip-path="url(#a9cb6356b8)"><g clip-path="url(#e747761fa0)"><path fill="#ffffff" d="M 0.0351562 0.207031 L 69.519531 0.207031 L 69.519531 69.691406 L 0.0351562 69.691406 Z M 0.0351562 0.207031 " fill-opacity="1" fill-rule="nonzero"/></g></g></g></g></g></g><g clip-path="url(#63798364d4)"><g clip-path="url(#191d9efa2a)"><path stroke-linecap="butt" transform="matrix(0.749043, 0, 0, 0.749043, 129.037111, 76.206579)" fill="none" stroke-linejoin="miter" d="M 3.997285 0.000603847 L 88.860741 0.000603847 C 91.066679 0.000603847 92.860634 1.789344 92.860634 4.000498 L 92.860634 88.749224 C 92.860634 90.960378 91.066679 92.749118 88.860741 92.749118 L 3.997285 92.749118 C 1.791346 92.749118 0.00260577 90.960378 0.00260577 88.749224 L 0.00260577 4.000498 C 0.00260577 1.789344 1.791346 0.000603847 3.997285 0.000603847 Z M 3.997285 0.000603847 " stroke="#000000" stroke-width="4" stroke-opacity="1" stroke-miterlimit="4"/></g></g><g fill="#000000" fill-opacity="1"><g transform="translate(149.003445, 114.407789)"><g><path d="M 3.59375 0.144531 C 5.273438 0.144531 6.421875 -0.765625 6.421875 -2.207031 C 6.421875 -3.761719 5.058594 -4.195312 3.535156 -4.699219 C 2.398438 -5.070312 1.679688 -5.355469 1.679688 -6.269531 C 1.679688 -7.191406 2.410156 -7.71875 3.414062 -7.71875 C 4.519531 -7.71875 5.164062 -7.082031 5.476562 -6.328125 L 6.183594 -6.722656 C 5.753906 -7.71875 4.792969 -8.53125 3.414062 -8.53125 C 2.027344 -8.53125 0.839844 -7.707031 0.839844 -6.230469 C 0.839844 -4.6875 2.15625 -4.328125 3.523438 -3.871094 C 4.757812 -3.464844 5.585938 -3.152344 5.585938 -2.179688 C 5.585938 -1.28125 4.878906 -0.671875 3.605469 -0.671875 C 2.289062 -0.671875 1.5 -1.316406 1.199219 -2.324219 L 0.480469 -1.90625 C 0.910156 -0.636719 2.050781 0.144531 3.59375 0.144531 Z M 3.59375 0.144531 "/></g></g></g><g fill="#000000" fill-opacity="1"><g transform="translate(155.726868, 114.407789)"><g><path d="M 4.015625 -5.226562 L 4.015625 -5.992188 L 2.289062 -5.992188 L 2.289062 -7.671875 L 1.5 -7.429688 L 1.5 -5.992188 L 0.238281 -5.992188 L 0.238281 -5.226562 L 1.5 -5.226562 L 1.5 -1.59375 C 1.5 -0.15625 2.398438 0.238281 4.015625 0 L 4.015625 -0.695312 C 2.851562 -0.648438 2.289062 -0.5625 2.289062 -1.59375 L 2.289062 -5.226562 Z M 4.015625 -5.226562 "/></g></g></g><g fill="#000000" fill-opacity="1"><g transform="translate(159.861601, 114.407789)"><g><path d="M 5.992188 -5.992188 L 5.992188 -4.816406 C 5.488281 -5.621094 4.636719 -6.136719 3.570312 -6.136719 C 1.882812 -6.136719 0.480469 -4.769531 0.480469 -2.996094 C 0.480469 -1.222656 1.882812 0.144531 3.570312 0.144531 C 4.636719 0.144531 5.488281 -0.371094 5.992188 -1.175781 L 5.992188 0 L 6.785156 0 L 6.785156 -5.992188 Z M 3.632812 -0.625 C 2.300781 -0.625 1.269531 -1.664062 1.269531 -2.996094 C 1.269531 -4.328125 2.300781 -5.371094 3.632812 -5.371094 C 4.960938 -5.371094 5.992188 -4.328125 5.992188 -2.996094 C 5.992188 -1.664062 4.960938 -0.625 3.632812 -0.625 Z M 3.632812 -0.625 "/></g></g></g><g fill="#000000" fill-opacity="1"><g transform="translate(167.483885, 114.407789)"><g><path d="M 4.015625 -5.226562 L 4.015625 -5.992188 L 2.289062 -5.992188 L 2.289062 -7.671875 L 1.5 -7.429688 L 1.5 -5.992188 L 0.238281 -5.992188 L 0.238281 -5.226562 L 1.5 -5.226562 L 1.5 -1.59375 C 1.5 -0.15625 2.398438 0.238281 4.015625 0 L 4.015625 -0.695312 C 2.851562 -0.648438 2.289062 -0.5625 2.289062 -1.59375 L 2.289062 -5.226562 Z M 4.015625 -5.226562 "/></g></g></g><g fill="#000000" fill-opacity="1"><g transform="translate(171.618619, 114.407789)"><g><path d="M 3.605469 -6.136719 C 1.75 -6.136719 0.480469 -4.757812 0.480469 -2.996094 C 0.480469 -1.1875 1.773438 0.144531 3.667969 0.144531 C 4.878906 0.144531 5.800781 -0.417969 6.304688 -1.234375 L 5.609375 -1.640625 C 5.285156 -1.066406 4.625 -0.625 3.679688 -0.625 C 2.410156 -0.625 1.460938 -1.378906 1.292969 -2.601562 L 6.554688 -2.601562 C 6.566406 -2.71875 6.578125 -2.851562 6.578125 -2.972656 C 6.578125 -4.613281 5.441406 -6.136719 3.605469 -6.136719 Z M 3.605469 -5.371094 C 4.636719 -5.371094 5.597656 -4.6875 5.765625 -3.367188 L 1.292969 -3.367188 C 1.449219 -4.542969 2.347656 -5.371094 3.605469 -5.371094 Z M 3.605469 -5.371094 "/></g></g></g><path stroke-linecap="butt" transform="matrix(0.749043, -0.0000000000250702, 0.0000000000250702, 0.749043, 198.601818, 110.199446)" fill="none" stroke-linejoin="miter" d="M -0.000340496 1.000974 L 48.884932 1.000974 " stroke="#000000" stroke-width="2" stroke-opacity="1" stroke-miterlimit="4"/><path stroke-linecap="round" transform="matrix(0.749043, -0.0000000000250702, 0.0000000000250702, 0.749043, 198.601818, 110.199446)" fill-opacity="1" fill="#000000" fill-rule="nonzero" stroke-linejoin="round" d="M 49.38557 -1.997642 L 53.385464 1.000974 L 49.38557 3.999591 Z M 49.38557 -1.997642 " stroke="#000000" stroke-width="2" stroke-opacity="1" stroke-miterlimit="4"/><path stroke-linecap="butt" transform="matrix(0.749043, -0.000000000000000279, 0.000000000000000279, 0.749043, 70.296027, 110.199446)" fill="none" stroke-linejoin="miter" d="M 0.00113177 1.000974 L 72.922271 1.000974 " stroke="#89898d" stroke-width="2" stroke-opacity="1" stroke-miterlimit="4"/><path stroke-linecap="round" transform="matrix(0.749043, -0.000000000000000279, 0.000000000000000279, 0.749043, 70.296027, 110.199446)" fill-opacity="1" fill="#89898d" fill-rule="nonzero" stroke-linejoin="round" d="M 73.42291 -1.997642 L 77.422804 1.000974 L 73.42291 3.999591 Z M 73.42291 -1.997642 " stroke="#89898d" stroke-width="2" stroke-opacity="1" stroke-miterlimit="4"/><g clip-path="url(#f4078139b8)"><g clip-path="url(#fc893eeadf)"><g transform="matrix(1, 0, 0, 1, 239, 76)"><g clip-path="url(#28eb18226c)"><g clip-path="url(#9bb3fc2f4b)"><g clip-path="url(#f65555dcaa)"><path fill="#ffffff" d="M 0.339844 0.207031 L 95.878906 0.207031 L 95.878906 69.691406 L 0.339844 69.691406 Z M 0.339844 0.207031 " fill-opacity="1" fill-rule="nonzero"/></g></g></g></g></g></g><g clip-path="url(#e9cdcb01bc)"><g clip-path="url(#24b35d5fef)"><path stroke-linecap="butt" transform="matrix(0.749043, 0, 0, 0.749043, 239.343047, 76.206579)" fill="none" stroke-linejoin="miter" d="M 24.53223 0.000603847 L 102.929104 0.000603847 C 116.477636 0.000603847 127.460395 10.983363 127.460395 24.531895 L 127.460395 68.217827 C 127.460395 81.766359 116.477636 92.749118 102.929104 92.749118 L 24.53223 92.749118 C 10.983698 92.749118 0.000938764 81.766359 0.000938764 68.217827 L 0.000938764 24.531895 C 0.000938764 10.983363 10.983698 0.000603847 24.53223 0.000603847 Z M 24.53223 0.000603847 " stroke="#000000" stroke-width="4" stroke-opacity="1" stroke-miterlimit="4"/></g></g><g fill="#000000" fill-opacity="1"><g transform="translate(260.40711, 106.168312)"><g><path d="M 6.230469 -8.390625 L 0.238281 -8.390625 L 0.238281 -7.597656 L 2.816406 -7.597656 L 2.816406 0 L 3.65625 0 L 3.65625 -7.597656 L 6.230469 -7.597656 Z M 6.230469 -8.390625 "/></g></g></g><g fill="#000000" fill-opacity="1"><g transform="translate(266.039931, 106.168312)"><g><path d="M 1.628906 -4.996094 L 1.628906 -5.992188 L 0.839844 -5.992188 L 0.839844 0 L 1.628906 0 L 1.628906 -3.332031 C 1.628906 -4.816406 2.566406 -5.320312 3.523438 -5.320312 L 3.523438 -6.089844 C 2.757812 -6.089844 2.050781 -5.835938 1.628906 -4.996094 Z M 1.628906 -4.996094 "/></g></g></g><g fill="#000000" fill-opacity="1"><g transform="translate(269.4436, 106.168312)"><g><path d="M 5.992188 -5.992188 L 5.992188 -4.816406 C 5.488281 -5.621094 4.636719 -6.136719 3.570312 -6.136719 C 1.882812 -6.136719 0.480469 -4.769531 0.480469 -2.996094 C 0.480469 -1.222656 1.882812 0.144531 3.570312 0.144531 C 4.636719 0.144531 5.488281 -0.371094 5.992188 -1.175781 L 5.992188 0 L 6.785156 0 L 6.785156 -5.992188 Z M 3.632812 -0.625 C 2.300781 -0.625 1.269531 -1.664062 1.269531 -2.996094 C 1.269531 -4.328125 2.300781 -5.371094 3.632812 -5.371094 C 4.960938 -5.371094 5.992188 -4.328125 5.992188 -2.996094 C 5.992188 -1.664062 4.960938 -0.625 3.632812 -0.625 Z M 3.632812 -0.625 "/></g></g></g><g fill="#000000" fill-opacity="1"><g transform="translate(277.065884, 106.168312)"><g><path d="M 3.644531 -6.136719 C 2.792969 -6.136719 2.097656 -5.8125 1.628906 -5.058594 L 1.628906 -5.992188 L 0.839844 -5.992188 L 0.839844 0 L 1.628906 0 L 1.628906 -3.140625 C 1.628906 -4.746094 2.515625 -5.371094 3.570312 -5.371094 C 4.613281 -5.371094 5.203125 -4.746094 5.203125 -3.679688 L 5.203125 0 L 5.992188 0 L 5.992188 -3.679688 C 5.992188 -5.175781 5.105469 -6.136719 3.644531 -6.136719 Z M 3.644531 -6.136719 "/></g></g></g><g fill="#000000" fill-opacity="1"><g transform="translate(283.753361, 106.168312)"><g><path d="M 1.460938 -4.421875 C 1.460938 -5.070312 2.097656 -5.371094 2.71875 -5.371094 C 3.296875 -5.371094 3.90625 -5.140625 4.160156 -4.53125 L 4.816406 -4.914062 C 4.46875 -5.65625 3.703125 -6.136719 2.71875 -6.136719 C 1.523438 -6.136719 0.671875 -5.382812 0.671875 -4.421875 C 0.671875 -2.21875 4.171875 -3.066406 4.171875 -1.582031 C 4.171875 -0.875 3.5 -0.625 2.792969 -0.625 C 1.988281 -0.625 1.367188 -1.019531 1.152344 -1.628906 L 0.480469 -1.234375 C 0.777344 -0.46875 1.59375 0.144531 2.792969 0.144531 C 4.074219 0.144531 4.960938 -0.5625 4.960938 -1.582031 C 4.960938 -3.789062 1.460938 -2.9375 1.460938 -4.421875 Z M 1.460938 -4.421875 "/></g></g></g><g fill="#000000" fill-opacity="1"><g transform="translate(289.074568, 106.168312)"><g><path d="M 3.835938 -7.765625 L 3.835938 -8.53125 C 2.21875 -8.652344 1.316406 -7.789062 1.316406 -6.230469 L 1.316406 -5.992188 L 0.300781 -5.992188 L 0.300781 -5.226562 L 1.316406 -5.226562 L 1.316406 0 L 2.109375 0 L 2.109375 -5.226562 L 3.835938 -5.226562 L 3.835938 -5.992188 L 2.109375 -5.992188 L 2.109375 -6.230469 C 2.109375 -7.382812 2.671875 -7.863281 3.835938 -7.765625 Z M 3.835938 -7.765625 "/></g></g></g><g fill="#000000" fill-opacity="1"><g transform="translate(292.55014, 106.168312)"><g><path d="M 3.632812 0.144531 C 5.382812 0.144531 6.785156 -1.222656 6.785156 -2.996094 C 6.785156 -4.769531 5.382812 -6.136719 3.632812 -6.136719 C 1.882812 -6.136719 0.480469 -4.769531 0.480469 -2.996094 C 0.480469 -1.222656 1.882812 0.144531 3.632812 0.144531 Z M 3.632812 -0.625 C 2.300781 -0.625 1.269531 -1.664062 1.269531 -2.996094 C 1.269531 -4.328125 2.300781 -5.371094 3.632812 -5.371094 C 4.960938 -5.371094 5.992188 -4.328125 5.992188 -2.996094 C 5.992188 -1.664062 4.960938 -0.625 3.632812 -0.625 Z M 3.632812 -0.625 "/></g></g></g><g fill="#000000" fill-opacity="1"><g transform="translate(299.812875, 106.168312)"><g><path d="M 1.628906 -4.996094 L 1.628906 -5.992188 L 0.839844 -5.992188 L 0.839844 0 L 1.628906 0 L 1.628906 -3.332031 C 1.628906 -4.816406 2.566406 -5.320312 3.523438 -5.320312 L 3.523438 -6.089844 C 2.757812 -6.089844 2.050781 -5.835938 1.628906 -4.996094 Z M 1.628906 -4.996094 "/></g></g></g><g fill="#000000" fill-opacity="1"><g transform="translate(303.576081, 106.168312)"><g><path d="M 7.226562 -6.136719 C 6.460938 -6.136719 5.730469 -5.789062 5.285156 -5.046875 C 4.949219 -5.742188 4.300781 -6.136719 3.464844 -6.136719 C 2.746094 -6.136719 2.097656 -5.847656 1.628906 -5.117188 L 1.628906 -5.992188 L 0.839844 -5.992188 L 0.839844 0 L 1.628906 0 L 1.628906 -3.320312 C 1.628906 -4.804688 2.492188 -5.371094 3.355469 -5.371094 C 4.207031 -5.371094 4.757812 -4.804688 4.757812 -3.738281 L 4.757812 0 L 5.550781 0 L 5.550781 -3.320312 C 5.550781 -4.804688 6.292969 -5.371094 7.214844 -5.371094 C 8.066406 -5.371094 8.675781 -4.804688 8.675781 -3.738281 L 8.675781 0 L 9.46875 0 L 9.46875 -3.738281 C 9.46875 -5.238281 8.546875 -6.136719 7.226562 -6.136719 Z M 7.226562 -6.136719 "/></g></g></g><g fill="#000000" fill-opacity="1"><g transform="translate(277.740441, 122.647266)"><g><path d="M 5.691406 -7.597656 L 5.691406 -8.390625 L 0.957031 -8.390625 L 0.957031 0 L 1.796875 0 L 1.796875 -3.714844 L 5.511719 -3.714844 L 5.511719 -4.507812 L 1.796875 -4.507812 L 1.796875 -7.597656 Z M 5.691406 -7.597656 "/></g></g></g><g fill="#000000" fill-opacity="1"><g transform="translate(283.912574, 122.647266)"><g><path d="M 2.039062 1.199219 L 2.828125 1.199219 C 1.988281 -0.480469 1.511719 -2.277344 1.511719 -4.195312 C 1.511719 -6.113281 1.988281 -7.910156 2.828125 -9.585938 L 2.039062 -9.585938 C 1.199219 -7.910156 0.71875 -6.113281 0.71875 -4.195312 C 0.71875 -2.277344 1.199219 -0.480469 2.039062 1.199219 Z M 2.039062 1.199219 "/></g></g></g><g fill="#000000" fill-opacity="1"><g transform="translate(287.100511, 122.647266)"><g><path d="M 5.871094 0 L 3.535156 -3.105469 L 5.714844 -5.992188 L 4.769531 -5.992188 L 3.054688 -3.726562 L 1.34375 -5.992188 L 0.394531 -5.992188 L 2.589844 -3.105469 L 0.238281 0 L 1.1875 0 L 3.054688 -2.46875 L 4.925781 0 Z M 5.871094 0 "/></g></g></g><g fill="#000000" fill-opacity="1"><g transform="translate(293.212719, 122.647266)"><g><path d="M 1.152344 1.199219 C 1.988281 -0.480469 2.46875 -2.277344 2.46875 -4.195312 C 2.46875 -6.113281 1.988281 -7.910156 1.152344 -9.585938 L 0.359375 -9.585938 C 1.199219 -7.910156 1.679688 -6.113281 1.679688 -4.195312 C 1.679688 -2.277344 1.199219 -0.480469 0.359375 1.199219 Z M 1.152344 1.199219 "/></g></g></g><g clip-path="url(#bdf35eeb21)"><g clip-path="url(#43272431a9)"><g transform="matrix(1, 0, 0, 1, 0, 42)"><g clip-path="url(#fd7ed1705d)"><g clip-path="url(#e095a7fb17)"><g clip-path="url(#477933bb34)"><path fill="#e9f7ff" d="M 0 0.832031 L 70.296875 0.832031 L 70.296875 137.03125 L 0 137.03125 Z M 0 0.832031 " fill-opacity="1" fill-rule="nonzero"/></g></g></g></g></g></g><g clip-path="url(#76a5b1afd4)"><g clip-path="url(#12b3e8ba69)"><path stroke-linecap="butt" transform="matrix(0.749043, 0, 0, 0.749043, -0.0000000000000479, 42.833709)" fill="none" stroke-linejoin="miter" d="M 17.000852 -0.0022403 L 76.842809 -0.0022403 C 81.353771 -0.0022403 85.676994 1.791715 88.86335 4.978071 C 92.054921 8.164427 93.843661 12.492865 93.843661 16.998612 L 93.843661 164.869521 C 93.843661 169.380483 92.054921 173.703706 88.86335 176.890062 C 85.676994 180.076418 81.353771 181.870373 76.842809 181.870373 L 17.000852 181.870373 C 12.48989 181.870373 8.166667 180.076418 4.980311 176.890062 C 1.78874 173.703706 0.000000000000063949 169.380483 0.000000000000063949 164.869521 L 0.000000000000063949 16.998612 C 0.000000000000063949 12.492865 1.78874 8.164427 4.980311 4.978071 C 8.166667 1.791715 12.48989 -0.0022403 17.000852 -0.0022403 Z M 17.000852 -0.0022403 " stroke="#89898d" stroke-width="4" stroke-opacity="1" stroke-miterlimit="4"/></g></g><g fill="#000000" fill-opacity="1"><g transform="translate(16.022505, 106.500272)"><g><path d="M 3.59375 0.144531 C 5.273438 0.144531 6.421875 -0.765625 6.421875 -2.207031 C 6.421875 -3.761719 5.058594 -4.195312 3.535156 -4.699219 C 2.398438 -5.070312 1.679688 -5.355469 1.679688 -6.269531 C 1.679688 -7.191406 2.410156 -7.71875 3.414062 -7.71875 C 4.519531 -7.71875 5.164062 -7.082031 5.476562 -6.328125 L 6.183594 -6.722656 C 5.753906 -7.71875 4.792969 -8.53125 3.414062 -8.53125 C 2.027344 -8.53125 0.839844 -7.707031 0.839844 -6.230469 C 0.839844 -4.6875 2.15625 -4.328125 3.523438 -3.871094 C 4.757812 -3.464844 5.585938 -3.152344 5.585938 -2.179688 C 5.585938 -1.28125 4.878906 -0.671875 3.605469 -0.671875 C 2.289062 -0.671875 1.5 -1.316406 1.199219 -2.324219 L 0.480469 -1.90625 C 0.910156 -0.636719 2.050781 0.144531 3.59375 0.144531 Z M 3.59375 0.144531 "/></g></g></g><g fill="#000000" fill-opacity="1"><g transform="translate(22.925703, 106.500272)"><g><path d="M 3.632812 0.144531 C 5.382812 0.144531 6.785156 -1.222656 6.785156 -2.996094 C 6.785156 -4.769531 5.382812 -6.136719 3.632812 -6.136719 C 1.882812 -6.136719 0.480469 -4.769531 0.480469 -2.996094 C 0.480469 -1.222656 1.882812 0.144531 3.632812 0.144531 Z M 3.632812 -0.625 C 2.300781 -0.625 1.269531 -1.664062 1.269531 -2.996094 C 1.269531 -4.328125 2.300781 -5.371094 3.632812 -5.371094 C 4.960938 -5.371094 5.992188 -4.328125 5.992188 -2.996094 C 5.992188 -1.664062 4.960938 -0.625 3.632812 -0.625 Z M 3.632812 -0.625 "/></g></g></g><g fill="#000000" fill-opacity="1"><g transform="translate(30.188437, 106.500272)"><g><path d="M 5.058594 -5.992188 L 5.058594 -2.851562 C 5.058594 -1.246094 4.171875 -0.625 3.117188 -0.625 C 2.074219 -0.625 1.484375 -1.246094 1.484375 -2.3125 L 1.484375 -5.992188 L 0.695312 -5.992188 L 0.695312 -2.3125 C 0.695312 -0.816406 1.582031 0.144531 3.042969 0.144531 C 3.894531 0.144531 4.589844 -0.179688 5.058594 -0.933594 L 5.058594 0 L 5.847656 0 L 5.847656 -5.992188 Z M 5.058594 -5.992188 "/></g></g></g><g fill="#000000" fill-opacity="1"><g transform="translate(36.875915, 106.500272)"><g><path d="M 1.628906 -4.996094 L 1.628906 -5.992188 L 0.839844 -5.992188 L 0.839844 0 L 1.628906 0 L 1.628906 -3.332031 C 1.628906 -4.816406 2.566406 -5.320312 3.523438 -5.320312 L 3.523438 -6.089844 C 2.757812 -6.089844 2.050781 -5.835938 1.628906 -4.996094 Z M 1.628906 -4.996094 "/></g></g></g><g fill="#000000" fill-opacity="1"><g transform="translate(40.639121, 106.500272)"><g><path d="M 3.632812 0.144531 C 4.804688 0.144531 5.824219 -0.46875 6.316406 -1.414062 L 5.65625 -1.796875 C 5.273438 -1.101562 4.542969 -0.625 3.632812 -0.625 C 2.300781 -0.625 1.269531 -1.664062 1.269531 -2.996094 C 1.269531 -4.328125 2.300781 -5.371094 3.632812 -5.371094 C 4.53125 -5.371094 5.285156 -4.902344 5.609375 -4.195312 L 6.257812 -4.566406 C 5.824219 -5.511719 4.816406 -6.136719 3.632812 -6.136719 C 1.820312 -6.136719 0.480469 -4.769531 0.480469 -2.996094 C 0.480469 -1.222656 1.820312 0.144531 3.632812 0.144531 Z M 3.632812 0.144531 "/></g></g></g><g fill="#000000" fill-opacity="1"><g transform="translate(47.254684, 106.500272)"><g><path d="M 3.605469 -6.136719 C 1.75 -6.136719 0.480469 -4.757812 0.480469 -2.996094 C 0.480469 -1.1875 1.773438 0.144531 3.667969 0.144531 C 4.878906 0.144531 5.800781 -0.417969 6.304688 -1.234375 L 5.609375 -1.640625 C 5.285156 -1.066406 4.625 -0.625 3.679688 -0.625 C 2.410156 -0.625 1.460938 -1.378906 1.292969 -2.601562 L 6.554688 -2.601562 C 6.566406 -2.71875 6.578125 -2.851562 6.578125 -2.972656 C 6.578125 -4.613281 5.441406 -6.136719 3.605469 -6.136719 Z M 3.605469 -5.371094 C 4.636719 -5.371094 5.597656 -4.6875 5.765625 -3.367188 L 1.292969 -3.367188 C 1.449219 -4.542969 2.347656 -5.371094 3.605469 -5.371094 Z M 3.605469 -5.371094 "/></g></g></g><g fill="#000000" fill-opacity="1"><g transform="translate(15.086201, 122.979225)"><g><path d="M 3.59375 0.144531 C 5.273438 0.144531 6.421875 -0.765625 6.421875 -2.207031 C 6.421875 -3.761719 5.058594 -4.195312 3.535156 -4.699219 C 2.398438 -5.070312 1.679688 -5.355469 1.679688 -6.269531 C 1.679688 -7.191406 2.410156 -7.71875 3.414062 -7.71875 C 4.519531 -7.71875 5.164062 -7.082031 5.476562 -6.328125 L 6.183594 -6.722656 C 5.753906 -7.71875 4.792969 -8.53125 3.414062 -8.53125 C 2.027344 -8.53125 0.839844 -7.707031 0.839844 -6.230469 C 0.839844 -4.6875 2.15625 -4.328125 3.523438 -3.871094 C 4.757812 -3.464844 5.585938 -3.152344 5.585938 -2.179688 C 5.585938 -1.28125 4.878906 -0.671875 3.605469 -0.671875 C 2.289062 -0.671875 1.5 -1.316406 1.199219 -2.324219 L 0.480469 -1.90625 C 0.910156 -0.636719 2.050781 0.144531 3.59375 0.144531 Z M 3.59375 0.144531 "/></g></g></g><g fill="#000000" fill-opacity="1"><g transform="translate(21.989398, 122.979225)"><g><path d="M 5.152344 -5.992188 L 3.210938 -0.972656 L 0.957031 -5.992188 L 0.121094 -5.992188 L 2.804688 0.0351562 L 2.648438 0.40625 C 2.324219 1.1875 1.785156 1.738281 1.007812 1.652344 L 1.007812 2.398438 C 2.085938 2.480469 2.972656 1.703125 3.425781 0.550781 L 5.992188 -5.992188 Z M 5.152344 -5.992188 "/></g></g></g><g fill="#000000" fill-opacity="1"><g transform="translate(28.101606, 122.979225)"><g><path d="M 1.460938 -4.421875 C 1.460938 -5.070312 2.097656 -5.371094 2.71875 -5.371094 C 3.296875 -5.371094 3.90625 -5.140625 4.160156 -4.53125 L 4.816406 -4.914062 C 4.46875 -5.65625 3.703125 -6.136719 2.71875 -6.136719 C 1.523438 -6.136719 0.671875 -5.382812 0.671875 -4.421875 C 0.671875 -2.21875 4.171875 -3.066406 4.171875 -1.582031 C 4.171875 -0.875 3.5 -0.625 2.792969 -0.625 C 1.988281 -0.625 1.367188 -1.019531 1.152344 -1.628906 L 0.480469 -1.234375 C 0.777344 -0.46875 1.59375 0.144531 2.792969 0.144531 C 4.074219 0.144531 4.960938 -0.5625 4.960938 -1.582031 C 4.960938 -3.789062 1.460938 -2.9375 1.460938 -4.421875 Z M 1.460938 -4.421875 "/></g></g></g><g fill="#000000" fill-opacity="1"><g transform="translate(33.542663, 122.979225)"><g><path d="M 4.015625 -5.226562 L 4.015625 -5.992188 L 2.289062 -5.992188 L 2.289062 -7.671875 L 1.5 -7.429688 L 1.5 -5.992188 L 0.238281 -5.992188 L 0.238281 -5.226562 L 1.5 -5.226562 L 1.5 -1.59375 C 1.5 -0.15625 2.398438 0.238281 4.015625 0 L 4.015625 -0.695312 C 2.851562 -0.648438 2.289062 -0.5625 2.289062 -1.59375 L 2.289062 -5.226562 Z M 4.015625 -5.226562 "/></g></g></g><g fill="#000000" fill-opacity="1"><g transform="translate(38.036934, 122.979225)"><g><path d="M 3.605469 -6.136719 C 1.75 -6.136719 0.480469 -4.757812 0.480469 -2.996094 C 0.480469 -1.1875 1.773438 0.144531 3.667969 0.144531 C 4.878906 0.144531 5.800781 -0.417969 6.304688 -1.234375 L 5.609375 -1.640625 C 5.285156 -1.066406 4.625 -0.625 3.679688 -0.625 C 2.410156 -0.625 1.460938 -1.378906 1.292969 -2.601562 L 6.554688 -2.601562 C 6.566406 -2.71875 6.578125 -2.851562 6.578125 -2.972656 C 6.578125 -4.613281 5.441406 -6.136719 3.605469 -6.136719 Z M 3.605469 -5.371094 C 4.636719 -5.371094 5.597656 -4.6875 5.765625 -3.367188 L 1.292969 -3.367188 C 1.449219 -4.542969 2.347656 -5.371094 3.605469 -5.371094 Z M 3.605469 -5.371094 "/></g></g></g><g fill="#000000" fill-opacity="1"><g transform="translate(45.036014, 122.979225)"><g><path d="M 7.226562 -6.136719 C 6.460938 -6.136719 5.730469 -5.789062 5.285156 -5.046875 C 4.949219 -5.742188 4.300781 -6.136719 3.464844 -6.136719 C 2.746094 -6.136719 2.097656 -5.847656 1.628906 -5.117188 L 1.628906 -5.992188 L 0.839844 -5.992188 L 0.839844 0 L 1.628906 0 L 1.628906 -3.320312 C 1.628906 -4.804688 2.492188 -5.371094 3.355469 -5.371094 C 4.207031 -5.371094 4.757812 -4.804688 4.757812 -3.738281 L 4.757812 0 L 5.550781 0 L 5.550781 -3.320312 C 5.550781 -4.804688 6.292969 -5.371094 7.214844 -5.371094 C 8.066406 -5.371094 8.675781 -4.804688 8.675781 -3.738281 L 8.675781 0 L 9.46875 0 L 9.46875 -3.738281 C 9.46875 -5.238281 8.546875 -6.136719 7.226562 -6.136719 Z M 7.226562 -6.136719 "/></g></g></g><g clip-path="url(#1a273bacab)"><g clip-path="url(#35ea09fe7d)"><g transform="matrix(1, 0, 0, 1, 516, 42)"><g clip-path="url(#c98870589b)"><g clip-path="url(#ae0cee8cef)"><g clip-path="url(#311848f0b8)"><path fill="#e9f7ff" d="M 0.09375 0.832031 L 70.390625 0.832031 L 70.390625 137.03125 L 0.09375 137.03125 Z M 0.09375 0.832031 " fill-opacity="1" fill-rule="nonzero"/></g></g></g></g></g></g><g clip-path="url(#2ca62a849c)"><g clip-path="url(#56af5d1dab)"><path stroke-linecap="butt" transform="matrix(0.749043, 0, 0, 0.749043, 516.093495, 42.833709)" fill="none" stroke-linejoin="miter" d="M 17.001192 -0.0022403 L 76.843149 -0.0022403 C 81.354111 -0.0022403 85.677334 1.791715 88.86369 4.978071 C 92.055261 8.164427 93.844001 12.492865 93.844001 16.998612 L 93.844001 164.869521 C 93.844001 169.380483 92.055261 173.703706 88.86369 176.890062 C 85.677334 180.076418 81.354111 181.870373 76.843149 181.870373 L 17.001192 181.870373 C 12.49023 181.870373 8.167007 180.076418 4.980651 176.890062 C 1.78908 173.703706 0.000340126 169.380483 0.000340126 164.869521 L 0.000340126 16.998612 C 0.000340126 12.492865 1.78908 8.164427 4.980651 4.978071 C 8.167007 1.791715 12.49023 -0.0022403 17.001192 -0.0022403 Z M 17.001192 -0.0022403 " stroke="#89898d" stroke-width="4" stroke-opacity="1" stroke-miterlimit="4"/></g></g><g fill="#000000" fill-opacity="1"><g transform="translate(532.748006, 106.500272)"><g><path d="M 6.230469 -8.390625 L 0.238281 -8.390625 L 0.238281 -7.597656 L 2.816406 -7.597656 L 2.816406 0 L 3.65625 0 L 3.65625 -7.597656 L 6.230469 -7.597656 Z M 6.230469 -8.390625 "/></g></g></g><g fill="#000000" fill-opacity="1"><g transform="translate(539.219751, 106.500272)"><g><path d="M 5.992188 -5.992188 L 5.992188 -4.816406 C 5.488281 -5.621094 4.636719 -6.136719 3.570312 -6.136719 C 1.882812 -6.136719 0.480469 -4.769531 0.480469 -2.996094 C 0.480469 -1.222656 1.882812 0.144531 3.570312 0.144531 C 4.636719 0.144531 5.488281 -0.371094 5.992188 -1.175781 L 5.992188 0 L 6.785156 0 L 6.785156 -5.992188 Z M 3.632812 -0.625 C 2.300781 -0.625 1.269531 -1.664062 1.269531 -2.996094 C 1.269531 -4.328125 2.300781 -5.371094 3.632812 -5.371094 C 4.960938 -5.371094 5.992188 -4.328125 5.992188 -2.996094 C 5.992188 -1.664062 4.960938 -0.625 3.632812 -0.625 Z M 3.632812 -0.625 "/></g></g></g><g fill="#000000" fill-opacity="1"><g transform="translate(546.842035, 106.500272)"><g><path d="M 1.628906 -4.996094 L 1.628906 -5.992188 L 0.839844 -5.992188 L 0.839844 0 L 1.628906 0 L 1.628906 -3.332031 C 1.628906 -4.816406 2.566406 -5.320312 3.523438 -5.320312 L 3.523438 -6.089844 C 2.757812 -6.089844 2.050781 -5.835938 1.628906 -4.996094 Z M 1.628906 -4.996094 "/></g></g></g><g fill="#000000" fill-opacity="1"><g transform="translate(550.605242, 106.500272)"><g><path d="M 5.992188 -5.992188 L 5.992188 -4.816406 C 5.488281 -5.621094 4.636719 -6.136719 3.570312 -6.136719 C 1.882812 -6.136719 0.480469 -4.769531 0.480469 -2.996094 C 0.480469 -1.222656 1.882812 0.144531 3.570312 0.144531 C 4.636719 0.144531 5.488281 -0.371094 5.992188 -1.175781 L 5.992188 -0.238281 C 5.992188 0.984375 5.164062 1.773438 3.773438 1.773438 C 2.480469 1.773438 1.929688 1.292969 1.628906 0.683594 L 0.933594 1.078125 C 1.402344 2.011719 2.398438 2.539062 3.773438 2.539062 C 5.320312 2.539062 6.785156 1.582031 6.785156 -0.238281 L 6.785156 -5.992188 Z M 3.632812 -0.625 C 2.300781 -0.625 1.269531 -1.664062 1.269531 -2.996094 C 1.269531 -4.328125 2.300781 -5.371094 3.632812 -5.371094 C 4.960938 -5.371094 5.992188 -4.328125 5.992188 -2.996094 C 5.992188 -1.664062 4.960938 -0.625 3.632812 -0.625 Z M 3.632812 -0.625 "/></g></g></g><g fill="#000000" fill-opacity="1"><g transform="translate(558.227526, 106.500272)"><g><path d="M 3.605469 -6.136719 C 1.75 -6.136719 0.480469 -4.757812 0.480469 -2.996094 C 0.480469 -1.1875 1.773438 0.144531 3.667969 0.144531 C 4.878906 0.144531 5.800781 -0.417969 6.304688 -1.234375 L 5.609375 -1.640625 C 5.285156 -1.066406 4.625 -0.625 3.679688 -0.625 C 2.410156 -0.625 1.460938 -1.378906 1.292969 -2.601562 L 6.554688 -2.601562 C 6.566406 -2.71875 6.578125 -2.851562 6.578125 -2.972656 C 6.578125 -4.613281 5.441406 -6.136719 3.605469 -6.136719 Z M 3.605469 -5.371094 C 4.636719 -5.371094 5.597656 -4.6875 5.765625 -3.367188 L 1.292969 -3.367188 C 1.449219 -4.542969 2.347656 -5.371094 3.605469 -5.371094 Z M 3.605469 -5.371094 "/></g></g></g><g fill="#000000" fill-opacity="1"><g transform="translate(565.226605, 106.500272)"><g><path d="M 4.015625 -5.226562 L 4.015625 -5.992188 L 2.289062 -5.992188 L 2.289062 -7.671875 L 1.5 -7.429688 L 1.5 -5.992188 L 0.238281 -5.992188 L 0.238281 -5.226562 L 1.5 -5.226562 L 1.5 -1.59375 C 1.5 -0.15625 2.398438 0.238281 4.015625 0 L 4.015625 -0.695312 C 2.851562 -0.648438 2.289062 -0.5625 2.289062 -1.59375 L 2.289062 -5.226562 Z M 4.015625 -5.226562 "/></g></g></g><g fill="#000000" fill-opacity="1"><g transform="translate(531.179696, 122.979225)"><g><path d="M 3.59375 0.144531 C 5.273438 0.144531 6.421875 -0.765625 6.421875 -2.207031 C 6.421875 -3.761719 5.058594 -4.195312 3.535156 -4.699219 C 2.398438 -5.070312 1.679688 -5.355469 1.679688 -6.269531 C 1.679688 -7.191406 2.410156 -7.71875 3.414062 -7.71875 C 4.519531 -7.71875 5.164062 -7.082031 5.476562 -6.328125 L 6.183594 -6.722656 C 5.753906 -7.71875 4.792969 -8.53125 3.414062 -8.53125 C 2.027344 -8.53125 0.839844 -7.707031 0.839844 -6.230469 C 0.839844 -4.6875 2.15625 -4.328125 3.523438 -3.871094 C 4.757812 -3.464844 5.585938 -3.152344 5.585938 -2.179688 C 5.585938 -1.28125 4.878906 -0.671875 3.605469 -0.671875 C 2.289062 -0.671875 1.5 -1.316406 1.199219 -2.324219 L 0.480469 -1.90625 C 0.910156 -0.636719 2.050781 0.144531 3.59375 0.144531 Z M 3.59375 0.144531 "/></g></g></g><g fill="#000000" fill-opacity="1"><g transform="translate(538.082894, 122.979225)"><g><path d="M 5.152344 -5.992188 L 3.210938 -0.972656 L 0.957031 -5.992188 L 0.121094 -5.992188 L 2.804688 0.0351562 L 2.648438 0.40625 C 2.324219 1.1875 1.785156 1.738281 1.007812 1.652344 L 1.007812 2.398438 C 2.085938 2.480469 2.972656 1.703125 3.425781 0.550781 L 5.992188 -5.992188 Z M 5.152344 -5.992188 "/></g></g></g><g fill="#000000" fill-opacity="1"><g transform="translate(544.195101, 122.979225)"><g><path d="M 1.460938 -4.421875 C 1.460938 -5.070312 2.097656 -5.371094 2.71875 -5.371094 C 3.296875 -5.371094 3.90625 -5.140625 4.160156 -4.53125 L 4.816406 -4.914062 C 4.46875 -5.65625 3.703125 -6.136719 2.71875 -6.136719 C 1.523438 -6.136719 0.671875 -5.382812 0.671875 -4.421875 C 0.671875 -2.21875 4.171875 -3.066406 4.171875 -1.582031 C 4.171875 -0.875 3.5 -0.625 2.792969 -0.625 C 1.988281 -0.625 1.367188 -1.019531 1.152344 -1.628906 L 0.480469 -1.234375 C 0.777344 -0.46875 1.59375 0.144531 2.792969 0.144531 C 4.074219 0.144531 4.960938 -0.5625 4.960938 -1.582031 C 4.960938 -3.789062 1.460938 -2.9375 1.460938 -4.421875 Z M 1.460938 -4.421875 "/></g></g></g><g fill="#000000" fill-opacity="1"><g transform="translate(549.636158, 122.979225)"><g><path d="M 4.015625 -5.226562 L 4.015625 -5.992188 L 2.289062 -5.992188 L 2.289062 -7.671875 L 1.5 -7.429688 L 1.5 -5.992188 L 0.238281 -5.992188 L 0.238281 -5.226562 L 1.5 -5.226562 L 1.5 -1.59375 C 1.5 -0.15625 2.398438 0.238281 4.015625 0 L 4.015625 -0.695312 C 2.851562 -0.648438 2.289062 -0.5625 2.289062 -1.59375 L 2.289062 -5.226562 Z M 4.015625 -5.226562 "/></g></g></g><g fill="#000000" fill-opacity="1"><g transform="translate(554.130429, 122.979225)"><g><path d="M 3.605469 -6.136719 C 1.75 -6.136719 0.480469 -4.757812 0.480469 -2.996094 C 0.480469 -1.1875 1.773438 0.144531 3.667969 0.144531 C 4.878906 0.144531 5.800781 -0.417969 6.304688 -1.234375 L 5.609375 -1.640625 C 5.285156 -1.066406 4.625 -0.625 3.679688 -0.625 C 2.410156 -0.625 1.460938 -1.378906 1.292969 -2.601562 L 6.554688 -2.601562 C 6.566406 -2.71875 6.578125 -2.851562 6.578125 -2.972656 C 6.578125 -4.613281 5.441406 -6.136719 3.605469 -6.136719 Z M 3.605469 -5.371094 C 4.636719 -5.371094 5.597656 -4.6875 5.765625 -3.367188 L 1.292969 -3.367188 C 1.449219 -4.542969 2.347656 -5.371094 3.605469 -5.371094 Z M 3.605469 -5.371094 "/></g></g></g><g fill="#000000" fill-opacity="1"><g transform="translate(561.129509, 122.979225)"><g><path d="M 7.226562 -6.136719 C 6.460938 -6.136719 5.730469 -5.789062 5.285156 -5.046875 C 4.949219 -5.742188 4.300781 -6.136719 3.464844 -6.136719 C 2.746094 -6.136719 2.097656 -5.847656 1.628906 -5.117188 L 1.628906 -5.992188 L 0.839844 -5.992188 L 0.839844 0 L 1.628906 0 L 1.628906 -3.320312 C 1.628906 -4.804688 2.492188 -5.371094 3.355469 -5.371094 C 4.207031 -5.371094 4.757812 -4.804688 4.757812 -3.738281 L 4.757812 0 L 5.550781 0 L 5.550781 -3.320312 C 5.550781 -4.804688 6.292969 -5.371094 7.214844 -5.371094 C 8.066406 -5.371094 8.675781 -4.804688 8.675781 -3.738281 L 8.675781 0 L 9.46875 0 L 9.46875 -3.738281 C 9.46875 -5.238281 8.546875 -6.136719 7.226562 -6.136719 Z M 7.226562 -6.136719 "/></g></g></g><path stroke-linecap="butt" transform="matrix(0.749043, 0, 0, 0.749043, 334.828107, 110.199446)" fill="none" stroke-linejoin="miter" d="M 0.0000238606 1.000974 L 48.885296 1.000974 " stroke="#000000" stroke-width="2" stroke-opacity="1" stroke-miterlimit="4"/><path stroke-linecap="round" transform="matrix(0.749043, 0, 0, 0.749043, 334.828107, 110.199446)" fill-opacity="1" fill="#000000" fill-rule="nonzero" stroke-linejoin="round" d="M 49.385935 -1.997642 L 53.385829 1.000974 L 49.385935 3.999591 Z M 49.385935 -1.997642 " stroke="#000000" stroke-width="2" stroke-opacity="1" stroke-miterlimit="4"/><g clip-path="url(#efbb82dbd5)"><g clip-path="url(#bc9b11cb45)"><g transform="matrix(1, 0, 0, 1, 375, 76)"><g clip-path="url(#1fa88a4dea)"><g clip-path="url(#29134af8bd)"><g clip-path="url(#d031e04761)"><path fill="#ffffff" d="M 0.566406 0.910156 L 98.15625 0.910156 L 98.15625 68.984375 L 0.566406 68.984375 Z M 0.566406 0.910156 " fill-opacity="1" fill-rule="nonzero"/></g></g></g></g></g></g><g clip-path="url(#9a3885170b)"><g clip-path="url(#5f98329da5)"><path stroke-linecap="butt" transform="matrix(0.749043, 0, 0, 0.749043, 375.566554, 76.914124)" fill="none" stroke-linejoin="miter" d="M 6.539395 -0.0000822102 L 76.336758 -0.0000822102 C 105.87965 -0.0000822102 130.327501 20.343576 130.327501 45.43287 C 130.327501 70.527379 105.87965 90.871037 76.336758 90.871037 L 6.539395 90.871037 C 2.930625 90.871037 -0.000196665 87.940215 -0.000196665 84.32623 L -0.000196665 6.539509 C -0.000196665 2.93074 2.930625 -0.0000822102 6.539395 -0.0000822102 Z M 6.539395 -0.0000822102 " stroke="#000000" stroke-width="4" stroke-opacity="1" stroke-miterlimit="4"/></g></g><g fill="#000000" fill-opacity="1"><g transform="translate(388.721627, 106.124738)"><g><path d="M 6.230469 -8.390625 L 0.238281 -8.390625 L 0.238281 -7.597656 L 2.816406 -7.597656 L 2.816406 0 L 3.65625 0 L 3.65625 -7.597656 L 6.230469 -7.597656 Z M 6.230469 -8.390625 "/></g></g></g><g fill="#000000" fill-opacity="1"><g transform="translate(395.193373, 106.124738)"><g><path d="M 5.992188 -5.992188 L 5.992188 -4.816406 C 5.488281 -5.621094 4.636719 -6.136719 3.570312 -6.136719 C 1.882812 -6.136719 0.480469 -4.769531 0.480469 -2.996094 C 0.480469 -1.222656 1.882812 0.144531 3.570312 0.144531 C 4.636719 0.144531 5.488281 -0.371094 5.992188 -1.175781 L 5.992188 0 L 6.785156 0 L 6.785156 -5.992188 Z M 3.632812 -0.625 C 2.300781 -0.625 1.269531 -1.664062 1.269531 -2.996094 C 1.269531 -4.328125 2.300781 -5.371094 3.632812 -5.371094 C 4.960938 -5.371094 5.992188 -4.328125 5.992188 -2.996094 C 5.992188 -1.664062 4.960938 -0.625 3.632812 -0.625 Z M 3.632812 -0.625 "/></g></g></g><g fill="#000000" fill-opacity="1"><g transform="translate(402.815657, 106.124738)"><g><path d="M 1.628906 -4.996094 L 1.628906 -5.992188 L 0.839844 -5.992188 L 0.839844 0 L 1.628906 0 L 1.628906 -3.332031 C 1.628906 -4.816406 2.566406 -5.320312 3.523438 -5.320312 L 3.523438 -6.089844 C 2.757812 -6.089844 2.050781 -5.835938 1.628906 -4.996094 Z M 1.628906 -4.996094 "/></g></g></g><g fill="#000000" fill-opacity="1"><g transform="translate(406.578863, 106.124738)"><g><path d="M 5.992188 -5.992188 L 5.992188 -4.816406 C 5.488281 -5.621094 4.636719 -6.136719 3.570312 -6.136719 C 1.882812 -6.136719 0.480469 -4.769531 0.480469 -2.996094 C 0.480469 -1.222656 1.882812 0.144531 3.570312 0.144531 C 4.636719 0.144531 5.488281 -0.371094 5.992188 -1.175781 L 5.992188 -0.238281 C 5.992188 0.984375 5.164062 1.773438 3.773438 1.773438 C 2.480469 1.773438 1.929688 1.292969 1.628906 0.683594 L 0.933594 1.078125 C 1.402344 2.011719 2.398438 2.539062 3.773438 2.539062 C 5.320312 2.539062 6.785156 1.582031 6.785156 -0.238281 L 6.785156 -5.992188 Z M 3.632812 -0.625 C 2.300781 -0.625 1.269531 -1.664062 1.269531 -2.996094 C 1.269531 -4.328125 2.300781 -5.371094 3.632812 -5.371094 C 4.960938 -5.371094 5.992188 -4.328125 5.992188 -2.996094 C 5.992188 -1.664062 4.960938 -0.625 3.632812 -0.625 Z M 3.632812 -0.625 "/></g></g></g><g fill="#000000" fill-opacity="1"><g transform="translate(414.201147, 106.124738)"><g><path d="M 3.605469 -6.136719 C 1.75 -6.136719 0.480469 -4.757812 0.480469 -2.996094 C 0.480469 -1.1875 1.773438 0.144531 3.667969 0.144531 C 4.878906 0.144531 5.800781 -0.417969 6.304688 -1.234375 L 5.609375 -1.640625 C 5.285156 -1.066406 4.625 -0.625 3.679688 -0.625 C 2.410156 -0.625 1.460938 -1.378906 1.292969 -2.601562 L 6.554688 -2.601562 C 6.566406 -2.71875 6.578125 -2.851562 6.578125 -2.972656 C 6.578125 -4.613281 5.441406 -6.136719 3.605469 -6.136719 Z M 3.605469 -5.371094 C 4.636719 -5.371094 5.597656 -4.6875 5.765625 -3.367188 L 1.292969 -3.367188 C 1.449219 -4.542969 2.347656 -5.371094 3.605469 -5.371094 Z M 3.605469 -5.371094 "/></g></g></g><g fill="#000000" fill-opacity="1"><g transform="translate(421.200227, 106.124738)"><g><path d="M 4.015625 -5.226562 L 4.015625 -5.992188 L 2.289062 -5.992188 L 2.289062 -7.671875 L 1.5 -7.429688 L 1.5 -5.992188 L 0.238281 -5.992188 L 0.238281 -5.226562 L 1.5 -5.226562 L 1.5 -1.59375 C 1.5 -0.15625 2.398438 0.238281 4.015625 0 L 4.015625 -0.695312 C 2.851562 -0.648438 2.289062 -0.5625 2.289062 -1.59375 L 2.289062 -5.226562 Z M 4.015625 -5.226562 "/></g></g></g><g fill="#000000" fill-opacity="1"><g transform="translate(391.951877, 122.603692)"><g><path d="M 3.59375 0.144531 C 5.273438 0.144531 6.421875 -0.765625 6.421875 -2.207031 C 6.421875 -3.761719 5.058594 -4.195312 3.535156 -4.699219 C 2.398438 -5.070312 1.679688 -5.355469 1.679688 -6.269531 C 1.679688 -7.191406 2.410156 -7.71875 3.414062 -7.71875 C 4.519531 -7.71875 5.164062 -7.082031 5.476562 -6.328125 L 6.183594 -6.722656 C 5.753906 -7.71875 4.792969 -8.53125 3.414062 -8.53125 C 2.027344 -8.53125 0.839844 -7.707031 0.839844 -6.230469 C 0.839844 -4.6875 2.15625 -4.328125 3.523438 -3.871094 C 4.757812 -3.464844 5.585938 -3.152344 5.585938 -2.179688 C 5.585938 -1.28125 4.878906 -0.671875 3.605469 -0.671875 C 2.289062 -0.671875 1.5 -1.316406 1.199219 -2.324219 L 0.480469 -1.90625 C 0.910156 -0.636719 2.050781 0.144531 3.59375 0.144531 Z M 3.59375 0.144531 "/></g></g></g><g fill="#000000" fill-opacity="1"><g transform="translate(398.855074, 122.603692)"><g><path d="M 4.015625 -5.226562 L 4.015625 -5.992188 L 2.289062 -5.992188 L 2.289062 -7.671875 L 1.5 -7.429688 L 1.5 -5.992188 L 0.238281 -5.992188 L 0.238281 -5.226562 L 1.5 -5.226562 L 1.5 -1.59375 C 1.5 -0.15625 2.398438 0.238281 4.015625 0 L 4.015625 -0.695312 C 2.851562 -0.648438 2.289062 -0.5625 2.289062 -1.59375 L 2.289062 -5.226562 Z M 4.015625 -5.226562 "/></g></g></g><g fill="#000000" fill-opacity="1"><g transform="translate(403.349345, 122.603692)"><g><path d="M 5.992188 -5.992188 L 5.992188 -4.816406 C 5.488281 -5.621094 4.636719 -6.136719 3.570312 -6.136719 C 1.882812 -6.136719 0.480469 -4.769531 0.480469 -2.996094 C 0.480469 -1.222656 1.882812 0.144531 3.570312 0.144531 C 4.636719 0.144531 5.488281 -0.371094 5.992188 -1.175781 L 5.992188 0 L 6.785156 0 L 6.785156 -5.992188 Z M 3.632812 -0.625 C 2.300781 -0.625 1.269531 -1.664062 1.269531 -2.996094 C 1.269531 -4.328125 2.300781 -5.371094 3.632812 -5.371094 C 4.960938 -5.371094 5.992188 -4.328125 5.992188 -2.996094 C 5.992188 -1.664062 4.960938 -0.625 3.632812 -0.625 Z M 3.632812 -0.625 "/></g></g></g><g fill="#000000" fill-opacity="1"><g transform="translate(410.971629, 122.603692)"><g><path d="M 4.015625 -5.226562 L 4.015625 -5.992188 L 2.289062 -5.992188 L 2.289062 -7.671875 L 1.5 -7.429688 L 1.5 -5.992188 L 0.238281 -5.992188 L 0.238281 -5.226562 L 1.5 -5.226562 L 1.5 -1.59375 C 1.5 -0.15625 2.398438 0.238281 4.015625 0 L 4.015625 -0.695312 C 2.851562 -0.648438 2.289062 -0.5625 2.289062 -1.59375 L 2.289062 -5.226562 Z M 4.015625 -5.226562 "/></g></g></g><g fill="#000000" fill-opacity="1"><g transform="translate(415.465901, 122.603692)"><g><path d="M 3.605469 -6.136719 C 1.75 -6.136719 0.480469 -4.757812 0.480469 -2.996094 C 0.480469 -1.1875 1.773438 0.144531 3.667969 0.144531 C 4.878906 0.144531 5.800781 -0.417969 6.304688 -1.234375 L 5.609375 -1.640625 C 5.285156 -1.066406 4.625 -0.625 3.679688 -0.625 C 2.410156 -0.625 1.460938 -1.378906 1.292969 -2.601562 L 6.554688 -2.601562 C 6.566406 -2.71875 6.578125 -2.851562 6.578125 -2.972656 C 6.578125 -4.613281 5.441406 -6.136719 3.605469 -6.136719 Z M 3.605469 -5.371094 C 4.636719 -5.371094 5.597656 -4.6875 5.765625 -3.367188 L 1.292969 -3.367188 C 1.449219 -4.542969 2.347656 -5.371094 3.605469 -5.371094 Z M 3.605469 -5.371094 "/></g></g></g><path fill="#89898d" d="M 473.199219 110.199219 L 474.695312 110.199219 L 474.695312 111.699219 L 473.199219 111.699219 M 476.195312 110.199219 L 477.691406 110.199219 L 477.691406 111.699219 L 476.195312 111.699219 M 479.191406 110.199219 L 480.691406 110.199219 L 480.691406 111.699219 L 479.191406 111.699219 M 482.1875 110.199219 L 483.6875 110.199219 L 483.6875 111.699219 L 482.1875 111.699219 M 485.183594 110.199219 L 486.683594 110.199219 L 486.683594 111.699219 L 485.183594 111.699219 M 488.179688 110.199219 L 489.679688 110.199219 L 489.679688 111.699219 L 488.179688 111.699219 M 491.175781 110.199219 L 492.675781 110.199219 L 492.675781 111.699219 L 491.175781 111.699219 M 494.171875 110.199219 L 495.671875 110.199219 L 495.671875 111.699219 L 494.171875 111.699219 M 497.167969 110.199219 L 498.667969 110.199219 L 498.667969 111.699219 L 497.167969 111.699219 M 500.164062 110.199219 L 501.664062 110.199219 L 501.664062 111.699219 L 500.164062 111.699219 M 503.160156 110.199219 L 504.660156 110.199219 L 504.660156 111.699219 L 503.160156 111.699219 M 506.15625 110.199219 L 507.65625 110.199219 L 507.65625 111.699219 L 506.15625 111.699219 M 509.152344 110.199219 L 510.652344 110.199219 L 510.652344 111.699219 L 509.152344 111.699219 " fill-opacity="1" fill-rule="nonzero"/><path stroke-linecap="round" transform="matrix(0.749043, -0.0000000000163935, 0.0000000000163935, 0.749043, 473.199031, 110.199446)" fill-opacity="1" fill="#89898d" fill-rule="nonzero" stroke-linejoin="round" d="M 52.264833 -1.997642 L 56.264727 1.000974 L 52.264833 3.999591 Z M 52.264833 -1.997642 " stroke="#89898d" stroke-width="2" stroke-opacity="1" stroke-miterlimit="4"/></svg>