<svg xmlns="http://www.w3.org/2000/svg" xmlns:xlink="http://www.w3.org/1999/xlink" width="1366" zoomAndPan="magnify" viewBox="0 0 1024.5 190.499994" height="254" preserveAspectRatio="xMidYMid meet" version="1.0"><defs><g/><clipPath id="5bfd6457f7"><path d="M 268.894531 0 L 755.238281 0 L 755.238281 188.929688 L 268.894531 188.929688 Z M 268.894531 0 " clip-rule="nonzero"/></clipPath><clipPath id="3949833797"><path d="M 281.609375 0 L 742.390625 0 C 749.414062 0 755.109375 5.695312 755.109375 12.714844 L 755.109375 176.210938 C 755.109375 183.234375 749.414062 188.929688 742.390625 188.929688 L 281.609375 188.929688 C 274.585938 188.929688 268.894531 183.234375 268.894531 176.210938 L 268.894531 12.714844 C 268.894531 5.695312 274.585938 0 281.609375 0 Z M 281.609375 0 " clip-rule="nonzero"/></clipPath><clipPath id="234c60d06d"><path d="M 0.894531 0 L 487.113281 0 L 487.113281 188.929688 L 0.894531 188.929688 Z M 0.894531 0 " clip-rule="nonzero"/></clipPath><clipPath id="0621b98526"><path d="M 13.609375 0 L 474.390625 0 C 481.414062 0 487.109375 5.695312 487.109375 12.714844 L 487.109375 176.210938 C 487.109375 183.234375 481.414062 188.929688 474.390625 188.929688 L 13.609375 188.929688 C 6.585938 188.929688 0.894531 183.234375 0.894531 176.210938 L 0.894531 12.714844 C 0.894531 5.695312 6.585938 0 13.609375 0 Z M 13.609375 0 " clip-rule="nonzero"/></clipPath><clipPath id="b2167dc260"><rect x="0" width="488" y="0" height="189"/></clipPath><clipPath id="65f9380cec"><path d="M 268.894531 0 L 755.117188 0 L 755.117188 189 L 268.894531 189 Z M 268.894531 0 " clip-rule="nonzero"/></clipPath><clipPath id="88bd310b82"><path d="M 281.613281 0 L 742.386719 0 C 749.410156 0 755.101562 5.691406 755.101562 12.714844 L 755.101562 176.210938 C 755.101562 183.234375 749.410156 188.925781 742.386719 188.925781 L 281.613281 188.925781 C 274.589844 188.925781 268.894531 183.234375 268.894531 176.210938 L 268.894531 12.714844 C 268.894531 5.691406 274.589844 0 281.613281 0 Z M 281.613281 0 " clip-rule="nonzero"/></clipPath><clipPath id="3f741908be"><path d="M 298.59375 51.378906 L 385 51.378906 L 385 137.550781 L 298.59375 137.550781 Z M 298.59375 51.378906 " clip-rule="nonzero"/></clipPath><clipPath id="3adda28ac1"><path d="M 301.585938 51.378906 L 381.875 51.378906 C 383.527344 51.378906 384.867188 52.71875 384.867188 54.371094 L 384.867188 134.558594 C 384.867188 136.210938 383.527344 137.550781 381.875 137.550781 L 301.585938 137.550781 C 299.933594 137.550781 298.59375 136.210938 298.59375 134.558594 L 298.59375 54.371094 C 298.59375 52.71875 299.933594 51.378906 301.585938 51.378906 Z M 301.585938 51.378906 " clip-rule="nonzero"/></clipPath><clipPath id="6c32b227e3"><path d="M 0.59375 0.378906 L 87 0.378906 L 87 86.550781 L 0.59375 86.550781 Z M 0.59375 0.378906 " clip-rule="nonzero"/></clipPath><clipPath id="7650114f96"><path d="M 3.585938 0.378906 L 83.875 0.378906 C 85.527344 0.378906 86.867188 1.71875 86.867188 3.371094 L 86.867188 83.558594 C 86.867188 85.210938 85.527344 86.550781 83.875 86.550781 L 3.585938 86.550781 C 1.933594 86.550781 0.59375 85.210938 0.59375 83.558594 L 0.59375 3.371094 C 0.59375 1.71875 1.933594 0.378906 3.585938 0.378906 Z M 3.585938 0.378906 " clip-rule="nonzero"/></clipPath><clipPath id="ac6e55baff"><rect x="0" width="87" y="0" height="87"/></clipPath><clipPath id="85310463da"><path d="M 298.597656 51.378906 L 384.621094 51.378906 L 384.621094 137.402344 L 298.597656 137.402344 Z M 298.597656 51.378906 " clip-rule="nonzero"/></clipPath><clipPath id="5bdce9f8a8"><path d="M 301.589844 51.378906 L 381.871094 51.378906 C 383.523438 51.378906 384.863281 52.71875 384.863281 54.371094 L 384.863281 134.550781 C 384.863281 136.203125 383.523438 137.542969 381.871094 137.542969 L 301.589844 137.542969 C 299.9375 137.542969 298.597656 136.203125 298.597656 134.550781 L 298.597656 54.371094 C 298.597656 52.71875 299.9375 51.378906 301.589844 51.378906 Z M 301.589844 51.378906 " clip-rule="nonzero"/></clipPath><clipPath id="543ed65bb7"><path d="M 435.386719 51.378906 L 553.871094 51.378906 L 553.871094 137.550781 L 435.386719 137.550781 Z M 435.386719 51.378906 " clip-rule="nonzero"/></clipPath><clipPath id="531844a0bd"><path d="M 453.742188 51.378906 L 535.453125 51.378906 C 540.320312 51.378906 544.988281 53.3125 548.429688 56.753906 C 551.871094 60.195312 553.804688 64.863281 553.804688 69.730469 L 553.804688 119.195312 C 553.804688 124.0625 551.871094 128.730469 548.429688 132.175781 C 544.988281 135.617188 540.320312 137.550781 535.453125 137.550781 L 453.742188 137.550781 C 448.871094 137.550781 444.203125 135.617188 440.761719 132.175781 C 437.320312 128.730469 435.386719 124.0625 435.386719 119.195312 L 435.386719 69.730469 C 435.386719 64.863281 437.320312 60.195312 440.761719 56.753906 C 444.203125 53.3125 448.871094 51.378906 453.742188 51.378906 Z M 453.742188 51.378906 " clip-rule="nonzero"/></clipPath><clipPath id="1fa195a8ab"><path d="M 0.386719 0.378906 L 118.871094 0.378906 L 118.871094 86.550781 L 0.386719 86.550781 Z M 0.386719 0.378906 " clip-rule="nonzero"/></clipPath><clipPath id="a5688cfd10"><path d="M 18.742188 0.378906 L 100.453125 0.378906 C 105.320312 0.378906 109.988281 2.3125 113.429688 5.753906 C 116.871094 9.195312 118.804688 13.863281 118.804688 18.730469 L 118.804688 68.195312 C 118.804688 73.0625 116.871094 77.730469 113.429688 81.175781 C 109.988281 84.617188 105.320312 86.550781 100.453125 86.550781 L 18.742188 86.550781 C 13.871094 86.550781 9.203125 84.617188 5.761719 81.175781 C 2.320312 77.730469 0.386719 73.0625 0.386719 68.195312 L 0.386719 18.730469 C 0.386719 13.863281 2.320312 9.195312 5.761719 5.753906 C 9.203125 2.3125 13.871094 0.378906 18.742188 0.378906 Z M 18.742188 0.378906 " clip-rule="nonzero"/></clipPath><clipPath id="5e79f03612"><rect x="0" width="119" y="0" height="87"/></clipPath><clipPath id="4144ac21d1"><path d="M 435.386719 51.378906 L 553.578125 51.378906 L 553.578125 137.402344 L 435.386719 137.402344 Z M 435.386719 51.378906 " clip-rule="nonzero"/></clipPath><clipPath id="b70003c9aa"><path d="M 453.738281 51.378906 L 535.445312 51.378906 C 540.3125 51.378906 544.980469 53.3125 548.425781 56.753906 C 551.867188 60.195312 553.800781 64.863281 553.800781 69.730469 L 553.800781 119.191406 C 553.800781 124.058594 551.867188 128.726562 548.425781 132.167969 C 544.980469 135.609375 540.3125 137.542969 535.445312 137.542969 L 453.738281 137.542969 C 448.871094 137.542969 444.203125 135.609375 440.761719 132.167969 C 437.320312 128.726562 435.386719 124.058594 435.386719 119.191406 L 435.386719 69.730469 C 435.386719 64.863281 437.320312 60.195312 440.761719 56.753906 C 444.203125 53.3125 448.871094 51.378906 453.738281 51.378906 Z M 453.738281 51.378906 " clip-rule="nonzero"/></clipPath><clipPath id="d2e50b2918"><path d="M 148.398438 9.988281 L 235.574219 9.988281 L 235.574219 179 L 148.398438 179 Z M 148.398438 9.988281 " clip-rule="nonzero"/></clipPath><clipPath id="9d74205250"><path d="M 161.113281 9.988281 L 222.859375 9.988281 C 229.878906 9.988281 235.574219 15.683594 235.574219 22.707031 L 235.574219 166.222656 C 235.574219 173.246094 229.878906 178.9375 222.859375 178.9375 L 161.113281 178.9375 C 154.089844 178.9375 148.398438 173.246094 148.398438 166.222656 L 148.398438 22.707031 C 148.398438 15.683594 154.089844 9.988281 161.113281 9.988281 Z M 161.113281 9.988281 " clip-rule="nonzero"/></clipPath><clipPath id="0542c74c35"><path d="M 0.398438 0.988281 L 87.574219 0.988281 L 87.574219 170 L 0.398438 170 Z M 0.398438 0.988281 " clip-rule="nonzero"/></clipPath><clipPath id="15551ae811"><path d="M 13.113281 0.988281 L 74.859375 0.988281 C 81.878906 0.988281 87.574219 6.683594 87.574219 13.707031 L 87.574219 157.222656 C 87.574219 164.246094 81.878906 169.9375 74.859375 169.9375 L 13.113281 169.9375 C 6.089844 169.9375 0.398438 164.246094 0.398438 157.222656 L 0.398438 13.707031 C 0.398438 6.683594 6.089844 0.988281 13.113281 0.988281 Z M 13.113281 0.988281 " clip-rule="nonzero"/></clipPath><clipPath id="cb2992622e"><rect x="0" width="88" y="0" height="170"/></clipPath><clipPath id="ed9ce91084"><path d="M 148.398438 9.992188 L 235.917969 9.992188 L 235.917969 179 L 148.398438 179 Z M 148.398438 9.992188 " clip-rule="nonzero"/></clipPath><clipPath id="a3c7c5733d"><path d="M 161.113281 9.992188 L 222.851562 9.992188 C 229.875 9.992188 235.566406 15.683594 235.566406 22.707031 L 235.566406 166.210938 C 235.566406 173.234375 229.875 178.925781 222.851562 178.925781 L 161.113281 178.925781 C 154.089844 178.925781 148.398438 173.234375 148.398438 166.210938 L 148.398438 22.707031 C 148.398438 15.683594 154.089844 9.992188 161.113281 9.992188 Z M 161.113281 9.992188 " clip-rule="nonzero"/></clipPath><clipPath id="1d1a616752"><path d="M 788.425781 9.988281 L 875.605469 9.988281 L 875.605469 179 L 788.425781 179 Z M 788.425781 9.988281 " clip-rule="nonzero"/></clipPath><clipPath id="ddfbc7529a"><path d="M 801.144531 9.988281 L 862.886719 9.988281 C 869.910156 9.988281 875.605469 15.683594 875.605469 22.707031 L 875.605469 166.222656 C 875.605469 173.246094 869.910156 178.9375 862.886719 178.9375 L 801.144531 178.9375 C 794.121094 178.9375 788.425781 173.246094 788.425781 166.222656 L 788.425781 22.707031 C 788.425781 15.683594 794.121094 9.988281 801.144531 9.988281 Z M 801.144531 9.988281 " clip-rule="nonzero"/></clipPath><clipPath id="df9c5ecd84"><path d="M 0.425781 0.988281 L 87.605469 0.988281 L 87.605469 170 L 0.425781 170 Z M 0.425781 0.988281 " clip-rule="nonzero"/></clipPath><clipPath id="794bfb0d19"><path d="M 13.144531 0.988281 L 74.886719 0.988281 C 81.910156 0.988281 87.605469 6.683594 87.605469 13.707031 L 87.605469 157.222656 C 87.605469 164.246094 81.910156 169.9375 74.886719 169.9375 L 13.144531 169.9375 C 6.121094 169.9375 0.425781 164.246094 0.425781 157.222656 L 0.425781 13.707031 C 0.425781 6.683594 6.121094 0.988281 13.144531 0.988281 Z M 13.144531 0.988281 " clip-rule="nonzero"/></clipPath><clipPath id="ce94749ecb"><rect x="0" width="88" y="0" height="170"/></clipPath><clipPath id="f42a30bdf1"><path d="M 788.425781 9.992188 L 875.949219 9.992188 L 875.949219 179 L 788.425781 179 Z M 788.425781 9.992188 " clip-rule="nonzero"/></clipPath><clipPath id="d84a4cb5fa"><path d="M 801.144531 9.992188 L 862.882812 9.992188 C 869.902344 9.992188 875.597656 15.683594 875.597656 22.707031 L 875.597656 166.210938 C 875.597656 173.234375 869.902344 178.925781 862.882812 178.925781 L 801.144531 178.925781 C 794.121094 178.925781 788.425781 173.234375 788.425781 166.210938 L 788.425781 22.707031 C 788.425781 15.683594 794.121094 9.992188 801.144531 9.992188 Z M 801.144531 9.992188 " clip-rule="nonzero"/></clipPath><clipPath id="088e36bda6"><path d="M 604.328125 52.253906 L 725.683594 52.253906 L 725.683594 136.675781 L 604.328125 136.675781 Z M 604.328125 52.253906 " clip-rule="nonzero"/></clipPath><clipPath id="9348609fdb"><path d="M 609.222656 52.253906 L 675.246094 52.253906 C 702.691406 52.253906 725.40625 71.152344 725.40625 94.464844 C 725.40625 117.777344 702.691406 136.675781 675.246094 136.675781 L 609.222656 136.675781 C 607.921875 136.675781 606.679688 136.160156 605.761719 135.242188 C 604.84375 134.324219 604.328125 133.078125 604.328125 131.78125 L 604.328125 57.148438 C 604.328125 55.851562 604.84375 54.605469 605.761719 53.6875 C 606.679688 52.769531 607.921875 52.253906 609.222656 52.253906 Z M 609.222656 52.253906 " clip-rule="nonzero"/></clipPath><clipPath id="22cee0744a"><path d="M 0.328125 0.253906 L 121.429688 0.253906 L 121.429688 84.675781 L 0.328125 84.675781 Z M 0.328125 0.253906 " clip-rule="nonzero"/></clipPath><clipPath id="a72861fd44"><path d="M 5.222656 0.253906 L 71.246094 0.253906 C 98.691406 0.253906 121.40625 19.152344 121.40625 42.464844 C 121.40625 65.777344 98.691406 84.675781 71.246094 84.675781 L 5.222656 84.675781 C 3.921875 84.675781 2.679688 84.160156 1.761719 83.242188 C 0.84375 82.324219 0.328125 81.078125 0.328125 79.78125 L 0.328125 5.148438 C 0.328125 3.851562 0.84375 2.605469 1.761719 1.6875 C 2.679688 0.769531 3.921875 0.253906 5.222656 0.253906 Z M 5.222656 0.253906 " clip-rule="nonzero"/></clipPath><clipPath id="6d0bbf68e6"><rect x="0" width="122" y="0" height="85"/></clipPath><clipPath id="d2aed6b000"><path d="M 604.332031 52.253906 L 725.507812 52.253906 L 725.507812 136.78125 L 604.332031 136.78125 Z M 604.332031 52.253906 " clip-rule="nonzero"/></clipPath><clipPath id="fa391a6801"><path d="M 609.226562 52.253906 L 675.246094 52.253906 C 702.6875 52.253906 725.398438 71.152344 725.398438 94.460938 C 725.398438 117.769531 702.6875 136.664062 675.246094 136.664062 L 609.226562 136.664062 C 607.929688 136.664062 606.683594 136.148438 605.765625 135.230469 C 604.847656 134.316406 604.332031 133.070312 604.332031 131.773438 L 604.332031 57.148438 C 604.332031 55.851562 604.847656 54.605469 605.765625 53.6875 C 606.683594 52.769531 607.929688 52.253906 609.226562 52.253906 Z M 609.226562 52.253906 " clip-rule="nonzero"/></clipPath></defs><g clip-path="url(#5bfd6457f7)"><g clip-path="url(#3949833797)"><g transform="matrix(1, 0, 0, 1, 268, 0)"><g clip-path="url(#b2167dc260)"><g clip-path="url(#234c60d06d)"><g clip-path="url(#0621b98526)"><path fill="#f8f3ed" d="M 0.894531 0 L 487.238281 0 L 487.238281 188.929688 L 0.894531 188.929688 Z M 0.894531 0 " fill-opacity="1" fill-rule="nonzero"/></g></g></g></g></g></g><g clip-path="url(#65f9380cec)"><g clip-path="url(#88bd310b82)"><path stroke-linecap="butt" transform="matrix(0.748037, 0, 0, 0.748037, 268.895547, 0.000000000000031891)" fill="none" stroke-linejoin="miter" d="M 17.001486 -0.000000000000042633 L 632.978619 -0.000000000000042633 C 642.367782 -0.000000000000042633 649.976242 7.60846 649.976242 16.997623 L 649.976242 235.564595 C 649.976242 244.953758 642.367782 252.562217 632.978619 252.562217 L 17.001486 252.562217 C 7.612323 252.562217 -0.0013583 244.953758 -0.0013583 235.564595 L -0.0013583 16.997623 C -0.0013583 7.60846 7.612323 -0.000000000000042633 17.001486 -0.000000000000042633 Z M 17.001486 -0.000000000000042633 " stroke="#efeae7" stroke-width="4" stroke-opacity="1" stroke-miterlimit="4"/></g></g><g fill="#000000" fill-opacity="1"><g transform="translate(454.72178, 27.577626)"><g><path d="M 6.492188 0.191406 C 8.585938 0.191406 10.417969 -0.910156 11.328125 -2.570312 L 10.339844 -3.128906 C 9.652344 -1.785156 8.167969 -0.894531 6.492188 -0.894531 C 3.667969 -0.894531 1.753906 -2.984375 1.753906 -5.585938 C 1.753906 -8.183594 3.667969 -10.277344 6.492188 -10.277344 C 8.167969 -10.277344 9.652344 -9.382812 10.339844 -8.042969 L 11.328125 -8.617188 C 10.402344 -10.277344 8.566406 -11.359375 6.492188 -11.359375 C 3.0625 -11.359375 0.636719 -8.777344 0.636719 -5.585938 C 0.636719 -2.394531 3.0625 0.191406 6.492188 0.191406 Z M 6.492188 0.191406 "/></g></g></g><g fill="#000000" fill-opacity="1"><g transform="translate(466.607716, 27.577626)"><g><path d="M 4.835938 0.191406 C 7.164062 0.191406 9.03125 -1.628906 9.03125 -3.988281 C 9.03125 -6.351562 7.164062 -8.167969 4.835938 -8.167969 C 2.503906 -8.167969 0.636719 -6.351562 0.636719 -3.988281 C 0.636719 -1.628906 2.503906 0.191406 4.835938 0.191406 Z M 4.835938 -0.828125 C 3.0625 -0.828125 1.691406 -2.21875 1.691406 -3.988281 C 1.691406 -5.761719 3.0625 -7.148438 4.835938 -7.148438 C 6.605469 -7.148438 7.976562 -5.761719 7.976562 -3.988281 C 7.976562 -2.21875 6.605469 -0.828125 4.835938 -0.828125 Z M 4.835938 -0.828125 "/></g></g></g><g fill="#000000" fill-opacity="1"><g transform="translate(476.276011, 27.577626)"><g><path d="M 4.835938 0.191406 C 6.398438 0.191406 7.753906 -0.621094 8.410156 -1.882812 L 7.53125 -2.394531 C 7.019531 -1.46875 6.046875 -0.828125 4.835938 -0.828125 C 3.0625 -0.828125 1.691406 -2.21875 1.691406 -3.988281 C 1.691406 -5.761719 3.0625 -7.148438 4.835938 -7.148438 C 6.03125 -7.148438 7.035156 -6.527344 7.46875 -5.585938 L 8.328125 -6.078125 C 7.753906 -7.339844 6.414062 -8.167969 4.835938 -8.167969 C 2.425781 -8.167969 0.636719 -6.351562 0.636719 -3.988281 C 0.636719 -1.628906 2.425781 0.191406 4.835938 0.191406 Z M 4.835938 0.191406 "/></g></g></g><g fill="#000000" fill-opacity="1"><g transform="translate(485.082779, 27.577626)"><g><path d="M 4.835938 0.191406 C 7.164062 0.191406 9.03125 -1.628906 9.03125 -3.988281 C 9.03125 -6.351562 7.164062 -8.167969 4.835938 -8.167969 C 2.503906 -8.167969 0.636719 -6.351562 0.636719 -3.988281 C 0.636719 -1.628906 2.503906 0.191406 4.835938 0.191406 Z M 4.835938 -0.828125 C 3.0625 -0.828125 1.691406 -2.21875 1.691406 -3.988281 C 1.691406 -5.761719 3.0625 -7.148438 4.835938 -7.148438 C 6.605469 -7.148438 7.976562 -5.761719 7.976562 -3.988281 C 7.976562 -2.21875 6.605469 -0.828125 4.835938 -0.828125 Z M 4.835938 -0.828125 "/></g></g></g><g fill="#000000" fill-opacity="1"><g transform="translate(494.751074, 27.577626)"><g><path d="M 1.277344 -11.167969 L 1.277344 0 L 2.394531 0 L 2.394531 -11.167969 Z M 1.277344 -11.167969 "/></g></g></g><g fill="#000000" fill-opacity="1"><g transform="translate(498.420558, 27.577626)"><g><path d="M 4.851562 -8.167969 C 3.71875 -8.167969 2.792969 -7.738281 2.171875 -6.734375 L 2.171875 -7.976562 L 1.117188 -7.976562 L 1.117188 0 L 2.171875 0 L 2.171875 -4.179688 C 2.171875 -6.320312 3.351562 -7.148438 4.753906 -7.148438 C 6.144531 -7.148438 6.925781 -6.320312 6.925781 -4.898438 L 6.925781 0 L 7.976562 0 L 7.976562 -4.898438 C 7.976562 -6.894531 6.796875 -8.167969 4.851562 -8.167969 Z M 4.851562 -8.167969 "/></g></g></g><g fill="#000000" fill-opacity="1"><g transform="translate(507.323045, 27.577626)"><g><path d="M 7.976562 -11.167969 L 7.976562 -6.414062 C 7.308594 -7.484375 6.175781 -8.167969 4.753906 -8.167969 C 2.503906 -8.167969 0.636719 -6.351562 0.636719 -3.988281 C 0.636719 -1.628906 2.503906 0.191406 4.753906 0.191406 C 6.175781 0.191406 7.308594 -0.496094 7.976562 -1.5625 L 7.976562 0 L 9.03125 0 L 9.03125 -11.167969 Z M 4.835938 -0.828125 C 3.0625 -0.828125 1.691406 -2.21875 1.691406 -3.988281 C 1.691406 -5.761719 3.0625 -7.148438 4.835938 -7.148438 C 6.605469 -7.148438 7.976562 -5.761719 7.976562 -3.988281 C 7.976562 -2.21875 6.605469 -0.828125 4.835938 -0.828125 Z M 4.835938 -0.828125 "/></g></g></g><g fill="#000000" fill-opacity="1"><g transform="translate(517.469969, 27.577626)"><g><path d="M 4.800781 -8.167969 C 2.328125 -8.167969 0.636719 -6.335938 0.636719 -3.988281 C 0.636719 -1.578125 2.363281 0.191406 4.882812 0.191406 C 6.492188 0.191406 7.722656 -0.558594 8.394531 -1.644531 L 7.46875 -2.1875 C 7.035156 -1.421875 6.160156 -0.828125 4.898438 -0.828125 C 3.207031 -0.828125 1.945312 -1.835938 1.722656 -3.460938 L 8.726562 -3.460938 C 8.742188 -3.621094 8.757812 -3.796875 8.757812 -3.957031 C 8.757812 -6.144531 7.242188 -8.167969 4.800781 -8.167969 Z M 4.800781 -7.148438 C 6.175781 -7.148438 7.453125 -6.238281 7.675781 -4.484375 L 1.722656 -4.484375 C 1.929688 -6.046875 3.128906 -7.148438 4.800781 -7.148438 Z M 4.800781 -7.148438 "/></g></g></g><g fill="#000000" fill-opacity="1"><g transform="translate(526.787269, 27.577626)"><g><path d="M 7.816406 0 L 4.707031 -4.132812 L 7.609375 -7.976562 L 6.351562 -7.976562 L 4.070312 -4.960938 L 1.785156 -7.976562 L 0.527344 -7.976562 L 3.445312 -4.132812 L 0.320312 0 L 1.578125 0 L 4.070312 -3.285156 L 6.558594 0 Z M 7.816406 0 "/></g></g></g><g fill="#000000" fill-opacity="1"><g transform="translate(534.923947, 27.577626)"><g/></g></g><g fill="#000000" fill-opacity="1"><g transform="translate(538.912513, 27.577626)"><g><path d="M 8.710938 0 L 9.890625 0 L 5.601562 -11.167969 L 4.453125 -11.167969 L 0.160156 0 L 1.339844 0 L 2.378906 -2.746094 L 7.675781 -2.746094 Z M 2.777344 -3.796875 L 5.027344 -9.78125 L 7.277344 -3.796875 Z M 2.777344 -3.796875 "/></g></g></g><g fill="#000000" fill-opacity="1"><g transform="translate(548.963707, 27.577626)"><g><path d="M 5.394531 -8.167969 C 3.972656 -8.167969 2.839844 -7.484375 2.171875 -6.414062 L 2.171875 -7.976562 L 1.117188 -7.976562 L 1.117188 3.191406 L 2.171875 3.191406 L 2.171875 -1.5625 C 2.839844 -0.496094 3.972656 0.191406 5.394531 0.191406 C 7.644531 0.191406 9.507812 -1.628906 9.507812 -3.988281 C 9.507812 -6.351562 7.644531 -8.167969 5.394531 -8.167969 Z M 5.3125 -0.828125 C 3.542969 -0.828125 2.171875 -2.21875 2.171875 -3.988281 C 2.171875 -5.761719 3.542969 -7.148438 5.3125 -7.148438 C 7.085938 -7.148438 8.457031 -5.761719 8.457031 -3.988281 C 8.457031 -2.21875 7.085938 -0.828125 5.3125 -0.828125 Z M 5.3125 -0.828125 "/></g></g></g><g fill="#000000" fill-opacity="1"><g transform="translate(559.110631, 27.577626)"><g><path d="M 5.394531 -8.167969 C 3.972656 -8.167969 2.839844 -7.484375 2.171875 -6.414062 L 2.171875 -7.976562 L 1.117188 -7.976562 L 1.117188 3.191406 L 2.171875 3.191406 L 2.171875 -1.5625 C 2.839844 -0.496094 3.972656 0.191406 5.394531 0.191406 C 7.644531 0.191406 9.507812 -1.628906 9.507812 -3.988281 C 9.507812 -6.351562 7.644531 -8.167969 5.394531 -8.167969 Z M 5.3125 -0.828125 C 3.542969 -0.828125 2.171875 -2.21875 2.171875 -3.988281 C 2.171875 -5.761719 3.542969 -7.148438 5.3125 -7.148438 C 7.085938 -7.148438 8.457031 -5.761719 8.457031 -3.988281 C 8.457031 -2.21875 7.085938 -0.828125 5.3125 -0.828125 Z M 5.3125 -0.828125 "/></g></g></g><g clip-path="url(#3f741908be)"><g clip-path="url(#3adda28ac1)"><g transform="matrix(1, 0, 0, 1, 298, 51)"><g clip-path="url(#ac6e55baff)"><g clip-path="url(#6c32b227e3)"><g clip-path="url(#7650114f96)"><path fill="#ffffff" d="M 0.59375 0.378906 L 86.765625 0.378906 L 86.765625 86.550781 L 0.59375 86.550781 Z M 0.59375 0.378906 " fill-opacity="1" fill-rule="nonzero"/></g></g></g></g></g></g><g clip-path="url(#85310463da)"><g clip-path="url(#5bdce9f8a8)"><path stroke-linecap="butt" transform="matrix(0.748037, 0, 0, 0.748037, 298.597452, 51.379529)" fill="none" stroke-linejoin="miter" d="M 4.000327 -0.000832653 L 111.322944 -0.000832653 C 113.531852 -0.000832653 115.322999 1.790315 115.322999 3.999222 L 115.322999 111.186067 C 115.322999 113.394974 113.531852 115.186121 111.322944 115.186121 L 4.000327 115.186121 C 1.79142 115.186121 0.00027275 113.394974 0.00027275 111.186067 L 0.00027275 3.999222 C 0.00027275 1.790315 1.79142 -0.000832653 4.000327 -0.000832653 Z M 4.000327 -0.000832653 " stroke="#000000" stroke-width="4" stroke-opacity="1" stroke-miterlimit="4"/></g></g><g fill="#000000" fill-opacity="1"><g transform="translate(322.018127, 99.253871)"><g><path d="M 4.785156 0.191406 C 7.019531 0.191406 8.550781 -1.019531 8.550781 -2.9375 C 8.550781 -5.011719 6.734375 -5.585938 4.707031 -6.253906 C 3.191406 -6.75 2.234375 -7.132812 2.234375 -8.34375 C 2.234375 -9.574219 3.207031 -10.277344 4.546875 -10.277344 C 6.015625 -10.277344 6.875 -9.429688 7.292969 -8.425781 L 8.234375 -8.949219 C 7.660156 -10.277344 6.382812 -11.359375 4.546875 -11.359375 C 2.695312 -11.359375 1.117188 -10.257812 1.117188 -8.296875 C 1.117188 -6.238281 2.871094 -5.761719 4.691406 -5.152344 C 6.335938 -4.609375 7.433594 -4.195312 7.433594 -2.902344 C 7.433594 -1.707031 6.492188 -0.894531 4.800781 -0.894531 C 3.046875 -0.894531 1.996094 -1.753906 1.59375 -3.09375 L 0.636719 -2.535156 C 1.210938 -0.84375 2.726562 0.191406 4.785156 0.191406 Z M 4.785156 0.191406 "/></g></g></g><g fill="#000000" fill-opacity="1"><g transform="translate(330.968462, 99.253871)"><g><path d="M 5.34375 -6.957031 L 5.34375 -7.976562 L 3.046875 -7.976562 L 3.046875 -10.210938 L 1.996094 -9.890625 L 1.996094 -7.976562 L 0.320312 -7.976562 L 0.320312 -6.957031 L 1.996094 -6.957031 L 1.996094 -2.121094 C 1.996094 -0.207031 3.191406 0.320312 5.34375 0 L 5.34375 -0.925781 C 3.796875 -0.863281 3.046875 -0.75 3.046875 -2.121094 L 3.046875 -6.957031 Z M 5.34375 -6.957031 "/></g></g></g><g fill="#000000" fill-opacity="1"><g transform="translate(336.472653, 99.253871)"><g><path d="M 7.976562 -7.976562 L 7.976562 -6.414062 C 7.308594 -7.484375 6.175781 -8.167969 4.753906 -8.167969 C 2.503906 -8.167969 0.636719 -6.351562 0.636719 -3.988281 C 0.636719 -1.628906 2.503906 0.191406 4.753906 0.191406 C 6.175781 0.191406 7.308594 -0.496094 7.976562 -1.5625 L 7.976562 0 L 9.03125 0 L 9.03125 -7.976562 Z M 4.835938 -0.828125 C 3.0625 -0.828125 1.691406 -2.21875 1.691406 -3.988281 C 1.691406 -5.761719 3.0625 -7.148438 4.835938 -7.148438 C 6.605469 -7.148438 7.976562 -5.761719 7.976562 -3.988281 C 7.976562 -2.21875 6.605469 -0.828125 4.835938 -0.828125 Z M 4.835938 -0.828125 "/></g></g></g><g fill="#000000" fill-opacity="1"><g transform="translate(346.619577, 99.253871)"><g><path d="M 5.34375 -6.957031 L 5.34375 -7.976562 L 3.046875 -7.976562 L 3.046875 -10.210938 L 1.996094 -9.890625 L 1.996094 -7.976562 L 0.320312 -7.976562 L 0.320312 -6.957031 L 1.996094 -6.957031 L 1.996094 -2.121094 C 1.996094 -0.207031 3.191406 0.320312 5.34375 0 L 5.34375 -0.925781 C 3.796875 -0.863281 3.046875 -0.75 3.046875 -2.121094 L 3.046875 -6.957031 Z M 5.34375 -6.957031 "/></g></g></g><g fill="#000000" fill-opacity="1"><g transform="translate(352.123769, 99.253871)"><g><path d="M 4.800781 -8.167969 C 2.328125 -8.167969 0.636719 -6.335938 0.636719 -3.988281 C 0.636719 -1.578125 2.363281 0.191406 4.882812 0.191406 C 6.492188 0.191406 7.722656 -0.558594 8.394531 -1.644531 L 7.46875 -2.1875 C 7.035156 -1.421875 6.160156 -0.828125 4.898438 -0.828125 C 3.207031 -0.828125 1.945312 -1.835938 1.722656 -3.460938 L 8.726562 -3.460938 C 8.742188 -3.621094 8.757812 -3.796875 8.757812 -3.957031 C 8.757812 -6.144531 7.242188 -8.167969 4.800781 -8.167969 Z M 4.800781 -7.148438 C 6.175781 -7.148438 7.453125 -6.238281 7.675781 -4.484375 L 1.722656 -4.484375 C 1.929688 -6.046875 3.128906 -7.148438 4.800781 -7.148438 Z M 4.800781 -7.148438 "/></g></g></g><path stroke-linecap="butt" transform="matrix(0.748037, 0, 0, 0.748037, 384.865911, 93.716464)" fill="none" stroke-linejoin="miter" d="M 0.00170669 1.000459 L 62.039113 1.000459 " stroke="#000000" stroke-width="2" stroke-opacity="1" stroke-miterlimit="4"/><path stroke-linecap="round" transform="matrix(0.748037, 0, 0, 0.748037, 384.865911, 93.716464)" fill-opacity="1" fill="#000000" fill-rule="nonzero" stroke-linejoin="round" d="M 62.540425 -2.002193 L 66.54048 1.000459 L 62.540425 3.997889 Z M 62.540425 -2.002193 " stroke="#000000" stroke-width="2" stroke-opacity="1" stroke-miterlimit="4"/><path stroke-linecap="butt" transform="matrix(0.748037, 0.0000000000443947, -0.0000000000443947, 0.748037, 235.574052, 93.716464)" fill="none" stroke-linejoin="miter" d="M 0.000222257 1.000459 L 78.748041 1.000459 " stroke="#89898d" stroke-width="2" stroke-opacity="1" stroke-miterlimit="4"/><path stroke-linecap="round" transform="matrix(0.748037, 0.0000000000443947, -0.0000000000443947, 0.748037, 235.574052, 93.716464)" fill-opacity="1" fill="#89898d" fill-rule="nonzero" stroke-linejoin="round" d="M 79.249353 -2.002193 L 83.249408 1.000459 L 79.249353 3.997889 Z M 79.249353 -2.002193 " stroke="#89898d" stroke-width="2" stroke-opacity="1" stroke-miterlimit="4"/><g clip-path="url(#543ed65bb7)"><g clip-path="url(#531844a0bd)"><g transform="matrix(1, 0, 0, 1, 435, 51)"><g clip-path="url(#5e79f03612)"><g clip-path="url(#1fa195a8ab)"><g clip-path="url(#a5688cfd10)"><path fill="#ffffff" d="M 0.386719 0.378906 L 118.871094 0.378906 L 118.871094 86.550781 L 0.386719 86.550781 Z M 0.386719 0.378906 " fill-opacity="1" fill-rule="nonzero"/></g></g></g></g></g></g><g clip-path="url(#4144ac21d1)"><g clip-path="url(#b70003c9aa)"><path stroke-linecap="butt" transform="matrix(0.748037, 0, 0, 0.748037, 435.387778, 51.379529)" fill="none" stroke-linejoin="miter" d="M 24.531556 -0.000832653 L 133.765426 -0.000832653 C 140.272043 -0.000832653 146.507115 2.584059 151.112922 7.184644 C 155.713507 11.785229 158.298399 18.025524 158.298399 24.53214 L 158.298399 90.653149 C 158.298399 97.159765 155.713507 103.400059 151.112922 108.000645 C 146.507115 112.60123 140.272043 115.186121 133.765426 115.186121 L 24.531556 115.186121 C 18.02494 115.186121 11.784646 112.60123 7.18406 108.000645 C 2.583475 103.400059 -0.00141641 97.159765 -0.00141641 90.653149 L -0.00141641 24.53214 C -0.00141641 18.025524 2.583475 11.785229 7.18406 7.184644 C 11.784646 2.584059 18.02494 -0.000832653 24.531556 -0.000832653 Z M 24.531556 -0.000832653 " stroke="#000000" stroke-width="4" stroke-opacity="1" stroke-miterlimit="4"/></g></g><g fill="#000000" fill-opacity="1"><g transform="translate(459.090877, 88.781359)"><g><path d="M 8.296875 -11.167969 L 0.320312 -11.167969 L 0.320312 -10.117188 L 3.75 -10.117188 L 3.75 0 L 4.867188 0 L 4.867188 -10.117188 L 8.296875 -10.117188 Z M 8.296875 -11.167969 "/></g></g></g><g fill="#000000" fill-opacity="1"><g transform="translate(466.589288, 88.781359)"><g><path d="M 2.171875 -6.652344 L 2.171875 -7.976562 L 1.117188 -7.976562 L 1.117188 0 L 2.171875 0 L 2.171875 -4.4375 C 2.171875 -6.414062 3.414062 -7.085938 4.691406 -7.085938 L 4.691406 -8.105469 C 3.667969 -8.105469 2.726562 -7.769531 2.171875 -6.652344 Z M 2.171875 -6.652344 "/></g></g></g><g fill="#000000" fill-opacity="1"><g transform="translate(471.120265, 88.781359)"><g><path d="M 7.976562 -7.976562 L 7.976562 -6.414062 C 7.308594 -7.484375 6.175781 -8.167969 4.753906 -8.167969 C 2.503906 -8.167969 0.636719 -6.351562 0.636719 -3.988281 C 0.636719 -1.628906 2.503906 0.191406 4.753906 0.191406 C 6.175781 0.191406 7.308594 -0.496094 7.976562 -1.5625 L 7.976562 0 L 9.03125 0 L 9.03125 -7.976562 Z M 4.835938 -0.828125 C 3.0625 -0.828125 1.691406 -2.21875 1.691406 -3.988281 C 1.691406 -5.761719 3.0625 -7.148438 4.835938 -7.148438 C 6.605469 -7.148438 7.976562 -5.761719 7.976562 -3.988281 C 7.976562 -2.21875 6.605469 -0.828125 4.835938 -0.828125 Z M 4.835938 -0.828125 "/></g></g></g><g fill="#000000" fill-opacity="1"><g transform="translate(481.267189, 88.781359)"><g><path d="M 4.851562 -8.167969 C 3.71875 -8.167969 2.792969 -7.738281 2.171875 -6.734375 L 2.171875 -7.976562 L 1.117188 -7.976562 L 1.117188 0 L 2.171875 0 L 2.171875 -4.179688 C 2.171875 -6.320312 3.351562 -7.148438 4.753906 -7.148438 C 6.144531 -7.148438 6.925781 -6.320312 6.925781 -4.898438 L 6.925781 0 L 7.976562 0 L 7.976562 -4.898438 C 7.976562 -6.894531 6.796875 -8.167969 4.851562 -8.167969 Z M 4.851562 -8.167969 "/></g></g></g><g fill="#000000" fill-opacity="1"><g transform="translate(490.169676, 88.781359)"><g><path d="M 1.945312 -5.886719 C 1.945312 -6.75 2.792969 -7.148438 3.621094 -7.148438 C 4.386719 -7.148438 5.203125 -6.84375 5.535156 -6.03125 L 6.414062 -6.542969 C 5.953125 -7.53125 4.929688 -8.167969 3.621094 -8.167969 C 2.027344 -8.167969 0.894531 -7.164062 0.894531 -5.886719 C 0.894531 -2.953125 5.550781 -4.085938 5.550781 -2.105469 C 5.550781 -1.164062 4.660156 -0.828125 3.71875 -0.828125 C 2.648438 -0.828125 1.820312 -1.355469 1.53125 -2.171875 L 0.636719 -1.644531 C 1.039062 -0.621094 2.121094 0.191406 3.71875 0.191406 C 5.425781 0.191406 6.605469 -0.75 6.605469 -2.105469 C 6.605469 -5.042969 1.945312 -3.910156 1.945312 -5.886719 Z M 1.945312 -5.886719 "/></g></g></g><g fill="#000000" fill-opacity="1"><g transform="translate(497.253367, 88.781359)"><g><path d="M 5.105469 -10.339844 L 5.105469 -11.359375 C 2.953125 -11.519531 1.753906 -10.371094 1.753906 -8.296875 L 1.753906 -7.976562 L 0.398438 -7.976562 L 0.398438 -6.957031 L 1.753906 -6.957031 L 1.753906 0 L 2.808594 0 L 2.808594 -6.957031 L 5.105469 -6.957031 L 5.105469 -7.976562 L 2.808594 -7.976562 L 2.808594 -8.296875 C 2.808594 -9.828125 3.558594 -10.46875 5.105469 -10.339844 Z M 5.105469 -10.339844 "/></g></g></g><g fill="#000000" fill-opacity="1"><g transform="translate(501.880074, 88.781359)"><g><path d="M 4.835938 0.191406 C 7.164062 0.191406 9.03125 -1.628906 9.03125 -3.988281 C 9.03125 -6.351562 7.164062 -8.167969 4.835938 -8.167969 C 2.503906 -8.167969 0.636719 -6.351562 0.636719 -3.988281 C 0.636719 -1.628906 2.503906 0.191406 4.835938 0.191406 Z M 4.835938 -0.828125 C 3.0625 -0.828125 1.691406 -2.21875 1.691406 -3.988281 C 1.691406 -5.761719 3.0625 -7.148438 4.835938 -7.148438 C 6.605469 -7.148438 7.976562 -5.761719 7.976562 -3.988281 C 7.976562 -2.21875 6.605469 -0.828125 4.835938 -0.828125 Z M 4.835938 -0.828125 "/></g></g></g><g fill="#000000" fill-opacity="1"><g transform="translate(511.54837, 88.781359)"><g><path d="M 2.171875 -6.652344 L 2.171875 -7.976562 L 1.117188 -7.976562 L 1.117188 0 L 2.171875 0 L 2.171875 -4.4375 C 2.171875 -6.414062 3.414062 -7.085938 4.691406 -7.085938 L 4.691406 -8.105469 C 3.667969 -8.105469 2.726562 -7.769531 2.171875 -6.652344 Z M 2.171875 -6.652344 "/></g></g></g><g fill="#000000" fill-opacity="1"><g transform="translate(516.55801, 88.781359)"><g><path d="M 9.621094 -8.167969 C 8.601562 -8.167969 7.625 -7.707031 7.035156 -6.71875 C 6.589844 -7.644531 5.726562 -8.167969 4.609375 -8.167969 C 3.652344 -8.167969 2.792969 -7.785156 2.171875 -6.8125 L 2.171875 -7.976562 L 1.117188 -7.976562 L 1.117188 0 L 2.171875 0 L 2.171875 -4.417969 C 2.171875 -6.398438 3.320312 -7.148438 4.46875 -7.148438 C 5.601562 -7.148438 6.335938 -6.398438 6.335938 -4.976562 L 6.335938 0 L 7.386719 0 L 7.386719 -4.417969 C 7.386719 -6.398438 8.375 -7.148438 9.605469 -7.148438 C 10.738281 -7.148438 11.550781 -6.398438 11.550781 -4.976562 L 11.550781 0 L 12.605469 0 L 12.605469 -4.976562 C 12.605469 -6.972656 11.375 -8.167969 9.621094 -8.167969 Z M 9.621094 -8.167969 "/></g></g></g><g fill="#000000" fill-opacity="1"><g transform="translate(482.16313, 110.47442)"><g><path d="M 7.578125 -10.117188 L 7.578125 -11.167969 L 1.277344 -11.167969 L 1.277344 0 L 2.394531 0 L 2.394531 -4.945312 L 7.339844 -4.945312 L 7.339844 -6 L 2.394531 -6 L 2.394531 -10.117188 Z M 7.578125 -10.117188 "/></g></g></g><g fill="#000000" fill-opacity="1"><g transform="translate(490.379582, 110.47442)"><g><path d="M 2.710938 1.59375 L 3.765625 1.59375 C 2.648438 -0.636719 2.011719 -3.03125 2.011719 -5.585938 C 2.011719 -8.136719 2.648438 -10.53125 3.765625 -12.765625 L 2.710938 -12.765625 C 1.59375 -10.53125 0.957031 -8.136719 0.957031 -5.585938 C 0.957031 -3.03125 1.59375 -0.636719 2.710938 1.59375 Z M 2.710938 1.59375 "/></g></g></g><g fill="#000000" fill-opacity="1"><g transform="translate(494.623425, 110.47442)"><g><path d="M 7.816406 0 L 4.707031 -4.132812 L 7.609375 -7.976562 L 6.351562 -7.976562 L 4.070312 -4.960938 L 1.785156 -7.976562 L 0.527344 -7.976562 L 3.445312 -4.132812 L 0.320312 0 L 1.578125 0 L 4.070312 -3.285156 L 6.558594 0 Z M 7.816406 0 "/></g></g></g><g fill="#000000" fill-opacity="1"><g transform="translate(502.760104, 110.47442)"><g><path d="M 1.53125 1.59375 C 2.648438 -0.636719 3.285156 -3.03125 3.285156 -5.585938 C 3.285156 -8.136719 2.648438 -10.53125 1.53125 -12.765625 L 0.480469 -12.765625 C 1.59375 -10.53125 2.234375 -8.136719 2.234375 -5.585938 C 2.234375 -3.03125 1.59375 -0.636719 0.480469 1.59375 Z M 1.53125 1.59375 "/></g></g></g><g clip-path="url(#d2e50b2918)"><g clip-path="url(#9d74205250)"><g transform="matrix(1, 0, 0, 1, 148, 9)"><g clip-path="url(#cb2992622e)"><g clip-path="url(#0542c74c35)"><g clip-path="url(#15551ae811)"><path fill="#e9f7ff" d="M 0.398438 0.988281 L 87.574219 0.988281 L 87.574219 169.894531 L 0.398438 169.894531 Z M 0.398438 0.988281 " fill-opacity="1" fill-rule="nonzero"/></g></g></g></g></g></g><g clip-path="url(#ed9ce91084)"><g clip-path="url(#a3c7c5733d)"><path stroke-linecap="butt" transform="matrix(0.748037, 0, 0, 0.748037, 148.396846, 9.991977)" fill="none" stroke-linejoin="miter" d="M 16.999751 0.000280788 L 99.533522 0.000280788 C 108.922685 0.000280788 116.531145 7.60874 116.531145 16.997903 L 116.531145 208.83866 C 116.531145 218.227823 108.922685 225.836282 99.533522 225.836282 L 16.999751 225.836282 C 7.610588 225.836282 0.00212821 218.227823 0.00212821 208.83866 L 0.00212821 16.997903 C 0.00212821 7.60874 7.610588 0.000280788 16.999751 0.000280788 Z M 16.999751 0.000280788 " stroke="#89898d" stroke-width="4" stroke-opacity="1" stroke-miterlimit="4"/></g></g><g fill="#000000" fill-opacity="1"><g transform="translate(166.525045, 88.533573)"><g><path d="M 4.785156 0.191406 C 7.019531 0.191406 8.550781 -1.019531 8.550781 -2.9375 C 8.550781 -5.011719 6.734375 -5.585938 4.707031 -6.253906 C 3.191406 -6.75 2.234375 -7.132812 2.234375 -8.34375 C 2.234375 -9.574219 3.207031 -10.277344 4.546875 -10.277344 C 6.015625 -10.277344 6.875 -9.429688 7.292969 -8.425781 L 8.234375 -8.949219 C 7.660156 -10.277344 6.382812 -11.359375 4.546875 -11.359375 C 2.695312 -11.359375 1.117188 -10.257812 1.117188 -8.296875 C 1.117188 -6.238281 2.871094 -5.761719 4.691406 -5.152344 C 6.335938 -4.609375 7.433594 -4.195312 7.433594 -2.902344 C 7.433594 -1.707031 6.492188 -0.894531 4.800781 -0.894531 C 3.046875 -0.894531 1.996094 -1.753906 1.59375 -3.09375 L 0.636719 -2.535156 C 1.210938 -0.84375 2.726562 0.191406 4.785156 0.191406 Z M 4.785156 0.191406 "/></g></g></g><g fill="#000000" fill-opacity="1"><g transform="translate(175.714711, 88.533573)"><g><path d="M 4.835938 0.191406 C 7.164062 0.191406 9.03125 -1.628906 9.03125 -3.988281 C 9.03125 -6.351562 7.164062 -8.167969 4.835938 -8.167969 C 2.503906 -8.167969 0.636719 -6.351562 0.636719 -3.988281 C 0.636719 -1.628906 2.503906 0.191406 4.835938 0.191406 Z M 4.835938 -0.828125 C 3.0625 -0.828125 1.691406 -2.21875 1.691406 -3.988281 C 1.691406 -5.761719 3.0625 -7.148438 4.835938 -7.148438 C 6.605469 -7.148438 7.976562 -5.761719 7.976562 -3.988281 C 7.976562 -2.21875 6.605469 -0.828125 4.835938 -0.828125 Z M 4.835938 -0.828125 "/></g></g></g><g fill="#000000" fill-opacity="1"><g transform="translate(185.383007, 88.533573)"><g><path d="M 6.734375 -7.976562 L 6.734375 -3.796875 C 6.734375 -1.660156 5.550781 -0.828125 4.148438 -0.828125 C 2.761719 -0.828125 1.976562 -1.660156 1.976562 -3.078125 L 1.976562 -7.976562 L 0.925781 -7.976562 L 0.925781 -3.078125 C 0.925781 -1.085938 2.105469 0.191406 4.050781 0.191406 C 5.1875 0.191406 6.109375 -0.238281 6.734375 -1.246094 L 6.734375 0 L 7.785156 0 L 7.785156 -7.976562 Z M 6.734375 -7.976562 "/></g></g></g><g fill="#000000" fill-opacity="1"><g transform="translate(194.285494, 88.533573)"><g><path d="M 2.171875 -6.652344 L 2.171875 -7.976562 L 1.117188 -7.976562 L 1.117188 0 L 2.171875 0 L 2.171875 -4.4375 C 2.171875 -6.414062 3.414062 -7.085938 4.691406 -7.085938 L 4.691406 -8.105469 C 3.667969 -8.105469 2.726562 -7.769531 2.171875 -6.652344 Z M 2.171875 -6.652344 "/></g></g></g><g fill="#000000" fill-opacity="1"><g transform="translate(199.295134, 88.533573)"><g><path d="M 4.835938 0.191406 C 6.398438 0.191406 7.753906 -0.621094 8.410156 -1.882812 L 7.53125 -2.394531 C 7.019531 -1.46875 6.046875 -0.828125 4.835938 -0.828125 C 3.0625 -0.828125 1.691406 -2.21875 1.691406 -3.988281 C 1.691406 -5.761719 3.0625 -7.148438 4.835938 -7.148438 C 6.03125 -7.148438 7.035156 -6.527344 7.46875 -5.585938 L 8.328125 -6.078125 C 7.753906 -7.339844 6.414062 -8.167969 4.835938 -8.167969 C 2.425781 -8.167969 0.636719 -6.351562 0.636719 -3.988281 C 0.636719 -1.628906 2.425781 0.191406 4.835938 0.191406 Z M 4.835938 0.191406 "/></g></g></g><g fill="#000000" fill-opacity="1"><g transform="translate(208.101902, 88.533573)"><g><path d="M 4.800781 -8.167969 C 2.328125 -8.167969 0.636719 -6.335938 0.636719 -3.988281 C 0.636719 -1.578125 2.363281 0.191406 4.882812 0.191406 C 6.492188 0.191406 7.722656 -0.558594 8.394531 -1.644531 L 7.46875 -2.1875 C 7.035156 -1.421875 6.160156 -0.828125 4.898438 -0.828125 C 3.207031 -0.828125 1.945312 -1.835938 1.722656 -3.460938 L 8.726562 -3.460938 C 8.742188 -3.621094 8.757812 -3.796875 8.757812 -3.957031 C 8.757812 -6.144531 7.242188 -8.167969 4.800781 -8.167969 Z M 4.800781 -7.148438 C 6.175781 -7.148438 7.453125 -6.238281 7.675781 -4.484375 L 1.722656 -4.484375 C 1.929688 -6.046875 3.128906 -7.148438 4.800781 -7.148438 Z M 4.800781 -7.148438 "/></g></g></g><g fill="#000000" fill-opacity="1"><g transform="translate(165.274421, 110.226634)"><g><path d="M 4.785156 0.191406 C 7.019531 0.191406 8.550781 -1.019531 8.550781 -2.9375 C 8.550781 -5.011719 6.734375 -5.585938 4.707031 -6.253906 C 3.191406 -6.75 2.234375 -7.132812 2.234375 -8.34375 C 2.234375 -9.574219 3.207031 -10.277344 4.546875 -10.277344 C 6.015625 -10.277344 6.875 -9.429688 7.292969 -8.425781 L 8.234375 -8.949219 C 7.660156 -10.277344 6.382812 -11.359375 4.546875 -11.359375 C 2.695312 -11.359375 1.117188 -10.257812 1.117188 -8.296875 C 1.117188 -6.238281 2.871094 -5.761719 4.691406 -5.152344 C 6.335938 -4.609375 7.433594 -4.195312 7.433594 -2.902344 C 7.433594 -1.707031 6.492188 -0.894531 4.800781 -0.894531 C 3.046875 -0.894531 1.996094 -1.753906 1.59375 -3.09375 L 0.636719 -2.535156 C 1.210938 -0.84375 2.726562 0.191406 4.785156 0.191406 Z M 4.785156 0.191406 "/></g></g></g><g fill="#000000" fill-opacity="1"><g transform="translate(174.464088, 110.226634)"><g><path d="M 6.859375 -7.976562 L 4.277344 -1.292969 L 1.277344 -7.976562 L 0.160156 -7.976562 L 3.734375 0.046875 L 3.527344 0.542969 C 3.09375 1.578125 2.378906 2.3125 1.339844 2.203125 L 1.339844 3.191406 C 2.777344 3.304688 3.957031 2.265625 4.5625 0.734375 L 7.976562 -7.976562 Z M 6.859375 -7.976562 "/></g></g></g><g fill="#000000" fill-opacity="1"><g transform="translate(182.600766, 110.226634)"><g><path d="M 1.945312 -5.886719 C 1.945312 -6.75 2.792969 -7.148438 3.621094 -7.148438 C 4.386719 -7.148438 5.203125 -6.84375 5.535156 -6.03125 L 6.414062 -6.542969 C 5.953125 -7.53125 4.929688 -8.167969 3.621094 -8.167969 C 2.027344 -8.167969 0.894531 -7.164062 0.894531 -5.886719 C 0.894531 -2.953125 5.550781 -4.085938 5.550781 -2.105469 C 5.550781 -1.164062 4.660156 -0.828125 3.71875 -0.828125 C 2.648438 -0.828125 1.820312 -1.355469 1.53125 -2.171875 L 0.636719 -1.644531 C 1.039062 -0.621094 2.121094 0.191406 3.71875 0.191406 C 5.425781 0.191406 6.605469 -0.75 6.605469 -2.105469 C 6.605469 -5.042969 1.945312 -3.910156 1.945312 -5.886719 Z M 1.945312 -5.886719 "/></g></g></g><g fill="#000000" fill-opacity="1"><g transform="translate(189.844015, 110.226634)"><g><path d="M 5.34375 -6.957031 L 5.34375 -7.976562 L 3.046875 -7.976562 L 3.046875 -10.210938 L 1.996094 -9.890625 L 1.996094 -7.976562 L 0.320312 -7.976562 L 0.320312 -6.957031 L 1.996094 -6.957031 L 1.996094 -2.121094 C 1.996094 -0.207031 3.191406 0.320312 5.34375 0 L 5.34375 -0.925781 C 3.796875 -0.863281 3.046875 -0.75 3.046875 -2.121094 L 3.046875 -6.957031 Z M 5.34375 -6.957031 "/></g></g></g><g fill="#000000" fill-opacity="1"><g transform="translate(195.82687, 110.226634)"><g><path d="M 4.800781 -8.167969 C 2.328125 -8.167969 0.636719 -6.335938 0.636719 -3.988281 C 0.636719 -1.578125 2.363281 0.191406 4.882812 0.191406 C 6.492188 0.191406 7.722656 -0.558594 8.394531 -1.644531 L 7.46875 -2.1875 C 7.035156 -1.421875 6.160156 -0.828125 4.898438 -0.828125 C 3.207031 -0.828125 1.945312 -1.835938 1.722656 -3.460938 L 8.726562 -3.460938 C 8.742188 -3.621094 8.757812 -3.796875 8.757812 -3.957031 C 8.757812 -6.144531 7.242188 -8.167969 4.800781 -8.167969 Z M 4.800781 -7.148438 C 6.175781 -7.148438 7.453125 -6.238281 7.675781 -4.484375 L 1.722656 -4.484375 C 1.929688 -6.046875 3.128906 -7.148438 4.800781 -7.148438 Z M 4.800781 -7.148438 "/></g></g></g><g fill="#000000" fill-opacity="1"><g transform="translate(205.144169, 110.226634)"><g><path d="M 9.621094 -8.167969 C 8.601562 -8.167969 7.625 -7.707031 7.035156 -6.71875 C 6.589844 -7.644531 5.726562 -8.167969 4.609375 -8.167969 C 3.652344 -8.167969 2.792969 -7.785156 2.171875 -6.8125 L 2.171875 -7.976562 L 1.117188 -7.976562 L 1.117188 0 L 2.171875 0 L 2.171875 -4.417969 C 2.171875 -6.398438 3.320312 -7.148438 4.46875 -7.148438 C 5.601562 -7.148438 6.335938 -6.398438 6.335938 -4.976562 L 6.335938 0 L 7.386719 0 L 7.386719 -4.417969 C 7.386719 -6.398438 8.375 -7.148438 9.605469 -7.148438 C 10.738281 -7.148438 11.550781 -6.398438 11.550781 -4.976562 L 11.550781 0 L 12.605469 0 L 12.605469 -4.976562 C 12.605469 -6.972656 11.375 -8.167969 9.621094 -8.167969 Z M 9.621094 -8.167969 "/></g></g></g><g clip-path="url(#1d1a616752)"><g clip-path="url(#ddfbc7529a)"><g transform="matrix(1, 0, 0, 1, 788, 9)"><g clip-path="url(#ce94749ecb)"><g clip-path="url(#df9c5ecd84)"><g clip-path="url(#794bfb0d19)"><path fill="#e9f7ff" d="M 0.425781 0.988281 L 87.605469 0.988281 L 87.605469 169.894531 L 0.425781 169.894531 Z M 0.425781 0.988281 " fill-opacity="1" fill-rule="nonzero"/></g></g></g></g></g></g><g clip-path="url(#f42a30bdf1)"><g clip-path="url(#d84a4cb5fa)"><path stroke-linecap="butt" transform="matrix(0.748037, 0, 0, 0.748037, 788.427156, 9.991977)" fill="none" stroke-linejoin="miter" d="M 17.001006 0.000280788 L 99.534777 0.000280788 C 108.918718 0.000280788 116.5324 7.60874 116.5324 16.997903 L 116.5324 208.83866 C 116.5324 218.227823 108.918718 225.836282 99.534777 225.836282 L 17.001006 225.836282 C 7.611843 225.836282 -0.00183834 218.227823 -0.00183834 208.83866 L -0.00183834 16.997903 C -0.00183834 7.60874 7.611843 0.000280788 17.001006 0.000280788 Z M 17.001006 0.000280788 " stroke="#89898d" stroke-width="4" stroke-opacity="1" stroke-miterlimit="4"/></g></g><g fill="#000000" fill-opacity="1"><g transform="translate(807.396897, 88.533573)"><g><path d="M 8.296875 -11.167969 L 0.320312 -11.167969 L 0.320312 -10.117188 L 3.75 -10.117188 L 3.75 0 L 4.867188 0 L 4.867188 -10.117188 L 8.296875 -10.117188 Z M 8.296875 -11.167969 "/></g></g></g><g fill="#000000" fill-opacity="1"><g transform="translate(816.012204, 88.533573)"><g><path d="M 7.976562 -7.976562 L 7.976562 -6.414062 C 7.308594 -7.484375 6.175781 -8.167969 4.753906 -8.167969 C 2.503906 -8.167969 0.636719 -6.351562 0.636719 -3.988281 C 0.636719 -1.628906 2.503906 0.191406 4.753906 0.191406 C 6.175781 0.191406 7.308594 -0.496094 7.976562 -1.5625 L 7.976562 0 L 9.03125 0 L 9.03125 -7.976562 Z M 4.835938 -0.828125 C 3.0625 -0.828125 1.691406 -2.21875 1.691406 -3.988281 C 1.691406 -5.761719 3.0625 -7.148438 4.835938 -7.148438 C 6.605469 -7.148438 7.976562 -5.761719 7.976562 -3.988281 C 7.976562 -2.21875 6.605469 -0.828125 4.835938 -0.828125 Z M 4.835938 -0.828125 "/></g></g></g><g fill="#000000" fill-opacity="1"><g transform="translate(826.159129, 88.533573)"><g><path d="M 2.171875 -6.652344 L 2.171875 -7.976562 L 1.117188 -7.976562 L 1.117188 0 L 2.171875 0 L 2.171875 -4.4375 C 2.171875 -6.414062 3.414062 -7.085938 4.691406 -7.085938 L 4.691406 -8.105469 C 3.667969 -8.105469 2.726562 -7.769531 2.171875 -6.652344 Z M 2.171875 -6.652344 "/></g></g></g><g fill="#000000" fill-opacity="1"><g transform="translate(831.168769, 88.533573)"><g><path d="M 7.976562 -7.976562 L 7.976562 -6.414062 C 7.308594 -7.484375 6.175781 -8.167969 4.753906 -8.167969 C 2.503906 -8.167969 0.636719 -6.351562 0.636719 -3.988281 C 0.636719 -1.628906 2.503906 0.191406 4.753906 0.191406 C 6.175781 0.191406 7.308594 -0.496094 7.976562 -1.5625 L 7.976562 -0.320312 C 7.976562 1.308594 6.875 2.363281 5.027344 2.363281 C 3.304688 2.363281 2.570312 1.722656 2.171875 0.910156 L 1.246094 1.4375 C 1.867188 2.679688 3.191406 3.382812 5.027344 3.382812 C 7.085938 3.382812 9.03125 2.105469 9.03125 -0.320312 L 9.03125 -7.976562 Z M 4.835938 -0.828125 C 3.0625 -0.828125 1.691406 -2.21875 1.691406 -3.988281 C 1.691406 -5.761719 3.0625 -7.148438 4.835938 -7.148438 C 6.605469 -7.148438 7.976562 -5.761719 7.976562 -3.988281 C 7.976562 -2.21875 6.605469 -0.828125 4.835938 -0.828125 Z M 4.835938 -0.828125 "/></g></g></g><g fill="#000000" fill-opacity="1"><g transform="translate(841.315693, 88.533573)"><g><path d="M 4.800781 -8.167969 C 2.328125 -8.167969 0.636719 -6.335938 0.636719 -3.988281 C 0.636719 -1.578125 2.363281 0.191406 4.882812 0.191406 C 6.492188 0.191406 7.722656 -0.558594 8.394531 -1.644531 L 7.46875 -2.1875 C 7.035156 -1.421875 6.160156 -0.828125 4.898438 -0.828125 C 3.207031 -0.828125 1.945312 -1.835938 1.722656 -3.460938 L 8.726562 -3.460938 C 8.742188 -3.621094 8.757812 -3.796875 8.757812 -3.957031 C 8.757812 -6.144531 7.242188 -8.167969 4.800781 -8.167969 Z M 4.800781 -7.148438 C 6.175781 -7.148438 7.453125 -6.238281 7.675781 -4.484375 L 1.722656 -4.484375 C 1.929688 -6.046875 3.128906 -7.148438 4.800781 -7.148438 Z M 4.800781 -7.148438 "/></g></g></g><g fill="#000000" fill-opacity="1"><g transform="translate(850.632992, 88.533573)"><g><path d="M 5.34375 -6.957031 L 5.34375 -7.976562 L 3.046875 -7.976562 L 3.046875 -10.210938 L 1.996094 -9.890625 L 1.996094 -7.976562 L 0.320312 -7.976562 L 0.320312 -6.957031 L 1.996094 -6.957031 L 1.996094 -2.121094 C 1.996094 -0.207031 3.191406 0.320312 5.34375 0 L 5.34375 -0.925781 C 3.796875 -0.863281 3.046875 -0.75 3.046875 -2.121094 L 3.046875 -6.957031 Z M 5.34375 -6.957031 "/></g></g></g><g fill="#000000" fill-opacity="1"><g transform="translate(805.304732, 110.226634)"><g><path d="M 4.785156 0.191406 C 7.019531 0.191406 8.550781 -1.019531 8.550781 -2.9375 C 8.550781 -5.011719 6.734375 -5.585938 4.707031 -6.253906 C 3.191406 -6.75 2.234375 -7.132812 2.234375 -8.34375 C 2.234375 -9.574219 3.207031 -10.277344 4.546875 -10.277344 C 6.015625 -10.277344 6.875 -9.429688 7.292969 -8.425781 L 8.234375 -8.949219 C 7.660156 -10.277344 6.382812 -11.359375 4.546875 -11.359375 C 2.695312 -11.359375 1.117188 -10.257812 1.117188 -8.296875 C 1.117188 -6.238281 2.871094 -5.761719 4.691406 -5.152344 C 6.335938 -4.609375 7.433594 -4.195312 7.433594 -2.902344 C 7.433594 -1.707031 6.492188 -0.894531 4.800781 -0.894531 C 3.046875 -0.894531 1.996094 -1.753906 1.59375 -3.09375 L 0.636719 -2.535156 C 1.210938 -0.84375 2.726562 0.191406 4.785156 0.191406 Z M 4.785156 0.191406 "/></g></g></g><g fill="#000000" fill-opacity="1"><g transform="translate(814.494399, 110.226634)"><g><path d="M 6.859375 -7.976562 L 4.277344 -1.292969 L 1.277344 -7.976562 L 0.160156 -7.976562 L 3.734375 0.046875 L 3.527344 0.542969 C 3.09375 1.578125 2.378906 2.3125 1.339844 2.203125 L 1.339844 3.191406 C 2.777344 3.304688 3.957031 2.265625 4.5625 0.734375 L 7.976562 -7.976562 Z M 6.859375 -7.976562 "/></g></g></g><g fill="#000000" fill-opacity="1"><g transform="translate(822.631077, 110.226634)"><g><path d="M 1.945312 -5.886719 C 1.945312 -6.75 2.792969 -7.148438 3.621094 -7.148438 C 4.386719 -7.148438 5.203125 -6.84375 5.535156 -6.03125 L 6.414062 -6.542969 C 5.953125 -7.53125 4.929688 -8.167969 3.621094 -8.167969 C 2.027344 -8.167969 0.894531 -7.164062 0.894531 -5.886719 C 0.894531 -2.953125 5.550781 -4.085938 5.550781 -2.105469 C 5.550781 -1.164062 4.660156 -0.828125 3.71875 -0.828125 C 2.648438 -0.828125 1.820312 -1.355469 1.53125 -2.171875 L 0.636719 -1.644531 C 1.039062 -0.621094 2.121094 0.191406 3.71875 0.191406 C 5.425781 0.191406 6.605469 -0.75 6.605469 -2.105469 C 6.605469 -5.042969 1.945312 -3.910156 1.945312 -5.886719 Z M 1.945312 -5.886719 "/></g></g></g><g fill="#000000" fill-opacity="1"><g transform="translate(829.874326, 110.226634)"><g><path d="M 5.34375 -6.957031 L 5.34375 -7.976562 L 3.046875 -7.976562 L 3.046875 -10.210938 L 1.996094 -9.890625 L 1.996094 -7.976562 L 0.320312 -7.976562 L 0.320312 -6.957031 L 1.996094 -6.957031 L 1.996094 -2.121094 C 1.996094 -0.207031 3.191406 0.320312 5.34375 0 L 5.34375 -0.925781 C 3.796875 -0.863281 3.046875 -0.75 3.046875 -2.121094 L 3.046875 -6.957031 Z M 5.34375 -6.957031 "/></g></g></g><g fill="#000000" fill-opacity="1"><g transform="translate(835.857181, 110.226634)"><g><path d="M 4.800781 -8.167969 C 2.328125 -8.167969 0.636719 -6.335938 0.636719 -3.988281 C 0.636719 -1.578125 2.363281 0.191406 4.882812 0.191406 C 6.492188 0.191406 7.722656 -0.558594 8.394531 -1.644531 L 7.46875 -2.1875 C 7.035156 -1.421875 6.160156 -0.828125 4.898438 -0.828125 C 3.207031 -0.828125 1.945312 -1.835938 1.722656 -3.460938 L 8.726562 -3.460938 C 8.742188 -3.621094 8.757812 -3.796875 8.757812 -3.957031 C 8.757812 -6.144531 7.242188 -8.167969 4.800781 -8.167969 Z M 4.800781 -7.148438 C 6.175781 -7.148438 7.453125 -6.238281 7.675781 -4.484375 L 1.722656 -4.484375 C 1.929688 -6.046875 3.128906 -7.148438 4.800781 -7.148438 Z M 4.800781 -7.148438 "/></g></g></g><g fill="#000000" fill-opacity="1"><g transform="translate(845.17448, 110.226634)"><g><path d="M 9.621094 -8.167969 C 8.601562 -8.167969 7.625 -7.707031 7.035156 -6.71875 C 6.589844 -7.644531 5.726562 -8.167969 4.609375 -8.167969 C 3.652344 -8.167969 2.792969 -7.785156 2.171875 -6.8125 L 2.171875 -7.976562 L 1.117188 -7.976562 L 1.117188 0 L 2.171875 0 L 2.171875 -4.417969 C 2.171875 -6.398438 3.320312 -7.148438 4.46875 -7.148438 C 5.601562 -7.148438 6.335938 -6.398438 6.335938 -4.976562 L 6.335938 0 L 7.386719 0 L 7.386719 -4.417969 C 7.386719 -6.398438 8.375 -7.148438 9.605469 -7.148438 C 10.738281 -7.148438 11.550781 -6.398438 11.550781 -4.976562 L 11.550781 0 L 12.605469 0 L 12.605469 -4.976562 C 12.605469 -6.972656 11.375 -8.167969 9.621094 -8.167969 Z M 9.621094 -8.167969 "/></g></g></g><path stroke-linecap="butt" transform="matrix(0.748037, 0, 0, 0.748037, 553.806184, 93.716464)" fill="none" stroke-linejoin="miter" d="M -0.00200099 1.000459 L 62.040627 1.000459 " stroke="#000000" stroke-width="2" stroke-opacity="1" stroke-miterlimit="4"/><path stroke-linecap="round" transform="matrix(0.748037, 0, 0, 0.748037, 553.806184, 93.716464)" fill-opacity="1" fill="#000000" fill-rule="nonzero" stroke-linejoin="round" d="M 62.536717 -2.002193 L 66.536772 1.000459 L 62.536717 3.997889 Z M 62.536717 -2.002193 " stroke="#000000" stroke-width="2" stroke-opacity="1" stroke-miterlimit="4"/><g clip-path="url(#088e36bda6)"><g clip-path="url(#9348609fdb)"><g transform="matrix(1, 0, 0, 1, 604, 52)"><g clip-path="url(#6d0bbf68e6)"><g clip-path="url(#22cee0744a)"><g clip-path="url(#a72861fd44)"><path fill="#ffffff" d="M 0.328125 0.253906 L 121.351562 0.253906 L 121.351562 84.675781 L 0.328125 84.675781 Z M 0.328125 0.253906 " fill-opacity="1" fill-rule="nonzero"/></g></g></g></g></g></g><g clip-path="url(#d2aed6b000)"><g clip-path="url(#fa391a6801)"><path stroke-linecap="butt" transform="matrix(0.748037, 0, 0, 0.748037, 604.333363, 52.254414)" fill="none" stroke-linejoin="miter" d="M 6.54139 -0.000678186 L 94.798477 -0.000678186 C 131.483055 -0.000678186 161.843785 25.263377 161.843785 56.423074 C 161.843785 87.582771 131.483055 112.841604 94.798477 112.841604 L 6.54139 112.841604 C 4.807685 112.841604 3.141865 112.152299 1.914695 110.925128 C 0.687524 109.703179 -0.00178089 108.03736 -0.00178089 106.303655 L -0.00178089 6.542493 C -0.00178089 4.808787 0.687524 3.142968 1.914695 1.915797 C 3.141865 0.688626 4.807685 -0.000678186 6.54139 -0.000678186 Z M 6.54139 -0.000678186 " stroke="#000000" stroke-width="4" stroke-opacity="1" stroke-miterlimit="4"/></g></g><g fill="#000000" fill-opacity="1"><g transform="translate(618.961228, 88.16017)"><g><path d="M 8.296875 -11.167969 L 0.320312 -11.167969 L 0.320312 -10.117188 L 3.75 -10.117188 L 3.75 0 L 4.867188 0 L 4.867188 -10.117188 L 8.296875 -10.117188 Z M 8.296875 -11.167969 "/></g></g></g><g fill="#000000" fill-opacity="1"><g transform="translate(627.576535, 88.16017)"><g><path d="M 7.976562 -7.976562 L 7.976562 -6.414062 C 7.308594 -7.484375 6.175781 -8.167969 4.753906 -8.167969 C 2.503906 -8.167969 0.636719 -6.351562 0.636719 -3.988281 C 0.636719 -1.628906 2.503906 0.191406 4.753906 0.191406 C 6.175781 0.191406 7.308594 -0.496094 7.976562 -1.5625 L 7.976562 0 L 9.03125 0 L 9.03125 -7.976562 Z M 4.835938 -0.828125 C 3.0625 -0.828125 1.691406 -2.21875 1.691406 -3.988281 C 1.691406 -5.761719 3.0625 -7.148438 4.835938 -7.148438 C 6.605469 -7.148438 7.976562 -5.761719 7.976562 -3.988281 C 7.976562 -2.21875 6.605469 -0.828125 4.835938 -0.828125 Z M 4.835938 -0.828125 "/></g></g></g><g fill="#000000" fill-opacity="1"><g transform="translate(637.72346, 88.16017)"><g><path d="M 2.171875 -6.652344 L 2.171875 -7.976562 L 1.117188 -7.976562 L 1.117188 0 L 2.171875 0 L 2.171875 -4.4375 C 2.171875 -6.414062 3.414062 -7.085938 4.691406 -7.085938 L 4.691406 -8.105469 C 3.667969 -8.105469 2.726562 -7.769531 2.171875 -6.652344 Z M 2.171875 -6.652344 "/></g></g></g><g fill="#000000" fill-opacity="1"><g transform="translate(642.7331, 88.16017)"><g><path d="M 7.976562 -7.976562 L 7.976562 -6.414062 C 7.308594 -7.484375 6.175781 -8.167969 4.753906 -8.167969 C 2.503906 -8.167969 0.636719 -6.351562 0.636719 -3.988281 C 0.636719 -1.628906 2.503906 0.191406 4.753906 0.191406 C 6.175781 0.191406 7.308594 -0.496094 7.976562 -1.5625 L 7.976562 -0.320312 C 7.976562 1.308594 6.875 2.363281 5.027344 2.363281 C 3.304688 2.363281 2.570312 1.722656 2.171875 0.910156 L 1.246094 1.4375 C 1.867188 2.679688 3.191406 3.382812 5.027344 3.382812 C 7.085938 3.382812 9.03125 2.105469 9.03125 -0.320312 L 9.03125 -7.976562 Z M 4.835938 -0.828125 C 3.0625 -0.828125 1.691406 -2.21875 1.691406 -3.988281 C 1.691406 -5.761719 3.0625 -7.148438 4.835938 -7.148438 C 6.605469 -7.148438 7.976562 -5.761719 7.976562 -3.988281 C 7.976562 -2.21875 6.605469 -0.828125 4.835938 -0.828125 Z M 4.835938 -0.828125 "/></g></g></g><g fill="#000000" fill-opacity="1"><g transform="translate(652.880024, 88.16017)"><g><path d="M 4.800781 -8.167969 C 2.328125 -8.167969 0.636719 -6.335938 0.636719 -3.988281 C 0.636719 -1.578125 2.363281 0.191406 4.882812 0.191406 C 6.492188 0.191406 7.722656 -0.558594 8.394531 -1.644531 L 7.46875 -2.1875 C 7.035156 -1.421875 6.160156 -0.828125 4.898438 -0.828125 C 3.207031 -0.828125 1.945312 -1.835938 1.722656 -3.460938 L 8.726562 -3.460938 C 8.742188 -3.621094 8.757812 -3.796875 8.757812 -3.957031 C 8.757812 -6.144531 7.242188 -8.167969 4.800781 -8.167969 Z M 4.800781 -7.148438 C 6.175781 -7.148438 7.453125 -6.238281 7.675781 -4.484375 L 1.722656 -4.484375 C 1.929688 -6.046875 3.128906 -7.148438 4.800781 -7.148438 Z M 4.800781 -7.148438 "/></g></g></g><g fill="#000000" fill-opacity="1"><g transform="translate(662.197323, 88.16017)"><g><path d="M 5.34375 -6.957031 L 5.34375 -7.976562 L 3.046875 -7.976562 L 3.046875 -10.210938 L 1.996094 -9.890625 L 1.996094 -7.976562 L 0.320312 -7.976562 L 0.320312 -6.957031 L 1.996094 -6.957031 L 1.996094 -2.121094 C 1.996094 -0.207031 3.191406 0.320312 5.34375 0 L 5.34375 -0.925781 C 3.796875 -0.863281 3.046875 -0.75 3.046875 -2.121094 L 3.046875 -6.957031 Z M 5.34375 -6.957031 "/></g></g></g><g fill="#000000" fill-opacity="1"><g transform="translate(623.262438, 109.853231)"><g><path d="M 4.785156 0.191406 C 7.019531 0.191406 8.550781 -1.019531 8.550781 -2.9375 C 8.550781 -5.011719 6.734375 -5.585938 4.707031 -6.253906 C 3.191406 -6.75 2.234375 -7.132812 2.234375 -8.34375 C 2.234375 -9.574219 3.207031 -10.277344 4.546875 -10.277344 C 6.015625 -10.277344 6.875 -9.429688 7.292969 -8.425781 L 8.234375 -8.949219 C 7.660156 -10.277344 6.382812 -11.359375 4.546875 -11.359375 C 2.695312 -11.359375 1.117188 -10.257812 1.117188 -8.296875 C 1.117188 -6.238281 2.871094 -5.761719 4.691406 -5.152344 C 6.335938 -4.609375 7.433594 -4.195312 7.433594 -2.902344 C 7.433594 -1.707031 6.492188 -0.894531 4.800781 -0.894531 C 3.046875 -0.894531 1.996094 -1.753906 1.59375 -3.09375 L 0.636719 -2.535156 C 1.210938 -0.84375 2.726562 0.191406 4.785156 0.191406 Z M 4.785156 0.191406 "/></g></g></g><g fill="#000000" fill-opacity="1"><g transform="translate(632.452105, 109.853231)"><g><path d="M 5.34375 -6.957031 L 5.34375 -7.976562 L 3.046875 -7.976562 L 3.046875 -10.210938 L 1.996094 -9.890625 L 1.996094 -7.976562 L 0.320312 -7.976562 L 0.320312 -6.957031 L 1.996094 -6.957031 L 1.996094 -2.121094 C 1.996094 -0.207031 3.191406 0.320312 5.34375 0 L 5.34375 -0.925781 C 3.796875 -0.863281 3.046875 -0.75 3.046875 -2.121094 L 3.046875 -6.957031 Z M 5.34375 -6.957031 "/></g></g></g><g fill="#000000" fill-opacity="1"><g transform="translate(638.43496, 109.853231)"><g><path d="M 7.976562 -7.976562 L 7.976562 -6.414062 C 7.308594 -7.484375 6.175781 -8.167969 4.753906 -8.167969 C 2.503906 -8.167969 0.636719 -6.351562 0.636719 -3.988281 C 0.636719 -1.628906 2.503906 0.191406 4.753906 0.191406 C 6.175781 0.191406 7.308594 -0.496094 7.976562 -1.5625 L 7.976562 0 L 9.03125 0 L 9.03125 -7.976562 Z M 4.835938 -0.828125 C 3.0625 -0.828125 1.691406 -2.21875 1.691406 -3.988281 C 1.691406 -5.761719 3.0625 -7.148438 4.835938 -7.148438 C 6.605469 -7.148438 7.976562 -5.761719 7.976562 -3.988281 C 7.976562 -2.21875 6.605469 -0.828125 4.835938 -0.828125 Z M 4.835938 -0.828125 "/></g></g></g><g fill="#000000" fill-opacity="1"><g transform="translate(648.581884, 109.853231)"><g><path d="M 5.34375 -6.957031 L 5.34375 -7.976562 L 3.046875 -7.976562 L 3.046875 -10.210938 L 1.996094 -9.890625 L 1.996094 -7.976562 L 0.320312 -7.976562 L 0.320312 -6.957031 L 1.996094 -6.957031 L 1.996094 -2.121094 C 1.996094 -0.207031 3.191406 0.320312 5.34375 0 L 5.34375 -0.925781 C 3.796875 -0.863281 3.046875 -0.75 3.046875 -2.121094 L 3.046875 -6.957031 Z M 5.34375 -6.957031 "/></g></g></g><g fill="#000000" fill-opacity="1"><g transform="translate(654.564738, 109.853231)"><g><path d="M 4.800781 -8.167969 C 2.328125 -8.167969 0.636719 -6.335938 0.636719 -3.988281 C 0.636719 -1.578125 2.363281 0.191406 4.882812 0.191406 C 6.492188 0.191406 7.722656 -0.558594 8.394531 -1.644531 L 7.46875 -2.1875 C 7.035156 -1.421875 6.160156 -0.828125 4.898438 -0.828125 C 3.207031 -0.828125 1.945312 -1.835938 1.722656 -3.460938 L 8.726562 -3.460938 C 8.742188 -3.621094 8.757812 -3.796875 8.757812 -3.957031 C 8.757812 -6.144531 7.242188 -8.167969 4.800781 -8.167969 Z M 4.800781 -7.148438 C 6.175781 -7.148438 7.453125 -6.238281 7.675781 -4.484375 L 1.722656 -4.484375 C 1.929688 -6.046875 3.128906 -7.148438 4.800781 -7.148438 Z M 4.800781 -7.148438 "/></g></g></g><path fill="#89898d" d="M 725.40625 93.714844 L 726.902344 93.714844 L 726.902344 95.210938 L 725.40625 95.210938 M 728.398438 93.714844 L 729.894531 93.714844 L 729.894531 95.210938 L 728.398438 95.210938 M 731.390625 93.714844 L 732.886719 93.714844 L 732.886719 95.210938 L 731.390625 95.210938 M 734.382812 93.714844 L 735.878906 93.714844 L 735.878906 95.210938 L 734.382812 95.210938 M 737.375 93.714844 L 738.871094 93.714844 L 738.871094 95.210938 L 737.375 95.210938 M 740.367188 93.714844 L 741.863281 93.714844 L 741.863281 95.210938 L 740.367188 95.210938 M 743.359375 93.714844 L 744.855469 93.714844 L 744.855469 95.210938 L 743.359375 95.210938 M 746.351562 93.714844 L 747.847656 93.714844 L 747.847656 95.210938 L 746.351562 95.210938 M 749.34375 93.714844 L 750.839844 93.714844 L 750.839844 95.210938 L 749.34375 95.210938 M 752.335938 93.714844 L 753.832031 93.714844 L 753.832031 95.210938 L 752.335938 95.210938 M 755.328125 93.714844 L 756.824219 93.714844 L 756.824219 95.210938 L 755.328125 95.210938 M 758.320312 93.714844 L 759.816406 93.714844 L 759.816406 95.210938 L 758.320312 95.210938 M 761.3125 93.714844 L 762.808594 93.714844 L 762.808594 95.210938 L 761.3125 95.210938 M 764.304688 93.714844 L 765.800781 93.714844 L 765.800781 95.210938 L 764.304688 95.210938 M 767.296875 93.714844 L 768.792969 93.714844 L 768.792969 95.210938 L 767.296875 95.210938 M 770.289062 93.714844 L 771.785156 93.714844 L 771.785156 95.210938 L 770.289062 95.210938 M 773.28125 93.714844 L 774.777344 93.714844 L 774.777344 95.210938 L 773.28125 95.210938 M 776.273438 93.714844 L 777.769531 93.714844 L 777.769531 95.210938 L 776.273438 95.210938 M 779.265625 93.714844 L 780.761719 93.714844 L 780.761719 95.210938 L 779.265625 95.210938 M 782.257812 93.714844 L 783.753906 93.714844 L 783.753906 95.210938 L 782.257812 95.210938 " fill-opacity="1" fill-rule="nonzero"/><path stroke-linecap="round" transform="matrix(0.748037, -0.0000000000142448, 0.0000000000142448, 0.748037, 725.406067, 93.716464)" fill-opacity="1" fill="#89898d" fill-rule="nonzero" stroke-linejoin="round" d="M 79.249376 -2.002193 L 83.249431 1.000459 L 79.249376 3.997889 Z M 79.249376 -2.002193 " stroke="#89898d" stroke-width="2" stroke-opacity="1" stroke-miterlimit="4"/></svg>