<svg xmlns="http://www.w3.org/2000/svg" xmlns:xlink="http://www.w3.org/1999/xlink" width="783" zoomAndPan="magnify" viewBox="0 0 587.25 153.000002" height="204" preserveAspectRatio="xMidYMid meet" version="1.0"><defs><g/><clipPath id="0262ea4640"><path d="M 98.191406 0 L 488.308594 0 L 488.308594 151.546875 L 98.191406 151.546875 Z M 98.191406 0 " clip-rule="nonzero"/></clipPath><clipPath id="5c7d9199cd"><path d="M 110.855469 0 L 475.539062 0 C 482.535156 0 488.203125 5.671875 488.203125 12.667969 L 488.203125 138.882812 C 488.203125 145.878906 482.535156 151.546875 475.539062 151.546875 L 110.855469 151.546875 C 103.859375 151.546875 98.191406 145.878906 98.191406 138.882812 L 98.191406 12.667969 C 98.191406 5.671875 103.859375 0 110.855469 0 Z M 110.855469 0 " clip-rule="nonzero"/></clipPath><clipPath id="05ff347e11"><path d="M 0.191406 0 L 390.308594 0 L 390.308594 151.546875 L 0.191406 151.546875 Z M 0.191406 0 " clip-rule="nonzero"/></clipPath><clipPath id="f5235236d4"><path d="M 12.855469 0 L 377.539062 0 C 384.535156 0 390.203125 5.671875 390.203125 12.667969 L 390.203125 138.882812 C 390.203125 145.878906 384.535156 151.546875 377.539062 151.546875 L 12.855469 151.546875 C 5.859375 151.546875 0.191406 145.878906 0.191406 138.882812 L 0.191406 12.667969 C 0.191406 5.671875 5.859375 0 12.855469 0 Z M 12.855469 0 " clip-rule="nonzero"/></clipPath><clipPath id="7cf29539ed"><rect x="0" width="391" y="0" height="152"/></clipPath><clipPath id="107fc8582b"><path d="M 98.195312 0 L 487.890625 0 L 487.890625 151.261719 L 98.195312 151.261719 Z M 98.195312 0 " clip-rule="nonzero"/></clipPath><clipPath id="90cef0883e"><path d="M 110.863281 0 L 475.523438 0 C 482.519531 0 488.191406 5.671875 488.191406 12.667969 L 488.191406 138.875 C 488.191406 145.871094 482.519531 151.539062 475.523438 151.539062 L 110.863281 151.539062 C 103.867188 151.539062 98.195312 145.871094 98.195312 138.875 L 98.195312 12.667969 C 98.195312 5.671875 103.867188 0 110.863281 0 Z M 110.863281 0 " clip-rule="nonzero"/></clipPath><clipPath id="48209aa7e4"><path d="M 122.015625 41.214844 L 191.40625 41.214844 L 191.40625 110.335938 L 122.015625 110.335938 Z M 122.015625 41.214844 " clip-rule="nonzero"/></clipPath><clipPath id="d869364964"><path d="M 124.996094 41.214844 L 188.234375 41.214844 C 189.882812 41.214844 191.214844 42.546875 191.214844 44.195312 L 191.214844 107.355469 C 191.214844 109 189.882812 110.335938 188.234375 110.335938 L 124.996094 110.335938 C 123.347656 110.335938 122.015625 109 122.015625 107.355469 L 122.015625 44.195312 C 122.015625 42.546875 123.347656 41.214844 124.996094 41.214844 Z M 124.996094 41.214844 " clip-rule="nonzero"/></clipPath><clipPath id="7562d3a535"><path d="M 0.015625 0.214844 L 69.332031 0.214844 L 69.332031 69.335938 L 0.015625 69.335938 Z M 0.015625 0.214844 " clip-rule="nonzero"/></clipPath><clipPath id="74991c63ab"><path d="M 2.996094 0.214844 L 66.234375 0.214844 C 67.882812 0.214844 69.214844 1.546875 69.214844 3.195312 L 69.214844 66.355469 C 69.214844 68 67.882812 69.335938 66.234375 69.335938 L 2.996094 69.335938 C 1.347656 69.335938 0.015625 68 0.015625 66.355469 L 0.015625 3.195312 C 0.015625 1.546875 1.347656 0.214844 2.996094 0.214844 Z M 2.996094 0.214844 " clip-rule="nonzero"/></clipPath><clipPath id="8a5b6030a0"><rect x="0" width="70" y="0" height="70"/></clipPath><clipPath id="8e562b86d5"><path d="M 122.015625 41.214844 L 191.3125 41.214844 L 191.3125 110.511719 L 122.015625 110.511719 Z M 122.015625 41.214844 " clip-rule="nonzero"/></clipPath><clipPath id="25423f7a8b"><path d="M 124.996094 41.214844 L 188.226562 41.214844 C 189.871094 41.214844 191.207031 42.546875 191.207031 44.195312 L 191.207031 107.34375 C 191.207031 108.992188 189.871094 110.324219 188.226562 110.324219 L 124.996094 110.324219 C 123.347656 110.324219 122.015625 108.992188 122.015625 107.34375 L 122.015625 44.195312 C 122.015625 42.546875 123.347656 41.214844 124.996094 41.214844 Z M 124.996094 41.214844 " clip-rule="nonzero"/></clipPath><clipPath id="fa0217dc9d"><path d="M 231.742188 41.214844 L 326.785156 41.214844 L 326.785156 110.335938 L 231.742188 110.335938 Z M 231.742188 41.214844 " clip-rule="nonzero"/></clipPath><clipPath id="3d2c93d436"><path d="M 250.023438 41.214844 L 308.449219 41.214844 C 318.546875 41.214844 326.730469 49.398438 326.730469 59.496094 L 326.730469 92.054688 C 326.730469 102.148438 318.546875 110.335938 308.449219 110.335938 L 250.023438 110.335938 C 239.925781 110.335938 231.742188 102.148438 231.742188 92.054688 L 231.742188 59.496094 C 231.742188 49.398438 239.925781 41.214844 250.023438 41.214844 Z M 250.023438 41.214844 " clip-rule="nonzero"/></clipPath><clipPath id="c451160514"><path d="M 0.742188 0.214844 L 95.769531 0.214844 L 95.769531 69.335938 L 0.742188 69.335938 Z M 0.742188 0.214844 " clip-rule="nonzero"/></clipPath><clipPath id="710fe340ec"><path d="M 19.023438 0.214844 L 77.449219 0.214844 C 87.546875 0.214844 95.730469 8.398438 95.730469 18.496094 L 95.730469 51.054688 C 95.730469 61.148438 87.546875 69.335938 77.449219 69.335938 L 19.023438 69.335938 C 8.925781 69.335938 0.742188 61.148438 0.742188 51.054688 L 0.742188 18.496094 C 0.742188 8.398438 8.925781 0.214844 19.023438 0.214844 Z M 19.023438 0.214844 " clip-rule="nonzero"/></clipPath><clipPath id="0c876d7c0e"><rect x="0" width="96" y="0" height="70"/></clipPath><clipPath id="b780fc1517"><path d="M 231.746094 41.214844 L 326.375 41.214844 L 326.375 110.511719 L 231.746094 110.511719 Z M 231.746094 41.214844 " clip-rule="nonzero"/></clipPath><clipPath id="faf535527d"><path d="M 250.023438 41.214844 L 308.441406 41.214844 C 318.535156 41.214844 326.71875 49.398438 326.71875 59.492188 L 326.71875 92.046875 C 326.71875 102.140625 318.535156 110.324219 308.441406 110.324219 L 250.023438 110.324219 C 239.929688 110.324219 231.746094 102.140625 231.746094 92.046875 L 231.746094 59.492188 C 231.746094 49.398438 239.929688 41.214844 250.023438 41.214844 Z M 250.023438 41.214844 " clip-rule="nonzero"/></clipPath><clipPath id="1dcce9e212"><path d="M 1.535156 8.011719 L 71.460938 8.011719 L 71.460938 143.773438 L 1.535156 143.773438 Z M 1.535156 8.011719 " clip-rule="nonzero"/></clipPath><clipPath id="79a17b6684"><path d="M 14.203125 8.011719 L 58.796875 8.011719 C 62.15625 8.011719 65.378906 9.347656 67.753906 11.722656 C 70.128906 14.097656 71.460938 17.320312 71.460938 20.679688 L 71.460938 130.867188 C 71.460938 134.226562 70.128906 137.449219 67.753906 139.824219 C 65.378906 142.199219 62.15625 143.535156 58.796875 143.535156 L 14.203125 143.535156 C 10.839844 143.535156 7.621094 142.199219 5.246094 139.824219 C 2.867188 137.449219 1.535156 134.226562 1.535156 130.867188 L 1.535156 20.679688 C 1.535156 17.320312 2.867188 14.097656 5.246094 11.722656 C 7.621094 9.347656 10.839844 8.011719 14.203125 8.011719 Z M 14.203125 8.011719 " clip-rule="nonzero"/></clipPath><clipPath id="77691d11e1"><path d="M 0.535156 0.0117188 L 70.460938 0.0117188 L 70.460938 135.542969 L 0.535156 135.542969 Z M 0.535156 0.0117188 " clip-rule="nonzero"/></clipPath><clipPath id="3176f61ccf"><path d="M 13.203125 0.0117188 L 57.796875 0.0117188 C 61.15625 0.0117188 64.378906 1.347656 66.753906 3.722656 C 69.128906 6.097656 70.460938 9.320312 70.460938 12.679688 L 70.460938 122.867188 C 70.460938 126.226562 69.128906 129.449219 66.753906 131.824219 C 64.378906 134.199219 61.15625 135.535156 57.796875 135.535156 L 13.203125 135.535156 C 9.839844 135.535156 6.621094 134.199219 4.246094 131.824219 C 1.867188 129.449219 0.535156 126.226562 0.535156 122.867188 L 0.535156 12.679688 C 0.535156 9.320312 1.867188 6.097656 4.246094 3.722656 C 6.621094 1.347656 9.839844 0.0117188 13.203125 0.0117188 Z M 13.203125 0.0117188 " clip-rule="nonzero"/></clipPath><clipPath id="83499ad8bb"><rect x="0" width="71" y="0" height="136"/></clipPath><clipPath id="b7fdbc502a"><path d="M 1.535156 8.015625 L 71.578125 8.015625 L 71.578125 143.625 L 1.535156 143.625 Z M 1.535156 8.015625 " clip-rule="nonzero"/></clipPath><clipPath id="2b2468bd3a"><path d="M 14.199219 8.015625 L 58.792969 8.015625 C 62.152344 8.015625 65.375 9.351562 67.75 11.726562 C 70.125 14.101562 71.460938 17.324219 71.460938 20.683594 L 71.460938 130.863281 C 71.460938 134.222656 70.125 137.445312 67.75 139.820312 C 65.375 142.195312 62.152344 143.53125 58.792969 143.53125 L 14.199219 143.53125 C 10.839844 143.53125 7.621094 142.195312 5.242188 139.820312 C 2.867188 137.445312 1.535156 134.222656 1.535156 130.863281 L 1.535156 20.683594 C 1.535156 17.324219 2.867188 14.101562 5.242188 11.726562 C 7.621094 9.351562 10.839844 8.015625 14.199219 8.015625 Z M 14.199219 8.015625 " clip-rule="nonzero"/></clipPath><clipPath id="9f8fcc9e09"><path d="M 514.929688 8.011719 L 584.859375 8.011719 L 584.859375 143.773438 L 514.929688 143.773438 Z M 514.929688 8.011719 " clip-rule="nonzero"/></clipPath><clipPath id="d2731ab8ff"><path d="M 527.597656 8.011719 L 572.191406 8.011719 C 575.550781 8.011719 578.773438 9.347656 581.148438 11.722656 C 583.523438 14.097656 584.859375 17.320312 584.859375 20.679688 L 584.859375 130.867188 C 584.859375 134.226562 583.523438 137.449219 581.148438 139.824219 C 578.773438 142.199219 575.550781 143.535156 572.191406 143.535156 L 527.597656 143.535156 C 524.238281 143.535156 521.015625 142.199219 518.640625 139.824219 C 516.265625 137.449219 514.929688 134.226562 514.929688 130.867188 L 514.929688 20.679688 C 514.929688 17.320312 516.265625 14.097656 518.640625 11.722656 C 521.015625 9.347656 524.238281 8.011719 527.597656 8.011719 Z M 527.597656 8.011719 " clip-rule="nonzero"/></clipPath><clipPath id="e610351958"><path d="M 0.929688 0.0117188 L 70.859375 0.0117188 L 70.859375 135.542969 L 0.929688 135.542969 Z M 0.929688 0.0117188 " clip-rule="nonzero"/></clipPath><clipPath id="6932b3b621"><path d="M 13.597656 0.0117188 L 58.191406 0.0117188 C 61.550781 0.0117188 64.773438 1.347656 67.148438 3.722656 C 69.523438 6.097656 70.859375 9.320312 70.859375 12.679688 L 70.859375 122.867188 C 70.859375 126.226562 69.523438 129.449219 67.148438 131.824219 C 64.773438 134.199219 61.550781 135.535156 58.191406 135.535156 L 13.597656 135.535156 C 10.238281 135.535156 7.015625 134.199219 4.640625 131.824219 C 2.265625 129.449219 0.929688 126.226562 0.929688 122.867188 L 0.929688 12.679688 C 0.929688 9.320312 2.265625 6.097656 4.640625 3.722656 C 7.015625 1.347656 10.238281 0.0117188 13.597656 0.0117188 Z M 13.597656 0.0117188 " clip-rule="nonzero"/></clipPath><clipPath id="834f6b23d2"><rect x="0" width="71" y="0" height="136"/></clipPath><clipPath id="c2433f70c2"><path d="M 514.929688 8.015625 L 584.972656 8.015625 L 584.972656 143.625 L 514.929688 143.625 Z M 514.929688 8.015625 " clip-rule="nonzero"/></clipPath><clipPath id="2f97a57a47"><path d="M 527.597656 8.015625 L 572.191406 8.015625 C 575.550781 8.015625 578.773438 9.351562 581.148438 11.726562 C 583.523438 14.101562 584.855469 17.324219 584.855469 20.683594 L 584.855469 130.863281 C 584.855469 134.222656 583.523438 137.445312 581.148438 139.820312 C 578.773438 142.195312 575.550781 143.53125 572.191406 143.53125 L 527.597656 143.53125 C 524.238281 143.53125 521.015625 142.195312 518.640625 139.820312 C 516.265625 137.445312 514.929688 134.222656 514.929688 130.863281 L 514.929688 20.683594 C 514.929688 17.324219 516.265625 14.101562 518.640625 11.726562 C 521.015625 9.351562 524.238281 8.015625 527.597656 8.015625 Z M 527.597656 8.015625 " clip-rule="nonzero"/></clipPath><clipPath id="40caca7e25"><path d="M 367.257812 41.914062 L 464.601562 41.914062 L 464.601562 109.632812 L 367.257812 109.632812 Z M 367.257812 41.914062 " clip-rule="nonzero"/></clipPath><clipPath id="86f2547a85"><path d="M 372.132812 41.914062 L 424.144531 41.914062 C 446.160156 41.914062 464.378906 57.074219 464.378906 75.773438 C 464.378906 94.472656 446.160156 109.632812 424.144531 109.632812 L 372.132812 109.632812 C 369.4375 109.632812 367.257812 107.449219 367.257812 104.757812 L 367.257812 46.789062 C 367.257812 44.097656 369.4375 41.914062 372.132812 41.914062 Z M 372.132812 41.914062 " clip-rule="nonzero"/></clipPath><clipPath id="f493380a28"><path d="M 0.257812 0.914062 L 97.585938 0.914062 L 97.585938 68.632812 L 0.257812 68.632812 Z M 0.257812 0.914062 " clip-rule="nonzero"/></clipPath><clipPath id="78c252fb89"><path d="M 5.132812 0.914062 L 57.144531 0.914062 C 79.160156 0.914062 97.378906 16.074219 97.378906 34.773438 C 97.378906 53.472656 79.160156 68.632812 57.144531 68.632812 L 5.132812 68.632812 C 2.4375 68.632812 0.257812 66.449219 0.257812 63.757812 L 0.257812 5.789062 C 0.257812 3.097656 2.4375 0.914062 5.132812 0.914062 Z M 5.132812 0.914062 " clip-rule="nonzero"/></clipPath><clipPath id="9d6dba1468"><rect x="0" width="98" y="0" height="69"/></clipPath><clipPath id="18f6a39f4c"><path d="M 367.257812 41.917969 L 464.125 41.917969 L 464.125 109.722656 L 367.257812 109.722656 Z M 367.257812 41.917969 " clip-rule="nonzero"/></clipPath><clipPath id="8335eda408"><path d="M 372.132812 41.917969 L 424.136719 41.917969 C 446.148438 41.917969 464.367188 57.074219 464.367188 75.773438 C 464.367188 94.46875 446.148438 109.628906 424.136719 109.628906 L 372.132812 109.628906 C 369.4375 109.628906 367.257812 107.445312 367.257812 104.753906 L 367.257812 46.792969 C 367.257812 44.101562 369.4375 41.917969 372.132812 41.917969 Z M 372.132812 41.917969 " clip-rule="nonzero"/></clipPath></defs><g clip-path="url(#0262ea4640)"><g clip-path="url(#5c7d9199cd)"><g transform="matrix(1, 0, 0, 1, 98, 0.000000000000009523)"><g clip-path="url(#7cf29539ed)"><g clip-path="url(#05ff347e11)"><g clip-path="url(#f5235236d4)"><path fill="#f8f3ed" d="M 0.191406 0 L 390.308594 0 L 390.308594 151.546875 L 0.191406 151.546875 Z M 0.191406 0 " fill-opacity="1" fill-rule="nonzero"/></g></g></g></g></g></g><g clip-path="url(#107fc8582b)"><g clip-path="url(#90cef0883e)"><path stroke-linecap="butt" transform="matrix(0.74513, 0, 0, 0.74513, 98.194768, 0.00000695455)" fill="none" stroke-linejoin="miter" d="M 17.001753 -0.00000933333 L 506.393174 -0.00000933333 C 515.782268 -0.00000933333 523.394196 7.611919 523.394196 17.001012 L 523.394196 186.376902 C 523.394196 195.765996 515.782268 203.372682 506.393174 203.372682 L 17.001753 203.372682 C 7.612659 203.372682 0.000730808 195.765996 0.000730808 186.376902 L 0.000730808 17.001012 C 0.000730808 7.611919 7.612659 -0.00000933333 17.001753 -0.00000933333 Z M 17.001753 -0.00000933333 " stroke="#efeae7" stroke-width="4" stroke-opacity="1" stroke-miterlimit="4"/></g></g><g fill="#000000" fill-opacity="1"><g transform="translate(250.393976, 24.142214)"><g><path d="M 4.851562 0.144531 C 6.414062 0.144531 7.785156 -0.679688 8.464844 -1.917969 L 7.726562 -2.335938 C 7.210938 -1.335938 6.105469 -0.667969 4.851562 -0.667969 C 2.742188 -0.667969 1.3125 -2.230469 1.3125 -4.171875 C 1.3125 -6.117188 2.742188 -7.679688 4.851562 -7.679688 C 6.105469 -7.679688 7.210938 -7.011719 7.726562 -6.007812 L 8.464844 -6.4375 C 7.773438 -7.679688 6.402344 -8.488281 4.851562 -8.488281 C 2.289062 -8.488281 0.476562 -6.558594 0.476562 -4.171875 C 0.476562 -1.789062 2.289062 0.144531 4.851562 0.144531 Z M 4.851562 0.144531 "/></g></g></g><g fill="#000000" fill-opacity="1"><g transform="translate(259.275945, 24.142214)"><g><path d="M 3.613281 0.144531 C 5.351562 0.144531 6.746094 -1.214844 6.746094 -2.980469 C 6.746094 -4.746094 5.351562 -6.105469 3.613281 -6.105469 C 1.871094 -6.105469 0.476562 -4.746094 0.476562 -2.980469 C 0.476562 -1.214844 1.871094 0.144531 3.613281 0.144531 Z M 3.613281 -0.621094 C 2.289062 -0.621094 1.265625 -1.65625 1.265625 -2.980469 C 1.265625 -4.304688 2.289062 -5.339844 3.613281 -5.339844 C 4.9375 -5.339844 5.960938 -4.304688 5.960938 -2.980469 C 5.960938 -1.65625 4.9375 -0.621094 3.613281 -0.621094 Z M 3.613281 -0.621094 "/></g></g></g><g fill="#000000" fill-opacity="1"><g transform="translate(266.500735, 24.142214)"><g><path d="M 3.613281 0.144531 C 4.78125 0.144531 5.792969 -0.464844 6.28125 -1.40625 L 5.628906 -1.789062 C 5.246094 -1.097656 4.519531 -0.621094 3.613281 -0.621094 C 2.289062 -0.621094 1.265625 -1.65625 1.265625 -2.980469 C 1.265625 -4.304688 2.289062 -5.339844 3.613281 -5.339844 C 4.507812 -5.339844 5.257812 -4.875 5.578125 -4.171875 L 6.222656 -4.542969 C 5.792969 -5.484375 4.792969 -6.105469 3.613281 -6.105469 C 1.8125 -6.105469 0.476562 -4.746094 0.476562 -2.980469 C 0.476562 -1.214844 1.8125 0.144531 3.613281 0.144531 Z M 3.613281 0.144531 "/></g></g></g><g fill="#000000" fill-opacity="1"><g transform="translate(273.081734, 24.142214)"><g><path d="M 3.613281 0.144531 C 5.351562 0.144531 6.746094 -1.214844 6.746094 -2.980469 C 6.746094 -4.746094 5.351562 -6.105469 3.613281 -6.105469 C 1.871094 -6.105469 0.476562 -4.746094 0.476562 -2.980469 C 0.476562 -1.214844 1.871094 0.144531 3.613281 0.144531 Z M 3.613281 -0.621094 C 2.289062 -0.621094 1.265625 -1.65625 1.265625 -2.980469 C 1.265625 -4.304688 2.289062 -5.339844 3.613281 -5.339844 C 4.9375 -5.339844 5.960938 -4.304688 5.960938 -2.980469 C 5.960938 -1.65625 4.9375 -0.621094 3.613281 -0.621094 Z M 3.613281 -0.621094 "/></g></g></g><g fill="#000000" fill-opacity="1"><g transform="translate(280.306523, 24.142214)"><g><path d="M 0.953125 -8.34375 L 0.953125 0 L 1.789062 0 L 1.789062 -8.34375 Z M 0.953125 -8.34375 "/></g></g></g><g fill="#000000" fill-opacity="1"><g transform="translate(283.048607, 24.142214)"><g><path d="M 3.625 -6.105469 C 2.777344 -6.105469 2.085938 -5.78125 1.621094 -5.03125 L 1.621094 -5.960938 L 0.835938 -5.960938 L 0.835938 0 L 1.621094 0 L 1.621094 -3.125 C 1.621094 -4.722656 2.503906 -5.339844 3.554688 -5.339844 C 4.589844 -5.339844 5.175781 -4.722656 5.175781 -3.660156 L 5.175781 0 L 5.960938 0 L 5.960938 -3.660156 C 5.960938 -5.148438 5.078125 -6.105469 3.625 -6.105469 Z M 3.625 -6.105469 "/></g></g></g><g fill="#000000" fill-opacity="1"><g transform="translate(289.701145, 24.142214)"><g><path d="M 5.960938 -8.34375 L 5.960938 -4.792969 C 5.460938 -5.589844 4.613281 -6.105469 3.554688 -6.105469 C 1.871094 -6.105469 0.476562 -4.746094 0.476562 -2.980469 C 0.476562 -1.214844 1.871094 0.144531 3.554688 0.144531 C 4.613281 0.144531 5.460938 -0.371094 5.960938 -1.167969 L 5.960938 0 L 6.746094 0 L 6.746094 -8.34375 Z M 3.613281 -0.621094 C 2.289062 -0.621094 1.265625 -1.65625 1.265625 -2.980469 C 1.265625 -4.304688 2.289062 -5.339844 3.613281 -5.339844 C 4.9375 -5.339844 5.960938 -4.304688 5.960938 -2.980469 C 5.960938 -1.65625 4.9375 -0.621094 3.613281 -0.621094 Z M 3.613281 -0.621094 "/></g></g></g><g fill="#000000" fill-opacity="1"><g transform="translate(297.283605, 24.142214)"><g><path d="M 3.589844 -6.105469 C 1.742188 -6.105469 0.476562 -4.734375 0.476562 -2.980469 C 0.476562 -1.179688 1.765625 0.144531 3.648438 0.144531 C 4.851562 0.144531 5.769531 -0.417969 6.269531 -1.226562 L 5.578125 -1.632812 C 5.257812 -1.0625 4.601562 -0.621094 3.660156 -0.621094 C 2.394531 -0.621094 1.453125 -1.371094 1.289062 -2.585938 L 6.519531 -2.585938 C 6.535156 -2.707031 6.546875 -2.835938 6.546875 -2.957031 C 6.546875 -4.589844 5.414062 -6.105469 3.589844 -6.105469 Z M 3.589844 -5.339844 C 4.613281 -5.339844 5.566406 -4.660156 5.734375 -3.351562 L 1.289062 -3.351562 C 1.441406 -4.519531 2.335938 -5.339844 3.589844 -5.339844 Z M 3.589844 -5.339844 "/></g></g></g><g fill="#000000" fill-opacity="1"><g transform="translate(304.246117, 24.142214)"><g><path d="M 5.84375 0 L 3.515625 -3.085938 L 5.6875 -5.960938 L 4.746094 -5.960938 L 3.039062 -3.707031 L 1.335938 -5.960938 L 0.394531 -5.960938 L 2.574219 -3.085938 L 0.238281 0 L 1.179688 0 L 3.039062 -2.457031 L 4.898438 0 Z M 5.84375 0 "/></g></g></g><g fill="#000000" fill-opacity="1"><g transform="translate(310.32639, 24.142214)"><g/></g></g><g fill="#000000" fill-opacity="1"><g transform="translate(313.306921, 24.142214)"><g><path d="M 6.507812 0 L 7.390625 0 L 4.183594 -8.34375 L 3.328125 -8.34375 L 0.121094 0 L 1 0 L 1.777344 -2.050781 L 5.734375 -2.050781 Z M 2.074219 -2.835938 L 3.753906 -7.308594 L 5.4375 -2.835938 Z M 2.074219 -2.835938 "/></g></g></g><g fill="#000000" fill-opacity="1"><g transform="translate(320.817843, 24.142214)"><g><path d="M 4.03125 -6.105469 C 2.96875 -6.105469 2.121094 -5.589844 1.621094 -4.792969 L 1.621094 -5.960938 L 0.835938 -5.960938 L 0.835938 2.382812 L 1.621094 2.382812 L 1.621094 -1.167969 C 2.121094 -0.371094 2.96875 0.144531 4.03125 0.144531 C 5.710938 0.144531 7.105469 -1.214844 7.105469 -2.980469 C 7.105469 -4.746094 5.710938 -6.105469 4.03125 -6.105469 Z M 3.96875 -0.621094 C 2.648438 -0.621094 1.621094 -1.65625 1.621094 -2.980469 C 1.621094 -4.304688 2.648438 -5.339844 3.96875 -5.339844 C 5.292969 -5.339844 6.320312 -4.304688 6.320312 -2.980469 C 6.320312 -1.65625 5.292969 -0.621094 3.96875 -0.621094 Z M 3.96875 -0.621094 "/></g></g></g><g fill="#000000" fill-opacity="1"><g transform="translate(328.400303, 24.142214)"><g><path d="M 4.03125 -6.105469 C 2.96875 -6.105469 2.121094 -5.589844 1.621094 -4.792969 L 1.621094 -5.960938 L 0.835938 -5.960938 L 0.835938 2.382812 L 1.621094 2.382812 L 1.621094 -1.167969 C 2.121094 -0.371094 2.96875 0.144531 4.03125 0.144531 C 5.710938 0.144531 7.105469 -1.214844 7.105469 -2.980469 C 7.105469 -4.746094 5.710938 -6.105469 4.03125 -6.105469 Z M 3.96875 -0.621094 C 2.648438 -0.621094 1.621094 -1.65625 1.621094 -2.980469 C 1.621094 -4.304688 2.648438 -5.339844 3.96875 -5.339844 C 5.292969 -5.339844 6.320312 -4.304688 6.320312 -2.980469 C 6.320312 -1.65625 5.292969 -0.621094 3.96875 -0.621094 Z M 3.96875 -0.621094 "/></g></g></g><g clip-path="url(#48209aa7e4)"><g clip-path="url(#d869364964)"><g transform="matrix(1, 0, 0, 1, 122, 41)"><g clip-path="url(#8a5b6030a0)"><g clip-path="url(#7562d3a535)"><g clip-path="url(#74991c63ab)"><path fill="#ffffff" d="M 0.015625 0.214844 L 69.136719 0.214844 L 69.136719 69.335938 L 0.015625 69.335938 Z M 0.015625 0.214844 " fill-opacity="1" fill-rule="nonzero"/></g></g></g></g></g></g><g clip-path="url(#8e562b86d5)"><g clip-path="url(#25423f7a8b)"><path stroke-linecap="butt" transform="matrix(0.74513, 0, 0, 0.74513, 122.015296, 41.213838)" fill="none" stroke-linejoin="miter" d="M 4.000374 0.0013504 L 88.858696 0.0013504 C 91.065736 0.0013504 92.858628 1.789 92.858628 4.001282 L 92.858628 88.749515 C 92.858628 90.961797 91.065736 92.749447 88.858696 92.749447 L 4.000374 92.749447 C 1.788091 92.749447 0.000441612 90.961797 0.000441612 88.749515 L 0.000441612 4.001282 C 0.000441612 1.789 1.788091 0.0013504 4.000374 0.0013504 Z M 4.000374 0.0013504 " stroke="#000000" stroke-width="4" stroke-opacity="1" stroke-miterlimit="4"/></g></g><g fill="#000000" fill-opacity="1"><g transform="translate(141.877323, 79.21546)"><g><path d="M 3.578125 0.144531 C 5.246094 0.144531 6.390625 -0.761719 6.390625 -2.195312 C 6.390625 -3.742188 5.03125 -4.171875 3.515625 -4.671875 C 2.382812 -5.042969 1.667969 -5.328125 1.667969 -6.234375 C 1.667969 -7.152344 2.394531 -7.679688 3.398438 -7.679688 C 4.496094 -7.679688 5.136719 -7.046875 5.449219 -6.292969 L 6.152344 -6.6875 C 5.722656 -7.679688 4.769531 -8.488281 3.398438 -8.488281 C 2.015625 -8.488281 0.835938 -7.664062 0.835938 -6.199219 C 0.835938 -4.660156 2.144531 -4.304688 3.503906 -3.851562 C 4.734375 -3.445312 5.554688 -3.136719 5.554688 -2.167969 C 5.554688 -1.277344 4.851562 -0.667969 3.589844 -0.667969 C 2.277344 -0.667969 1.492188 -1.3125 1.191406 -2.3125 L 0.476562 -1.894531 C 0.90625 -0.632812 2.039062 0.144531 3.578125 0.144531 Z M 3.578125 0.144531 "/></g></g></g><g fill="#000000" fill-opacity="1"><g transform="translate(148.565618, 79.21546)"><g><path d="M 3.992188 -5.199219 L 3.992188 -5.960938 L 2.277344 -5.960938 L 2.277344 -7.628906 L 1.492188 -7.390625 L 1.492188 -5.960938 L 0.238281 -5.960938 L 0.238281 -5.199219 L 1.492188 -5.199219 L 1.492188 -1.585938 C 1.492188 -0.15625 2.382812 0.238281 3.992188 0 L 3.992188 -0.691406 C 2.835938 -0.644531 2.277344 -0.558594 2.277344 -1.585938 L 2.277344 -5.199219 Z M 3.992188 -5.199219 "/></g></g></g><g fill="#000000" fill-opacity="1"><g transform="translate(152.678749, 79.21546)"><g><path d="M 5.960938 -5.960938 L 5.960938 -4.792969 C 5.460938 -5.589844 4.613281 -6.105469 3.554688 -6.105469 C 1.871094 -6.105469 0.476562 -4.746094 0.476562 -2.980469 C 0.476562 -1.214844 1.871094 0.144531 3.554688 0.144531 C 4.613281 0.144531 5.460938 -0.371094 5.960938 -1.167969 L 5.960938 0 L 6.746094 0 L 6.746094 -5.960938 Z M 3.613281 -0.621094 C 2.289062 -0.621094 1.265625 -1.65625 1.265625 -2.980469 C 1.265625 -4.304688 2.289062 -5.339844 3.613281 -5.339844 C 4.9375 -5.339844 5.960938 -4.304688 5.960938 -2.980469 C 5.960938 -1.65625 4.9375 -0.621094 3.613281 -0.621094 Z M 3.613281 -0.621094 "/></g></g></g><g fill="#000000" fill-opacity="1"><g transform="translate(160.261209, 79.21546)"><g><path d="M 3.992188 -5.199219 L 3.992188 -5.960938 L 2.277344 -5.960938 L 2.277344 -7.628906 L 1.492188 -7.390625 L 1.492188 -5.960938 L 0.238281 -5.960938 L 0.238281 -5.199219 L 1.492188 -5.199219 L 1.492188 -1.585938 C 1.492188 -0.15625 2.382812 0.238281 3.992188 0 L 3.992188 -0.691406 C 2.835938 -0.644531 2.277344 -0.558594 2.277344 -1.585938 L 2.277344 -5.199219 Z M 3.992188 -5.199219 "/></g></g></g><g fill="#000000" fill-opacity="1"><g transform="translate(164.374341, 79.21546)"><g><path d="M 3.589844 -6.105469 C 1.742188 -6.105469 0.476562 -4.734375 0.476562 -2.980469 C 0.476562 -1.179688 1.765625 0.144531 3.648438 0.144531 C 4.851562 0.144531 5.769531 -0.417969 6.269531 -1.226562 L 5.578125 -1.632812 C 5.257812 -1.0625 4.601562 -0.621094 3.660156 -0.621094 C 2.394531 -0.621094 1.453125 -1.371094 1.289062 -2.585938 L 6.519531 -2.585938 C 6.535156 -2.707031 6.546875 -2.835938 6.546875 -2.957031 C 6.546875 -4.589844 5.414062 -6.105469 3.589844 -6.105469 Z M 3.589844 -5.339844 C 4.613281 -5.339844 5.566406 -4.660156 5.734375 -3.351562 L 1.289062 -3.351562 C 1.441406 -4.519531 2.335938 -5.339844 3.589844 -5.339844 Z M 3.589844 -5.339844 "/></g></g></g><path stroke-linecap="butt" transform="matrix(0.74513, 0, 0, 0.74513, 191.216554, 75.029103)" fill="none" stroke-linejoin="miter" d="M -0.00229543 0.998932 L 48.888093 0.998932 " stroke="#000000" stroke-width="2" stroke-opacity="1" stroke-miterlimit="4"/><path stroke-linecap="round" transform="matrix(0.74513, 0, 0, 0.74513, 191.216554, 75.029103)" fill-opacity="1" fill="#000000" fill-rule="nonzero" stroke-linejoin="round" d="M 49.386118 -1.999706 L 53.38605 0.998932 L 49.386118 3.997571 Z M 49.386118 -1.999706 " stroke="#000000" stroke-width="2" stroke-opacity="1" stroke-miterlimit="4"/><path stroke-linecap="butt" transform="matrix(0.74513, 0, 0, 0.74513, 71.462842, 75.029103)" fill="none" stroke-linejoin="miter" d="M -0.00255645 0.998932 L 62.345008 0.998932 " stroke="#89898d" stroke-width="2" stroke-opacity="1" stroke-miterlimit="4"/><path stroke-linecap="round" transform="matrix(0.74513, 0, 0, 0.74513, 71.462842, 75.029103)" fill-opacity="1" fill="#89898d" fill-rule="nonzero" stroke-linejoin="round" d="M 62.843034 -1.999706 L 66.842966 0.998932 L 62.843034 3.997571 Z M 62.843034 -1.999706 " stroke="#89898d" stroke-width="2" stroke-opacity="1" stroke-miterlimit="4"/><g clip-path="url(#fa0217dc9d)"><g clip-path="url(#3d2c93d436)"><g transform="matrix(1, 0, 0, 1, 231, 41)"><g clip-path="url(#0c876d7c0e)"><g clip-path="url(#c451160514)"><g clip-path="url(#710fe340ec)"><path fill="#ffffff" d="M 0.742188 0.214844 L 95.785156 0.214844 L 95.785156 69.335938 L 0.742188 69.335938 Z M 0.742188 0.214844 " fill-opacity="1" fill-rule="nonzero"/></g></g></g></g></g></g><g clip-path="url(#b780fc1517)"><g clip-path="url(#faf535527d)"><path stroke-linecap="butt" transform="matrix(0.74513, 0, 0, 0.74513, 231.744908, 41.213838)" fill="none" stroke-linejoin="miter" d="M 24.530663 0.0013504 L 102.930379 0.0013504 C 116.476676 0.0013504 127.459451 10.984126 127.459451 24.530422 L 127.459451 68.220375 C 127.459451 81.766671 116.476676 92.749447 102.930379 92.749447 L 24.530663 92.749447 C 10.984366 92.749447 0.0015911 81.766671 0.0015911 68.220375 L 0.0015911 24.530422 C 0.0015911 10.984126 10.984366 0.0013504 24.530663 0.0013504 Z M 24.530663 0.0013504 " stroke="#000000" stroke-width="4" stroke-opacity="1" stroke-miterlimit="4"/></g></g><g fill="#000000" fill-opacity="1"><g transform="translate(252.698919, 71.019031)"><g><path d="M 6.199219 -8.34375 L 0.238281 -8.34375 L 0.238281 -7.558594 L 2.800781 -7.558594 L 2.800781 0 L 3.636719 0 L 3.636719 -7.558594 L 6.199219 -7.558594 Z M 6.199219 -8.34375 "/></g></g></g><g fill="#000000" fill-opacity="1"><g transform="translate(258.30231, 71.019031)"><g><path d="M 1.621094 -4.972656 L 1.621094 -5.960938 L 0.835938 -5.960938 L 0.835938 0 L 1.621094 0 L 1.621094 -3.3125 C 1.621094 -4.792969 2.550781 -5.292969 3.503906 -5.292969 L 3.503906 -6.054688 C 2.742188 -6.054688 2.039062 -5.804688 1.621094 -4.972656 Z M 1.621094 -4.972656 "/></g></g></g><g fill="#000000" fill-opacity="1"><g transform="translate(261.688196, 71.019031)"><g><path d="M 5.960938 -5.960938 L 5.960938 -4.792969 C 5.460938 -5.589844 4.613281 -6.105469 3.554688 -6.105469 C 1.871094 -6.105469 0.476562 -4.746094 0.476562 -2.980469 C 0.476562 -1.214844 1.871094 0.144531 3.554688 0.144531 C 4.613281 0.144531 5.460938 -0.371094 5.960938 -1.167969 L 5.960938 0 L 6.746094 0 L 6.746094 -5.960938 Z M 3.613281 -0.621094 C 2.289062 -0.621094 1.265625 -1.65625 1.265625 -2.980469 C 1.265625 -4.304688 2.289062 -5.339844 3.613281 -5.339844 C 4.9375 -5.339844 5.960938 -4.304688 5.960938 -2.980469 C 5.960938 -1.65625 4.9375 -0.621094 3.613281 -0.621094 Z M 3.613281 -0.621094 "/></g></g></g><g fill="#000000" fill-opacity="1"><g transform="translate(269.270657, 71.019031)"><g><path d="M 3.625 -6.105469 C 2.777344 -6.105469 2.085938 -5.78125 1.621094 -5.03125 L 1.621094 -5.960938 L 0.835938 -5.960938 L 0.835938 0 L 1.621094 0 L 1.621094 -3.125 C 1.621094 -4.722656 2.503906 -5.339844 3.554688 -5.339844 C 4.589844 -5.339844 5.175781 -4.722656 5.175781 -3.660156 L 5.175781 0 L 5.960938 0 L 5.960938 -3.660156 C 5.960938 -5.148438 5.078125 -6.105469 3.625 -6.105469 Z M 3.625 -6.105469 "/></g></g></g><g fill="#000000" fill-opacity="1"><g transform="translate(275.923194, 71.019031)"><g><path d="M 1.453125 -4.398438 C 1.453125 -5.042969 2.085938 -5.339844 2.707031 -5.339844 C 3.277344 -5.339844 3.886719 -5.113281 4.136719 -4.507812 L 4.792969 -4.886719 C 4.445312 -5.628906 3.683594 -6.105469 2.707031 -6.105469 C 1.515625 -6.105469 0.667969 -5.351562 0.667969 -4.398438 C 0.667969 -2.207031 4.148438 -3.050781 4.148438 -1.574219 C 4.148438 -0.871094 3.480469 -0.621094 2.777344 -0.621094 C 1.980469 -0.621094 1.359375 -1.011719 1.144531 -1.621094 L 0.476562 -1.226562 C 0.773438 -0.464844 1.585938 0.144531 2.777344 0.144531 C 4.054688 0.144531 4.9375 -0.558594 4.9375 -1.574219 C 4.9375 -3.765625 1.453125 -2.921875 1.453125 -4.398438 Z M 1.453125 -4.398438 "/></g></g></g><g fill="#000000" fill-opacity="1"><g transform="translate(281.216599, 71.019031)"><g><path d="M 3.816406 -7.726562 L 3.816406 -8.488281 C 2.207031 -8.609375 1.3125 -7.75 1.3125 -6.199219 L 1.3125 -5.960938 L 0.296875 -5.960938 L 0.296875 -5.199219 L 1.3125 -5.199219 L 1.3125 0 L 2.097656 0 L 2.097656 -5.199219 L 3.816406 -5.199219 L 3.816406 -5.960938 L 2.097656 -5.960938 L 2.097656 -6.199219 C 2.097656 -7.34375 2.660156 -7.820312 3.816406 -7.726562 Z M 3.816406 -7.726562 "/></g></g></g><g fill="#000000" fill-opacity="1"><g transform="translate(284.674013, 71.019031)"><g><path d="M 3.613281 0.144531 C 5.351562 0.144531 6.746094 -1.214844 6.746094 -2.980469 C 6.746094 -4.746094 5.351562 -6.105469 3.613281 -6.105469 C 1.871094 -6.105469 0.476562 -4.746094 0.476562 -2.980469 C 0.476562 -1.214844 1.871094 0.144531 3.613281 0.144531 Z M 3.613281 -0.621094 C 2.289062 -0.621094 1.265625 -1.65625 1.265625 -2.980469 C 1.265625 -4.304688 2.289062 -5.339844 3.613281 -5.339844 C 4.9375 -5.339844 5.960938 -4.304688 5.960938 -2.980469 C 5.960938 -1.65625 4.9375 -0.621094 3.613281 -0.621094 Z M 3.613281 -0.621094 "/></g></g></g><g fill="#000000" fill-opacity="1"><g transform="translate(291.898803, 71.019031)"><g><path d="M 1.621094 -4.972656 L 1.621094 -5.960938 L 0.835938 -5.960938 L 0.835938 0 L 1.621094 0 L 1.621094 -3.3125 C 1.621094 -4.792969 2.550781 -5.292969 3.503906 -5.292969 L 3.503906 -6.054688 C 2.742188 -6.054688 2.039062 -5.804688 1.621094 -4.972656 Z M 1.621094 -4.972656 "/></g></g></g><g fill="#000000" fill-opacity="1"><g transform="translate(295.642348, 71.019031)"><g><path d="M 7.1875 -6.105469 C 6.425781 -6.105469 5.699219 -5.757812 5.257812 -5.019531 C 4.921875 -5.710938 4.28125 -6.105469 3.445312 -6.105469 C 2.730469 -6.105469 2.085938 -5.816406 1.621094 -5.089844 L 1.621094 -5.960938 L 0.835938 -5.960938 L 0.835938 0 L 1.621094 0 L 1.621094 -3.300781 C 1.621094 -4.78125 2.480469 -5.339844 3.339844 -5.339844 C 4.183594 -5.339844 4.734375 -4.78125 4.734375 -3.71875 L 4.734375 0 L 5.519531 0 L 5.519531 -3.300781 C 5.519531 -4.78125 6.257812 -5.339844 7.175781 -5.339844 C 8.023438 -5.339844 8.632812 -4.78125 8.632812 -3.71875 L 8.632812 0 L 9.417969 0 L 9.417969 -3.71875 C 9.417969 -5.210938 8.5 -6.105469 7.1875 -6.105469 Z M 7.1875 -6.105469 "/></g></g></g><g fill="#000000" fill-opacity="1"><g transform="translate(269.94169, 87.411888)"><g><path d="M 5.664062 -7.558594 L 5.664062 -8.34375 L 0.953125 -8.34375 L 0.953125 0 L 1.789062 0 L 1.789062 -3.695312 L 5.484375 -3.695312 L 5.484375 -4.484375 L 1.789062 -4.484375 L 1.789062 -7.558594 Z M 5.664062 -7.558594 "/></g></g></g><g fill="#000000" fill-opacity="1"><g transform="translate(276.081575, 87.411888)"><g><path d="M 2.027344 1.191406 L 2.8125 1.191406 C 1.980469 -0.476562 1.503906 -2.265625 1.503906 -4.171875 C 1.503906 -6.082031 1.980469 -7.867188 2.8125 -9.539062 L 2.027344 -9.539062 C 1.191406 -7.867188 0.714844 -6.082031 0.714844 -4.171875 C 0.714844 -2.265625 1.191406 -0.476562 2.027344 1.191406 Z M 2.027344 1.191406 "/></g></g></g><g fill="#000000" fill-opacity="1"><g transform="translate(279.252857, 87.411888)"><g><path d="M 5.84375 0 L 3.515625 -3.085938 L 5.6875 -5.960938 L 4.746094 -5.960938 L 3.039062 -3.707031 L 1.335938 -5.960938 L 0.394531 -5.960938 L 2.574219 -3.085938 L 0.238281 0 L 1.179688 0 L 3.039062 -2.457031 L 4.898438 0 Z M 5.84375 0 "/></g></g></g><g fill="#000000" fill-opacity="1"><g transform="translate(285.33313, 87.411888)"><g><path d="M 1.144531 1.191406 C 1.980469 -0.476562 2.457031 -2.265625 2.457031 -4.171875 C 2.457031 -6.082031 1.980469 -7.867188 1.144531 -9.539062 L 0.359375 -9.539062 C 1.191406 -7.867188 1.667969 -6.082031 1.667969 -4.171875 C 1.667969 -2.265625 1.191406 -0.476562 0.359375 1.191406 Z M 1.144531 1.191406 "/></g></g></g><g clip-path="url(#1dcce9e212)"><g clip-path="url(#79a17b6684)"><g transform="matrix(1, 0, 0, 1, 1, 8)"><g clip-path="url(#83499ad8bb)"><g clip-path="url(#77691d11e1)"><g clip-path="url(#3176f61ccf)"><path fill="#e9f7ff" d="M 0.535156 0.0117188 L 70.460938 0.0117188 L 70.460938 135.5 L 0.535156 135.5 Z M 0.535156 0.0117188 " fill-opacity="1" fill-rule="nonzero"/></g></g></g></g></g></g><g clip-path="url(#b7fdbc502a)"><g clip-path="url(#2b2468bd3a)"><path stroke-linecap="butt" transform="matrix(0.74513, 0, 0, 0.74513, 1.534087, 8.015329)" fill="none" stroke-linejoin="miter" d="M 16.997214 0.000397035 L 76.844166 0.000397035 C 81.352608 0.000397035 85.677567 1.793289 88.864931 4.980653 C 92.052295 8.168017 93.845188 12.492976 93.845188 17.001419 L 93.845188 164.867845 C 93.845188 169.376287 92.052295 173.701246 88.864931 176.88861 C 85.677567 180.075974 81.352608 181.868866 76.844166 181.868866 L 16.997214 181.868866 C 12.488772 181.868866 8.169055 180.075974 4.976449 176.88861 C 1.789085 173.701246 0.00143486 169.376287 0.00143486 164.867845 L 0.00143486 17.001419 C 0.00143486 12.492976 1.789085 8.168017 4.976449 4.980653 C 8.169055 1.793289 12.488772 0.000397035 16.997214 0.000397035 Z M 16.997214 0.000397035 " stroke="#89898d" stroke-width="4" stroke-opacity="1" stroke-miterlimit="4"/></g></g><g fill="#000000" fill-opacity="1"><g transform="translate(17.47288, 71.349255)"><g><path d="M 3.578125 0.144531 C 5.246094 0.144531 6.390625 -0.761719 6.390625 -2.195312 C 6.390625 -3.742188 5.03125 -4.171875 3.515625 -4.671875 C 2.382812 -5.042969 1.667969 -5.328125 1.667969 -6.234375 C 1.667969 -7.152344 2.394531 -7.679688 3.398438 -7.679688 C 4.496094 -7.679688 5.136719 -7.046875 5.449219 -6.292969 L 6.152344 -6.6875 C 5.722656 -7.679688 4.769531 -8.488281 3.398438 -8.488281 C 2.015625 -8.488281 0.835938 -7.664062 0.835938 -6.199219 C 0.835938 -4.660156 2.144531 -4.304688 3.503906 -3.851562 C 4.734375 -3.445312 5.554688 -3.136719 5.554688 -2.167969 C 5.554688 -1.277344 4.851562 -0.667969 3.589844 -0.667969 C 2.277344 -0.667969 1.492188 -1.3125 1.191406 -2.3125 L 0.476562 -1.894531 C 0.90625 -0.632812 2.039062 0.144531 3.578125 0.144531 Z M 3.578125 0.144531 "/></g></g></g><g fill="#000000" fill-opacity="1"><g transform="translate(24.340011, 71.349255)"><g><path d="M 3.613281 0.144531 C 5.351562 0.144531 6.746094 -1.214844 6.746094 -2.980469 C 6.746094 -4.746094 5.351562 -6.105469 3.613281 -6.105469 C 1.871094 -6.105469 0.476562 -4.746094 0.476562 -2.980469 C 0.476562 -1.214844 1.871094 0.144531 3.613281 0.144531 Z M 3.613281 -0.621094 C 2.289062 -0.621094 1.265625 -1.65625 1.265625 -2.980469 C 1.265625 -4.304688 2.289062 -5.339844 3.613281 -5.339844 C 4.9375 -5.339844 5.960938 -4.304688 5.960938 -2.980469 C 5.960938 -1.65625 4.9375 -0.621094 3.613281 -0.621094 Z M 3.613281 -0.621094 "/></g></g></g><g fill="#000000" fill-opacity="1"><g transform="translate(31.564801, 71.349255)"><g><path d="M 5.03125 -5.960938 L 5.03125 -2.835938 C 5.03125 -1.238281 4.148438 -0.621094 3.101562 -0.621094 C 2.0625 -0.621094 1.476562 -1.238281 1.476562 -2.300781 L 1.476562 -5.960938 L 0.691406 -5.960938 L 0.691406 -2.300781 C 0.691406 -0.8125 1.574219 0.144531 3.027344 0.144531 C 3.875 0.144531 4.566406 -0.179688 5.03125 -0.929688 L 5.03125 0 L 5.816406 0 L 5.816406 -5.960938 Z M 5.03125 -5.960938 "/></g></g></g><g fill="#000000" fill-opacity="1"><g transform="translate(38.217338, 71.349255)"><g><path d="M 1.621094 -4.972656 L 1.621094 -5.960938 L 0.835938 -5.960938 L 0.835938 0 L 1.621094 0 L 1.621094 -3.3125 C 1.621094 -4.792969 2.550781 -5.292969 3.503906 -5.292969 L 3.503906 -6.054688 C 2.742188 -6.054688 2.039062 -5.804688 1.621094 -4.972656 Z M 1.621094 -4.972656 "/></g></g></g><g fill="#000000" fill-opacity="1"><g transform="translate(41.960883, 71.349255)"><g><path d="M 3.613281 0.144531 C 4.78125 0.144531 5.792969 -0.464844 6.28125 -1.40625 L 5.628906 -1.789062 C 5.246094 -1.097656 4.519531 -0.621094 3.613281 -0.621094 C 2.289062 -0.621094 1.265625 -1.65625 1.265625 -2.980469 C 1.265625 -4.304688 2.289062 -5.339844 3.613281 -5.339844 C 4.507812 -5.339844 5.257812 -4.875 5.578125 -4.171875 L 6.222656 -4.542969 C 5.792969 -5.484375 4.792969 -6.105469 3.613281 -6.105469 C 1.8125 -6.105469 0.476562 -4.746094 0.476562 -2.980469 C 0.476562 -1.214844 1.8125 0.144531 3.613281 0.144531 Z M 3.613281 0.144531 "/></g></g></g><g fill="#000000" fill-opacity="1"><g transform="translate(48.541882, 71.349255)"><g><path d="M 3.589844 -6.105469 C 1.742188 -6.105469 0.476562 -4.734375 0.476562 -2.980469 C 0.476562 -1.179688 1.765625 0.144531 3.648438 0.144531 C 4.851562 0.144531 5.769531 -0.417969 6.269531 -1.226562 L 5.578125 -1.632812 C 5.257812 -1.0625 4.601562 -0.621094 3.660156 -0.621094 C 2.394531 -0.621094 1.453125 -1.371094 1.289062 -2.585938 L 6.519531 -2.585938 C 6.535156 -2.707031 6.546875 -2.835938 6.546875 -2.957031 C 6.546875 -4.589844 5.414062 -6.105469 3.589844 -6.105469 Z M 3.589844 -5.339844 C 4.613281 -5.339844 5.566406 -4.660156 5.734375 -3.351562 L 1.289062 -3.351562 C 1.441406 -4.519531 2.335938 -5.339844 3.589844 -5.339844 Z M 3.589844 -5.339844 "/></g></g></g><g fill="#000000" fill-opacity="1"><g transform="translate(16.541468, 87.742112)"><g><path d="M 3.578125 0.144531 C 5.246094 0.144531 6.390625 -0.761719 6.390625 -2.195312 C 6.390625 -3.742188 5.03125 -4.171875 3.515625 -4.671875 C 2.382812 -5.042969 1.667969 -5.328125 1.667969 -6.234375 C 1.667969 -7.152344 2.394531 -7.679688 3.398438 -7.679688 C 4.496094 -7.679688 5.136719 -7.046875 5.449219 -6.292969 L 6.152344 -6.6875 C 5.722656 -7.679688 4.769531 -8.488281 3.398438 -8.488281 C 2.015625 -8.488281 0.835938 -7.664062 0.835938 -6.199219 C 0.835938 -4.660156 2.144531 -4.304688 3.503906 -3.851562 C 4.734375 -3.445312 5.554688 -3.136719 5.554688 -2.167969 C 5.554688 -1.277344 4.851562 -0.667969 3.589844 -0.667969 C 2.277344 -0.667969 1.492188 -1.3125 1.191406 -2.3125 L 0.476562 -1.894531 C 0.90625 -0.632812 2.039062 0.144531 3.578125 0.144531 Z M 3.578125 0.144531 "/></g></g></g><g fill="#000000" fill-opacity="1"><g transform="translate(23.408599, 87.742112)"><g><path d="M 5.125 -5.960938 L 3.195312 -0.964844 L 0.953125 -5.960938 L 0.121094 -5.960938 L 2.789062 0.0351562 L 2.636719 0.40625 C 2.3125 1.179688 1.777344 1.730469 1 1.644531 L 1 2.382812 C 2.074219 2.46875 2.957031 1.691406 3.410156 0.546875 L 5.960938 -5.960938 Z M 5.125 -5.960938 "/></g></g></g><g fill="#000000" fill-opacity="1"><g transform="translate(29.488872, 87.742112)"><g><path d="M 1.453125 -4.398438 C 1.453125 -5.042969 2.085938 -5.339844 2.707031 -5.339844 C 3.277344 -5.339844 3.886719 -5.113281 4.136719 -4.507812 L 4.792969 -4.886719 C 4.445312 -5.628906 3.683594 -6.105469 2.707031 -6.105469 C 1.515625 -6.105469 0.667969 -5.351562 0.667969 -4.398438 C 0.667969 -2.207031 4.148438 -3.050781 4.148438 -1.574219 C 4.148438 -0.871094 3.480469 -0.621094 2.777344 -0.621094 C 1.980469 -0.621094 1.359375 -1.011719 1.144531 -1.621094 L 0.476562 -1.226562 C 0.773438 -0.464844 1.585938 0.144531 2.777344 0.144531 C 4.054688 0.144531 4.9375 -0.558594 4.9375 -1.574219 C 4.9375 -3.765625 1.453125 -2.921875 1.453125 -4.398438 Z M 1.453125 -4.398438 "/></g></g></g><g fill="#000000" fill-opacity="1"><g transform="translate(34.901501, 87.742112)"><g><path d="M 3.992188 -5.199219 L 3.992188 -5.960938 L 2.277344 -5.960938 L 2.277344 -7.628906 L 1.492188 -7.390625 L 1.492188 -5.960938 L 0.238281 -5.960938 L 0.238281 -5.199219 L 1.492188 -5.199219 L 1.492188 -1.585938 C 1.492188 -0.15625 2.382812 0.238281 3.992188 0 L 3.992188 -0.691406 C 2.835938 -0.644531 2.277344 -0.558594 2.277344 -1.585938 L 2.277344 -5.199219 Z M 3.992188 -5.199219 "/></g></g></g><g fill="#000000" fill-opacity="1"><g transform="translate(39.372292, 87.742112)"><g><path d="M 3.589844 -6.105469 C 1.742188 -6.105469 0.476562 -4.734375 0.476562 -2.980469 C 0.476562 -1.179688 1.765625 0.144531 3.648438 0.144531 C 4.851562 0.144531 5.769531 -0.417969 6.269531 -1.226562 L 5.578125 -1.632812 C 5.257812 -1.0625 4.601562 -0.621094 3.660156 -0.621094 C 2.394531 -0.621094 1.453125 -1.371094 1.289062 -2.585938 L 6.519531 -2.585938 C 6.535156 -2.707031 6.546875 -2.835938 6.546875 -2.957031 C 6.546875 -4.589844 5.414062 -6.105469 3.589844 -6.105469 Z M 3.589844 -5.339844 C 4.613281 -5.339844 5.566406 -4.660156 5.734375 -3.351562 L 1.289062 -3.351562 C 1.441406 -4.519531 2.335938 -5.339844 3.589844 -5.339844 Z M 3.589844 -5.339844 "/></g></g></g><g fill="#000000" fill-opacity="1"><g transform="translate(46.334803, 87.742112)"><g><path d="M 7.1875 -6.105469 C 6.425781 -6.105469 5.699219 -5.757812 5.257812 -5.019531 C 4.921875 -5.710938 4.28125 -6.105469 3.445312 -6.105469 C 2.730469 -6.105469 2.085938 -5.816406 1.621094 -5.089844 L 1.621094 -5.960938 L 0.835938 -5.960938 L 0.835938 0 L 1.621094 0 L 1.621094 -3.300781 C 1.621094 -4.78125 2.480469 -5.339844 3.339844 -5.339844 C 4.183594 -5.339844 4.734375 -4.78125 4.734375 -3.71875 L 4.734375 0 L 5.519531 0 L 5.519531 -3.300781 C 5.519531 -4.78125 6.257812 -5.339844 7.175781 -5.339844 C 8.023438 -5.339844 8.632812 -4.78125 8.632812 -3.71875 L 8.632812 0 L 9.417969 0 L 9.417969 -3.71875 C 9.417969 -5.210938 8.5 -6.105469 7.1875 -6.105469 Z M 7.1875 -6.105469 "/></g></g></g><g clip-path="url(#9f8fcc9e09)"><g clip-path="url(#d2731ab8ff)"><g transform="matrix(1, 0, 0, 1, 514, 8)"><g clip-path="url(#834f6b23d2)"><g clip-path="url(#e610351958)"><g clip-path="url(#6932b3b621)"><path fill="#e9f7ff" d="M 0.929688 0.0117188 L 70.859375 0.0117188 L 70.859375 135.5 L 0.929688 135.5 Z M 0.929688 0.0117188 " fill-opacity="1" fill-rule="nonzero"/></g></g></g></g></g></g><g clip-path="url(#c2433f70c2)"><g clip-path="url(#2f97a57a47)"><path stroke-linecap="butt" transform="matrix(0.74513, 0, 0, 0.74513, 514.931176, 8.015329)" fill="none" stroke-linejoin="miter" d="M 16.999024 0.000397035 L 76.845976 0.000397035 C 81.354418 0.000397035 85.679378 1.793289 88.866742 4.980653 C 92.054105 8.168017 93.841755 12.492976 93.841755 17.001419 L 93.841755 164.867845 C 93.841755 169.376287 92.054105 173.701246 88.866742 176.88861 C 85.679378 180.075974 81.354418 181.868866 76.845976 181.868866 L 16.999024 181.868866 C 12.490582 181.868866 8.165623 180.075974 4.978259 176.88861 C 1.790895 173.701246 -0.00199735 169.376287 -0.00199735 164.867845 L -0.00199735 17.001419 C -0.00199735 12.492976 1.790895 8.168017 4.978259 4.980653 C 8.165623 1.793289 12.490582 0.000397035 16.999024 0.000397035 Z M 16.999024 0.000397035 " stroke="#89898d" stroke-width="4" stroke-opacity="1" stroke-miterlimit="4"/></g></g><g fill="#000000" fill-opacity="1"><g transform="translate(531.498672, 71.349255)"><g><path d="M 6.199219 -8.34375 L 0.238281 -8.34375 L 0.238281 -7.558594 L 2.800781 -7.558594 L 2.800781 0 L 3.636719 0 L 3.636719 -7.558594 L 6.199219 -7.558594 Z M 6.199219 -8.34375 "/></g></g></g><g fill="#000000" fill-opacity="1"><g transform="translate(537.936605, 71.349255)"><g><path d="M 5.960938 -5.960938 L 5.960938 -4.792969 C 5.460938 -5.589844 4.613281 -6.105469 3.554688 -6.105469 C 1.871094 -6.105469 0.476562 -4.746094 0.476562 -2.980469 C 0.476562 -1.214844 1.871094 0.144531 3.554688 0.144531 C 4.613281 0.144531 5.460938 -0.371094 5.960938 -1.167969 L 5.960938 0 L 6.746094 0 L 6.746094 -5.960938 Z M 3.613281 -0.621094 C 2.289062 -0.621094 1.265625 -1.65625 1.265625 -2.980469 C 1.265625 -4.304688 2.289062 -5.339844 3.613281 -5.339844 C 4.9375 -5.339844 5.960938 -4.304688 5.960938 -2.980469 C 5.960938 -1.65625 4.9375 -0.621094 3.613281 -0.621094 Z M 3.613281 -0.621094 "/></g></g></g><g fill="#000000" fill-opacity="1"><g transform="translate(545.519065, 71.349255)"><g><path d="M 1.621094 -4.972656 L 1.621094 -5.960938 L 0.835938 -5.960938 L 0.835938 0 L 1.621094 0 L 1.621094 -3.3125 C 1.621094 -4.792969 2.550781 -5.292969 3.503906 -5.292969 L 3.503906 -6.054688 C 2.742188 -6.054688 2.039062 -5.804688 1.621094 -4.972656 Z M 1.621094 -4.972656 "/></g></g></g><g fill="#000000" fill-opacity="1"><g transform="translate(549.262611, 71.349255)"><g><path d="M 5.960938 -5.960938 L 5.960938 -4.792969 C 5.460938 -5.589844 4.613281 -6.105469 3.554688 -6.105469 C 1.871094 -6.105469 0.476562 -4.746094 0.476562 -2.980469 C 0.476562 -1.214844 1.871094 0.144531 3.554688 0.144531 C 4.613281 0.144531 5.460938 -0.371094 5.960938 -1.167969 L 5.960938 -0.238281 C 5.960938 0.976562 5.136719 1.765625 3.753906 1.765625 C 2.46875 1.765625 1.917969 1.289062 1.621094 0.679688 L 0.929688 1.074219 C 1.394531 2.003906 2.382812 2.527344 3.753906 2.527344 C 5.292969 2.527344 6.746094 1.574219 6.746094 -0.238281 L 6.746094 -5.960938 Z M 3.613281 -0.621094 C 2.289062 -0.621094 1.265625 -1.65625 1.265625 -2.980469 C 1.265625 -4.304688 2.289062 -5.339844 3.613281 -5.339844 C 4.9375 -5.339844 5.960938 -4.304688 5.960938 -2.980469 C 5.960938 -1.65625 4.9375 -0.621094 3.613281 -0.621094 Z M 3.613281 -0.621094 "/></g></g></g><g fill="#000000" fill-opacity="1"><g transform="translate(556.845071, 71.349255)"><g><path d="M 3.589844 -6.105469 C 1.742188 -6.105469 0.476562 -4.734375 0.476562 -2.980469 C 0.476562 -1.179688 1.765625 0.144531 3.648438 0.144531 C 4.851562 0.144531 5.769531 -0.417969 6.269531 -1.226562 L 5.578125 -1.632812 C 5.257812 -1.0625 4.601562 -0.621094 3.660156 -0.621094 C 2.394531 -0.621094 1.453125 -1.371094 1.289062 -2.585938 L 6.519531 -2.585938 C 6.535156 -2.707031 6.546875 -2.835938 6.546875 -2.957031 C 6.546875 -4.589844 5.414062 -6.105469 3.589844 -6.105469 Z M 3.589844 -5.339844 C 4.613281 -5.339844 5.566406 -4.660156 5.734375 -3.351562 L 1.289062 -3.351562 C 1.441406 -4.519531 2.335938 -5.339844 3.589844 -5.339844 Z M 3.589844 -5.339844 "/></g></g></g><g fill="#000000" fill-opacity="1"><g transform="translate(563.807583, 71.349255)"><g><path d="M 3.992188 -5.199219 L 3.992188 -5.960938 L 2.277344 -5.960938 L 2.277344 -7.628906 L 1.492188 -7.390625 L 1.492188 -5.960938 L 0.238281 -5.960938 L 0.238281 -5.199219 L 1.492188 -5.199219 L 1.492188 -1.585938 C 1.492188 -0.15625 2.382812 0.238281 3.992188 0 L 3.992188 -0.691406 C 2.835938 -0.644531 2.277344 -0.558594 2.277344 -1.585938 L 2.277344 -5.199219 Z M 3.992188 -5.199219 "/></g></g></g><g fill="#000000" fill-opacity="1"><g transform="translate(529.938557, 87.742112)"><g><path d="M 3.578125 0.144531 C 5.246094 0.144531 6.390625 -0.761719 6.390625 -2.195312 C 6.390625 -3.742188 5.03125 -4.171875 3.515625 -4.671875 C 2.382812 -5.042969 1.667969 -5.328125 1.667969 -6.234375 C 1.667969 -7.152344 2.394531 -7.679688 3.398438 -7.679688 C 4.496094 -7.679688 5.136719 -7.046875 5.449219 -6.292969 L 6.152344 -6.6875 C 5.722656 -7.679688 4.769531 -8.488281 3.398438 -8.488281 C 2.015625 -8.488281 0.835938 -7.664062 0.835938 -6.199219 C 0.835938 -4.660156 2.144531 -4.304688 3.503906 -3.851562 C 4.734375 -3.445312 5.554688 -3.136719 5.554688 -2.167969 C 5.554688 -1.277344 4.851562 -0.667969 3.589844 -0.667969 C 2.277344 -0.667969 1.492188 -1.3125 1.191406 -2.3125 L 0.476562 -1.894531 C 0.90625 -0.632812 2.039062 0.144531 3.578125 0.144531 Z M 3.578125 0.144531 "/></g></g></g><g fill="#000000" fill-opacity="1"><g transform="translate(536.805687, 87.742112)"><g><path d="M 5.125 -5.960938 L 3.195312 -0.964844 L 0.953125 -5.960938 L 0.121094 -5.960938 L 2.789062 0.0351562 L 2.636719 0.40625 C 2.3125 1.179688 1.777344 1.730469 1 1.644531 L 1 2.382812 C 2.074219 2.46875 2.957031 1.691406 3.410156 0.546875 L 5.960938 -5.960938 Z M 5.125 -5.960938 "/></g></g></g><g fill="#000000" fill-opacity="1"><g transform="translate(542.885961, 87.742112)"><g><path d="M 1.453125 -4.398438 C 1.453125 -5.042969 2.085938 -5.339844 2.707031 -5.339844 C 3.277344 -5.339844 3.886719 -5.113281 4.136719 -4.507812 L 4.792969 -4.886719 C 4.445312 -5.628906 3.683594 -6.105469 2.707031 -6.105469 C 1.515625 -6.105469 0.667969 -5.351562 0.667969 -4.398438 C 0.667969 -2.207031 4.148438 -3.050781 4.148438 -1.574219 C 4.148438 -0.871094 3.480469 -0.621094 2.777344 -0.621094 C 1.980469 -0.621094 1.359375 -1.011719 1.144531 -1.621094 L 0.476562 -1.226562 C 0.773438 -0.464844 1.585938 0.144531 2.777344 0.144531 C 4.054688 0.144531 4.9375 -0.558594 4.9375 -1.574219 C 4.9375 -3.765625 1.453125 -2.921875 1.453125 -4.398438 Z M 1.453125 -4.398438 "/></g></g></g><g fill="#000000" fill-opacity="1"><g transform="translate(548.29859, 87.742112)"><g><path d="M 3.992188 -5.199219 L 3.992188 -5.960938 L 2.277344 -5.960938 L 2.277344 -7.628906 L 1.492188 -7.390625 L 1.492188 -5.960938 L 0.238281 -5.960938 L 0.238281 -5.199219 L 1.492188 -5.199219 L 1.492188 -1.585938 C 1.492188 -0.15625 2.382812 0.238281 3.992188 0 L 3.992188 -0.691406 C 2.835938 -0.644531 2.277344 -0.558594 2.277344 -1.585938 L 2.277344 -5.199219 Z M 3.992188 -5.199219 "/></g></g></g><g fill="#000000" fill-opacity="1"><g transform="translate(552.76938, 87.742112)"><g><path d="M 3.589844 -6.105469 C 1.742188 -6.105469 0.476562 -4.734375 0.476562 -2.980469 C 0.476562 -1.179688 1.765625 0.144531 3.648438 0.144531 C 4.851562 0.144531 5.769531 -0.417969 6.269531 -1.226562 L 5.578125 -1.632812 C 5.257812 -1.0625 4.601562 -0.621094 3.660156 -0.621094 C 2.394531 -0.621094 1.453125 -1.371094 1.289062 -2.585938 L 6.519531 -2.585938 C 6.535156 -2.707031 6.546875 -2.835938 6.546875 -2.957031 C 6.546875 -4.589844 5.414062 -6.105469 3.589844 -6.105469 Z M 3.589844 -5.339844 C 4.613281 -5.339844 5.566406 -4.660156 5.734375 -3.351562 L 1.289062 -3.351562 C 1.441406 -4.519531 2.335938 -5.339844 3.589844 -5.339844 Z M 3.589844 -5.339844 "/></g></g></g><g fill="#000000" fill-opacity="1"><g transform="translate(559.731892, 87.742112)"><g><path d="M 7.1875 -6.105469 C 6.425781 -6.105469 5.699219 -5.757812 5.257812 -5.019531 C 4.921875 -5.710938 4.28125 -6.105469 3.445312 -6.105469 C 2.730469 -6.105469 2.085938 -5.816406 1.621094 -5.089844 L 1.621094 -5.960938 L 0.835938 -5.960938 L 0.835938 0 L 1.621094 0 L 1.621094 -3.300781 C 1.621094 -4.78125 2.480469 -5.339844 3.339844 -5.339844 C 4.183594 -5.339844 4.734375 -4.78125 4.734375 -3.71875 L 4.734375 0 L 5.519531 0 L 5.519531 -3.300781 C 5.519531 -4.78125 6.257812 -5.339844 7.175781 -5.339844 C 8.023438 -5.339844 8.632812 -4.78125 8.632812 -3.71875 L 8.632812 0 L 9.417969 0 L 9.417969 -3.71875 C 9.417969 -5.210938 8.5 -6.105469 7.1875 -6.105469 Z M 7.1875 -6.105469 "/></g></g></g><path stroke-linecap="butt" transform="matrix(0.74513, -0.000000000000000185, 0.000000000000000185, 0.74513, 326.731136, 75.029103)" fill="none" stroke-linejoin="miter" d="M -0.000894979 0.998932 L 48.889493 0.998932 " stroke="#000000" stroke-width="2" stroke-opacity="1" stroke-miterlimit="4"/><path stroke-linecap="round" transform="matrix(0.74513, -0.000000000000000185, 0.000000000000000185, 0.74513, 326.731136, 75.029103)" fill-opacity="1" fill="#000000" fill-rule="nonzero" stroke-linejoin="round" d="M 49.387519 -1.999706 L 53.387451 0.998932 L 49.387519 3.997571 Z M 49.387519 -1.999706 " stroke="#000000" stroke-width="2" stroke-opacity="1" stroke-miterlimit="4"/><g clip-path="url(#40caca7e25)"><g clip-path="url(#86f2547a85)"><g transform="matrix(1, 0, 0, 1, 367, 41)"><g clip-path="url(#9d6dba1468)"><g clip-path="url(#f493380a28)"><g clip-path="url(#78c252fb89)"><path fill="#ffffff" d="M 0.257812 0.914062 L 97.335938 0.914062 L 97.335938 68.632812 L 0.257812 68.632812 Z M 0.257812 0.914062 " fill-opacity="1" fill-rule="nonzero"/></g></g></g></g></g></g><g clip-path="url(#18f6a39f4c)"><g clip-path="url(#8335eda408)"><path stroke-linecap="butt" transform="matrix(0.74513, 0, 0, 0.74513, 367.256712, 41.917684)" fill="none" stroke-linejoin="miter" d="M 6.543961 0.000382678 L 76.335698 0.000382678 C 105.87648 0.000382678 130.326917 20.340797 130.326917 45.436046 C 130.326917 70.526052 105.87648 90.871709 76.335698 90.871709 L 6.543961 90.871709 C 2.926722 90.871709 0.00147718 87.941221 0.00147718 84.329225 L 0.00147718 6.542867 C 0.00147718 2.93087 2.926722 0.000382678 6.543961 0.000382678 Z M 6.543961 0.000382678 " stroke="#000000" stroke-width="4" stroke-opacity="1" stroke-miterlimit="4"/></g></g><g fill="#000000" fill-opacity="1"><g transform="translate(380.343055, 70.975685)"><g><path d="M 6.199219 -8.34375 L 0.238281 -8.34375 L 0.238281 -7.558594 L 2.800781 -7.558594 L 2.800781 0 L 3.636719 0 L 3.636719 -7.558594 L 6.199219 -7.558594 Z M 6.199219 -8.34375 "/></g></g></g><g fill="#000000" fill-opacity="1"><g transform="translate(386.780988, 70.975685)"><g><path d="M 5.960938 -5.960938 L 5.960938 -4.792969 C 5.460938 -5.589844 4.613281 -6.105469 3.554688 -6.105469 C 1.871094 -6.105469 0.476562 -4.746094 0.476562 -2.980469 C 0.476562 -1.214844 1.871094 0.144531 3.554688 0.144531 C 4.613281 0.144531 5.460938 -0.371094 5.960938 -1.167969 L 5.960938 0 L 6.746094 0 L 6.746094 -5.960938 Z M 3.613281 -0.621094 C 2.289062 -0.621094 1.265625 -1.65625 1.265625 -2.980469 C 1.265625 -4.304688 2.289062 -5.339844 3.613281 -5.339844 C 4.9375 -5.339844 5.960938 -4.304688 5.960938 -2.980469 C 5.960938 -1.65625 4.9375 -0.621094 3.613281 -0.621094 Z M 3.613281 -0.621094 "/></g></g></g><g fill="#000000" fill-opacity="1"><g transform="translate(394.363448, 70.975685)"><g><path d="M 1.621094 -4.972656 L 1.621094 -5.960938 L 0.835938 -5.960938 L 0.835938 0 L 1.621094 0 L 1.621094 -3.3125 C 1.621094 -4.792969 2.550781 -5.292969 3.503906 -5.292969 L 3.503906 -6.054688 C 2.742188 -6.054688 2.039062 -5.804688 1.621094 -4.972656 Z M 1.621094 -4.972656 "/></g></g></g><g fill="#000000" fill-opacity="1"><g transform="translate(398.106993, 70.975685)"><g><path d="M 5.960938 -5.960938 L 5.960938 -4.792969 C 5.460938 -5.589844 4.613281 -6.105469 3.554688 -6.105469 C 1.871094 -6.105469 0.476562 -4.746094 0.476562 -2.980469 C 0.476562 -1.214844 1.871094 0.144531 3.554688 0.144531 C 4.613281 0.144531 5.460938 -0.371094 5.960938 -1.167969 L 5.960938 -0.238281 C 5.960938 0.976562 5.136719 1.765625 3.753906 1.765625 C 2.46875 1.765625 1.917969 1.289062 1.621094 0.679688 L 0.929688 1.074219 C 1.394531 2.003906 2.382812 2.527344 3.753906 2.527344 C 5.292969 2.527344 6.746094 1.574219 6.746094 -0.238281 L 6.746094 -5.960938 Z M 3.613281 -0.621094 C 2.289062 -0.621094 1.265625 -1.65625 1.265625 -2.980469 C 1.265625 -4.304688 2.289062 -5.339844 3.613281 -5.339844 C 4.9375 -5.339844 5.960938 -4.304688 5.960938 -2.980469 C 5.960938 -1.65625 4.9375 -0.621094 3.613281 -0.621094 Z M 3.613281 -0.621094 "/></g></g></g><g fill="#000000" fill-opacity="1"><g transform="translate(405.689453, 70.975685)"><g><path d="M 3.589844 -6.105469 C 1.742188 -6.105469 0.476562 -4.734375 0.476562 -2.980469 C 0.476562 -1.179688 1.765625 0.144531 3.648438 0.144531 C 4.851562 0.144531 5.769531 -0.417969 6.269531 -1.226562 L 5.578125 -1.632812 C 5.257812 -1.0625 4.601562 -0.621094 3.660156 -0.621094 C 2.394531 -0.621094 1.453125 -1.371094 1.289062 -2.585938 L 6.519531 -2.585938 C 6.535156 -2.707031 6.546875 -2.835938 6.546875 -2.957031 C 6.546875 -4.589844 5.414062 -6.105469 3.589844 -6.105469 Z M 3.589844 -5.339844 C 4.613281 -5.339844 5.566406 -4.660156 5.734375 -3.351562 L 1.289062 -3.351562 C 1.441406 -4.519531 2.335938 -5.339844 3.589844 -5.339844 Z M 3.589844 -5.339844 "/></g></g></g><g fill="#000000" fill-opacity="1"><g transform="translate(412.651965, 70.975685)"><g><path d="M 3.992188 -5.199219 L 3.992188 -5.960938 L 2.277344 -5.960938 L 2.277344 -7.628906 L 1.492188 -7.390625 L 1.492188 -5.960938 L 0.238281 -5.960938 L 0.238281 -5.199219 L 1.492188 -5.199219 L 1.492188 -1.585938 C 1.492188 -0.15625 2.382812 0.238281 3.992188 0 L 3.992188 -0.691406 C 2.835938 -0.644531 2.277344 -0.558594 2.277344 -1.585938 L 2.277344 -5.199219 Z M 3.992188 -5.199219 "/></g></g></g><g fill="#000000" fill-opacity="1"><g transform="translate(383.556427, 87.368542)"><g><path d="M 3.578125 0.144531 C 5.246094 0.144531 6.390625 -0.761719 6.390625 -2.195312 C 6.390625 -3.742188 5.03125 -4.171875 3.515625 -4.671875 C 2.382812 -5.042969 1.667969 -5.328125 1.667969 -6.234375 C 1.667969 -7.152344 2.394531 -7.679688 3.398438 -7.679688 C 4.496094 -7.679688 5.136719 -7.046875 5.449219 -6.292969 L 6.152344 -6.6875 C 5.722656 -7.679688 4.769531 -8.488281 3.398438 -8.488281 C 2.015625 -8.488281 0.835938 -7.664062 0.835938 -6.199219 C 0.835938 -4.660156 2.144531 -4.304688 3.503906 -3.851562 C 4.734375 -3.445312 5.554688 -3.136719 5.554688 -2.167969 C 5.554688 -1.277344 4.851562 -0.667969 3.589844 -0.667969 C 2.277344 -0.667969 1.492188 -1.3125 1.191406 -2.3125 L 0.476562 -1.894531 C 0.90625 -0.632812 2.039062 0.144531 3.578125 0.144531 Z M 3.578125 0.144531 "/></g></g></g><g fill="#000000" fill-opacity="1"><g transform="translate(390.423558, 87.368542)"><g><path d="M 3.992188 -5.199219 L 3.992188 -5.960938 L 2.277344 -5.960938 L 2.277344 -7.628906 L 1.492188 -7.390625 L 1.492188 -5.960938 L 0.238281 -5.960938 L 0.238281 -5.199219 L 1.492188 -5.199219 L 1.492188 -1.585938 C 1.492188 -0.15625 2.382812 0.238281 3.992188 0 L 3.992188 -0.691406 C 2.835938 -0.644531 2.277344 -0.558594 2.277344 -1.585938 L 2.277344 -5.199219 Z M 3.992188 -5.199219 "/></g></g></g><g fill="#000000" fill-opacity="1"><g transform="translate(394.894348, 87.368542)"><g><path d="M 5.960938 -5.960938 L 5.960938 -4.792969 C 5.460938 -5.589844 4.613281 -6.105469 3.554688 -6.105469 C 1.871094 -6.105469 0.476562 -4.746094 0.476562 -2.980469 C 0.476562 -1.214844 1.871094 0.144531 3.554688 0.144531 C 4.613281 0.144531 5.460938 -0.371094 5.960938 -1.167969 L 5.960938 0 L 6.746094 0 L 6.746094 -5.960938 Z M 3.613281 -0.621094 C 2.289062 -0.621094 1.265625 -1.65625 1.265625 -2.980469 C 1.265625 -4.304688 2.289062 -5.339844 3.613281 -5.339844 C 4.9375 -5.339844 5.960938 -4.304688 5.960938 -2.980469 C 5.960938 -1.65625 4.9375 -0.621094 3.613281 -0.621094 Z M 3.613281 -0.621094 "/></g></g></g><g fill="#000000" fill-opacity="1"><g transform="translate(402.476809, 87.368542)"><g><path d="M 3.992188 -5.199219 L 3.992188 -5.960938 L 2.277344 -5.960938 L 2.277344 -7.628906 L 1.492188 -7.390625 L 1.492188 -5.960938 L 0.238281 -5.960938 L 0.238281 -5.199219 L 1.492188 -5.199219 L 1.492188 -1.585938 C 1.492188 -0.15625 2.382812 0.238281 3.992188 0 L 3.992188 -0.691406 C 2.835938 -0.644531 2.277344 -0.558594 2.277344 -1.585938 L 2.277344 -5.199219 Z M 3.992188 -5.199219 "/></g></g></g><g fill="#000000" fill-opacity="1"><g transform="translate(406.947599, 87.368542)"><g><path d="M 3.589844 -6.105469 C 1.742188 -6.105469 0.476562 -4.734375 0.476562 -2.980469 C 0.476562 -1.179688 1.765625 0.144531 3.648438 0.144531 C 4.851562 0.144531 5.769531 -0.417969 6.269531 -1.226562 L 5.578125 -1.632812 C 5.257812 -1.0625 4.601562 -0.621094 3.660156 -0.621094 C 2.394531 -0.621094 1.453125 -1.371094 1.289062 -2.585938 L 6.519531 -2.585938 C 6.535156 -2.707031 6.546875 -2.835938 6.546875 -2.957031 C 6.546875 -4.589844 5.414062 -6.105469 3.589844 -6.105469 Z M 3.589844 -5.339844 C 4.613281 -5.339844 5.566406 -4.660156 5.734375 -3.351562 L 1.289062 -3.351562 C 1.441406 -4.519531 2.335938 -5.339844 3.589844 -5.339844 Z M 3.589844 -5.339844 "/></g></g></g><path fill="#89898d" d="M 464.378906 75.027344 L 465.871094 75.027344 L 465.871094 76.519531 L 464.378906 76.519531 M 467.359375 75.027344 L 468.851562 75.027344 L 468.851562 76.519531 L 467.359375 76.519531 M 470.339844 75.027344 L 471.832031 75.027344 L 471.832031 76.519531 L 470.339844 76.519531 M 473.320312 75.027344 L 474.8125 75.027344 L 474.8125 76.519531 L 473.320312 76.519531 M 476.300781 75.027344 L 477.792969 75.027344 L 477.792969 76.519531 L 476.300781 76.519531 M 479.28125 75.027344 L 480.773438 75.027344 L 480.773438 76.519531 L 479.28125 76.519531 M 482.261719 75.027344 L 483.753906 75.027344 L 483.753906 76.519531 L 482.261719 76.519531 M 485.242188 75.027344 L 486.734375 75.027344 L 486.734375 76.519531 L 485.242188 76.519531 M 488.222656 75.027344 L 489.714844 75.027344 L 489.714844 76.519531 L 488.222656 76.519531 M 491.203125 75.027344 L 492.695312 75.027344 L 492.695312 76.519531 L 491.203125 76.519531 M 494.183594 75.027344 L 495.675781 75.027344 L 495.675781 76.519531 L 494.183594 76.519531 M 497.164062 75.027344 L 498.65625 75.027344 L 498.65625 76.519531 L 497.164062 76.519531 M 500.144531 75.027344 L 501.636719 75.027344 L 501.636719 76.519531 L 500.144531 76.519531 M 503.125 75.027344 L 504.617188 75.027344 L 504.617188 76.519531 L 503.125 76.519531 M 506.105469 75.027344 L 507.597656 75.027344 L 507.597656 76.519531 L 506.105469 76.519531 M 509.085938 75.027344 L 510.578125 75.027344 L 510.578125 76.519531 L 509.085938 76.519531 " fill-opacity="1" fill-rule="nonzero"/><path stroke-linecap="round" transform="matrix(0.74513, -0.0000000000123181, 0.0000000000123181, 0.74513, 464.379111, 75.029103)" fill-opacity="1" fill="#89898d" fill-rule="nonzero" stroke-linejoin="round" d="M 62.845315 -1.999706 L 66.845247 0.998932 L 62.845315 3.997571 Z M 62.845315 -1.999706 " stroke="#89898d" stroke-width="2" stroke-opacity="1" stroke-miterlimit="4"/></svg>