<svg xmlns="http://www.w3.org/2000/svg" xmlns:xlink="http://www.w3.org/1999/xlink" width="1366" zoomAndPan="magnify" viewBox="0 0 1024.5 190.499994" height="254" preserveAspectRatio="xMidYMid meet" version="1.0"><defs><g/><clipPath id="91313f7cc4"><path d="M 1.089844 0 L 1022.910156 0 L 1022.910156 190 L 1.089844 190 Z M 1.089844 0 " clip-rule="nonzero"/></clipPath><clipPath id="d035f7b308"><path d="M 272.460938 0.914062 L 758.804688 0.914062 L 758.804688 189.84375 L 272.460938 189.84375 Z M 272.460938 0.914062 " clip-rule="nonzero"/></clipPath><clipPath id="e575def3a9"><path d="M 285.179688 0.914062 L 745.960938 0.914062 C 752.984375 0.914062 758.675781 6.605469 758.675781 13.628906 L 758.675781 177.125 C 758.675781 184.148438 752.984375 189.84375 745.960938 189.84375 L 285.179688 189.84375 C 278.15625 189.84375 272.460938 184.148438 272.460938 177.125 L 272.460938 13.628906 C 272.460938 6.605469 278.15625 0.914062 285.179688 0.914062 Z M 285.179688 0.914062 " clip-rule="nonzero"/></clipPath><clipPath id="4f0e85bdcf"><path d="M 0.460938 0.914062 L 486.703125 0.914062 L 486.703125 189.84375 L 0.460938 189.84375 Z M 0.460938 0.914062 " clip-rule="nonzero"/></clipPath><clipPath id="59d2863ab4"><path d="M 13.179688 0.914062 L 473.960938 0.914062 C 480.984375 0.914062 486.675781 6.605469 486.675781 13.628906 L 486.675781 177.125 C 486.675781 184.148438 480.984375 189.84375 473.960938 189.84375 L 13.179688 189.84375 C 6.15625 189.84375 0.460938 184.148438 0.460938 177.125 L 0.460938 13.628906 C 0.460938 6.605469 6.15625 0.914062 13.179688 0.914062 Z M 13.179688 0.914062 " clip-rule="nonzero"/></clipPath><clipPath id="d672c268a9"><rect x="0" width="487" y="0" height="190"/></clipPath><clipPath id="aa84e4561d"><path d="M 272.464844 0.914062 L 758.683594 0.914062 L 758.683594 190 L 272.464844 190 Z M 272.464844 0.914062 " clip-rule="nonzero"/></clipPath><clipPath id="0f511d643e"><path d="M 285.179688 0.914062 L 745.953125 0.914062 C 752.976562 0.914062 758.671875 6.605469 758.671875 13.628906 L 758.671875 177.125 C 758.671875 184.144531 752.976562 189.839844 745.953125 189.839844 L 285.179688 189.839844 C 278.15625 189.839844 272.464844 184.144531 272.464844 177.125 L 272.464844 13.628906 C 272.464844 6.605469 278.15625 0.914062 285.179688 0.914062 Z M 285.179688 0.914062 " clip-rule="nonzero"/></clipPath><linearGradient x1="-0.000000964398" gradientTransform="matrix(12.908715, 0, 0, 12.908715, 0.0000124491, 0.00000666422)" y1="9.783" x2="50.351866" gradientUnits="userSpaceOnUse" y2="9.783" id="457a8b1237"><stop stop-opacity="1" stop-color="rgb(53.729248%, 85.099792%, 34.118652%)" offset="0"/><stop stop-opacity="1" stop-color="rgb(53.826904%, 85.113525%, 34.140015%)" offset="0.0078125"/><stop stop-opacity="1" stop-color="rgb(54.022217%, 85.140991%, 34.182739%)" offset="0.015625"/><stop stop-opacity="1" stop-color="rgb(54.219055%, 85.168457%, 34.22699%)" offset="0.0234375"/><stop stop-opacity="1" stop-color="rgb(54.414368%, 85.195923%, 34.269714%)" offset="0.03125"/><stop stop-opacity="1" stop-color="rgb(54.611206%, 85.223389%, 34.312439%)" offset="0.0390625"/><stop stop-opacity="1" stop-color="rgb(54.806519%, 85.250854%, 34.355164%)" offset="0.046875"/><stop stop-opacity="1" stop-color="rgb(55.003357%, 85.27832%, 34.397888%)" offset="0.0546875"/><stop stop-opacity="1" stop-color="rgb(55.198669%, 85.305786%, 34.440613%)" offset="0.0625"/><stop stop-opacity="1" stop-color="rgb(55.395508%, 85.333252%, 34.483337%)" offset="0.0703125"/><stop stop-opacity="1" stop-color="rgb(55.59082%, 85.360718%, 34.526062%)" offset="0.078125"/><stop stop-opacity="1" stop-color="rgb(55.787659%, 85.388184%, 34.568787%)" offset="0.0859375"/><stop stop-opacity="1" stop-color="rgb(55.982971%, 85.415649%, 34.613037%)" offset="0.09375"/><stop stop-opacity="1" stop-color="rgb(56.277466%, 85.458374%, 34.677124%)" offset="0.109375"/><stop stop-opacity="1" stop-color="rgb(56.570435%, 85.499573%, 34.741211%)" offset="0.117187"/><stop stop-opacity="1" stop-color="rgb(56.767273%, 85.527039%, 34.783936%)" offset="0.125"/><stop stop-opacity="1" stop-color="rgb(56.962585%, 85.554504%, 34.82666%)" offset="0.132812"/><stop stop-opacity="1" stop-color="rgb(57.159424%, 85.58197%, 34.869385%)" offset="0.140625"/><stop stop-opacity="1" stop-color="rgb(57.354736%, 85.609436%, 34.912109%)" offset="0.148437"/><stop stop-opacity="1" stop-color="rgb(57.551575%, 85.636902%, 34.954834%)" offset="0.15625"/><stop stop-opacity="1" stop-color="rgb(57.746887%, 85.664368%, 34.999084%)" offset="0.164062"/><stop stop-opacity="1" stop-color="rgb(57.943726%, 85.691833%, 35.041809%)" offset="0.171875"/><stop stop-opacity="1" stop-color="rgb(58.139038%, 85.719299%, 35.084534%)" offset="0.179687"/><stop stop-opacity="1" stop-color="rgb(58.335876%, 85.746765%, 35.127258%)" offset="0.1875"/><stop stop-opacity="1" stop-color="rgb(58.531189%, 85.774231%, 35.169983%)" offset="0.195312"/><stop stop-opacity="1" stop-color="rgb(58.728027%, 85.801697%, 35.212708%)" offset="0.203125"/><stop stop-opacity="1" stop-color="rgb(58.92334%, 85.830688%, 35.255432%)" offset="0.210937"/><stop stop-opacity="1" stop-color="rgb(59.118652%, 85.858154%, 35.298157%)" offset="0.21875"/><stop stop-opacity="1" stop-color="rgb(59.315491%, 85.88562%, 35.340881%)" offset="0.226562"/><stop stop-opacity="1" stop-color="rgb(59.510803%, 85.913086%, 35.385132%)" offset="0.234375"/><stop stop-opacity="1" stop-color="rgb(59.707642%, 85.940552%, 35.427856%)" offset="0.242187"/><stop stop-opacity="1" stop-color="rgb(59.902954%, 85.968018%, 35.470581%)" offset="0.25"/><stop stop-opacity="1" stop-color="rgb(60.099792%, 85.995483%, 35.513306%)" offset="0.257812"/><stop stop-opacity="1" stop-color="rgb(60.295105%, 86.022949%, 35.55603%)" offset="0.265625"/><stop stop-opacity="1" stop-color="rgb(60.491943%, 86.050415%, 35.598755%)" offset="0.273437"/><stop stop-opacity="1" stop-color="rgb(60.687256%, 86.077881%, 35.641479%)" offset="0.28125"/><stop stop-opacity="1" stop-color="rgb(60.98175%, 86.11908%, 35.705566%)" offset="0.296875"/><stop stop-opacity="1" stop-color="rgb(61.274719%, 86.160278%, 35.771179%)" offset="0.304688"/><stop stop-opacity="1" stop-color="rgb(61.471558%, 86.18927%, 35.813904%)" offset="0.3125"/><stop stop-opacity="1" stop-color="rgb(61.66687%, 86.216736%, 35.856628%)" offset="0.320312"/><stop stop-opacity="1" stop-color="rgb(61.863708%, 86.244202%, 35.899353%)" offset="0.328125"/><stop stop-opacity="1" stop-color="rgb(62.059021%, 86.271667%, 35.942078%)" offset="0.335938"/><stop stop-opacity="1" stop-color="rgb(62.255859%, 86.299133%, 35.984802%)" offset="0.34375"/><stop stop-opacity="1" stop-color="rgb(62.451172%, 86.326599%, 36.027527%)" offset="0.351562"/><stop stop-opacity="1" stop-color="rgb(62.64801%, 86.354065%, 36.070251%)" offset="0.359375"/><stop stop-opacity="1" stop-color="rgb(62.843323%, 86.381531%, 36.112976%)" offset="0.367188"/><stop stop-opacity="1" stop-color="rgb(63.040161%, 86.408997%, 36.155701%)" offset="0.375"/><stop stop-opacity="1" stop-color="rgb(63.235474%, 86.436462%, 36.199951%)" offset="0.382813"/><stop stop-opacity="1" stop-color="rgb(63.432312%, 86.463928%, 36.242676%)" offset="0.390625"/><stop stop-opacity="1" stop-color="rgb(63.627625%, 86.491394%, 36.2854%)" offset="0.398438"/><stop stop-opacity="1" stop-color="rgb(63.822937%, 86.51886%, 36.328125%)" offset="0.40625"/><stop stop-opacity="1" stop-color="rgb(64.019775%, 86.546326%, 36.37085%)" offset="0.414063"/><stop stop-opacity="1" stop-color="rgb(64.215088%, 86.575317%, 36.413574%)" offset="0.421875"/><stop stop-opacity="1" stop-color="rgb(64.411926%, 86.602783%, 36.456299%)" offset="0.429688"/><stop stop-opacity="1" stop-color="rgb(64.607239%, 86.630249%, 36.499023%)" offset="0.4375"/><stop stop-opacity="1" stop-color="rgb(64.804077%, 86.657715%, 36.541748%)" offset="0.445312"/><stop stop-opacity="1" stop-color="rgb(64.99939%, 86.685181%, 36.585999%)" offset="0.453125"/><stop stop-opacity="1" stop-color="rgb(65.196228%, 86.712646%, 36.628723%)" offset="0.460938"/><stop stop-opacity="1" stop-color="rgb(65.391541%, 86.740112%, 36.671448%)" offset="0.46875"/><stop stop-opacity="1" stop-color="rgb(65.588379%, 86.767578%, 36.714172%)" offset="0.476562"/><stop stop-opacity="1" stop-color="rgb(65.783691%, 86.795044%, 36.756897%)" offset="0.484375"/><stop stop-opacity="1" stop-color="rgb(66.078186%, 86.836243%, 36.820984%)" offset="0.5"/><stop stop-opacity="1" stop-color="rgb(66.371155%, 86.877441%, 36.885071%)" offset="0.507812"/><stop stop-opacity="1" stop-color="rgb(66.567993%, 86.904907%, 36.927795%)" offset="0.515625"/><stop stop-opacity="1" stop-color="rgb(66.763306%, 86.932373%, 36.972046%)" offset="0.523437"/><stop stop-opacity="1" stop-color="rgb(66.960144%, 86.961365%, 37.014771%)" offset="0.53125"/><stop stop-opacity="1" stop-color="rgb(67.155457%, 86.988831%, 37.057495%)" offset="0.539062"/><stop stop-opacity="1" stop-color="rgb(67.352295%, 87.016296%, 37.10022%)" offset="0.546875"/><stop stop-opacity="1" stop-color="rgb(67.547607%, 87.043762%, 37.142944%)" offset="0.554688"/><stop stop-opacity="1" stop-color="rgb(67.744446%, 87.071228%, 37.185669%)" offset="0.5625"/><stop stop-opacity="1" stop-color="rgb(67.939758%, 87.098694%, 37.228394%)" offset="0.570312"/><stop stop-opacity="1" stop-color="rgb(68.136597%, 87.12616%, 37.271118%)" offset="0.578125"/><stop stop-opacity="1" stop-color="rgb(68.331909%, 87.153625%, 37.313843%)" offset="0.585938"/><stop stop-opacity="1" stop-color="rgb(68.528748%, 87.181091%, 37.358093%)" offset="0.59375"/><stop stop-opacity="1" stop-color="rgb(68.72406%, 87.208557%, 37.400818%)" offset="0.601562"/><stop stop-opacity="1" stop-color="rgb(68.919373%, 87.236023%, 37.443542%)" offset="0.609375"/><stop stop-opacity="1" stop-color="rgb(69.116211%, 87.263489%, 37.486267%)" offset="0.617187"/><stop stop-opacity="1" stop-color="rgb(69.311523%, 87.290955%, 37.528992%)" offset="0.625"/><stop stop-opacity="1" stop-color="rgb(69.508362%, 87.319946%, 37.571716%)" offset="0.632813"/><stop stop-opacity="1" stop-color="rgb(69.703674%, 87.347412%, 37.614441%)" offset="0.640625"/><stop stop-opacity="1" stop-color="rgb(69.900513%, 87.374878%, 37.657166%)" offset="0.648438"/><stop stop-opacity="1" stop-color="rgb(70.095825%, 87.402344%, 37.69989%)" offset="0.65625"/><stop stop-opacity="1" stop-color="rgb(70.292664%, 87.42981%, 37.744141%)" offset="0.664062"/><stop stop-opacity="1" stop-color="rgb(70.487976%, 87.457275%, 37.786865%)" offset="0.671875"/><stop stop-opacity="1" stop-color="rgb(70.684814%, 87.484741%, 37.82959%)" offset="0.679688"/><stop stop-opacity="1" stop-color="rgb(70.880127%, 87.512207%, 37.872314%)" offset="0.6875"/><stop stop-opacity="1" stop-color="rgb(71.174622%, 87.553406%, 37.936401%)" offset="0.703125"/><stop stop-opacity="1" stop-color="rgb(71.46759%, 87.594604%, 38.000488%)" offset="0.710938"/><stop stop-opacity="1" stop-color="rgb(71.664429%, 87.62207%, 38.043213%)" offset="0.71875"/><stop stop-opacity="1" stop-color="rgb(71.859741%, 87.649536%, 38.085938%)" offset="0.726562"/><stop stop-opacity="1" stop-color="rgb(72.05658%, 87.677002%, 38.128662%)" offset="0.734375"/><stop stop-opacity="1" stop-color="rgb(72.251892%, 87.705994%, 38.172913%)" offset="0.742188"/><stop stop-opacity="1" stop-color="rgb(72.44873%, 87.733459%, 38.215637%)" offset="0.75"/><stop stop-opacity="1" stop-color="rgb(72.644043%, 87.760925%, 38.258362%)" offset="0.757813"/><stop stop-opacity="1" stop-color="rgb(72.840881%, 87.788391%, 38.301086%)" offset="0.765625"/><stop stop-opacity="1" stop-color="rgb(73.036194%, 87.815857%, 38.343811%)" offset="0.773438"/><stop stop-opacity="1" stop-color="rgb(73.233032%, 87.843323%, 38.386536%)" offset="0.78125"/><stop stop-opacity="1" stop-color="rgb(73.428345%, 87.870789%, 38.42926%)" offset="0.789062"/><stop stop-opacity="1" stop-color="rgb(73.623657%, 87.898254%, 38.471985%)" offset="0.796875"/><stop stop-opacity="1" stop-color="rgb(73.820496%, 87.92572%, 38.514709%)" offset="0.804688"/><stop stop-opacity="1" stop-color="rgb(74.015808%, 87.953186%, 38.55896%)" offset="0.8125"/><stop stop-opacity="1" stop-color="rgb(74.212646%, 87.980652%, 38.601685%)" offset="0.820312"/><stop stop-opacity="1" stop-color="rgb(74.407959%, 88.008118%, 38.644409%)" offset="0.828125"/><stop stop-opacity="1" stop-color="rgb(74.604797%, 88.035583%, 38.687134%)" offset="0.835938"/><stop stop-opacity="1" stop-color="rgb(74.80011%, 88.064575%, 38.729858%)" offset="0.84375"/><stop stop-opacity="1" stop-color="rgb(74.996948%, 88.092041%, 38.772583%)" offset="0.851563"/><stop stop-opacity="1" stop-color="rgb(75.192261%, 88.119507%, 38.815308%)" offset="0.859375"/><stop stop-opacity="1" stop-color="rgb(75.389099%, 88.146973%, 38.858032%)" offset="0.867188"/><stop stop-opacity="1" stop-color="rgb(75.584412%, 88.174438%, 38.900757%)" offset="0.875"/><stop stop-opacity="1" stop-color="rgb(75.878906%, 88.215637%, 38.96637%)" offset="0.890625"/><stop stop-opacity="1" stop-color="rgb(76.171875%, 88.256836%, 39.030457%)" offset="0.898438"/><stop stop-opacity="1" stop-color="rgb(76.368713%, 88.284302%, 39.073181%)" offset="0.90625"/><stop stop-opacity="1" stop-color="rgb(76.564026%, 88.311768%, 39.115906%)" offset="0.914062"/><stop stop-opacity="1" stop-color="rgb(76.760864%, 88.339233%, 39.15863%)" offset="0.921875"/><stop stop-opacity="1" stop-color="rgb(76.956177%, 88.366699%, 39.201355%)" offset="0.929688"/><stop stop-opacity="1" stop-color="rgb(77.153015%, 88.394165%, 39.24408%)" offset="0.9375"/><stop stop-opacity="1" stop-color="rgb(77.348328%, 88.421631%, 39.286804%)" offset="0.945312"/><stop stop-opacity="1" stop-color="rgb(77.545166%, 88.450623%, 39.331055%)" offset="0.953125"/><stop stop-opacity="1" stop-color="rgb(77.740479%, 88.478088%, 39.373779%)" offset="0.960938"/><stop stop-opacity="1" stop-color="rgb(77.937317%, 88.505554%, 39.416504%)" offset="0.96875"/><stop stop-opacity="1" stop-color="rgb(78.132629%, 88.53302%, 39.459229%)" offset="0.976562"/><stop stop-opacity="1" stop-color="rgb(78.329468%, 88.560486%, 39.501953%)" offset="0.984375"/><stop stop-opacity="1" stop-color="rgb(78.52478%, 88.587952%, 39.544678%)" offset="0.992188"/><stop stop-opacity="1" stop-color="rgb(78.720093%, 88.615417%, 39.587402%)" offset="1"/></linearGradient><clipPath id="f0af6de1e8"><path d="M 302.164062 52.292969 L 388.671875 52.292969 L 388.671875 138.464844 L 302.164062 138.464844 Z M 302.164062 52.292969 " clip-rule="nonzero"/></clipPath><clipPath id="b182c442c7"><path d="M 305.15625 52.292969 L 385.441406 52.292969 C 387.09375 52.292969 388.433594 53.632812 388.433594 55.285156 L 388.433594 135.472656 C 388.433594 137.125 387.09375 138.464844 385.441406 138.464844 L 305.15625 138.464844 C 303.503906 138.464844 302.164062 137.125 302.164062 135.472656 L 302.164062 55.285156 C 302.164062 53.632812 303.503906 52.292969 305.15625 52.292969 Z M 305.15625 52.292969 " clip-rule="nonzero"/></clipPath><clipPath id="e4b3b880fc"><path d="M 0.164062 0.292969 L 86.632812 0.292969 L 86.632812 86.464844 L 0.164062 86.464844 Z M 0.164062 0.292969 " clip-rule="nonzero"/></clipPath><clipPath id="3da1e7946f"><path d="M 3.15625 0.292969 L 83.441406 0.292969 C 85.09375 0.292969 86.433594 1.632812 86.433594 3.285156 L 86.433594 83.472656 C 86.433594 85.125 85.09375 86.464844 83.441406 86.464844 L 3.15625 86.464844 C 1.503906 86.464844 0.164062 85.125 0.164062 83.472656 L 0.164062 3.285156 C 0.164062 1.632812 1.503906 0.292969 3.15625 0.292969 Z M 3.15625 0.292969 " clip-rule="nonzero"/></clipPath><clipPath id="7293651501"><rect x="0" width="87" y="0" height="87"/></clipPath><clipPath id="36ae921497"><path d="M 302.164062 52.292969 L 388.1875 52.292969 L 388.1875 138.316406 L 302.164062 138.316406 Z M 302.164062 52.292969 " clip-rule="nonzero"/></clipPath><clipPath id="eb55d06e8d"><path d="M 305.15625 52.292969 L 385.4375 52.292969 C 387.089844 52.292969 388.429688 53.632812 388.429688 55.285156 L 388.429688 135.464844 C 388.429688 137.117188 387.089844 138.457031 385.4375 138.457031 L 305.15625 138.457031 C 303.503906 138.457031 302.164062 137.117188 302.164062 135.464844 L 302.164062 55.285156 C 302.164062 53.632812 303.503906 52.292969 305.15625 52.292969 Z M 305.15625 52.292969 " clip-rule="nonzero"/></clipPath><clipPath id="ec34e7e97b"><path d="M 438.957031 52.292969 L 557.4375 52.292969 L 557.4375 138.464844 L 438.957031 138.464844 Z M 438.957031 52.292969 " clip-rule="nonzero"/></clipPath><clipPath id="d77e35e368"><path d="M 457.308594 52.292969 L 539.023438 52.292969 C 543.890625 52.292969 548.558594 54.226562 552 57.667969 C 555.441406 61.109375 557.375 65.777344 557.375 70.644531 L 557.375 120.109375 C 557.375 124.976562 555.441406 129.644531 552 133.085938 C 548.558594 136.53125 543.890625 138.464844 539.023438 138.464844 L 457.308594 138.464844 C 452.441406 138.464844 447.773438 136.53125 444.332031 133.085938 C 440.890625 129.644531 438.957031 124.976562 438.957031 120.109375 L 438.957031 70.644531 C 438.957031 65.777344 440.890625 61.109375 444.332031 57.667969 C 447.773438 54.226562 452.441406 52.292969 457.308594 52.292969 Z M 457.308594 52.292969 " clip-rule="nonzero"/></clipPath><clipPath id="c2b8b3a164"><path d="M 0.957031 0.292969 L 119.390625 0.292969 L 119.390625 86.464844 L 0.957031 86.464844 Z M 0.957031 0.292969 " clip-rule="nonzero"/></clipPath><clipPath id="b27ab452f1"><path d="M 19.308594 0.292969 L 101.023438 0.292969 C 105.890625 0.292969 110.558594 2.226562 114 5.667969 C 117.441406 9.109375 119.375 13.777344 119.375 18.644531 L 119.375 68.109375 C 119.375 72.976562 117.441406 77.644531 114 81.085938 C 110.558594 84.53125 105.890625 86.464844 101.023438 86.464844 L 19.308594 86.464844 C 14.441406 86.464844 9.773438 84.53125 6.332031 81.085938 C 2.890625 77.644531 0.957031 72.976562 0.957031 68.109375 L 0.957031 18.644531 C 0.957031 13.777344 2.890625 9.109375 6.332031 5.667969 C 9.773438 2.226562 14.441406 0.292969 19.308594 0.292969 Z M 19.308594 0.292969 " clip-rule="nonzero"/></clipPath><clipPath id="8362deba1e"><rect x="0" width="120" y="0" height="87"/></clipPath><clipPath id="ee6a43f368"><path d="M 438.957031 52.292969 L 557.144531 52.292969 L 557.144531 138.316406 L 438.957031 138.316406 Z M 438.957031 52.292969 " clip-rule="nonzero"/></clipPath><clipPath id="42f0addbf2"><path d="M 457.308594 52.292969 L 539.015625 52.292969 C 543.882812 52.292969 548.550781 54.226562 551.992188 57.667969 C 555.433594 61.109375 557.367188 65.777344 557.367188 70.644531 L 557.367188 120.105469 C 557.367188 124.972656 555.433594 129.640625 551.992188 133.082031 C 548.550781 136.523438 543.882812 138.457031 539.015625 138.457031 L 457.308594 138.457031 C 452.441406 138.457031 447.773438 136.523438 444.332031 133.082031 C 440.890625 129.640625 438.957031 124.972656 438.957031 120.105469 L 438.957031 70.644531 C 438.957031 65.777344 440.890625 61.109375 444.332031 57.667969 C 447.773438 54.226562 452.441406 52.292969 457.308594 52.292969 Z M 457.308594 52.292969 " clip-rule="nonzero"/></clipPath><clipPath id="e992a69ea4"><path d="M 151.964844 10.902344 L 239.140625 10.902344 L 239.140625 180 L 151.964844 180 Z M 151.964844 10.902344 " clip-rule="nonzero"/></clipPath><clipPath id="853d09b4a9"><path d="M 164.683594 10.902344 L 226.425781 10.902344 C 233.449219 10.902344 239.140625 16.597656 239.140625 23.621094 L 239.140625 167.136719 C 239.140625 174.160156 233.449219 179.851562 226.425781 179.851562 L 164.683594 179.851562 C 157.660156 179.851562 151.964844 174.160156 151.964844 167.136719 L 151.964844 23.621094 C 151.964844 16.597656 157.660156 10.902344 164.683594 10.902344 Z M 164.683594 10.902344 " clip-rule="nonzero"/></clipPath><clipPath id="e378d8a208"><path d="M 0.964844 0.902344 L 88.140625 0.902344 L 88.140625 170 L 0.964844 170 Z M 0.964844 0.902344 " clip-rule="nonzero"/></clipPath><clipPath id="d373916e76"><path d="M 13.683594 0.902344 L 75.425781 0.902344 C 82.449219 0.902344 88.140625 6.597656 88.140625 13.621094 L 88.140625 157.136719 C 88.140625 164.160156 82.449219 169.851562 75.425781 169.851562 L 13.683594 169.851562 C 6.660156 169.851562 0.964844 164.160156 0.964844 157.136719 L 0.964844 13.621094 C 0.964844 6.597656 6.660156 0.902344 13.683594 0.902344 Z M 13.683594 0.902344 " clip-rule="nonzero"/></clipPath><clipPath id="8832cc55f9"><rect x="0" width="89" y="0" height="170"/></clipPath><clipPath id="88aa1c491d"><path d="M 151.964844 10.90625 L 239.484375 10.90625 L 239.484375 179.960938 L 151.964844 179.960938 Z M 151.964844 10.90625 " clip-rule="nonzero"/></clipPath><clipPath id="781e96f31b"><path d="M 164.679688 10.90625 L 226.417969 10.90625 C 233.441406 10.90625 239.136719 16.597656 239.136719 23.621094 L 239.136719 167.125 C 239.136719 174.148438 233.441406 179.839844 226.417969 179.839844 L 164.679688 179.839844 C 157.65625 179.839844 151.964844 174.148438 151.964844 167.125 L 151.964844 23.621094 C 151.964844 16.597656 157.65625 10.90625 164.679688 10.90625 Z M 164.679688 10.90625 " clip-rule="nonzero"/></clipPath><clipPath id="d373cbba50"><path d="M 791.996094 10.902344 L 879.171875 10.902344 L 879.171875 180 L 791.996094 180 Z M 791.996094 10.902344 " clip-rule="nonzero"/></clipPath><clipPath id="2a72276d86"><path d="M 804.710938 10.902344 L 866.457031 10.902344 C 873.480469 10.902344 879.171875 16.597656 879.171875 23.621094 L 879.171875 167.136719 C 879.171875 174.160156 873.480469 179.851562 866.457031 179.851562 L 804.710938 179.851562 C 797.6875 179.851562 791.996094 174.160156 791.996094 167.136719 L 791.996094 23.621094 C 791.996094 16.597656 797.6875 10.902344 804.710938 10.902344 Z M 804.710938 10.902344 " clip-rule="nonzero"/></clipPath><clipPath id="41efafa7fa"><path d="M 0.996094 0.902344 L 88.171875 0.902344 L 88.171875 170 L 0.996094 170 Z M 0.996094 0.902344 " clip-rule="nonzero"/></clipPath><clipPath id="9d7c2a65a0"><path d="M 13.710938 0.902344 L 75.457031 0.902344 C 82.480469 0.902344 88.171875 6.597656 88.171875 13.621094 L 88.171875 157.136719 C 88.171875 164.160156 82.480469 169.851562 75.457031 169.851562 L 13.710938 169.851562 C 6.6875 169.851562 0.996094 164.160156 0.996094 157.136719 L 0.996094 13.621094 C 0.996094 6.597656 6.6875 0.902344 13.710938 0.902344 Z M 13.710938 0.902344 " clip-rule="nonzero"/></clipPath><clipPath id="a279ba0ddb"><rect x="0" width="89" y="0" height="170"/></clipPath><clipPath id="56032a160b"><path d="M 791.996094 10.90625 L 879.515625 10.90625 L 879.515625 179.960938 L 791.996094 179.960938 Z M 791.996094 10.90625 " clip-rule="nonzero"/></clipPath><clipPath id="8fdeabc6af"><path d="M 804.710938 10.90625 L 866.449219 10.90625 C 873.472656 10.90625 879.164062 16.597656 879.164062 23.621094 L 879.164062 167.125 C 879.164062 174.148438 873.472656 179.839844 866.449219 179.839844 L 804.710938 179.839844 C 797.6875 179.839844 791.996094 174.148438 791.996094 167.125 L 791.996094 23.621094 C 791.996094 16.597656 797.6875 10.90625 804.710938 10.90625 Z M 804.710938 10.90625 " clip-rule="nonzero"/></clipPath><clipPath id="69cfb6a384"><path d="M 607.894531 53.167969 L 729 53.167969 L 729 137.589844 L 607.894531 137.589844 Z M 607.894531 53.167969 " clip-rule="nonzero"/></clipPath><clipPath id="840c78e036"><path d="M 612.789062 53.167969 L 678.816406 53.167969 C 706.261719 53.167969 728.972656 72.066406 728.972656 95.378906 C 728.972656 118.691406 706.261719 137.589844 678.816406 137.589844 L 612.789062 137.589844 C 611.492188 137.589844 610.246094 137.074219 609.328125 136.15625 C 608.410156 135.238281 607.894531 133.992188 607.894531 132.695312 L 607.894531 58.0625 C 607.894531 56.765625 608.410156 55.519531 609.328125 54.601562 C 610.246094 53.683594 611.492188 53.167969 612.789062 53.167969 Z M 612.789062 53.167969 " clip-rule="nonzero"/></clipPath><clipPath id="490d34f8be"><path d="M 0.894531 0.167969 L 122 0.167969 L 122 84.589844 L 0.894531 84.589844 Z M 0.894531 0.167969 " clip-rule="nonzero"/></clipPath><clipPath id="8b48f17aac"><path d="M 5.789062 0.167969 L 71.816406 0.167969 C 99.261719 0.167969 121.972656 19.066406 121.972656 42.378906 C 121.972656 65.691406 99.261719 84.589844 71.816406 84.589844 L 5.789062 84.589844 C 4.492188 84.589844 3.246094 84.074219 2.328125 83.15625 C 1.410156 82.238281 0.894531 80.992188 0.894531 79.695312 L 0.894531 5.0625 C 0.894531 3.765625 1.410156 2.519531 2.328125 1.601562 C 3.246094 0.683594 4.492188 0.167969 5.789062 0.167969 Z M 5.789062 0.167969 " clip-rule="nonzero"/></clipPath><clipPath id="b8b4d77b7a"><rect x="0" width="122" y="0" height="85"/></clipPath><clipPath id="1feacf9c0b"><path d="M 607.902344 53.167969 L 729 53.167969 L 729 137.695312 L 607.902344 137.695312 Z M 607.902344 53.167969 " clip-rule="nonzero"/></clipPath><clipPath id="3c0471357c"><path d="M 612.796875 53.167969 L 678.8125 53.167969 C 706.253906 53.167969 728.96875 72.0625 728.96875 95.375 C 728.96875 118.683594 706.253906 137.578125 678.8125 137.578125 L 612.796875 137.578125 C 611.496094 137.578125 610.253906 137.0625 609.335938 136.144531 C 608.417969 135.226562 607.902344 133.984375 607.902344 132.6875 L 607.902344 58.0625 C 607.902344 56.765625 608.417969 55.519531 609.335938 54.601562 C 610.253906 53.683594 611.496094 53.167969 612.796875 53.167969 Z M 612.796875 53.167969 " clip-rule="nonzero"/></clipPath></defs><g clip-path="url(#91313f7cc4)"><path fill="none" d="M 1.089844 0 L 1022.910156 0 L 1022.910156 190 L 1.089844 190 Z M 1.089844 0 " fill-opacity="1" fill-rule="nonzero"/></g><g clip-path="url(#d035f7b308)"><g clip-path="url(#e575def3a9)"><g transform="matrix(1, 0, 0, 1, 272, 0)"><g clip-path="url(#d672c268a9)"><g clip-path="url(#4f0e85bdcf)"><g clip-path="url(#59d2863ab4)"><path fill="#f8f3ed" d="M 0.460938 0.914062 L 486.804688 0.914062 L 486.804688 189.84375 L 0.460938 189.84375 Z M 0.460938 0.914062 " fill-opacity="1" fill-rule="nonzero"/></g></g></g></g></g></g><g clip-path="url(#aa84e4561d)"><g clip-path="url(#0f511d643e)"><path stroke-linecap="butt" transform="matrix(0.748037, 0, 0, 0.748037, 272.463828, 0.913627)" fill="none" stroke-linejoin="miter" d="M 16.998981 0.000582186 L 632.976114 0.000582186 C 642.365277 0.000582186 649.978958 7.609042 649.978958 16.998205 L 649.978958 235.565177 C 649.978958 244.949118 642.365277 252.5628 632.976114 252.5628 L 16.998981 252.5628 C 7.609818 252.5628 0.00135804 244.949118 0.00135804 235.565177 L 0.00135804 16.998205 C 0.00135804 7.609042 7.609818 0.000582186 16.998981 0.000582186 Z M 16.998981 0.000582186 " stroke="url(#457a8b1237)" stroke-width="16" stroke-miterlimit="4"/></g></g><g fill="#000000" fill-opacity="1"><g transform="translate(458.149804, 32.979472)"><g><path d="M 6.335938 0.222656 C 8.394531 0.222656 10.195312 -0.8125 11.136719 -2.410156 L 9.238281 -3.511719 C 8.710938 -2.535156 7.609375 -1.929688 6.335938 -1.929688 C 4.148438 -1.929688 2.710938 -3.445312 2.710938 -5.585938 C 2.710938 -7.738281 4.148438 -9.253906 6.335938 -9.253906 C 7.609375 -9.253906 8.695312 -8.648438 9.238281 -7.660156 L 11.136719 -8.757812 C 10.179688 -10.355469 8.375 -11.390625 6.335938 -11.390625 C 2.953125 -11.390625 0.527344 -8.855469 0.527344 -5.585938 C 0.527344 -2.328125 2.953125 0.222656 6.335938 0.222656 Z M 6.335938 0.222656 "/></g></g></g><g fill="#000000" fill-opacity="1"><g transform="translate(469.732614, 32.979472)"><g><path d="M 4.738281 0.222656 C 7.085938 0.222656 8.96875 -1.613281 8.96875 -3.988281 C 8.96875 -6.367188 7.085938 -8.203125 4.738281 -8.203125 C 2.394531 -8.203125 0.527344 -6.367188 0.527344 -3.988281 C 0.527344 -1.613281 2.394531 0.222656 4.738281 0.222656 Z M 4.738281 -1.785156 C 3.527344 -1.785156 2.585938 -2.695312 2.585938 -3.988281 C 2.585938 -5.28125 3.527344 -6.191406 4.738281 -6.191406 C 5.96875 -6.191406 6.910156 -5.28125 6.910156 -3.988281 C 6.910156 -2.695312 5.96875 -1.785156 4.738281 -1.785156 Z M 4.738281 -1.785156 "/></g></g></g><g fill="#000000" fill-opacity="1"><g transform="translate(479.20946, 32.979472)"><g><path d="M 4.738281 0.222656 C 6.300781 0.222656 7.660156 -0.605469 8.34375 -1.851562 L 6.558594 -2.871094 C 6.238281 -2.21875 5.550781 -1.820312 4.722656 -1.820312 C 3.496094 -1.820312 2.585938 -2.726562 2.585938 -3.988281 C 2.585938 -5.265625 3.496094 -6.175781 4.722656 -6.175781 C 5.535156 -6.175781 6.222656 -5.761719 6.542969 -5.105469 L 8.3125 -6.144531 C 7.660156 -7.371094 6.300781 -8.203125 4.738281 -8.203125 C 2.3125 -8.203125 0.527344 -6.367188 0.527344 -3.988281 C 0.527344 -1.613281 2.3125 0.222656 4.738281 0.222656 Z M 4.738281 0.222656 "/></g></g></g><g fill="#000000" fill-opacity="1"><g transform="translate(487.760951, 32.979472)"><g><path d="M 4.738281 0.222656 C 7.085938 0.222656 8.96875 -1.613281 8.96875 -3.988281 C 8.96875 -6.367188 7.085938 -8.203125 4.738281 -8.203125 C 2.394531 -8.203125 0.527344 -6.367188 0.527344 -3.988281 C 0.527344 -1.613281 2.394531 0.222656 4.738281 0.222656 Z M 4.738281 -1.785156 C 3.527344 -1.785156 2.585938 -2.695312 2.585938 -3.988281 C 2.585938 -5.28125 3.527344 -6.191406 4.738281 -6.191406 C 5.96875 -6.191406 6.910156 -5.28125 6.910156 -3.988281 C 6.910156 -2.695312 5.96875 -1.785156 4.738281 -1.785156 Z M 4.738281 -1.785156 "/></g></g></g><g fill="#000000" fill-opacity="1"><g transform="translate(497.237798, 32.979472)"><g><path d="M 1.039062 -11.167969 L 1.039062 0 L 3.238281 0 L 3.238281 -11.167969 Z M 1.039062 -11.167969 "/></g></g></g><g fill="#000000" fill-opacity="1"><g transform="translate(501.513543, 32.979472)"><g><path d="M 5.378906 -8.203125 C 4.308594 -8.203125 3.476562 -7.800781 3 -7.085938 L 3 -7.976562 L 0.941406 -7.976562 L 0.941406 0 L 3 0 L 3 -4.308594 C 3 -5.695312 3.75 -6.285156 4.753906 -6.285156 C 5.679688 -6.285156 6.335938 -5.726562 6.335938 -4.644531 L 6.335938 0 L 8.394531 0 L 8.394531 -4.898438 C 8.394531 -7.019531 7.066406 -8.203125 5.378906 -8.203125 Z M 5.378906 -8.203125 "/></g></g></g><g fill="#000000" fill-opacity="1"><g transform="translate(510.719167, 32.979472)"><g><path d="M 6.988281 -11.167969 L 6.988281 -7.035156 C 6.414062 -7.769531 5.570312 -8.203125 4.402344 -8.203125 C 2.265625 -8.203125 0.511719 -6.367188 0.511719 -3.988281 C 0.511719 -1.613281 2.265625 0.222656 4.402344 0.222656 C 5.570312 0.222656 6.414062 -0.207031 6.988281 -0.941406 L 6.988281 0 L 9.046875 0 L 9.046875 -11.167969 Z M 4.785156 -1.738281 C 3.511719 -1.738281 2.570312 -2.648438 2.570312 -3.988281 C 2.570312 -5.328125 3.511719 -6.238281 4.785156 -6.238281 C 6.046875 -6.238281 6.988281 -5.328125 6.988281 -3.988281 C 6.988281 -2.648438 6.046875 -1.738281 4.785156 -1.738281 Z M 4.785156 -1.738281 "/></g></g></g><g fill="#000000" fill-opacity="1"><g transform="translate(520.706544, 32.979472)"><g><path d="M 2.679688 -3.144531 L 8.695312 -3.144531 C 8.742188 -3.414062 8.777344 -3.6875 8.777344 -3.988281 C 8.777344 -6.335938 7.101562 -8.203125 4.738281 -8.203125 C 2.234375 -8.203125 0.527344 -6.367188 0.527344 -3.988281 C 0.527344 -1.613281 2.21875 0.222656 4.898438 0.222656 C 6.429688 0.222656 7.625 -0.398438 8.375 -1.484375 L 6.71875 -2.441406 C 6.367188 -1.976562 5.726562 -1.644531 4.929688 -1.644531 C 3.84375 -1.644531 2.96875 -2.089844 2.679688 -3.144531 Z M 2.648438 -4.738281 C 2.886719 -5.761719 3.636719 -6.351562 4.738281 -6.351562 C 5.601562 -6.351562 6.460938 -5.886719 6.71875 -4.738281 Z M 2.648438 -4.738281 "/></g></g></g><g fill="#000000" fill-opacity="1"><g transform="translate(529.975984, 32.979472)"><g><path d="M 8.296875 0 L 5.378906 -4.085938 L 8.167969 -7.976562 L 5.808594 -7.976562 L 4.195312 -5.726562 L 2.585938 -7.976562 L 0.207031 -7.976562 L 3 -4.070312 L 0.078125 0 L 2.457031 0 L 4.195312 -2.425781 L 5.917969 0 Z M 8.296875 0 "/></g></g></g><g fill="#000000" fill-opacity="1"><g transform="translate(538.351983, 32.979472)"><g/></g></g><g fill="#000000" fill-opacity="1"><g transform="translate(542.340549, 32.979472)"><g><path d="M 8.21875 0 L 10.609375 0 L 6.683594 -11.167969 L 3.957031 -11.167969 L 0.046875 0 L 2.425781 0 L 3.09375 -2.011719 L 7.546875 -2.011719 Z M 3.796875 -4.070312 L 5.328125 -8.632812 L 6.859375 -4.070312 Z M 3.796875 -4.070312 "/></g></g></g><g fill="#000000" fill-opacity="1"><g transform="translate(552.998004, 32.979472)"><g><path d="M 5.585938 -8.203125 C 4.417969 -8.203125 3.574219 -7.769531 3 -7.035156 L 3 -7.976562 L 0.941406 -7.976562 L 0.941406 3.191406 L 3 3.191406 L 3 -0.941406 C 3.574219 -0.207031 4.417969 0.222656 5.585938 0.222656 C 7.722656 0.222656 9.476562 -1.613281 9.476562 -3.988281 C 9.476562 -6.367188 7.722656 -8.203125 5.585938 -8.203125 Z M 5.203125 -1.738281 C 3.941406 -1.738281 3 -2.648438 3 -3.988281 C 3 -5.328125 3.941406 -6.238281 5.203125 -6.238281 C 6.476562 -6.238281 7.417969 -5.328125 7.417969 -3.988281 C 7.417969 -2.648438 6.476562 -1.738281 5.203125 -1.738281 Z M 5.203125 -1.738281 "/></g></g></g><g fill="#000000" fill-opacity="1"><g transform="translate(562.985382, 32.979472)"><g><path d="M 5.585938 -8.203125 C 4.417969 -8.203125 3.574219 -7.769531 3 -7.035156 L 3 -7.976562 L 0.941406 -7.976562 L 0.941406 3.191406 L 3 3.191406 L 3 -0.941406 C 3.574219 -0.207031 4.417969 0.222656 5.585938 0.222656 C 7.722656 0.222656 9.476562 -1.613281 9.476562 -3.988281 C 9.476562 -6.367188 7.722656 -8.203125 5.585938 -8.203125 Z M 5.203125 -1.738281 C 3.941406 -1.738281 3 -2.648438 3 -3.988281 C 3 -5.328125 3.941406 -6.238281 5.203125 -6.238281 C 6.476562 -6.238281 7.417969 -5.328125 7.417969 -3.988281 C 7.417969 -2.648438 6.476562 -1.738281 5.203125 -1.738281 Z M 5.203125 -1.738281 "/></g></g></g><g clip-path="url(#f0af6de1e8)"><g clip-path="url(#b182c442c7)"><g transform="matrix(1, 0, 0, 1, 302, 52)"><g clip-path="url(#7293651501)"><g clip-path="url(#e4b3b880fc)"><g clip-path="url(#3da1e7946f)"><path fill="none" d="M 0.164062 0.292969 L 86.332031 0.292969 L 86.332031 86.464844 L 0.164062 86.464844 Z M 0.164062 0.292969 " fill-opacity="1" fill-rule="nonzero"/></g></g></g></g></g></g><g clip-path="url(#36ae921497)"><g clip-path="url(#eb55d06e8d)"><path stroke-linecap="butt" transform="matrix(0.748037, 0, 0, 0.748037, 302.165733, 52.293156)" fill="none" stroke-linejoin="miter" d="M 3.997822 -0.000250147 L 111.320439 -0.000250147 C 113.529346 -0.000250147 115.320493 1.790897 115.320493 3.999805 L 115.320493 111.186649 C 115.320493 113.395557 113.529346 115.186704 111.320439 115.186704 L 3.997822 115.186704 C 1.788914 115.186704 -0.00223291 113.395557 -0.00223291 111.186649 L -0.00223291 3.999805 C -0.00223291 1.790897 1.788914 -0.000250147 3.997822 -0.000250147 Z M 3.997822 -0.000250147 " stroke="#000000" stroke-width="4" stroke-opacity="1" stroke-miterlimit="4"/></g></g><g fill="#000000" fill-opacity="1"><g transform="translate(325.586407, 100.167498)"><g><path d="M 4.785156 0.191406 C 7.019531 0.191406 8.550781 -1.019531 8.550781 -2.9375 C 8.550781 -5.011719 6.734375 -5.585938 4.707031 -6.253906 C 3.191406 -6.75 2.234375 -7.132812 2.234375 -8.34375 C 2.234375 -9.574219 3.207031 -10.277344 4.546875 -10.277344 C 6.015625 -10.277344 6.875 -9.429688 7.292969 -8.425781 L 8.234375 -8.949219 C 7.660156 -10.277344 6.382812 -11.359375 4.546875 -11.359375 C 2.695312 -11.359375 1.117188 -10.257812 1.117188 -8.296875 C 1.117188 -6.238281 2.871094 -5.761719 4.691406 -5.152344 C 6.335938 -4.609375 7.433594 -4.195312 7.433594 -2.902344 C 7.433594 -1.707031 6.492188 -0.894531 4.800781 -0.894531 C 3.046875 -0.894531 1.996094 -1.753906 1.59375 -3.09375 L 0.636719 -2.535156 C 1.210938 -0.84375 2.726562 0.191406 4.785156 0.191406 Z M 4.785156 0.191406 "/></g></g></g><g fill="#000000" fill-opacity="1"><g transform="translate(334.536742, 100.167498)"><g><path d="M 5.34375 -6.957031 L 5.34375 -7.976562 L 3.046875 -7.976562 L 3.046875 -10.210938 L 1.996094 -9.890625 L 1.996094 -7.976562 L 0.320312 -7.976562 L 0.320312 -6.957031 L 1.996094 -6.957031 L 1.996094 -2.121094 C 1.996094 -0.207031 3.191406 0.320312 5.34375 0 L 5.34375 -0.925781 C 3.796875 -0.863281 3.046875 -0.75 3.046875 -2.121094 L 3.046875 -6.957031 Z M 5.34375 -6.957031 "/></g></g></g><g fill="#000000" fill-opacity="1"><g transform="translate(340.040934, 100.167498)"><g><path d="M 7.976562 -7.976562 L 7.976562 -6.414062 C 7.308594 -7.484375 6.175781 -8.167969 4.753906 -8.167969 C 2.503906 -8.167969 0.636719 -6.351562 0.636719 -3.988281 C 0.636719 -1.628906 2.503906 0.191406 4.753906 0.191406 C 6.175781 0.191406 7.308594 -0.496094 7.976562 -1.5625 L 7.976562 0 L 9.03125 0 L 9.03125 -7.976562 Z M 4.835938 -0.828125 C 3.0625 -0.828125 1.691406 -2.21875 1.691406 -3.988281 C 1.691406 -5.761719 3.0625 -7.148438 4.835938 -7.148438 C 6.605469 -7.148438 7.976562 -5.761719 7.976562 -3.988281 C 7.976562 -2.21875 6.605469 -0.828125 4.835938 -0.828125 Z M 4.835938 -0.828125 "/></g></g></g><g fill="#000000" fill-opacity="1"><g transform="translate(350.187858, 100.167498)"><g><path d="M 5.34375 -6.957031 L 5.34375 -7.976562 L 3.046875 -7.976562 L 3.046875 -10.210938 L 1.996094 -9.890625 L 1.996094 -7.976562 L 0.320312 -7.976562 L 0.320312 -6.957031 L 1.996094 -6.957031 L 1.996094 -2.121094 C 1.996094 -0.207031 3.191406 0.320312 5.34375 0 L 5.34375 -0.925781 C 3.796875 -0.863281 3.046875 -0.75 3.046875 -2.121094 L 3.046875 -6.957031 Z M 5.34375 -6.957031 "/></g></g></g><g fill="#000000" fill-opacity="1"><g transform="translate(355.69205, 100.167498)"><g><path d="M 4.800781 -8.167969 C 2.328125 -8.167969 0.636719 -6.335938 0.636719 -3.988281 C 0.636719 -1.578125 2.363281 0.191406 4.882812 0.191406 C 6.492188 0.191406 7.722656 -0.558594 8.394531 -1.644531 L 7.46875 -2.1875 C 7.035156 -1.421875 6.160156 -0.828125 4.898438 -0.828125 C 3.207031 -0.828125 1.945312 -1.835938 1.722656 -3.460938 L 8.726562 -3.460938 C 8.742188 -3.621094 8.757812 -3.796875 8.757812 -3.957031 C 8.757812 -6.144531 7.242188 -8.167969 4.800781 -8.167969 Z M 4.800781 -7.148438 C 6.175781 -7.148438 7.453125 -6.238281 7.675781 -4.484375 L 1.722656 -4.484375 C 1.929688 -6.046875 3.128906 -7.148438 4.800781 -7.148438 Z M 4.800781 -7.148438 "/></g></g></g><path stroke-linecap="butt" transform="matrix(0.748037, -0.0000000000553783, 0.0000000000553783, 0.748037, 388.434191, 94.630093)" fill="none" stroke-linejoin="miter" d="M -0.00079897 1.001038 L 62.036607 1.001038 " stroke="#000000" stroke-width="2" stroke-opacity="1" stroke-miterlimit="4"/><path stroke-linecap="round" transform="matrix(0.748037, -0.0000000000553783, 0.0000000000553783, 0.748037, 388.434191, 94.630093)" fill-opacity="1" fill="#000000" fill-rule="nonzero" stroke-linejoin="round" d="M 62.537919 -2.001614 L 66.537974 1.001038 L 62.537919 3.998468 Z M 62.537919 -2.001614 " stroke="#000000" stroke-width="2" stroke-opacity="1" stroke-miterlimit="4"/><path stroke-linecap="butt" transform="matrix(0.748037, 0, 0, 0.748037, 239.142347, 94.630093)" fill="none" stroke-linejoin="miter" d="M -0.00230261 1.001038 L 78.750738 1.001038 " stroke="#89898d" stroke-width="2" stroke-opacity="1" stroke-miterlimit="4"/><path stroke-linecap="round" transform="matrix(0.748037, 0, 0, 0.748037, 239.142347, 94.630093)" fill-opacity="1" fill="#89898d" fill-rule="nonzero" stroke-linejoin="round" d="M 79.246828 -2.001614 L 83.246883 1.001038 L 79.246828 3.998468 Z M 79.246828 -2.001614 " stroke="#89898d" stroke-width="2" stroke-opacity="1" stroke-miterlimit="4"/><g clip-path="url(#ec34e7e97b)"><g clip-path="url(#d77e35e368)"><g transform="matrix(1, 0, 0, 1, 438, 52)"><g clip-path="url(#8362deba1e)"><g clip-path="url(#c2b8b3a164)"><g clip-path="url(#b27ab452f1)"><path fill="none" d="M 0.957031 0.292969 L 119.4375 0.292969 L 119.4375 86.464844 L 0.957031 86.464844 Z M 0.957031 0.292969 " fill-opacity="1" fill-rule="nonzero"/></g></g></g></g></g></g><g clip-path="url(#ee6a43f368)"><g clip-path="url(#42f0addbf2)"><path stroke-linecap="butt" transform="matrix(0.748037, 0, 0, 0.748037, 438.956092, 52.293156)" fill="none" stroke-linejoin="miter" d="M 24.534228 -0.000250147 L 133.762876 -0.000250147 C 140.269492 -0.000250147 146.509786 2.584642 151.110372 7.185227 C 155.710957 11.785812 158.295848 18.026106 158.295848 24.532722 L 158.295848 90.653731 C 158.295848 97.160348 155.710957 103.400642 151.110372 108.001227 C 146.509786 112.601812 140.269492 115.186704 133.762876 115.186704 L 24.534228 115.186704 C 18.027611 115.186704 11.787317 112.601812 7.186732 108.001227 C 2.586147 103.400642 0.00125513 97.160348 0.00125513 90.653731 L 0.00125513 24.532722 C 0.00125513 18.026106 2.586147 11.785812 7.186732 7.185227 C 11.787317 2.584642 18.027611 -0.000250147 24.534228 -0.000250147 Z M 24.534228 -0.000250147 " stroke="#000000" stroke-width="4" stroke-opacity="1" stroke-miterlimit="4"/></g></g><g fill="#000000" fill-opacity="1"><g transform="translate(462.659167, 89.694986)"><g><path d="M 8.296875 -11.167969 L 0.320312 -11.167969 L 0.320312 -10.117188 L 3.75 -10.117188 L 3.75 0 L 4.867188 0 L 4.867188 -10.117188 L 8.296875 -10.117188 Z M 8.296875 -11.167969 "/></g></g></g><g fill="#000000" fill-opacity="1"><g transform="translate(470.157579, 89.694986)"><g><path d="M 2.171875 -6.652344 L 2.171875 -7.976562 L 1.117188 -7.976562 L 1.117188 0 L 2.171875 0 L 2.171875 -4.4375 C 2.171875 -6.414062 3.414062 -7.085938 4.691406 -7.085938 L 4.691406 -8.105469 C 3.667969 -8.105469 2.726562 -7.769531 2.171875 -6.652344 Z M 2.171875 -6.652344 "/></g></g></g><g fill="#000000" fill-opacity="1"><g transform="translate(474.688555, 89.694986)"><g><path d="M 7.976562 -7.976562 L 7.976562 -6.414062 C 7.308594 -7.484375 6.175781 -8.167969 4.753906 -8.167969 C 2.503906 -8.167969 0.636719 -6.351562 0.636719 -3.988281 C 0.636719 -1.628906 2.503906 0.191406 4.753906 0.191406 C 6.175781 0.191406 7.308594 -0.496094 7.976562 -1.5625 L 7.976562 0 L 9.03125 0 L 9.03125 -7.976562 Z M 4.835938 -0.828125 C 3.0625 -0.828125 1.691406 -2.21875 1.691406 -3.988281 C 1.691406 -5.761719 3.0625 -7.148438 4.835938 -7.148438 C 6.605469 -7.148438 7.976562 -5.761719 7.976562 -3.988281 C 7.976562 -2.21875 6.605469 -0.828125 4.835938 -0.828125 Z M 4.835938 -0.828125 "/></g></g></g><g fill="#000000" fill-opacity="1"><g transform="translate(484.83548, 89.694986)"><g><path d="M 4.851562 -8.167969 C 3.71875 -8.167969 2.792969 -7.738281 2.171875 -6.734375 L 2.171875 -7.976562 L 1.117188 -7.976562 L 1.117188 0 L 2.171875 0 L 2.171875 -4.179688 C 2.171875 -6.320312 3.351562 -7.148438 4.753906 -7.148438 C 6.144531 -7.148438 6.925781 -6.320312 6.925781 -4.898438 L 6.925781 0 L 7.976562 0 L 7.976562 -4.898438 C 7.976562 -6.894531 6.796875 -8.167969 4.851562 -8.167969 Z M 4.851562 -8.167969 "/></g></g></g><g fill="#000000" fill-opacity="1"><g transform="translate(493.737967, 89.694986)"><g><path d="M 1.945312 -5.886719 C 1.945312 -6.75 2.792969 -7.148438 3.621094 -7.148438 C 4.386719 -7.148438 5.203125 -6.84375 5.535156 -6.03125 L 6.414062 -6.542969 C 5.953125 -7.53125 4.929688 -8.167969 3.621094 -8.167969 C 2.027344 -8.167969 0.894531 -7.164062 0.894531 -5.886719 C 0.894531 -2.953125 5.550781 -4.085938 5.550781 -2.105469 C 5.550781 -1.164062 4.660156 -0.828125 3.71875 -0.828125 C 2.648438 -0.828125 1.820312 -1.355469 1.53125 -2.171875 L 0.636719 -1.644531 C 1.039062 -0.621094 2.121094 0.191406 3.71875 0.191406 C 5.425781 0.191406 6.605469 -0.75 6.605469 -2.105469 C 6.605469 -5.042969 1.945312 -3.910156 1.945312 -5.886719 Z M 1.945312 -5.886719 "/></g></g></g><g fill="#000000" fill-opacity="1"><g transform="translate(500.821657, 89.694986)"><g><path d="M 5.105469 -10.339844 L 5.105469 -11.359375 C 2.953125 -11.519531 1.753906 -10.371094 1.753906 -8.296875 L 1.753906 -7.976562 L 0.398438 -7.976562 L 0.398438 -6.957031 L 1.753906 -6.957031 L 1.753906 0 L 2.808594 0 L 2.808594 -6.957031 L 5.105469 -6.957031 L 5.105469 -7.976562 L 2.808594 -7.976562 L 2.808594 -8.296875 C 2.808594 -9.828125 3.558594 -10.46875 5.105469 -10.339844 Z M 5.105469 -10.339844 "/></g></g></g><g fill="#000000" fill-opacity="1"><g transform="translate(505.448364, 89.694986)"><g><path d="M 4.835938 0.191406 C 7.164062 0.191406 9.03125 -1.628906 9.03125 -3.988281 C 9.03125 -6.351562 7.164062 -8.167969 4.835938 -8.167969 C 2.503906 -8.167969 0.636719 -6.351562 0.636719 -3.988281 C 0.636719 -1.628906 2.503906 0.191406 4.835938 0.191406 Z M 4.835938 -0.828125 C 3.0625 -0.828125 1.691406 -2.21875 1.691406 -3.988281 C 1.691406 -5.761719 3.0625 -7.148438 4.835938 -7.148438 C 6.605469 -7.148438 7.976562 -5.761719 7.976562 -3.988281 C 7.976562 -2.21875 6.605469 -0.828125 4.835938 -0.828125 Z M 4.835938 -0.828125 "/></g></g></g><g fill="#000000" fill-opacity="1"><g transform="translate(515.11666, 89.694986)"><g><path d="M 2.171875 -6.652344 L 2.171875 -7.976562 L 1.117188 -7.976562 L 1.117188 0 L 2.171875 0 L 2.171875 -4.4375 C 2.171875 -6.414062 3.414062 -7.085938 4.691406 -7.085938 L 4.691406 -8.105469 C 3.667969 -8.105469 2.726562 -7.769531 2.171875 -6.652344 Z M 2.171875 -6.652344 "/></g></g></g><g fill="#000000" fill-opacity="1"><g transform="translate(520.1263, 89.694986)"><g><path d="M 9.621094 -8.167969 C 8.601562 -8.167969 7.625 -7.707031 7.035156 -6.71875 C 6.589844 -7.644531 5.726562 -8.167969 4.609375 -8.167969 C 3.652344 -8.167969 2.792969 -7.785156 2.171875 -6.8125 L 2.171875 -7.976562 L 1.117188 -7.976562 L 1.117188 0 L 2.171875 0 L 2.171875 -4.417969 C 2.171875 -6.398438 3.320312 -7.148438 4.46875 -7.148438 C 5.601562 -7.148438 6.335938 -6.398438 6.335938 -4.976562 L 6.335938 0 L 7.386719 0 L 7.386719 -4.417969 C 7.386719 -6.398438 8.375 -7.148438 9.605469 -7.148438 C 10.738281 -7.148438 11.550781 -6.398438 11.550781 -4.976562 L 11.550781 0 L 12.605469 0 L 12.605469 -4.976562 C 12.605469 -6.972656 11.375 -8.167969 9.621094 -8.167969 Z M 9.621094 -8.167969 "/></g></g></g><g fill="#000000" fill-opacity="1"><g transform="translate(485.731421, 111.388047)"><g><path d="M 7.578125 -10.117188 L 7.578125 -11.167969 L 1.277344 -11.167969 L 1.277344 0 L 2.394531 0 L 2.394531 -4.945312 L 7.339844 -4.945312 L 7.339844 -6 L 2.394531 -6 L 2.394531 -10.117188 Z M 7.578125 -10.117188 "/></g></g></g><g fill="#000000" fill-opacity="1"><g transform="translate(493.947873, 111.388047)"><g><path d="M 2.710938 1.59375 L 3.765625 1.59375 C 2.648438 -0.636719 2.011719 -3.03125 2.011719 -5.585938 C 2.011719 -8.136719 2.648438 -10.53125 3.765625 -12.765625 L 2.710938 -12.765625 C 1.59375 -10.53125 0.957031 -8.136719 0.957031 -5.585938 C 0.957031 -3.03125 1.59375 -0.636719 2.710938 1.59375 Z M 2.710938 1.59375 "/></g></g></g><g fill="#000000" fill-opacity="1"><g transform="translate(498.191716, 111.388047)"><g><path d="M 7.816406 0 L 4.707031 -4.132812 L 7.609375 -7.976562 L 6.351562 -7.976562 L 4.070312 -4.960938 L 1.785156 -7.976562 L 0.527344 -7.976562 L 3.445312 -4.132812 L 0.320312 0 L 1.578125 0 L 4.070312 -3.285156 L 6.558594 0 Z M 7.816406 0 "/></g></g></g><g fill="#000000" fill-opacity="1"><g transform="translate(506.328394, 111.388047)"><g><path d="M 1.53125 1.59375 C 2.648438 -0.636719 3.285156 -3.03125 3.285156 -5.585938 C 3.285156 -8.136719 2.648438 -10.53125 1.53125 -12.765625 L 0.480469 -12.765625 C 1.59375 -10.53125 2.234375 -8.136719 2.234375 -5.585938 C 2.234375 -3.03125 1.59375 -0.636719 0.480469 1.59375 Z M 1.53125 1.59375 "/></g></g></g><g clip-path="url(#e992a69ea4)"><g clip-path="url(#853d09b4a9)"><g transform="matrix(1, 0, 0, 1, 151, 10)"><g clip-path="url(#8832cc55f9)"><g clip-path="url(#e378d8a208)"><g clip-path="url(#d373916e76)"><path fill="#e9f7ff" d="M 0.964844 0.902344 L 88.140625 0.902344 L 88.140625 169.808594 L 0.964844 169.808594 Z M 0.964844 0.902344 " fill-opacity="1" fill-rule="nonzero"/></g></g></g></g></g></g><g clip-path="url(#88aa1c491d)"><g clip-path="url(#781e96f31b)"><path stroke-linecap="butt" transform="matrix(0.748037, 0, 0, 0.748037, 151.965155, 10.905605)" fill="none" stroke-linejoin="miter" d="M 16.997207 0.000862655 L 99.530978 0.000862655 C 108.920141 0.000862655 116.533823 7.609322 116.533823 16.998485 L 116.533823 208.839242 C 116.533823 218.228405 108.920141 225.836864 99.530978 225.836864 L 16.997207 225.836864 C 7.608044 225.836864 -0.000415849 218.228405 -0.000415849 208.839242 L -0.000415849 16.998485 C -0.000415849 7.609322 7.608044 0.000862655 16.997207 0.000862655 Z M 16.997207 0.000862655 " stroke="#89898d" stroke-width="4" stroke-opacity="1" stroke-miterlimit="4"/></g></g><g fill="#000000" fill-opacity="1"><g transform="translate(170.093354, 89.4472)"><g><path d="M 4.785156 0.191406 C 7.019531 0.191406 8.550781 -1.019531 8.550781 -2.9375 C 8.550781 -5.011719 6.734375 -5.585938 4.707031 -6.253906 C 3.191406 -6.75 2.234375 -7.132812 2.234375 -8.34375 C 2.234375 -9.574219 3.207031 -10.277344 4.546875 -10.277344 C 6.015625 -10.277344 6.875 -9.429688 7.292969 -8.425781 L 8.234375 -8.949219 C 7.660156 -10.277344 6.382812 -11.359375 4.546875 -11.359375 C 2.695312 -11.359375 1.117188 -10.257812 1.117188 -8.296875 C 1.117188 -6.238281 2.871094 -5.761719 4.691406 -5.152344 C 6.335938 -4.609375 7.433594 -4.195312 7.433594 -2.902344 C 7.433594 -1.707031 6.492188 -0.894531 4.800781 -0.894531 C 3.046875 -0.894531 1.996094 -1.753906 1.59375 -3.09375 L 0.636719 -2.535156 C 1.210938 -0.84375 2.726562 0.191406 4.785156 0.191406 Z M 4.785156 0.191406 "/></g></g></g><g fill="#000000" fill-opacity="1"><g transform="translate(179.283021, 89.4472)"><g><path d="M 4.835938 0.191406 C 7.164062 0.191406 9.03125 -1.628906 9.03125 -3.988281 C 9.03125 -6.351562 7.164062 -8.167969 4.835938 -8.167969 C 2.503906 -8.167969 0.636719 -6.351562 0.636719 -3.988281 C 0.636719 -1.628906 2.503906 0.191406 4.835938 0.191406 Z M 4.835938 -0.828125 C 3.0625 -0.828125 1.691406 -2.21875 1.691406 -3.988281 C 1.691406 -5.761719 3.0625 -7.148438 4.835938 -7.148438 C 6.605469 -7.148438 7.976562 -5.761719 7.976562 -3.988281 C 7.976562 -2.21875 6.605469 -0.828125 4.835938 -0.828125 Z M 4.835938 -0.828125 "/></g></g></g><g fill="#000000" fill-opacity="1"><g transform="translate(188.951316, 89.4472)"><g><path d="M 6.734375 -7.976562 L 6.734375 -3.796875 C 6.734375 -1.660156 5.550781 -0.828125 4.148438 -0.828125 C 2.761719 -0.828125 1.976562 -1.660156 1.976562 -3.078125 L 1.976562 -7.976562 L 0.925781 -7.976562 L 0.925781 -3.078125 C 0.925781 -1.085938 2.105469 0.191406 4.050781 0.191406 C 5.1875 0.191406 6.109375 -0.238281 6.734375 -1.246094 L 6.734375 0 L 7.785156 0 L 7.785156 -7.976562 Z M 6.734375 -7.976562 "/></g></g></g><g fill="#000000" fill-opacity="1"><g transform="translate(197.853803, 89.4472)"><g><path d="M 2.171875 -6.652344 L 2.171875 -7.976562 L 1.117188 -7.976562 L 1.117188 0 L 2.171875 0 L 2.171875 -4.4375 C 2.171875 -6.414062 3.414062 -7.085938 4.691406 -7.085938 L 4.691406 -8.105469 C 3.667969 -8.105469 2.726562 -7.769531 2.171875 -6.652344 Z M 2.171875 -6.652344 "/></g></g></g><g fill="#000000" fill-opacity="1"><g transform="translate(202.863443, 89.4472)"><g><path d="M 4.835938 0.191406 C 6.398438 0.191406 7.753906 -0.621094 8.410156 -1.882812 L 7.53125 -2.394531 C 7.019531 -1.46875 6.046875 -0.828125 4.835938 -0.828125 C 3.0625 -0.828125 1.691406 -2.21875 1.691406 -3.988281 C 1.691406 -5.761719 3.0625 -7.148438 4.835938 -7.148438 C 6.03125 -7.148438 7.035156 -6.527344 7.46875 -5.585938 L 8.328125 -6.078125 C 7.753906 -7.339844 6.414062 -8.167969 4.835938 -8.167969 C 2.425781 -8.167969 0.636719 -6.351562 0.636719 -3.988281 C 0.636719 -1.628906 2.425781 0.191406 4.835938 0.191406 Z M 4.835938 0.191406 "/></g></g></g><g fill="#000000" fill-opacity="1"><g transform="translate(211.670211, 89.4472)"><g><path d="M 4.800781 -8.167969 C 2.328125 -8.167969 0.636719 -6.335938 0.636719 -3.988281 C 0.636719 -1.578125 2.363281 0.191406 4.882812 0.191406 C 6.492188 0.191406 7.722656 -0.558594 8.394531 -1.644531 L 7.46875 -2.1875 C 7.035156 -1.421875 6.160156 -0.828125 4.898438 -0.828125 C 3.207031 -0.828125 1.945312 -1.835938 1.722656 -3.460938 L 8.726562 -3.460938 C 8.742188 -3.621094 8.757812 -3.796875 8.757812 -3.957031 C 8.757812 -6.144531 7.242188 -8.167969 4.800781 -8.167969 Z M 4.800781 -7.148438 C 6.175781 -7.148438 7.453125 -6.238281 7.675781 -4.484375 L 1.722656 -4.484375 C 1.929688 -6.046875 3.128906 -7.148438 4.800781 -7.148438 Z M 4.800781 -7.148438 "/></g></g></g><g fill="#000000" fill-opacity="1"><g transform="translate(168.842731, 111.140261)"><g><path d="M 4.785156 0.191406 C 7.019531 0.191406 8.550781 -1.019531 8.550781 -2.9375 C 8.550781 -5.011719 6.734375 -5.585938 4.707031 -6.253906 C 3.191406 -6.75 2.234375 -7.132812 2.234375 -8.34375 C 2.234375 -9.574219 3.207031 -10.277344 4.546875 -10.277344 C 6.015625 -10.277344 6.875 -9.429688 7.292969 -8.425781 L 8.234375 -8.949219 C 7.660156 -10.277344 6.382812 -11.359375 4.546875 -11.359375 C 2.695312 -11.359375 1.117188 -10.257812 1.117188 -8.296875 C 1.117188 -6.238281 2.871094 -5.761719 4.691406 -5.152344 C 6.335938 -4.609375 7.433594 -4.195312 7.433594 -2.902344 C 7.433594 -1.707031 6.492188 -0.894531 4.800781 -0.894531 C 3.046875 -0.894531 1.996094 -1.753906 1.59375 -3.09375 L 0.636719 -2.535156 C 1.210938 -0.84375 2.726562 0.191406 4.785156 0.191406 Z M 4.785156 0.191406 "/></g></g></g><g fill="#000000" fill-opacity="1"><g transform="translate(178.032397, 111.140261)"><g><path d="M 6.859375 -7.976562 L 4.277344 -1.292969 L 1.277344 -7.976562 L 0.160156 -7.976562 L 3.734375 0.046875 L 3.527344 0.542969 C 3.09375 1.578125 2.378906 2.3125 1.339844 2.203125 L 1.339844 3.191406 C 2.777344 3.304688 3.957031 2.265625 4.5625 0.734375 L 7.976562 -7.976562 Z M 6.859375 -7.976562 "/></g></g></g><g fill="#000000" fill-opacity="1"><g transform="translate(186.169076, 111.140261)"><g><path d="M 1.945312 -5.886719 C 1.945312 -6.75 2.792969 -7.148438 3.621094 -7.148438 C 4.386719 -7.148438 5.203125 -6.84375 5.535156 -6.03125 L 6.414062 -6.542969 C 5.953125 -7.53125 4.929688 -8.167969 3.621094 -8.167969 C 2.027344 -8.167969 0.894531 -7.164062 0.894531 -5.886719 C 0.894531 -2.953125 5.550781 -4.085938 5.550781 -2.105469 C 5.550781 -1.164062 4.660156 -0.828125 3.71875 -0.828125 C 2.648438 -0.828125 1.820312 -1.355469 1.53125 -2.171875 L 0.636719 -1.644531 C 1.039062 -0.621094 2.121094 0.191406 3.71875 0.191406 C 5.425781 0.191406 6.605469 -0.75 6.605469 -2.105469 C 6.605469 -5.042969 1.945312 -3.910156 1.945312 -5.886719 Z M 1.945312 -5.886719 "/></g></g></g><g fill="#000000" fill-opacity="1"><g transform="translate(193.412324, 111.140261)"><g><path d="M 5.34375 -6.957031 L 5.34375 -7.976562 L 3.046875 -7.976562 L 3.046875 -10.210938 L 1.996094 -9.890625 L 1.996094 -7.976562 L 0.320312 -7.976562 L 0.320312 -6.957031 L 1.996094 -6.957031 L 1.996094 -2.121094 C 1.996094 -0.207031 3.191406 0.320312 5.34375 0 L 5.34375 -0.925781 C 3.796875 -0.863281 3.046875 -0.75 3.046875 -2.121094 L 3.046875 -6.957031 Z M 5.34375 -6.957031 "/></g></g></g><g fill="#000000" fill-opacity="1"><g transform="translate(199.395179, 111.140261)"><g><path d="M 4.800781 -8.167969 C 2.328125 -8.167969 0.636719 -6.335938 0.636719 -3.988281 C 0.636719 -1.578125 2.363281 0.191406 4.882812 0.191406 C 6.492188 0.191406 7.722656 -0.558594 8.394531 -1.644531 L 7.46875 -2.1875 C 7.035156 -1.421875 6.160156 -0.828125 4.898438 -0.828125 C 3.207031 -0.828125 1.945312 -1.835938 1.722656 -3.460938 L 8.726562 -3.460938 C 8.742188 -3.621094 8.757812 -3.796875 8.757812 -3.957031 C 8.757812 -6.144531 7.242188 -8.167969 4.800781 -8.167969 Z M 4.800781 -7.148438 C 6.175781 -7.148438 7.453125 -6.238281 7.675781 -4.484375 L 1.722656 -4.484375 C 1.929688 -6.046875 3.128906 -7.148438 4.800781 -7.148438 Z M 4.800781 -7.148438 "/></g></g></g><g fill="#000000" fill-opacity="1"><g transform="translate(208.712478, 111.140261)"><g><path d="M 9.621094 -8.167969 C 8.601562 -8.167969 7.625 -7.707031 7.035156 -6.71875 C 6.589844 -7.644531 5.726562 -8.167969 4.609375 -8.167969 C 3.652344 -8.167969 2.792969 -7.785156 2.171875 -6.8125 L 2.171875 -7.976562 L 1.117188 -7.976562 L 1.117188 0 L 2.171875 0 L 2.171875 -4.417969 C 2.171875 -6.398438 3.320312 -7.148438 4.46875 -7.148438 C 5.601562 -7.148438 6.335938 -6.398438 6.335938 -4.976562 L 6.335938 0 L 7.386719 0 L 7.386719 -4.417969 C 7.386719 -6.398438 8.375 -7.148438 9.605469 -7.148438 C 10.738281 -7.148438 11.550781 -6.398438 11.550781 -4.976562 L 11.550781 0 L 12.605469 0 L 12.605469 -4.976562 C 12.605469 -6.972656 11.375 -8.167969 9.621094 -8.167969 Z M 9.621094 -8.167969 "/></g></g></g><g clip-path="url(#d373cbba50)"><g clip-path="url(#2a72276d86)"><g transform="matrix(1, 0, 0, 1, 791, 10)"><g clip-path="url(#a279ba0ddb)"><g clip-path="url(#41efafa7fa)"><g clip-path="url(#9d7c2a65a0)"><path fill="#e9f7ff" d="M 0.996094 0.902344 L 88.171875 0.902344 L 88.171875 169.808594 L 0.996094 169.808594 Z M 0.996094 0.902344 " fill-opacity="1" fill-rule="nonzero"/></g></g></g></g></g></g><g clip-path="url(#56032a160b)"><g clip-path="url(#8fdeabc6af)"><path stroke-linecap="butt" transform="matrix(0.748037, 0, 0, 0.748037, 791.995518, 10.905605)" fill="none" stroke-linejoin="miter" d="M 16.998392 0.000862655 L 99.532163 0.000862655 C 108.921326 0.000862655 116.529786 7.609322 116.529786 16.998485 L 116.529786 208.839242 C 116.529786 218.228405 108.921326 225.836864 99.532163 225.836864 L 16.998392 225.836864 C 7.609229 225.836864 0.000769199 218.228405 0.000769199 208.839242 L 0.000769199 16.998485 C 0.000769199 7.609322 7.609229 0.000862655 16.998392 0.000862655 Z M 16.998392 0.000862655 " stroke="#89898d" stroke-width="4" stroke-opacity="1" stroke-miterlimit="4"/></g></g><g fill="#000000" fill-opacity="1"><g transform="translate(810.965259, 89.4472)"><g><path d="M 8.296875 -11.167969 L 0.320312 -11.167969 L 0.320312 -10.117188 L 3.75 -10.117188 L 3.75 0 L 4.867188 0 L 4.867188 -10.117188 L 8.296875 -10.117188 Z M 8.296875 -11.167969 "/></g></g></g><g fill="#000000" fill-opacity="1"><g transform="translate(819.580566, 89.4472)"><g><path d="M 7.976562 -7.976562 L 7.976562 -6.414062 C 7.308594 -7.484375 6.175781 -8.167969 4.753906 -8.167969 C 2.503906 -8.167969 0.636719 -6.351562 0.636719 -3.988281 C 0.636719 -1.628906 2.503906 0.191406 4.753906 0.191406 C 6.175781 0.191406 7.308594 -0.496094 7.976562 -1.5625 L 7.976562 0 L 9.03125 0 L 9.03125 -7.976562 Z M 4.835938 -0.828125 C 3.0625 -0.828125 1.691406 -2.21875 1.691406 -3.988281 C 1.691406 -5.761719 3.0625 -7.148438 4.835938 -7.148438 C 6.605469 -7.148438 7.976562 -5.761719 7.976562 -3.988281 C 7.976562 -2.21875 6.605469 -0.828125 4.835938 -0.828125 Z M 4.835938 -0.828125 "/></g></g></g><g fill="#000000" fill-opacity="1"><g transform="translate(829.727491, 89.4472)"><g><path d="M 2.171875 -6.652344 L 2.171875 -7.976562 L 1.117188 -7.976562 L 1.117188 0 L 2.171875 0 L 2.171875 -4.4375 C 2.171875 -6.414062 3.414062 -7.085938 4.691406 -7.085938 L 4.691406 -8.105469 C 3.667969 -8.105469 2.726562 -7.769531 2.171875 -6.652344 Z M 2.171875 -6.652344 "/></g></g></g><g fill="#000000" fill-opacity="1"><g transform="translate(834.73713, 89.4472)"><g><path d="M 7.976562 -7.976562 L 7.976562 -6.414062 C 7.308594 -7.484375 6.175781 -8.167969 4.753906 -8.167969 C 2.503906 -8.167969 0.636719 -6.351562 0.636719 -3.988281 C 0.636719 -1.628906 2.503906 0.191406 4.753906 0.191406 C 6.175781 0.191406 7.308594 -0.496094 7.976562 -1.5625 L 7.976562 -0.320312 C 7.976562 1.308594 6.875 2.363281 5.027344 2.363281 C 3.304688 2.363281 2.570312 1.722656 2.171875 0.910156 L 1.246094 1.4375 C 1.867188 2.679688 3.191406 3.382812 5.027344 3.382812 C 7.085938 3.382812 9.03125 2.105469 9.03125 -0.320312 L 9.03125 -7.976562 Z M 4.835938 -0.828125 C 3.0625 -0.828125 1.691406 -2.21875 1.691406 -3.988281 C 1.691406 -5.761719 3.0625 -7.148438 4.835938 -7.148438 C 6.605469 -7.148438 7.976562 -5.761719 7.976562 -3.988281 C 7.976562 -2.21875 6.605469 -0.828125 4.835938 -0.828125 Z M 4.835938 -0.828125 "/></g></g></g><g fill="#000000" fill-opacity="1"><g transform="translate(844.884055, 89.4472)"><g><path d="M 4.800781 -8.167969 C 2.328125 -8.167969 0.636719 -6.335938 0.636719 -3.988281 C 0.636719 -1.578125 2.363281 0.191406 4.882812 0.191406 C 6.492188 0.191406 7.722656 -0.558594 8.394531 -1.644531 L 7.46875 -2.1875 C 7.035156 -1.421875 6.160156 -0.828125 4.898438 -0.828125 C 3.207031 -0.828125 1.945312 -1.835938 1.722656 -3.460938 L 8.726562 -3.460938 C 8.742188 -3.621094 8.757812 -3.796875 8.757812 -3.957031 C 8.757812 -6.144531 7.242188 -8.167969 4.800781 -8.167969 Z M 4.800781 -7.148438 C 6.175781 -7.148438 7.453125 -6.238281 7.675781 -4.484375 L 1.722656 -4.484375 C 1.929688 -6.046875 3.128906 -7.148438 4.800781 -7.148438 Z M 4.800781 -7.148438 "/></g></g></g><g fill="#000000" fill-opacity="1"><g transform="translate(854.201354, 89.4472)"><g><path d="M 5.34375 -6.957031 L 5.34375 -7.976562 L 3.046875 -7.976562 L 3.046875 -10.210938 L 1.996094 -9.890625 L 1.996094 -7.976562 L 0.320312 -7.976562 L 0.320312 -6.957031 L 1.996094 -6.957031 L 1.996094 -2.121094 C 1.996094 -0.207031 3.191406 0.320312 5.34375 0 L 5.34375 -0.925781 C 3.796875 -0.863281 3.046875 -0.75 3.046875 -2.121094 L 3.046875 -6.957031 Z M 5.34375 -6.957031 "/></g></g></g><g fill="#000000" fill-opacity="1"><g transform="translate(808.873094, 111.140261)"><g><path d="M 4.785156 0.191406 C 7.019531 0.191406 8.550781 -1.019531 8.550781 -2.9375 C 8.550781 -5.011719 6.734375 -5.585938 4.707031 -6.253906 C 3.191406 -6.75 2.234375 -7.132812 2.234375 -8.34375 C 2.234375 -9.574219 3.207031 -10.277344 4.546875 -10.277344 C 6.015625 -10.277344 6.875 -9.429688 7.292969 -8.425781 L 8.234375 -8.949219 C 7.660156 -10.277344 6.382812 -11.359375 4.546875 -11.359375 C 2.695312 -11.359375 1.117188 -10.257812 1.117188 -8.296875 C 1.117188 -6.238281 2.871094 -5.761719 4.691406 -5.152344 C 6.335938 -4.609375 7.433594 -4.195312 7.433594 -2.902344 C 7.433594 -1.707031 6.492188 -0.894531 4.800781 -0.894531 C 3.046875 -0.894531 1.996094 -1.753906 1.59375 -3.09375 L 0.636719 -2.535156 C 1.210938 -0.84375 2.726562 0.191406 4.785156 0.191406 Z M 4.785156 0.191406 "/></g></g></g><g fill="#000000" fill-opacity="1"><g transform="translate(818.062761, 111.140261)"><g><path d="M 6.859375 -7.976562 L 4.277344 -1.292969 L 1.277344 -7.976562 L 0.160156 -7.976562 L 3.734375 0.046875 L 3.527344 0.542969 C 3.09375 1.578125 2.378906 2.3125 1.339844 2.203125 L 1.339844 3.191406 C 2.777344 3.304688 3.957031 2.265625 4.5625 0.734375 L 7.976562 -7.976562 Z M 6.859375 -7.976562 "/></g></g></g><g fill="#000000" fill-opacity="1"><g transform="translate(826.199439, 111.140261)"><g><path d="M 1.945312 -5.886719 C 1.945312 -6.75 2.792969 -7.148438 3.621094 -7.148438 C 4.386719 -7.148438 5.203125 -6.84375 5.535156 -6.03125 L 6.414062 -6.542969 C 5.953125 -7.53125 4.929688 -8.167969 3.621094 -8.167969 C 2.027344 -8.167969 0.894531 -7.164062 0.894531 -5.886719 C 0.894531 -2.953125 5.550781 -4.085938 5.550781 -2.105469 C 5.550781 -1.164062 4.660156 -0.828125 3.71875 -0.828125 C 2.648438 -0.828125 1.820312 -1.355469 1.53125 -2.171875 L 0.636719 -1.644531 C 1.039062 -0.621094 2.121094 0.191406 3.71875 0.191406 C 5.425781 0.191406 6.605469 -0.75 6.605469 -2.105469 C 6.605469 -5.042969 1.945312 -3.910156 1.945312 -5.886719 Z M 1.945312 -5.886719 "/></g></g></g><g fill="#000000" fill-opacity="1"><g transform="translate(833.442688, 111.140261)"><g><path d="M 5.34375 -6.957031 L 5.34375 -7.976562 L 3.046875 -7.976562 L 3.046875 -10.210938 L 1.996094 -9.890625 L 1.996094 -7.976562 L 0.320312 -7.976562 L 0.320312 -6.957031 L 1.996094 -6.957031 L 1.996094 -2.121094 C 1.996094 -0.207031 3.191406 0.320312 5.34375 0 L 5.34375 -0.925781 C 3.796875 -0.863281 3.046875 -0.75 3.046875 -2.121094 L 3.046875 -6.957031 Z M 5.34375 -6.957031 "/></g></g></g><g fill="#000000" fill-opacity="1"><g transform="translate(839.425543, 111.140261)"><g><path d="M 4.800781 -8.167969 C 2.328125 -8.167969 0.636719 -6.335938 0.636719 -3.988281 C 0.636719 -1.578125 2.363281 0.191406 4.882812 0.191406 C 6.492188 0.191406 7.722656 -0.558594 8.394531 -1.644531 L 7.46875 -2.1875 C 7.035156 -1.421875 6.160156 -0.828125 4.898438 -0.828125 C 3.207031 -0.828125 1.945312 -1.835938 1.722656 -3.460938 L 8.726562 -3.460938 C 8.742188 -3.621094 8.757812 -3.796875 8.757812 -3.957031 C 8.757812 -6.144531 7.242188 -8.167969 4.800781 -8.167969 Z M 4.800781 -7.148438 C 6.175781 -7.148438 7.453125 -6.238281 7.675781 -4.484375 L 1.722656 -4.484375 C 1.929688 -6.046875 3.128906 -7.148438 4.800781 -7.148438 Z M 4.800781 -7.148438 "/></g></g></g><g fill="#000000" fill-opacity="1"><g transform="translate(848.742842, 111.140261)"><g><path d="M 9.621094 -8.167969 C 8.601562 -8.167969 7.625 -7.707031 7.035156 -6.71875 C 6.589844 -7.644531 5.726562 -8.167969 4.609375 -8.167969 C 3.652344 -8.167969 2.792969 -7.785156 2.171875 -6.8125 L 2.171875 -7.976562 L 1.117188 -7.976562 L 1.117188 0 L 2.171875 0 L 2.171875 -4.417969 C 2.171875 -6.398438 3.320312 -7.148438 4.46875 -7.148438 C 5.601562 -7.148438 6.335938 -6.398438 6.335938 -4.976562 L 6.335938 0 L 7.386719 0 L 7.386719 -4.417969 C 7.386719 -6.398438 8.375 -7.148438 9.605469 -7.148438 C 10.738281 -7.148438 11.550781 -6.398438 11.550781 -4.976562 L 11.550781 0 L 12.605469 0 L 12.605469 -4.976562 C 12.605469 -6.972656 11.375 -8.167969 9.621094 -8.167969 Z M 9.621094 -8.167969 "/></g></g></g><path stroke-linecap="butt" transform="matrix(0.748037, 0.000000000000000157, -0.000000000000000157, 0.748037, 557.374427, 94.630093)" fill="none" stroke-linejoin="miter" d="M 0.000766551 1.001038 L 62.038173 1.001038 " stroke="#000000" stroke-width="2" stroke-opacity="1" stroke-miterlimit="4"/><path stroke-linecap="round" transform="matrix(0.748037, 0.000000000000000157, -0.000000000000000157, 0.748037, 557.374427, 94.630093)" fill-opacity="1" fill="#000000" fill-rule="nonzero" stroke-linejoin="round" d="M 62.539485 -2.001614 L 66.53954 1.001038 L 62.539485 3.998468 Z M 62.539485 -2.001614 " stroke="#000000" stroke-width="2" stroke-opacity="1" stroke-miterlimit="4"/><g clip-path="url(#69cfb6a384)"><g clip-path="url(#840c78e036)"><g transform="matrix(1, 0, 0, 1, 607, 53)"><g clip-path="url(#b8b4d77b7a)"><g clip-path="url(#490d34f8be)"><g clip-path="url(#8b48f17aac)"><path fill="none" d="M 0.894531 0.167969 L 121.921875 0.167969 L 121.921875 84.589844 L 0.894531 84.589844 Z M 0.894531 0.167969 " fill-opacity="1" fill-rule="nonzero"/></g></g></g></g></g></g><g clip-path="url(#1feacf9c0b)"><g clip-path="url(#3c0471357c)"><path stroke-linecap="butt" transform="matrix(0.748037, 0, 0, 0.748037, 607.901606, 53.16804)" fill="none" stroke-linejoin="miter" d="M 6.544158 -0.0000956792 L 94.796023 -0.0000956792 C 131.4806 -0.0000956792 161.846553 25.258737 161.846553 56.423656 C 161.846553 87.583353 131.4806 112.842186 94.796023 112.842186 L 6.544158 112.842186 C 4.80523 112.842186 3.144633 112.152882 1.917462 110.925711 C 0.690291 109.69854 0.000986653 108.037942 0.000986653 106.304237 L 0.000986653 6.543075 C 0.000986653 4.80937 0.690291 3.143551 1.917462 1.91638 C 3.144633 0.689209 4.80523 -0.0000956792 6.544158 -0.0000956792 Z M 6.544158 -0.0000956792 " stroke="#000000" stroke-width="4" stroke-opacity="1" stroke-miterlimit="4"/></g></g><g fill="#000000" fill-opacity="1"><g transform="translate(622.52947, 89.073797)"><g><path d="M 8.296875 -11.167969 L 0.320312 -11.167969 L 0.320312 -10.117188 L 3.75 -10.117188 L 3.75 0 L 4.867188 0 L 4.867188 -10.117188 L 8.296875 -10.117188 Z M 8.296875 -11.167969 "/></g></g></g><g fill="#000000" fill-opacity="1"><g transform="translate(631.144778, 89.073797)"><g><path d="M 7.976562 -7.976562 L 7.976562 -6.414062 C 7.308594 -7.484375 6.175781 -8.167969 4.753906 -8.167969 C 2.503906 -8.167969 0.636719 -6.351562 0.636719 -3.988281 C 0.636719 -1.628906 2.503906 0.191406 4.753906 0.191406 C 6.175781 0.191406 7.308594 -0.496094 7.976562 -1.5625 L 7.976562 0 L 9.03125 0 L 9.03125 -7.976562 Z M 4.835938 -0.828125 C 3.0625 -0.828125 1.691406 -2.21875 1.691406 -3.988281 C 1.691406 -5.761719 3.0625 -7.148438 4.835938 -7.148438 C 6.605469 -7.148438 7.976562 -5.761719 7.976562 -3.988281 C 7.976562 -2.21875 6.605469 -0.828125 4.835938 -0.828125 Z M 4.835938 -0.828125 "/></g></g></g><g fill="#000000" fill-opacity="1"><g transform="translate(641.291702, 89.073797)"><g><path d="M 2.171875 -6.652344 L 2.171875 -7.976562 L 1.117188 -7.976562 L 1.117188 0 L 2.171875 0 L 2.171875 -4.4375 C 2.171875 -6.414062 3.414062 -7.085938 4.691406 -7.085938 L 4.691406 -8.105469 C 3.667969 -8.105469 2.726562 -7.769531 2.171875 -6.652344 Z M 2.171875 -6.652344 "/></g></g></g><g fill="#000000" fill-opacity="1"><g transform="translate(646.301342, 89.073797)"><g><path d="M 7.976562 -7.976562 L 7.976562 -6.414062 C 7.308594 -7.484375 6.175781 -8.167969 4.753906 -8.167969 C 2.503906 -8.167969 0.636719 -6.351562 0.636719 -3.988281 C 0.636719 -1.628906 2.503906 0.191406 4.753906 0.191406 C 6.175781 0.191406 7.308594 -0.496094 7.976562 -1.5625 L 7.976562 -0.320312 C 7.976562 1.308594 6.875 2.363281 5.027344 2.363281 C 3.304688 2.363281 2.570312 1.722656 2.171875 0.910156 L 1.246094 1.4375 C 1.867188 2.679688 3.191406 3.382812 5.027344 3.382812 C 7.085938 3.382812 9.03125 2.105469 9.03125 -0.320312 L 9.03125 -7.976562 Z M 4.835938 -0.828125 C 3.0625 -0.828125 1.691406 -2.21875 1.691406 -3.988281 C 1.691406 -5.761719 3.0625 -7.148438 4.835938 -7.148438 C 6.605469 -7.148438 7.976562 -5.761719 7.976562 -3.988281 C 7.976562 -2.21875 6.605469 -0.828125 4.835938 -0.828125 Z M 4.835938 -0.828125 "/></g></g></g><g fill="#000000" fill-opacity="1"><g transform="translate(656.448266, 89.073797)"><g><path d="M 4.800781 -8.167969 C 2.328125 -8.167969 0.636719 -6.335938 0.636719 -3.988281 C 0.636719 -1.578125 2.363281 0.191406 4.882812 0.191406 C 6.492188 0.191406 7.722656 -0.558594 8.394531 -1.644531 L 7.46875 -2.1875 C 7.035156 -1.421875 6.160156 -0.828125 4.898438 -0.828125 C 3.207031 -0.828125 1.945312 -1.835938 1.722656 -3.460938 L 8.726562 -3.460938 C 8.742188 -3.621094 8.757812 -3.796875 8.757812 -3.957031 C 8.757812 -6.144531 7.242188 -8.167969 4.800781 -8.167969 Z M 4.800781 -7.148438 C 6.175781 -7.148438 7.453125 -6.238281 7.675781 -4.484375 L 1.722656 -4.484375 C 1.929688 -6.046875 3.128906 -7.148438 4.800781 -7.148438 Z M 4.800781 -7.148438 "/></g></g></g><g fill="#000000" fill-opacity="1"><g transform="translate(665.765565, 89.073797)"><g><path d="M 5.34375 -6.957031 L 5.34375 -7.976562 L 3.046875 -7.976562 L 3.046875 -10.210938 L 1.996094 -9.890625 L 1.996094 -7.976562 L 0.320312 -7.976562 L 0.320312 -6.957031 L 1.996094 -6.957031 L 1.996094 -2.121094 C 1.996094 -0.207031 3.191406 0.320312 5.34375 0 L 5.34375 -0.925781 C 3.796875 -0.863281 3.046875 -0.75 3.046875 -2.121094 L 3.046875 -6.957031 Z M 5.34375 -6.957031 "/></g></g></g><g fill="#000000" fill-opacity="1"><g transform="translate(626.830681, 110.766858)"><g><path d="M 4.785156 0.191406 C 7.019531 0.191406 8.550781 -1.019531 8.550781 -2.9375 C 8.550781 -5.011719 6.734375 -5.585938 4.707031 -6.253906 C 3.191406 -6.75 2.234375 -7.132812 2.234375 -8.34375 C 2.234375 -9.574219 3.207031 -10.277344 4.546875 -10.277344 C 6.015625 -10.277344 6.875 -9.429688 7.292969 -8.425781 L 8.234375 -8.949219 C 7.660156 -10.277344 6.382812 -11.359375 4.546875 -11.359375 C 2.695312 -11.359375 1.117188 -10.257812 1.117188 -8.296875 C 1.117188 -6.238281 2.871094 -5.761719 4.691406 -5.152344 C 6.335938 -4.609375 7.433594 -4.195312 7.433594 -2.902344 C 7.433594 -1.707031 6.492188 -0.894531 4.800781 -0.894531 C 3.046875 -0.894531 1.996094 -1.753906 1.59375 -3.09375 L 0.636719 -2.535156 C 1.210938 -0.84375 2.726562 0.191406 4.785156 0.191406 Z M 4.785156 0.191406 "/></g></g></g><g fill="#000000" fill-opacity="1"><g transform="translate(636.020347, 110.766858)"><g><path d="M 5.34375 -6.957031 L 5.34375 -7.976562 L 3.046875 -7.976562 L 3.046875 -10.210938 L 1.996094 -9.890625 L 1.996094 -7.976562 L 0.320312 -7.976562 L 0.320312 -6.957031 L 1.996094 -6.957031 L 1.996094 -2.121094 C 1.996094 -0.207031 3.191406 0.320312 5.34375 0 L 5.34375 -0.925781 C 3.796875 -0.863281 3.046875 -0.75 3.046875 -2.121094 L 3.046875 -6.957031 Z M 5.34375 -6.957031 "/></g></g></g><g fill="#000000" fill-opacity="1"><g transform="translate(642.003202, 110.766858)"><g><path d="M 7.976562 -7.976562 L 7.976562 -6.414062 C 7.308594 -7.484375 6.175781 -8.167969 4.753906 -8.167969 C 2.503906 -8.167969 0.636719 -6.351562 0.636719 -3.988281 C 0.636719 -1.628906 2.503906 0.191406 4.753906 0.191406 C 6.175781 0.191406 7.308594 -0.496094 7.976562 -1.5625 L 7.976562 0 L 9.03125 0 L 9.03125 -7.976562 Z M 4.835938 -0.828125 C 3.0625 -0.828125 1.691406 -2.21875 1.691406 -3.988281 C 1.691406 -5.761719 3.0625 -7.148438 4.835938 -7.148438 C 6.605469 -7.148438 7.976562 -5.761719 7.976562 -3.988281 C 7.976562 -2.21875 6.605469 -0.828125 4.835938 -0.828125 Z M 4.835938 -0.828125 "/></g></g></g><g fill="#000000" fill-opacity="1"><g transform="translate(652.150126, 110.766858)"><g><path d="M 5.34375 -6.957031 L 5.34375 -7.976562 L 3.046875 -7.976562 L 3.046875 -10.210938 L 1.996094 -9.890625 L 1.996094 -7.976562 L 0.320312 -7.976562 L 0.320312 -6.957031 L 1.996094 -6.957031 L 1.996094 -2.121094 C 1.996094 -0.207031 3.191406 0.320312 5.34375 0 L 5.34375 -0.925781 C 3.796875 -0.863281 3.046875 -0.75 3.046875 -2.121094 L 3.046875 -6.957031 Z M 5.34375 -6.957031 "/></g></g></g><g fill="#000000" fill-opacity="1"><g transform="translate(658.132981, 110.766858)"><g><path d="M 4.800781 -8.167969 C 2.328125 -8.167969 0.636719 -6.335938 0.636719 -3.988281 C 0.636719 -1.578125 2.363281 0.191406 4.882812 0.191406 C 6.492188 0.191406 7.722656 -0.558594 8.394531 -1.644531 L 7.46875 -2.1875 C 7.035156 -1.421875 6.160156 -0.828125 4.898438 -0.828125 C 3.207031 -0.828125 1.945312 -1.835938 1.722656 -3.460938 L 8.726562 -3.460938 C 8.742188 -3.621094 8.757812 -3.796875 8.757812 -3.957031 C 8.757812 -6.144531 7.242188 -8.167969 4.800781 -8.167969 Z M 4.800781 -7.148438 C 6.175781 -7.148438 7.453125 -6.238281 7.675781 -4.484375 L 1.722656 -4.484375 C 1.929688 -6.046875 3.128906 -7.148438 4.800781 -7.148438 Z M 4.800781 -7.148438 "/></g></g></g><path fill="#89898d" d="M 728.972656 94.628906 L 730.46875 94.628906 L 730.46875 96.125 L 728.972656 96.125 M 731.964844 94.628906 L 733.460938 94.628906 L 733.460938 96.125 L 731.964844 96.125 M 734.957031 94.628906 L 736.453125 94.628906 L 736.453125 96.125 L 734.957031 96.125 M 737.949219 94.628906 L 739.445312 94.628906 L 739.445312 96.125 L 737.949219 96.125 M 740.941406 94.628906 L 742.4375 94.628906 L 742.4375 96.125 L 740.941406 96.125 M 743.933594 94.628906 L 745.429688 94.628906 L 745.429688 96.125 L 743.933594 96.125 M 746.925781 94.628906 L 748.421875 94.628906 L 748.421875 96.125 L 746.925781 96.125 M 749.917969 94.628906 L 751.414062 94.628906 L 751.414062 96.125 L 749.917969 96.125 M 752.910156 94.628906 L 754.40625 94.628906 L 754.40625 96.125 L 752.910156 96.125 M 755.902344 94.628906 L 757.398438 94.628906 L 757.398438 96.125 L 755.902344 96.125 M 758.894531 94.628906 L 760.390625 94.628906 L 760.390625 96.125 L 758.894531 96.125 M 761.886719 94.628906 L 763.382812 94.628906 L 763.382812 96.125 L 761.886719 96.125 M 764.878906 94.628906 L 766.375 94.628906 L 766.375 96.125 L 764.878906 96.125 M 767.871094 94.628906 L 769.367188 94.628906 L 769.367188 96.125 L 767.871094 96.125 M 770.863281 94.628906 L 772.359375 94.628906 L 772.359375 96.125 L 770.863281 96.125 M 773.855469 94.628906 L 775.351562 94.628906 L 775.351562 96.125 L 773.855469 96.125 M 776.847656 94.628906 L 778.34375 94.628906 L 778.34375 96.125 L 776.847656 96.125 M 779.839844 94.628906 L 781.335938 94.628906 L 781.335938 96.125 L 779.839844 96.125 M 782.832031 94.628906 L 784.328125 94.628906 L 784.328125 96.125 L 782.832031 96.125 M 785.824219 94.628906 L 787.320312 94.628906 L 787.320312 96.125 L 785.824219 96.125 " fill-opacity="1" fill-rule="nonzero"/><path stroke-linecap="round" transform="matrix(0.748037, 0.0000000000156622, -0.0000000000156622, 0.748037, 728.974381, 94.630093)" fill-opacity="1" fill="#89898d" fill-rule="nonzero" stroke-linejoin="round" d="M 79.246825 -2.001614 L 83.24688 1.001038 L 79.246825 3.998468 Z M 79.246825 -2.001614 " stroke="#89898d" stroke-width="2" stroke-opacity="1" stroke-miterlimit="4"/></svg>